<?xml version="1.0"?>
<Project_Data Version="8.00">
<Project_Settings>
<ProfileName></ProfileName>
<ProjectWidth>1280</ProjectWidth>
<ProjectHeight>720</ProjectHeight>
<IsCustomProject>1</IsCustomProject>
<SavedProjectSettings>1</SavedProjectSettings>
<LastFlashTemplate>-1</LastFlashTemplate>
</Project_Settings>


<AutoSaveFile>C:\Users\Administrator\AppData\Local\TechSmith\Camtasia Studio\8.0\Auto-Saves\ScrumWorksPro_Tutorial_20141201_PengLiu_v1.0315e94.autosave.camproj</AutoSaveFile>

<ProjectID>25832C0C-283F-4638-96AD-4B024C2CA571</ProjectID>

<PowerPointProject>0</PowerPointProject>

<PowerPointFilename></PowerPointFilename>


<Project_Notes>
</Project_Notes>

<Project_MetaData>
<Project_MetaData_Object>
<FieldArrayKey>8</FieldArrayKey>
<Value>ScrumWorksPro_Tutorial_20141201_PengLiu_v1.0</Value>
</Project_MetaData_Object>
<Project_MetaData_Object>
<FieldArrayKey>13</FieldArrayKey>
<Value>2014-12-02 10:32:26 PM</Value>
</Project_MetaData_Object>
<Project_MetaData_Object>
<FieldArrayKey>16</FieldArrayKey>
<Value>ENU</Value>
</Project_MetaData_Object>
</Project_MetaData>

<CSMLData>
<GoProject id="1" version="3.0" >
 <Project id="2" editRate="30/1" version="3.0" >
  <Author></Author>
  <Comment></Comment>
  <System></System>
  <SourceBin id="3"  >
    <Source id="4" src="F:\ScrumWorks\0-instroduction.trec" lastMod="20141203T034934" rect="(0,0,1600,900)" >
      <SourceTrack range="(0,919)" type="0" editRate="30/1" trackRect="(0,0,1600,900)" sampleRate="0/1" bitDepth="0" numChannels="0" filename="0-instroduction.trec!Strack0.tsc2" metaData="0-instroduction.trec;" />
      <SourceTrack range="(0,1346560)" type="2" editRate="44100/1" trackRect="(0,0,0,0)" sampleRate="44100/1" bitDepth="16" numChannels="2" filename="0-instroduction.trec!Maudio1.mp4" metaData="" />
    </Source>
    <Source id="5" src="F:\ScrumWorks\1.1.trec" lastMod="20141203T035747" rect="(0,0,1600,900)" >
      <SourceTrack range="(0,350)" type="0" editRate="30/1" trackRect="(0,0,1600,900)" sampleRate="0/1" bitDepth="0" numChannels="0" filename="1.1.trec!Strack0.tsc2" metaData="1.1.trec;" />
      <SourceTrack range="(0,508928)" type="2" editRate="44100/1" trackRect="(0,0,0,0)" sampleRate="44100/1" bitDepth="16" numChannels="2" filename="1.1.trec!Maudio1.mp4" metaData="" />
    </Source>
    <Source id="6" src="F:\ScrumWorks\1.3.trec" lastMod="20141203T051838" rect="(0,0,1600,900)" >
      <SourceTrack range="(0,1792)" type="0" editRate="30/1" trackRect="(0,0,1600,900)" sampleRate="0/1" bitDepth="0" numChannels="0" filename="1.3.trec!Strack0.tsc2" metaData="1.3.trec;" />
      <SourceTrack range="(0,2625536)" type="2" editRate="44100/1" trackRect="(0,0,0,0)" sampleRate="44100/1" bitDepth="16" numChannels="2" filename="1.3.trec!Maudio1.mp4" metaData="" />
    </Source>
    <Source id="7" src="F:\ScrumWorks\1.4.trec" lastMod="20141203T053522" rect="(0,0,1600,900)" >
      <SourceTrack range="(0,599)" type="0" editRate="30/1" trackRect="(0,0,1600,900)" sampleRate="0/1" bitDepth="0" numChannels="0" filename="1.4.trec!Strack0.tsc2" metaData="1.4.trec;" />
      <SourceTrack range="(0,861184)" type="2" editRate="44100/1" trackRect="(0,0,0,0)" sampleRate="44100/1" bitDepth="16" numChannels="2" filename="1.4.trec!Maudio1.mp4" metaData="" />
    </Source>
    <Source id="8" src="F:\ScrumWorks\1.5.trec" lastMod="20141203T053912" rect="(0,0,1600,900)" >
      <SourceTrack range="(0,902)" type="0" editRate="30/1" trackRect="(0,0,1600,900)" sampleRate="0/1" bitDepth="0" numChannels="0" filename="1.5.trec!Strack0.tsc2" metaData="1.5.trec;" />
      <SourceTrack range="(0,1324032)" type="2" editRate="44100/1" trackRect="(0,0,0,0)" sampleRate="44100/1" bitDepth="16" numChannels="2" filename="1.5.trec!Maudio1.mp4" metaData="" />
    </Source>
    <Source id="9" src="F:\ScrumWorks\1.6.trec" lastMod="20141203T055326" rect="(0,0,1600,900)" >
      <SourceTrack range="(0,585)" type="0" editRate="30/1" trackRect="(0,0,1600,900)" sampleRate="0/1" bitDepth="0" numChannels="0" filename="1.6.trec!Strack0.tsc2" metaData="1.6.trec;" />
      <SourceTrack range="(0,861184)" type="2" editRate="44100/1" trackRect="(0,0,0,0)" sampleRate="44100/1" bitDepth="16" numChannels="2" filename="1.6.trec!Maudio1.mp4" metaData="" />
    </Source>
    <Source id="10" src="F:\ScrumWorks\1.7.trec" lastMod="20141203T055825" rect="(0,0,1600,900)" >
      <SourceTrack range="(0,5052)" type="0" editRate="30/1" trackRect="(0,0,1600,900)" sampleRate="0/1" bitDepth="0" numChannels="0" filename="1.7.trec!Strack0.tsc2" metaData="1.7.trec;" />
      <SourceTrack range="(0,7410688)" type="2" editRate="44100/1" trackRect="(0,0,0,0)" sampleRate="44100/1" bitDepth="16" numChannels="2" filename="1.7.trec!Maudio1.mp4" metaData="" />
    </Source>
    <Source id="11" src="F:\ScrumWorks\1.8.trec" lastMod="20141203T152008" rect="(0,0,1600,900)" >
      <SourceTrack range="(0,1358)" type="0" editRate="30/1" trackRect="(0,0,1600,900)" sampleRate="0/1" bitDepth="0" numChannels="0" filename="1.8.trec!Strack0.tsc2" metaData="1.8.trec;" />
      <SourceTrack range="(0,1985536)" type="2" editRate="44100/1" trackRect="(0,0,0,0)" sampleRate="44100/1" bitDepth="16" numChannels="2" filename="1.8.trec!Maudio1.mp4" metaData="" />
    </Source>
    <Source id="12" src="F:\ScrumWorks\1.9.trec" lastMod="20141203T160113" rect="(0,0,1600,900)" >
      <SourceTrack range="(0,9667)" type="0" editRate="30/1" trackRect="(0,0,1600,900)" sampleRate="0/1" bitDepth="0" numChannels="0" filename="1.9.trec!Strack0.tsc2" metaData="1.9.trec;" />
      <SourceTrack range="(0,14223360)" type="2" editRate="44100/1" trackRect="(0,0,0,0)" sampleRate="44100/1" bitDepth="16" numChannels="2" filename="1.9.trec!Maudio1.mp4" metaData="" />
    </Source>
    <Source id="13" src="F:\ScrumWorks\1.10.trec" lastMod="20141203T161915" rect="(0,0,1600,900)" >
      <SourceTrack range="(0,283)" type="0" editRate="30/1" trackRect="(0,0,1600,900)" sampleRate="0/1" bitDepth="0" numChannels="0" filename="1.10.trec!Strack0.tsc2" metaData="1.10.trec;" />
      <SourceTrack range="(0,398336)" type="2" editRate="44100/1" trackRect="(0,0,0,0)" sampleRate="44100/1" bitDepth="16" numChannels="2" filename="1.10.trec!Maudio1.mp4" metaData="" />
    </Source>
    <Source id="14" src="F:\ScrumWorks\2.0.trec" lastMod="20141203T163631" rect="(0,0,1600,900)" >
      <SourceTrack range="(0,270)" type="0" editRate="30/1" trackRect="(0,0,1600,900)" sampleRate="0/1" bitDepth="0" numChannels="0" filename="2.0.trec!Strack0.tsc2" metaData="2.0.trec;" />
      <SourceTrack range="(0,398336)" type="2" editRate="44100/1" trackRect="(0,0,0,0)" sampleRate="44100/1" bitDepth="16" numChannels="2" filename="2.0.trec!Maudio1.mp4" metaData="" />
    </Source>
    <Source id="15" src="F:\ScrumWorks\2.1.trec" lastMod="20141203T163742" rect="(0,0,1600,900)" >
      <SourceTrack range="(0,727)" type="0" editRate="30/1" trackRect="(0,0,1600,900)" sampleRate="0/1" bitDepth="0" numChannels="0" filename="2.1.trec!Strack0.tsc2" metaData="2.1.trec;" />
      <SourceTrack range="(0,1059840)" type="2" editRate="44100/1" trackRect="(0,0,0,0)" sampleRate="44100/1" bitDepth="16" numChannels="2" filename="2.1.trec!Maudio1.mp4" metaData="" />
    </Source>
    <Source id="16" src="F:\ScrumWorks\2.2.trec" lastMod="20141203T164030" rect="(0,0,1600,900)" >
      <SourceTrack range="(0,735)" type="0" editRate="30/1" trackRect="(0,0,1600,900)" sampleRate="0/1" bitDepth="0" numChannels="0" filename="2.2.trec!Strack0.tsc2" metaData="2.2.trec;" />
      <SourceTrack range="(0,1082368)" type="2" editRate="44100/1" trackRect="(0,0,0,0)" sampleRate="44100/1" bitDepth="16" numChannels="2" filename="2.2.trec!Maudio1.mp4" metaData="" />
    </Source>
    <Source id="17" src="F:\ScrumWorks\2.3.trec" lastMod="20141203T164212" rect="(0,0,1600,900)" >
      <SourceTrack range="(0,653)" type="0" editRate="30/1" trackRect="(0,0,1600,900)" sampleRate="0/1" bitDepth="0" numChannels="0" filename="2.3.trec!Strack0.tsc2" metaData="2.3.trec;" />
      <SourceTrack range="(0,949248)" type="2" editRate="44100/1" trackRect="(0,0,0,0)" sampleRate="44100/1" bitDepth="16" numChannels="2" filename="2.3.trec!Maudio1.mp4" metaData="" />
    </Source>
    <Source id="18" src="F:\ScrumWorks\2.4.trec" lastMod="20141203T164447" rect="(0,0,1600,900)" >
      <SourceTrack range="(0,1090)" type="0" editRate="30/1" trackRect="(0,0,1600,900)" sampleRate="0/1" bitDepth="0" numChannels="0" filename="2.4.trec!Strack0.tsc2" metaData="2.4.trec;" />
      <SourceTrack range="(0,1589248)" type="2" editRate="44100/1" trackRect="(0,0,0,0)" sampleRate="44100/1" bitDepth="16" numChannels="2" filename="2.4.trec!Maudio1.mp4" metaData="" />
    </Source>
    <Source id="19" src="F:\ScrumWorks\2.5.trec" lastMod="20141203T165926" rect="(0,0,1600,900)" >
      <SourceTrack range="(0,3083)" type="0" editRate="30/1" trackRect="(0,0,1600,900)" sampleRate="0/1" bitDepth="0" numChannels="0" filename="2.5.trec!Strack0.tsc2" metaData="2.5.trec;" />
      <SourceTrack range="(0,4521984)" type="2" editRate="44100/1" trackRect="(0,0,0,0)" sampleRate="44100/1" bitDepth="16" numChannels="2" filename="2.5.trec!Maudio1.mp4" metaData="" />
    </Source>
    <Source id="20" src="F:\ScrumWorks\2.6.trec" lastMod="20141203T170554" rect="(0,0,1600,900)" >
      <SourceTrack range="(0,7698)" type="0" editRate="30/1" trackRect="(0,0,1600,900)" sampleRate="0/1" bitDepth="0" numChannels="0" filename="2.6.trec!Strack0.tsc2" metaData="2.6.trec;" />
      <SourceTrack range="(0,11313152)" type="2" editRate="44100/1" trackRect="(0,0,0,0)" sampleRate="44100/1" bitDepth="16" numChannels="2" filename="2.6.trec!Maudio1.mp4" metaData="" />
    </Source>
    <Source id="21" src="F:\ScrumWorks\2.7.trec" lastMod="20141203T172939" rect="(0,0,1600,900)" >
      <SourceTrack range="(0,5585)" type="0" editRate="30/1" trackRect="(0,0,1600,900)" sampleRate="0/1" bitDepth="0" numChannels="0" filename="2.7.trec!Strack0.tsc2" metaData="2.7.trec;" />
      <SourceTrack range="(0,8204288)" type="2" editRate="44100/1" trackRect="(0,0,0,0)" sampleRate="44100/1" bitDepth="16" numChannels="2" filename="2.7.trec!Maudio1.mp4" metaData="" />
    </Source>
    <Source id="22" src="F:\ScrumWorks\2.8.trec" lastMod="20141203T174015" rect="(0,0,1600,900)" >
      <SourceTrack range="(0,5564)" type="0" editRate="30/1" trackRect="(0,0,1600,900)" sampleRate="0/1" bitDepth="0" numChannels="0" filename="2.8.trec!Strack0.tsc2" metaData="2.8.trec;" />
      <SourceTrack range="(0,8181760)" type="2" editRate="44100/1" trackRect="(0,0,0,0)" sampleRate="44100/1" bitDepth="16" numChannels="2" filename="2.8.trec!Maudio1.mp4" metaData="" />
    </Source>
    <Source id="23" src="F:\ScrumWorks\2.9.trec" lastMod="20141203T175204" rect="(0,0,1600,900)" >
      <SourceTrack range="(0,3479)" type="0" editRate="30/1" trackRect="(0,0,1600,900)" sampleRate="0/1" bitDepth="0" numChannels="0" filename="2.9.trec!Strack0.tsc2" metaData="2.9.trec;" />
      <SourceTrack range="(0,5116928)" type="2" editRate="44100/1" trackRect="(0,0,0,0)" sampleRate="44100/1" bitDepth="16" numChannels="2" filename="2.9.trec!Maudio1.mp4" metaData="" />
    </Source>
    <Source id="24" src="F:\ScrumWorks\2.10.trec" lastMod="20141203T175903" rect="(0,0,1600,900)" >
      <SourceTrack range="(0,3589)" type="0" editRate="30/1" trackRect="(0,0,1600,900)" sampleRate="0/1" bitDepth="0" numChannels="0" filename="2.10.trec!Strack0.tsc2" metaData="2.10.trec;" />
      <SourceTrack range="(0,5271552)" type="2" editRate="44100/1" trackRect="(0,0,0,0)" sampleRate="44100/1" bitDepth="16" numChannels="2" filename="2.10.trec!Maudio1.mp4" metaData="" />
    </Source>
    <Source id="25" src="F:\ScrumWorks\2.11.trec" lastMod="20141203T180822" rect="(0,0,1600,900)" >
      <SourceTrack range="(0,7272)" type="0" editRate="30/1" trackRect="(0,0,1600,900)" sampleRate="0/1" bitDepth="0" numChannels="0" filename="2.11.trec!Strack0.tsc2" metaData="2.11.trec;" />
      <SourceTrack range="(0,10695680)" type="2" editRate="44100/1" trackRect="(0,0,0,0)" sampleRate="44100/1" bitDepth="16" numChannels="2" filename="2.11.trec!Maudio1.mp4" metaData="" />
    </Source>
    <Source id="26" src="F:\ScrumWorks\2.12.trec" lastMod="20141203T182307" rect="(0,0,1600,900)" >
      <SourceTrack range="(0,3355)" type="0" editRate="30/1" trackRect="(0,0,1600,900)" sampleRate="0/1" bitDepth="0" numChannels="0" filename="2.12.trec!Strack0.tsc2" metaData="2.12.trec;" />
      <SourceTrack range="(0,4918272)" type="2" editRate="44100/1" trackRect="(0,0,0,0)" sampleRate="44100/1" bitDepth="16" numChannels="2" filename="2.12.trec!Maudio1.mp4" metaData="" />
    </Source>
    <Source id="27" src="F:\ScrumWorks\2.13.trec" lastMod="20141203T184250" rect="(0,0,1600,900)" >
      <SourceTrack range="(0,7319)" type="0" editRate="30/1" trackRect="(0,0,1600,900)" sampleRate="0/1" bitDepth="0" numChannels="0" filename="2.13.trec!Strack0.tsc2" metaData="2.13.trec;" />
      <SourceTrack range="(0,10762240)" type="2" editRate="44100/1" trackRect="(0,0,0,0)" sampleRate="44100/1" bitDepth="16" numChannels="2" filename="2.13.trec!Maudio1.mp4" metaData="" />
    </Source>
    <Source id="28" src="F:\ScrumWorks\2.14.trec" lastMod="20141203T184812" rect="(0,0,1600,900)" >
      <SourceTrack range="(0,322)" type="0" editRate="30/1" trackRect="(0,0,1600,900)" sampleRate="0/1" bitDepth="0" numChannels="0" filename="2.14.trec!Strack0.tsc2" metaData="2.14.trec;" />
      <SourceTrack range="(0,464896)" type="2" editRate="44100/1" trackRect="(0,0,0,0)" sampleRate="44100/1" bitDepth="16" numChannels="2" filename="2.14.trec!Maudio1.mp4" metaData="" />
    </Source>
    <Source id="29" src="F:\ScrumWorks\3.0.trec" lastMod="20141203T190636" rect="(0,0,1600,900)" >
      <SourceTrack range="(0,488)" type="0" editRate="30/1" trackRect="(0,0,1600,900)" sampleRate="0/1" bitDepth="0" numChannels="0" filename="3.0.trec!Strack0.tsc2" metaData="3.0.trec;" />
      <SourceTrack range="(0,707584)" type="2" editRate="44100/1" trackRect="(0,0,0,0)" sampleRate="44100/1" bitDepth="16" numChannels="2" filename="3.0.trec!Maudio1.mp4" metaData="" />
    </Source>
    <Source id="30" src="F:\ScrumWorks\3.1.trec" lastMod="20141203T190838" rect="(0,0,1600,900)" >
      <SourceTrack range="(0,1771)" type="0" editRate="30/1" trackRect="(0,0,1600,900)" sampleRate="0/1" bitDepth="0" numChannels="0" filename="3.1.trec!Strack0.tsc2" metaData="3.1.trec;" />
      <SourceTrack range="(0,2603008)" type="2" editRate="44100/1" trackRect="(0,0,0,0)" sampleRate="44100/1" bitDepth="16" numChannels="2" filename="3.1.trec!Maudio1.mp4" metaData="" />
    </Source>
    <Source id="31" src="F:\ScrumWorks\3.2.trec" lastMod="20141203T192217" rect="(0,0,1600,900)" >
      <SourceTrack range="(0,1294)" type="0" editRate="30/1" trackRect="(0,0,1600,900)" sampleRate="0/1" bitDepth="0" numChannels="0" filename="3.2.trec!Strack0.tsc2" metaData="3.2.trec;" />
      <SourceTrack range="(0,1897472)" type="2" editRate="44100/1" trackRect="(0,0,0,0)" sampleRate="44100/1" bitDepth="16" numChannels="2" filename="3.2.trec!Maudio1.mp4" metaData="" />
    </Source>
    <Source id="32" src="F:\ScrumWorks\3.3.trec" lastMod="20141203T192940" rect="(0,0,1600,900)" >
      <SourceTrack range="(0,4732)" type="0" editRate="30/1" trackRect="(0,0,1600,900)" sampleRate="0/1" bitDepth="0" numChannels="0" filename="3.3.trec!Strack0.tsc2" metaData="3.3.trec;" />
      <SourceTrack range="(0,6946816)" type="2" editRate="44100/1" trackRect="(0,0,0,0)" sampleRate="44100/1" bitDepth="16" numChannels="2" filename="3.3.trec!Maudio1.mp4" metaData="" />
    </Source>
    <Source id="33" src="F:\ScrumWorks\3.4.trec" lastMod="20141203T193027" rect="(0,0,1600,900)" >
      <SourceTrack range="(0,320)" type="0" editRate="30/1" trackRect="(0,0,1600,900)" sampleRate="0/1" bitDepth="0" numChannels="0" filename="3.4.trec!Strack0.tsc2" metaData="3.4.trec;" />
      <SourceTrack range="(0,464896)" type="2" editRate="44100/1" trackRect="(0,0,0,0)" sampleRate="44100/1" bitDepth="16" numChannels="2" filename="3.4.trec!Maudio1.mp4" metaData="" />
    </Source>
    <Source id="34" src="F:\ScrumWorks\4-0.trec" lastMod="20141203T194008" rect="(0,0,1600,900)" >
      <SourceTrack range="(0,5457)" type="0" editRate="30/1" trackRect="(0,0,1600,900)" sampleRate="0/1" bitDepth="0" numChannels="0" filename="4-0.trec!Strack0.tsc2" metaData="4-0.trec;" />
      <SourceTrack range="(0,8028160)" type="2" editRate="44100/1" trackRect="(0,0,0,0)" sampleRate="44100/1" bitDepth="16" numChannels="2" filename="4-0.trec!Maudio1.mp4" metaData="" />
    </Source>
    <Source id="35" src="F:\ScrumWorks\4-1.trec" lastMod="20141203T201245" rect="(0,0,1600,900)" >
      <SourceTrack range="(0,10488)" type="0" editRate="30/1" trackRect="(0,0,1600,900)" sampleRate="0/1" bitDepth="0" numChannels="0" filename="4-1.trec!Strack0.tsc2" metaData="4-1.trec;" />
      <SourceTrack range="(0,15414272)" type="2" editRate="44100/1" trackRect="(0,0,0,0)" sampleRate="44100/1" bitDepth="16" numChannels="2" filename="4-1.trec!Maudio1.mp4" metaData="" />
    </Source>
    <Source id="36" src="F:\ScrumWorks\4-2.trec" lastMod="20141203T201515" rect="(0,0,1600,900)" >
      <SourceTrack range="(0,207)" type="0" editRate="30/1" trackRect="(0,0,1600,900)" sampleRate="0/1" bitDepth="0" numChannels="0" filename="4-2.trec!Strack0.tsc2" metaData="4-2.trec;" />
      <SourceTrack range="(0,287744)" type="2" editRate="44100/1" trackRect="(0,0,0,0)" sampleRate="44100/1" bitDepth="16" numChannels="2" filename="4-2.trec!Maudio1.mp4" metaData="" />
    </Source>
    <Source id="37" src="F:\ScrumWorks\5-0.trec" lastMod="20141203T201756" rect="(0,0,1600,900)" >
      <SourceTrack range="(0,3119)" type="0" editRate="30/1" trackRect="(0,0,1600,900)" sampleRate="0/1" bitDepth="0" numChannels="0" filename="5-0.trec!Strack0.tsc2" metaData="5-0.trec;" />
      <SourceTrack range="(0,4587520)" type="2" editRate="44100/1" trackRect="(0,0,0,0)" sampleRate="44100/1" bitDepth="16" numChannels="2" filename="5-0.trec!Maudio1.mp4" metaData="" />
    </Source>
    <Source id="38" src="F:\ScrumWorks\5-1.trec" lastMod="20141203T202547" rect="(0,0,1600,900)" >
      <SourceTrack range="(0,2338)" type="0" editRate="30/1" trackRect="(0,0,1600,900)" sampleRate="0/1" bitDepth="0" numChannels="0" filename="5-1.trec!Strack0.tsc2" metaData="5-1.trec;" />
      <SourceTrack range="(0,3441664)" type="2" editRate="44100/1" trackRect="(0,0,0,0)" sampleRate="44100/1" bitDepth="16" numChannels="2" filename="5-1.trec!Maudio1.mp4" metaData="" />
    </Source>
    <Source id="39" src="F:\ScrumWorks\5-2.trec" lastMod="20141203T202918" rect="(0,0,1600,900)" >
      <SourceTrack range="(0,3516)" type="0" editRate="30/1" trackRect="(0,0,1600,900)" sampleRate="0/1" bitDepth="0" numChannels="0" filename="5-2.trec!Strack0.tsc2" metaData="5-2.trec;" />
      <SourceTrack range="(0,5160960)" type="2" editRate="44100/1" trackRect="(0,0,0,0)" sampleRate="44100/1" bitDepth="16" numChannels="2" filename="5-2.trec!Maudio1.mp4" metaData="" />
    </Source>
    <Source id="40" src="F:\ScrumWorks\5-3.trec" lastMod="20141203T203204" rect="(0,0,1600,900)" >
      <SourceTrack range="(0,3118)" type="0" editRate="30/1" trackRect="(0,0,1600,900)" sampleRate="0/1" bitDepth="0" numChannels="0" filename="5-3.trec!Strack0.tsc2" metaData="5-3.trec;" />
      <SourceTrack range="(0,4587520)" type="2" editRate="44100/1" trackRect="(0,0,0,0)" sampleRate="44100/1" bitDepth="16" numChannels="2" filename="5-3.trec!Maudio1.mp4" metaData="" />
    </Source>
  </SourceBin>
  <Timeline id="41"  >
   <Attributes>
    <Attribute id="42" value="1280" name="width"/>
    <Attribute id="43" value="720" name="height"/>
    <Attribute id="44" value="(0,0,0,255)" name="backgroundColor"/>
   </Attributes>
    <GenericMixer id="45"  name="Unified Mixer">
     <MetaData>
      <entry key="MixerType" val="TimelineMixer"/>
     </MetaData>
     <Tracks>
      <GenericTrack id="46"  >
       <Attributes>
        <Attribute id="47" value="" name="ident"/>
        <Attribute id="48" value="0" name="audioMuted"/>
        <Attribute id="49" value="0" name="videoHidden"/>
       </Attributes>
       <MetaData>
        <entry key="IsLocked" val="False"/>
        <entry key="WinTrackHeight" val="62"/>
       </MetaData>
       <Medias>
        <StitchedMedia id="50" start="0" duration="3" scalar="1/1" mediaStart="0/1" mediaDuration="3/1" minMediaStart="0/1" >
         <Transformer>
          <VectorParam id="51"  name="translation">
           <InterpolatingParam id="52" interp="linr"  time="-9999999/1" value="0" leadInLength="0/1"  interpolater="leadin-linr"  />
           <InterpolatingParam id="53" interp="linr"  time="-9999999/1" value="0" leadInLength="0/1"  interpolater="leadin-linr"  />
           <InterpolatingParam id="54" interp="linr"  time="-9999999/1" value="0" leadInLength="0/1"  interpolater="leadin-linr"  />
          </VectorParam>
          <VectorParam id="55"  name="rotation">
           <InterpolatingParam id="56" interp="linr"  time="-9999999/1" value="0" leadInLength="0/1"  interpolater="leadin-linr"  />
           <InterpolatingParam id="57" interp="linr"  time="-9999999/1" value="0" leadInLength="0/1"  interpolater="leadin-linr"  />
           <InterpolatingParam id="58" interp="linr"  time="-9999999/1" value="0" leadInLength="0/1"  interpolater="leadin-linr"  />
          </VectorParam>
          <VectorParam id="59"  name="shear">
           <InterpolatingParam id="60" interp="linr"  time="-9999999/1" value="0" leadInLength="0/1"  interpolater="leadin-linr"  />
           <InterpolatingParam id="61" interp="linr"  time="-9999999/1" value="0" leadInLength="0/1"  interpolater="leadin-linr"  />
           <InterpolatingParam id="62" interp="linr"  time="-9999999/1" value="0" leadInLength="0/1"  interpolater="leadin-linr"  />
          </VectorParam>
          <VectorParam id="63"  name="scale">
           <InterpolatingParam id="64" interp="linr"  time="-9999999/1" value="0.80000000000000004" leadInLength="0/1"  interpolater="leadin-linr"  />
           <InterpolatingParam id="65" interp="linr"  time="-9999999/1" value="0.80000000000000004" leadInLength="0/1"  interpolater="leadin-linr"  />
           <InterpolatingParam id="66" interp="linr"  time="-9999999/1" value="1" leadInLength="0/1"  interpolater="leadin-linr"  />
          </VectorParam>
          <VectorParam id="67"  name="anchor">
           <InterpolatingParam id="68" interp="linr"  time="0/1" value="0" leadInLength="0/1"  />
           <InterpolatingParam id="69" interp="linr"  time="0/1" value="0" leadInLength="0/1"  />
           <InterpolatingParam id="70" interp="linr"  time="0/1" value="0" leadInLength="0/1"  />
          </VectorParam>
         </Transformer>
         <Parameters>
          <VectorParam id="71"  name="sourceCrop">
           <InterpolatingParam id="72" interp="linr"  time="0/1" value="0" leadInLength="0/1"  />
           <InterpolatingParam id="73" interp="linr"  time="0/1" value="0" leadInLength="0/1"  />
           <InterpolatingParam id="74" interp="linr"  time="0/1" value="0" leadInLength="0/1"  />
           <InterpolatingParam id="75" interp="linr"  time="0/1" value="0" leadInLength="0/1"  />
          </VectorParam>
          <VectorParam id="76"  name="geometryCrop">
           <InterpolatingParam id="77" interp="linr"  time="-9999999/1" value="0" leadInLength="0/1"  interpolater="leadin-linr"  />
           <InterpolatingParam id="78" interp="linr"  time="-9999999/1" value="0" leadInLength="0/1"  interpolater="leadin-linr"  />
           <InterpolatingParam id="79" interp="linr"  time="-9999999/1" value="0" leadInLength="0/1"  interpolater="leadin-linr"  />
           <InterpolatingParam id="80" interp="linr"  time="-9999999/1" value="0" leadInLength="0/1"  interpolater="leadin-linr"  />
          </VectorParam>
          <InterpolatingParam id="81" interp="linr"  time="-9999999/1" value="1" leadInLength="0/1"  interpolater="leadin-linr"  name="opacity"/>
          <InterpolatingParam id="82" interp="linr"  time="0/1" value="1" leadInLength="0/1"  name="cursorOpacity"/>
          <InterpolatingParam id="83" interp="linr"  time="0/1" value="1" leadInLength="0/1"  name="cursorScale"/>
          <InterpolatingParam id="84" interp="linr"  time="0/1" value="1" leadInLength="0/1"  name="volume"/>
          <Parameter id="85"  name="captions"/>
         </Parameters>
         <Effects>
          <GenericEffect id="86" name = "CursorBaseEffectName" >
           <Parameters>
           <InterpolatingParam id="87" interp="linr"  time="-9999999/1" value="1" leadInLength="0/1"   name="cursorSize"/>
           <InterpolatingParam id="88" interp="linr"  time="-9999999/1" value="0" leadInLength="0/1"   name="highlightBlurRadius"/>
           <InterpolatingParam id="89" interp="linr"  time="-9999999/1" value="0" leadInLength="0/1"   name="highlightColorBlue"/>
           <InterpolatingParam id="90" interp="linr"  time="-9999999/1" value="255" leadInLength="0/1"   name="highlightColorGreen"/>
           <InterpolatingParam id="91" interp="linr"  time="-9999999/1" value="255" leadInLength="0/1"   name="highlightColorRed"/>
           <InterpolatingParam id="92" interp="linr"  time="-9999999/1" value="5" leadInLength="0/1"   name="highlightFeatherSize"/>
           <InterpolatingParam id="93" interp="linr"  time="-9999999/1" value="2" leadInLength="0/1"   name="highlightMagnification"/>
           <InterpolatingParam id="94" interp="linr"  time="-9999999/1" value="1" leadInLength="0/1"   name="highlightOpacity"/>
           <InterpolatingParam id="95" interp="linr"  time="-9999999/1" value="45" leadInLength="0/1"   name="highlightSize"/>
           <Parameter id="96"   name="highlightType">
            <Keyframes>
            <Keyframe id="97"  time="-9999999/1" value="0" leadInLength="0/1"  />
            </Keyframes>
           </Parameter>
           <InterpolatingParam id="98" interp="linr"  time="-9999999/1" value="0" leadInLength="0/1"   name="leftClickColorBlue"/>
           <InterpolatingParam id="99" interp="linr"  time="-9999999/1" value="0" leadInLength="0/1"   name="leftClickColorGreen"/>
           <InterpolatingParam id="100" interp="linr"  time="-9999999/1" value="255" leadInLength="0/1"   name="leftClickColorRed"/>
           <InterpolatingParam id="101" interp="linr"  time="-9999999/1" value="0.80000000000000004" leadInLength="0/1"   name="leftClickDuration"/>
           <InterpolatingParam id="102" interp="linr"  time="-9999999/1" value="20" leadInLength="0/1"   name="leftClickSize"/>
           <Parameter id="103"   name="leftClickSoundFilename">
            <Keyframes>
            <Keyframe id="104"  time="-9999999/1" value="" leadInLength="0/1"  />
            </Keyframes>
           </Parameter>
           <InterpolatingParam id="105" interp="linr"  time="-9999999/1" value="1" leadInLength="0/1"   name="leftClickSoundVolume"/>
           <Parameter id="106"   name="leftClickType">
            <Keyframes>
            <Keyframe id="107"  time="-9999999/1" value="0" leadInLength="0/1"  />
            </Keyframes>
           </Parameter>
           <InterpolatingParam id="108" interp="linr"  time="-9999999/1" value="1" leadInLength="0/1"   name="opacity"/>
           <InterpolatingParam id="109" interp="linr"  time="-9999999/1" value="255" leadInLength="0/1"   name="rightClickColorBlue"/>
           <InterpolatingParam id="110" interp="linr"  time="-9999999/1" value="0" leadInLength="0/1"   name="rightClickColorGreen"/>
           <InterpolatingParam id="111" interp="linr"  time="-9999999/1" value="0" leadInLength="0/1"   name="rightClickColorRed"/>
           <InterpolatingParam id="112" interp="linr"  time="-9999999/1" value="0.80000000000000004" leadInLength="0/1"   name="rightClickDuration"/>
           <InterpolatingParam id="113" interp="linr"  time="-9999999/1" value="20" leadInLength="0/1"   name="rightClickSize"/>
           <Parameter id="114"   name="rightClickSoundFilename">
            <Keyframes>
            <Keyframe id="115"  time="-9999999/1" value="" leadInLength="0/1"  />
            </Keyframes>
           </Parameter>
           <InterpolatingParam id="116" interp="linr"  time="-9999999/1" value="1" leadInLength="0/1"   name="rightClickSoundVolume"/>
           <Parameter id="117"   name="rightClickType">
            <Keyframes>
            <Keyframe id="118"  time="-9999999/1" value="0" leadInLength="0/1"  />
            </Keyframes>
           </Parameter>
           </Parameters>
           <MetaData>
            <entry key="effectIndex" val="0"/>
           </MetaData>
          </GenericEffect>
         </Effects>
         <Attributes>
          <Attribute id="119" value="" name="ident"/>
          <Attribute id="120" value="0" name="mixToMono"/>
         </Attributes>
         <MetaData>
          <entry key="AutoAppliedSmartFocus" val="False"/>
          <entry key="WinSubProjectDisplayName" val=""/>
         </MetaData>
         <ExtraData>
          <Entry key="ZoomPanBin">
           <ZoomPanBin id="121"  >
            <ZoomPanKeyframes>
             <ZoomPanKeyframe id="122" timeRangeEnd="-9999999/1" timeRangeDuration="0/1" interpolaterName="linr"  />
            </ZoomPanKeyframes>
           </ZoomPanBin>
          </Entry>
          <Entry key="CursorEffectBin">
           <CursorEffectBin id="123"  >
            <CursorEffectKeyframes>
             <CursorEffectKeyframe id="124" timeRangeEnd="-9999999/1" timeRangeDuration="0/1" interpolaterName=""  />
            </CursorEffectKeyframes>
           </CursorEffectBin>
          </Entry>
         </ExtraData>
         <GenericTrack id="125"  >
          <Attributes>
           <Attribute id="126" value="" name="ident"/>
           <Attribute id="127" value="0" name="audioMuted"/>
           <Attribute id="128" value="0" name="videoHidden"/>
          </Attributes>
          <MetaData>
           <entry key="IsLocked" val="False"/>
           <entry key="WinTrackHeight" val="0"/>
          </MetaData>
          <Medias>
           <UnifiedMedia id="129"  >
            <AMFile id="130" start="0" duration="302" scalar="1/1" mediaStart="0/1" mediaDuration="302/1" trackNumber="1" src="4" channelNumber="0,1" >
             <Parameters>
              <InterpolatingParam id="131" interp="linr"  time="0/1" value="1" leadInLength="0/1"  name="volume"/>
              <Parameter id="132"  name="captions"/>
             </Parameters>
             <Attributes>
              <Attribute id="133" value="" name="ident"/>
              <Attribute id="134" value="44100" name="sampleRate"/>
              <Attribute id="135" value="16" name="bitDepth"/>
              <Attribute id="136" value="1" name="gain"/>
              <Attribute id="137" value="0" name="mixToMono"/>
             </Attributes>
            </AMFile>
            <ScreenVMFile id="138" start="0" duration="302" scalar="1/1" mediaStart="0/1" mediaDuration="302/1" trackNumber="0" src="4" >
             <Transformer>
              <VectorParam id="139"  name="translation">
               <InterpolatingParam id="140" interp="linr"  time="-9999999/1" value="0" leadInLength="0/1"  />
               <InterpolatingParam id="141" interp="linr"  time="-9999999/1" value="0" leadInLength="0/1"  />
               <InterpolatingParam id="142" interp="linr"  time="-9999999/1" value="0" leadInLength="0/1"  />
              </VectorParam>
              <VectorParam id="143"  name="rotation">
               <InterpolatingParam id="144" interp="linr"  time="-9999999/1" value="0" leadInLength="0/1"  />
               <InterpolatingParam id="145" interp="linr"  time="-9999999/1" value="0" leadInLength="0/1"  />
               <InterpolatingParam id="146" interp="linr"  time="-9999999/1" value="0" leadInLength="0/1"  />
              </VectorParam>
              <VectorParam id="147"  name="shear">
               <InterpolatingParam id="148" interp="linr"  time="-9999999/1" value="0" leadInLength="0/1"  />
               <InterpolatingParam id="149" interp="linr"  time="-9999999/1" value="0" leadInLength="0/1"  />
               <InterpolatingParam id="150" interp="linr"  time="-9999999/1" value="0" leadInLength="0/1"  />
              </VectorParam>
              <VectorParam id="151"  name="scale">
               <InterpolatingParam id="152" interp="linr"  time="-9999999/1" value="1" leadInLength="0/1"  />
               <InterpolatingParam id="153" interp="linr"  time="-9999999/1" value="1" leadInLength="0/1"  />
               <InterpolatingParam id="154" interp="linr"  time="-9999999/1" value="1" leadInLength="0/1"  />
              </VectorParam>
              <VectorParam id="155"  name="anchor">
               <InterpolatingParam id="156" interp="linr"  time="0/1" value="0" leadInLength="0/1"  />
               <InterpolatingParam id="157" interp="linr"  time="0/1" value="0" leadInLength="0/1"  />
               <InterpolatingParam id="158" interp="linr"  time="0/1" value="0" leadInLength="0/1"  />
              </VectorParam>
             </Transformer>
             <Parameters>
              <VectorParam id="159"  name="sourceCrop">
               <InterpolatingParam id="160" interp="linr"  time="0/1" value="0" leadInLength="0/1"  />
               <InterpolatingParam id="161" interp="linr"  time="0/1" value="0" leadInLength="0/1"  />
               <InterpolatingParam id="162" interp="linr"  time="0/1" value="0" leadInLength="0/1"  />
               <InterpolatingParam id="163" interp="linr"  time="0/1" value="0" leadInLength="0/1"  />
              </VectorParam>
              <VectorParam id="164"  name="geometryCrop">
               <InterpolatingParam id="165" interp="linr"  time="-9999999/1" value="0" leadInLength="0/1"  />
               <InterpolatingParam id="166" interp="linr"  time="-9999999/1" value="0" leadInLength="0/1"  />
               <InterpolatingParam id="167" interp="linr"  time="-9999999/1" value="0" leadInLength="0/1"  />
               <InterpolatingParam id="168" interp="linr"  time="-9999999/1" value="0" leadInLength="0/1"  />
              </VectorParam>
              <InterpolatingParam id="169" interp="linr"  time="-9999999/1" value="1" leadInLength="0/1"  name="opacity"/>
              <InterpolatingParam id="170" interp="linr"  time="0/1" value="0" leadInLength="0/1"  name="cursorOpacity"/>
              <InterpolatingParam id="171" interp="linr"  time="0/1" value="0" leadInLength="0/1"  name="cursorScale"/>
             </Parameters>
             <Attributes>
              <Attribute id="172" value="" name="ident"/>
             </Attributes>
             <ExtraData>
              <Entry key="ZoomPanBin">
               <ZoomPanBin id="173"  >
                <ZoomPanKeyframes>
                 <ZoomPanKeyframe id="174" timeRangeEnd="-9999999/1" timeRangeDuration="0/1" interpolaterName="linr"  />
                </ZoomPanKeyframes>
               </ZoomPanBin>
              </Entry>
              <Entry key="CursorEffectBin">
               <CursorEffectBin id="175"  >
                <CursorEffectKeyframes>
                </CursorEffectKeyframes>
               </CursorEffectBin>
              </Entry>
             </ExtraData>
            </ScreenVMFile>
            <MetaData>
             <entry key="AutoAppliedSmartFocus" val="False"/>
             <entry key="WinSubProjectDisplayName" val=""/>
            </MetaData>
           </UnifiedMedia>
           <UnifiedMedia id="176"  >
            <AMFile id="177" start="302" duration="532" scalar="1/1" mediaStart="384/1" mediaDuration="532/1" trackNumber="1" src="4" channelNumber="0,1" >
             <Parameters>
              <InterpolatingParam id="178" interp="linr"  time="0/1" value="1" leadInLength="0/1"  name="volume"/>
              <Parameter id="179"  name="captions"/>
             </Parameters>
             <Attributes>
              <Attribute id="180" value="" name="ident"/>
              <Attribute id="181" value="44100" name="sampleRate"/>
              <Attribute id="182" value="16" name="bitDepth"/>
              <Attribute id="183" value="1" name="gain"/>
              <Attribute id="184" value="0" name="mixToMono"/>
             </Attributes>
            </AMFile>
            <ScreenVMFile id="185" start="302" duration="532" scalar="1/1" mediaStart="384/1" mediaDuration="532/1" trackNumber="0" src="4" >
             <Transformer>
              <VectorParam id="186"  name="translation">
               <InterpolatingParam id="187" interp="linr"  time="-9999999/1" value="0" leadInLength="0/1"  />
               <InterpolatingParam id="188" interp="linr"  time="-9999999/1" value="0" leadInLength="0/1"  />
               <InterpolatingParam id="189" interp="linr"  time="-9999999/1" value="0" leadInLength="0/1"  />
              </VectorParam>
              <VectorParam id="190"  name="rotation">
               <InterpolatingParam id="191" interp="linr"  time="-9999999/1" value="0" leadInLength="0/1"  />
               <InterpolatingParam id="192" interp="linr"  time="-9999999/1" value="0" leadInLength="0/1"  />
               <InterpolatingParam id="193" interp="linr"  time="-9999999/1" value="0" leadInLength="0/1"  />
              </VectorParam>
              <VectorParam id="194"  name="shear">
               <InterpolatingParam id="195" interp="linr"  time="-9999999/1" value="0" leadInLength="0/1"  />
               <InterpolatingParam id="196" interp="linr"  time="-9999999/1" value="0" leadInLength="0/1"  />
               <InterpolatingParam id="197" interp="linr"  time="-9999999/1" value="0" leadInLength="0/1"  />
              </VectorParam>
              <VectorParam id="198"  name="scale">
               <InterpolatingParam id="199" interp="linr"  time="-9999999/1" value="1" leadInLength="0/1"  />
               <InterpolatingParam id="200" interp="linr"  time="-9999999/1" value="1" leadInLength="0/1"  />
               <InterpolatingParam id="201" interp="linr"  time="-9999999/1" value="1" leadInLength="0/1"  />
              </VectorParam>
              <VectorParam id="202"  name="anchor">
               <InterpolatingParam id="203" interp="linr"  time="0/1" value="0" leadInLength="0/1"  />
               <InterpolatingParam id="204" interp="linr"  time="0/1" value="0" leadInLength="0/1"  />
               <InterpolatingParam id="205" interp="linr"  time="0/1" value="0" leadInLength="0/1"  />
              </VectorParam>
             </Transformer>
             <Parameters>
              <VectorParam id="206"  name="sourceCrop">
               <InterpolatingParam id="207" interp="linr"  time="0/1" value="0" leadInLength="0/1"  />
               <InterpolatingParam id="208" interp="linr"  time="0/1" value="0" leadInLength="0/1"  />
               <InterpolatingParam id="209" interp="linr"  time="0/1" value="0" leadInLength="0/1"  />
               <InterpolatingParam id="210" interp="linr"  time="0/1" value="0" leadInLength="0/1"  />
              </VectorParam>
              <VectorParam id="211"  name="geometryCrop">
               <InterpolatingParam id="212" interp="linr"  time="-9999999/1" value="0" leadInLength="0/1"  />
               <InterpolatingParam id="213" interp="linr"  time="-9999999/1" value="0" leadInLength="0/1"  />
               <InterpolatingParam id="214" interp="linr"  time="-9999999/1" value="0" leadInLength="0/1"  />
               <InterpolatingParam id="215" interp="linr"  time="-9999999/1" value="0" leadInLength="0/1"  />
              </VectorParam>
              <InterpolatingParam id="216" interp="linr"  time="-9999999/1" value="1" leadInLength="0/1"  name="opacity"/>
              <InterpolatingParam id="217" interp="linr"  time="0/1" value="0" leadInLength="0/1"  name="cursorOpacity"/>
              <InterpolatingParam id="218" interp="linr"  time="0/1" value="0" leadInLength="0/1"  name="cursorScale"/>
             </Parameters>
             <Attributes>
              <Attribute id="219" value="" name="ident"/>
             </Attributes>
             <ExtraData>
              <Entry key="ZoomPanBin">
               <ZoomPanBin id="220"  >
                <ZoomPanKeyframes>
                 <ZoomPanKeyframe id="221" timeRangeEnd="-9999999/1" timeRangeDuration="0/1" interpolaterName="linr"  />
                </ZoomPanKeyframes>
               </ZoomPanBin>
              </Entry>
              <Entry key="CursorEffectBin">
               <CursorEffectBin id="222"  >
                <CursorEffectKeyframes>
                </CursorEffectKeyframes>
               </CursorEffectBin>
              </Entry>
             </ExtraData>
            </ScreenVMFile>
            <MetaData>
             <entry key="AutoAppliedSmartFocus" val="False"/>
             <entry key="WinSubProjectDisplayName" val=""/>
            </MetaData>
           </UnifiedMedia>
          </Medias>
         </GenericTrack>
        </StitchedMedia>
        <UnifiedMedia id="223"  >
         <AMFile id="224" start="3" duration="916" scalar="1/1" mediaStart="0/1" mediaDuration="916/1" trackNumber="1" src="4" channelNumber="0,1" >
          <Parameters>
           <InterpolatingParam id="225" interp="linr"  time="0/1" value="1" leadInLength="0/1"  name="volume"/>
           <Parameter id="226"  name="captions"/>
          </Parameters>
          <Attributes>
           <Attribute id="227" value="" name="ident"/>
           <Attribute id="228" value="44100" name="sampleRate"/>
           <Attribute id="229" value="16" name="bitDepth"/>
           <Attribute id="230" value="1" name="gain"/>
           <Attribute id="231" value="0" name="mixToMono"/>
          </Attributes>
         </AMFile>
         <ScreenVMFile id="232" start="3" duration="916" scalar="1/1" mediaStart="0/1" mediaDuration="916/1" trackNumber="0" src="4" >
          <Transformer>
           <VectorParam id="233"  name="translation">
            <InterpolatingParam id="234" interp="linr"  time="-9999999/1" value="6.1151084196353247e-011" leadInLength="0/1"  />
            <InterpolatingParam id="235" interp="linr"  time="-9999999/1" value="-1.8690116121433676e-011" leadInLength="0/1"  />
            <InterpolatingParam id="236" interp="linr"  time="-9999999/1" value="0" leadInLength="0/1"  />
           </VectorParam>
           <VectorParam id="237"  name="rotation">
            <InterpolatingParam id="238" interp="linr"  time="-9999999/1" value="0" leadInLength="0/1"  />
            <InterpolatingParam id="239" interp="linr"  time="-9999999/1" value="0" leadInLength="0/1"  />
            <InterpolatingParam id="240" interp="linr"  time="-9999999/1" value="0" leadInLength="0/1"  />
           </VectorParam>
           <VectorParam id="241"  name="shear">
            <InterpolatingParam id="242" interp="linr"  time="-9999999/1" value="0" leadInLength="0/1"  />
            <InterpolatingParam id="243" interp="linr"  time="-9999999/1" value="0" leadInLength="0/1"  />
            <InterpolatingParam id="244" interp="linr"  time="-9999999/1" value="0" leadInLength="0/1"  />
           </VectorParam>
           <VectorParam id="245"  name="scale">
            <InterpolatingParam id="246" interp="linr"  time="-9999999/1" value="0.80000000000000004" leadInLength="0/1"  />
            <InterpolatingParam id="247" interp="linr"  time="-9999999/1" value="0.80000000000000004" leadInLength="0/1"  />
            <InterpolatingParam id="248" interp="linr"  time="-9999999/1" value="1" leadInLength="0/1"  />
           </VectorParam>
           <VectorParam id="249"  name="anchor">
            <InterpolatingParam id="250" interp="linr"  time="0/1" value="0" leadInLength="0/1"  />
            <InterpolatingParam id="251" interp="linr"  time="0/1" value="0" leadInLength="0/1"  />
            <InterpolatingParam id="252" interp="linr"  time="0/1" value="0" leadInLength="0/1"  />
           </VectorParam>
          </Transformer>
          <Parameters>
           <VectorParam id="253"  name="sourceCrop">
            <InterpolatingParam id="254" interp="linr"  time="0/1" value="0" leadInLength="0/1"  />
            <InterpolatingParam id="255" interp="linr"  time="0/1" value="0" leadInLength="0/1"  />
            <InterpolatingParam id="256" interp="linr"  time="0/1" value="0" leadInLength="0/1"  />
            <InterpolatingParam id="257" interp="linr"  time="0/1" value="0" leadInLength="0/1"  />
           </VectorParam>
           <VectorParam id="258"  name="geometryCrop">
            <InterpolatingParam id="259" interp="linr"  time="-9999999/1" value="0" leadInLength="0/1"  />
            <InterpolatingParam id="260" interp="linr"  time="-9999999/1" value="0" leadInLength="0/1"  />
            <InterpolatingParam id="261" interp="linr"  time="-9999999/1" value="0" leadInLength="0/1"  />
            <InterpolatingParam id="262" interp="linr"  time="-9999999/1" value="0" leadInLength="0/1"  />
           </VectorParam>
           <InterpolatingParam id="263" interp="linr"  time="-9999999/1" value="1" leadInLength="0/1"  name="opacity"/>
           <InterpolatingParam id="264" interp="linr"  time="0/1" value="1" leadInLength="0/1"  name="cursorOpacity"/>
           <InterpolatingParam id="265" interp="linr"  time="0/1" value="1" leadInLength="0/1"  name="cursorScale"/>
          </Parameters>
          <Effects>
           <GenericEffect id="266" name = "CursorBaseEffectName" >
            <Parameters>
            <InterpolatingParam id="267" interp="linr"  time="-9999999/1" value="1" leadInLength="0/1"   name="cursorSize"/>
            <InterpolatingParam id="268" interp="linr"  time="-9999999/1" value="0" leadInLength="0/1"   name="highlightBlurRadius"/>
            <InterpolatingParam id="269" interp="linr"  time="-9999999/1" value="0" leadInLength="0/1"   name="highlightColorBlue"/>
            <InterpolatingParam id="270" interp="linr"  time="-9999999/1" value="255" leadInLength="0/1"   name="highlightColorGreen"/>
            <InterpolatingParam id="271" interp="linr"  time="-9999999/1" value="255" leadInLength="0/1"   name="highlightColorRed"/>
            <InterpolatingParam id="272" interp="linr"  time="-9999999/1" value="5" leadInLength="0/1"   name="highlightFeatherSize"/>
            <InterpolatingParam id="273" interp="linr"  time="-9999999/1" value="2" leadInLength="0/1"   name="highlightMagnification"/>
            <InterpolatingParam id="274" interp="linr"  time="-9999999/1" value="1" leadInLength="0/1"   name="highlightOpacity"/>
            <InterpolatingParam id="275" interp="linr"  time="-9999999/1" value="45" leadInLength="0/1"   name="highlightSize"/>
            <Parameter id="276"   name="highlightType">
             <Keyframes>
             <Keyframe id="277"  time="-9999999/1" value="0" leadInLength="0/1"  />
             </Keyframes>
            </Parameter>
            <InterpolatingParam id="278" interp="linr"  time="-9999999/1" value="0" leadInLength="0/1"   name="leftClickColorBlue"/>
            <InterpolatingParam id="279" interp="linr"  time="-9999999/1" value="0" leadInLength="0/1"   name="leftClickColorGreen"/>
            <InterpolatingParam id="280" interp="linr"  time="-9999999/1" value="255" leadInLength="0/1"   name="leftClickColorRed"/>
            <InterpolatingParam id="281" interp="linr"  time="-9999999/1" value="0.80000000000000004" leadInLength="0/1"   name="leftClickDuration"/>
            <InterpolatingParam id="282" interp="linr"  time="-9999999/1" value="20" leadInLength="0/1"   name="leftClickSize"/>
            <Parameter id="283"   name="leftClickSoundFilename">
             <Keyframes>
             <Keyframe id="284"  time="-9999999/1" value="" leadInLength="0/1"  />
             </Keyframes>
            </Parameter>
            <InterpolatingParam id="285" interp="linr"  time="-9999999/1" value="1" leadInLength="0/1"   name="leftClickSoundVolume"/>
            <Parameter id="286"   name="leftClickType">
             <Keyframes>
             <Keyframe id="287"  time="-9999999/1" value="0" leadInLength="0/1"  />
             </Keyframes>
            </Parameter>
            <InterpolatingParam id="288" interp="linr"  time="-9999999/1" value="1" leadInLength="0/1"   name="opacity"/>
            <InterpolatingParam id="289" interp="linr"  time="-9999999/1" value="255" leadInLength="0/1"   name="rightClickColorBlue"/>
            <InterpolatingParam id="290" interp="linr"  time="-9999999/1" value="0" leadInLength="0/1"   name="rightClickColorGreen"/>
            <InterpolatingParam id="291" interp="linr"  time="-9999999/1" value="0" leadInLength="0/1"   name="rightClickColorRed"/>
            <InterpolatingParam id="292" interp="linr"  time="-9999999/1" value="0.80000000000000004" leadInLength="0/1"   name="rightClickDuration"/>
            <InterpolatingParam id="293" interp="linr"  time="-9999999/1" value="20" leadInLength="0/1"   name="rightClickSize"/>
            <Parameter id="294"   name="rightClickSoundFilename">
             <Keyframes>
             <Keyframe id="295"  time="-9999999/1" value="" leadInLength="0/1"  />
             </Keyframes>
            </Parameter>
            <InterpolatingParam id="296" interp="linr"  time="-9999999/1" value="1" leadInLength="0/1"   name="rightClickSoundVolume"/>
            <Parameter id="297"   name="rightClickType">
             <Keyframes>
             <Keyframe id="298"  time="-9999999/1" value="0" leadInLength="0/1"  />
             </Keyframes>
            </Parameter>
            </Parameters>
            <MetaData>
             <entry key="effectIndex" val="0"/>
            </MetaData>
           </GenericEffect>
          </Effects>
          <Attributes>
           <Attribute id="299" value="" name="ident"/>
          </Attributes>
          <ExtraData>
           <Entry key="ZoomPanBin">
            <ZoomPanBin id="300"  >
             <ZoomPanKeyframes>
              <ZoomPanKeyframe id="301" timeRangeEnd="-9999999/1" timeRangeDuration="0/1" interpolaterName="linr"  />
             </ZoomPanKeyframes>
            </ZoomPanBin>
           </Entry>
           <Entry key="CursorEffectBin">
            <CursorEffectBin id="302"  >
             <CursorEffectKeyframes>
              <CursorEffectKeyframe id="303" timeRangeEnd="-9999999/1" timeRangeDuration="0/1" interpolaterName=""  />
             </CursorEffectKeyframes>
            </CursorEffectBin>
           </Entry>
          </ExtraData>
         </ScreenVMFile>
         <MetaData>
          <entry key="AutoAppliedSmartFocus" val="False"/>
          <entry key="WinSubProjectDisplayName" val=""/>
         </MetaData>
        </UnifiedMedia>
        <UnifiedMedia id="304"  >
         <AMFile id="305" start="919" duration="346" scalar="1/1" mediaStart="0/1" mediaDuration="346/1" trackNumber="1" src="5" channelNumber="0,1" >
          <Parameters>
           <InterpolatingParam id="306" interp="linr"  time="0/1" value="1" leadInLength="0/1"  name="volume"/>
           <Parameter id="307"  name="captions"/>
          </Parameters>
          <Attributes>
           <Attribute id="308" value="" name="ident"/>
           <Attribute id="309" value="44100" name="sampleRate"/>
           <Attribute id="310" value="16" name="bitDepth"/>
           <Attribute id="311" value="1" name="gain"/>
           <Attribute id="312" value="0" name="mixToMono"/>
          </Attributes>
         </AMFile>
         <ScreenVMFile id="313" start="919" duration="346" scalar="1/1" mediaStart="0/1" mediaDuration="346/1" trackNumber="0" src="5" >
          <Transformer>
           <VectorParam id="314"  name="translation">
            <InterpolatingParam id="315" interp="linr"  time="-9999999/1" value="0" leadInLength="0/1"  />
            <InterpolatingParam id="316" interp="linr"  time="-9999999/1" value="0" leadInLength="0/1"  />
            <InterpolatingParam id="317" interp="linr"  time="-9999999/1" value="0" leadInLength="0/1"  />
           </VectorParam>
           <VectorParam id="318"  name="rotation">
            <InterpolatingParam id="319" interp="linr"  time="-9999999/1" value="0" leadInLength="0/1"  />
            <InterpolatingParam id="320" interp="linr"  time="-9999999/1" value="0" leadInLength="0/1"  />
            <InterpolatingParam id="321" interp="linr"  time="-9999999/1" value="0" leadInLength="0/1"  />
           </VectorParam>
           <VectorParam id="322"  name="shear">
            <InterpolatingParam id="323" interp="linr"  time="-9999999/1" value="0" leadInLength="0/1"  />
            <InterpolatingParam id="324" interp="linr"  time="-9999999/1" value="0" leadInLength="0/1"  />
            <InterpolatingParam id="325" interp="linr"  time="-9999999/1" value="0" leadInLength="0/1"  />
           </VectorParam>
           <VectorParam id="326"  name="scale">
            <InterpolatingParam id="327" interp="linr"  time="-9999999/1" value="0.80000000000000004" leadInLength="0/1"  />
            <InterpolatingParam id="328" interp="linr"  time="-9999999/1" value="0.80000000000000004" leadInLength="0/1"  />
            <InterpolatingParam id="329" interp="linr"  time="-9999999/1" value="1" leadInLength="0/1"  />
           </VectorParam>
           <VectorParam id="330"  name="anchor">
            <InterpolatingParam id="331" interp="linr"  time="0/1" value="0" leadInLength="0/1"  />
            <InterpolatingParam id="332" interp="linr"  time="0/1" value="0" leadInLength="0/1"  />
            <InterpolatingParam id="333" interp="linr"  time="0/1" value="0" leadInLength="0/1"  />
           </VectorParam>
          </Transformer>
          <Parameters>
           <VectorParam id="334"  name="sourceCrop">
            <InterpolatingParam id="335" interp="linr"  time="0/1" value="0" leadInLength="0/1"  />
            <InterpolatingParam id="336" interp="linr"  time="0/1" value="0" leadInLength="0/1"  />
            <InterpolatingParam id="337" interp="linr"  time="0/1" value="0" leadInLength="0/1"  />
            <InterpolatingParam id="338" interp="linr"  time="0/1" value="0" leadInLength="0/1"  />
           </VectorParam>
           <VectorParam id="339"  name="geometryCrop">
            <InterpolatingParam id="340" interp="linr"  time="-9999999/1" value="0" leadInLength="0/1"  />
            <InterpolatingParam id="341" interp="linr"  time="-9999999/1" value="0" leadInLength="0/1"  />
            <InterpolatingParam id="342" interp="linr"  time="-9999999/1" value="0" leadInLength="0/1"  />
            <InterpolatingParam id="343" interp="linr"  time="-9999999/1" value="0" leadInLength="0/1"  />
           </VectorParam>
           <InterpolatingParam id="344" interp="linr"  time="-9999999/1" value="1" leadInLength="0/1"  name="opacity"/>
           <InterpolatingParam id="345" interp="linr"  time="0/1" value="1" leadInLength="0/1"  name="cursorOpacity"/>
           <InterpolatingParam id="346" interp="linr"  time="0/1" value="1" leadInLength="0/1"  name="cursorScale"/>
          </Parameters>
          <Effects>
           <GenericEffect id="347" name = "CursorBaseEffectName" >
            <Parameters>
            <InterpolatingParam id="348" interp="linr"  time="-9999999/1" value="1" leadInLength="0/1"   name="cursorSize"/>
            <InterpolatingParam id="349" interp="linr"  time="-9999999/1" value="0" leadInLength="0/1"   name="highlightBlurRadius"/>
            <InterpolatingParam id="350" interp="linr"  time="-9999999/1" value="0" leadInLength="0/1"   name="highlightColorBlue"/>
            <InterpolatingParam id="351" interp="linr"  time="-9999999/1" value="255" leadInLength="0/1"   name="highlightColorGreen"/>
            <InterpolatingParam id="352" interp="linr"  time="-9999999/1" value="255" leadInLength="0/1"   name="highlightColorRed"/>
            <InterpolatingParam id="353" interp="linr"  time="-9999999/1" value="5" leadInLength="0/1"   name="highlightFeatherSize"/>
            <InterpolatingParam id="354" interp="linr"  time="-9999999/1" value="2" leadInLength="0/1"   name="highlightMagnification"/>
            <InterpolatingParam id="355" interp="linr"  time="-9999999/1" value="1" leadInLength="0/1"   name="highlightOpacity"/>
            <InterpolatingParam id="356" interp="linr"  time="-9999999/1" value="45" leadInLength="0/1"   name="highlightSize"/>
            <Parameter id="357"   name="highlightType">
             <Keyframes>
             <Keyframe id="358"  time="-9999999/1" value="0" leadInLength="0/1"  />
             </Keyframes>
            </Parameter>
            <InterpolatingParam id="359" interp="linr"  time="-9999999/1" value="0" leadInLength="0/1"   name="leftClickColorBlue"/>
            <InterpolatingParam id="360" interp="linr"  time="-9999999/1" value="0" leadInLength="0/1"   name="leftClickColorGreen"/>
            <InterpolatingParam id="361" interp="linr"  time="-9999999/1" value="255" leadInLength="0/1"   name="leftClickColorRed"/>
            <InterpolatingParam id="362" interp="linr"  time="-9999999/1" value="0.80000000000000004" leadInLength="0/1"   name="leftClickDuration"/>
            <InterpolatingParam id="363" interp="linr"  time="-9999999/1" value="20" leadInLength="0/1"   name="leftClickSize"/>
            <Parameter id="364"   name="leftClickSoundFilename">
             <Keyframes>
             <Keyframe id="365"  time="-9999999/1" value="" leadInLength="0/1"  />
             </Keyframes>
            </Parameter>
            <InterpolatingParam id="366" interp="linr"  time="-9999999/1" value="1" leadInLength="0/1"   name="leftClickSoundVolume"/>
            <Parameter id="367"   name="leftClickType">
             <Keyframes>
             <Keyframe id="368"  time="-9999999/1" value="0" leadInLength="0/1"  />
             </Keyframes>
            </Parameter>
            <InterpolatingParam id="369" interp="linr"  time="-9999999/1" value="1" leadInLength="0/1"   name="opacity"/>
            <InterpolatingParam id="370" interp="linr"  time="-9999999/1" value="255" leadInLength="0/1"   name="rightClickColorBlue"/>
            <InterpolatingParam id="371" interp="linr"  time="-9999999/1" value="0" leadInLength="0/1"   name="rightClickColorGreen"/>
            <InterpolatingParam id="372" interp="linr"  time="-9999999/1" value="0" leadInLength="0/1"   name="rightClickColorRed"/>
            <InterpolatingParam id="373" interp="linr"  time="-9999999/1" value="0.80000000000000004" leadInLength="0/1"   name="rightClickDuration"/>
            <InterpolatingParam id="374" interp="linr"  time="-9999999/1" value="20" leadInLength="0/1"   name="rightClickSize"/>
            <Parameter id="375"   name="rightClickSoundFilename">
             <Keyframes>
             <Keyframe id="376"  time="-9999999/1" value="" leadInLength="0/1"  />
             </Keyframes>
            </Parameter>
            <InterpolatingParam id="377" interp="linr"  time="-9999999/1" value="1" leadInLength="0/1"   name="rightClickSoundVolume"/>
            <Parameter id="378"   name="rightClickType">
             <Keyframes>
             <Keyframe id="379"  time="-9999999/1" value="0" leadInLength="0/1"  />
             </Keyframes>
            </Parameter>
            </Parameters>
            <MetaData>
             <entry key="effectIndex" val="0"/>
            </MetaData>
           </GenericEffect>
          </Effects>
          <Attributes>
           <Attribute id="380" value="" name="ident"/>
          </Attributes>
          <ExtraData>
           <Entry key="ZoomPanBin">
            <ZoomPanBin id="381"  >
             <ZoomPanKeyframes>
              <ZoomPanKeyframe id="382" timeRangeEnd="-9999999/1" timeRangeDuration="0/1" interpolaterName="linr"  />
             </ZoomPanKeyframes>
            </ZoomPanBin>
           </Entry>
           <Entry key="CursorEffectBin">
            <CursorEffectBin id="383"  >
             <CursorEffectKeyframes>
              <CursorEffectKeyframe id="384" timeRangeEnd="-9999999/1" timeRangeDuration="0/1" interpolaterName=""  />
             </CursorEffectKeyframes>
            </CursorEffectBin>
           </Entry>
          </ExtraData>
         </ScreenVMFile>
         <MetaData>
          <entry key="AutoAppliedSmartFocus" val="False"/>
          <entry key="WinSubProjectDisplayName" val=""/>
         </MetaData>
        </UnifiedMedia>
        <StitchedMedia id="385" start="1265" duration="1615" scalar="1/1" mediaStart="0/1" mediaDuration="1615/1" minMediaStart="0/1" >
         <Transformer>
          <VectorParam id="386"  name="translation">
           <InterpolatingParam id="387" interp="linr"  time="-9999999/1" value="0" leadInLength="0/1"  />
           <InterpolatingParam id="388" interp="linr"  time="-9999999/1" value="0" leadInLength="0/1"  />
           <InterpolatingParam id="389" interp="linr"  time="-9999999/1" value="0" leadInLength="0/1"  />
          </VectorParam>
          <VectorParam id="390"  name="rotation">
           <InterpolatingParam id="391" interp="linr"  time="-9999999/1" value="0" leadInLength="0/1"  />
           <InterpolatingParam id="392" interp="linr"  time="-9999999/1" value="0" leadInLength="0/1"  />
           <InterpolatingParam id="393" interp="linr"  time="-9999999/1" value="0" leadInLength="0/1"  />
          </VectorParam>
          <VectorParam id="394"  name="shear">
           <InterpolatingParam id="395" interp="linr"  time="-9999999/1" value="0" leadInLength="0/1"  />
           <InterpolatingParam id="396" interp="linr"  time="-9999999/1" value="0" leadInLength="0/1"  />
           <InterpolatingParam id="397" interp="linr"  time="-9999999/1" value="0" leadInLength="0/1"  />
          </VectorParam>
          <VectorParam id="398"  name="scale">
           <InterpolatingParam id="399" interp="linr"  time="-9999999/1" value="0.80000000000000004" leadInLength="0/1"  />
           <InterpolatingParam id="400" interp="linr"  time="-9999999/1" value="0.80000000000000004" leadInLength="0/1"  />
           <InterpolatingParam id="401" interp="linr"  time="-9999999/1" value="1" leadInLength="0/1"  />
          </VectorParam>
          <VectorParam id="402"  name="anchor">
           <InterpolatingParam id="403" interp="linr"  time="0/1" value="0" leadInLength="0/1"  />
           <InterpolatingParam id="404" interp="linr"  time="0/1" value="0" leadInLength="0/1"  />
           <InterpolatingParam id="405" interp="linr"  time="0/1" value="0" leadInLength="0/1"  />
          </VectorParam>
         </Transformer>
         <Parameters>
          <VectorParam id="406"  name="sourceCrop">
           <InterpolatingParam id="407" interp="linr"  time="0/1" value="0" leadInLength="0/1"  />
           <InterpolatingParam id="408" interp="linr"  time="0/1" value="0" leadInLength="0/1"  />
           <InterpolatingParam id="409" interp="linr"  time="0/1" value="0" leadInLength="0/1"  />
           <InterpolatingParam id="410" interp="linr"  time="0/1" value="0" leadInLength="0/1"  />
          </VectorParam>
          <VectorParam id="411"  name="geometryCrop">
           <InterpolatingParam id="412" interp="linr"  time="-9999999/1" value="0" leadInLength="0/1"  />
           <InterpolatingParam id="413" interp="linr"  time="-9999999/1" value="0" leadInLength="0/1"  />
           <InterpolatingParam id="414" interp="linr"  time="-9999999/1" value="0" leadInLength="0/1"  />
           <InterpolatingParam id="415" interp="linr"  time="-9999999/1" value="0" leadInLength="0/1"  />
          </VectorParam>
          <InterpolatingParam id="416" interp="linr"  time="-9999999/1" value="1" leadInLength="0/1"  name="opacity"/>
          <InterpolatingParam id="417" interp="linr"  time="0/1" value="1" leadInLength="0/1"  name="cursorOpacity"/>
          <InterpolatingParam id="418" interp="linr"  time="0/1" value="1" leadInLength="0/1"  name="cursorScale"/>
          <InterpolatingParam id="419" interp="linr"  time="0/1" value="1" leadInLength="0/1"  name="volume"/>
          <Parameter id="420"  name="captions"/>
         </Parameters>
         <Effects>
          <GenericEffect id="421" name = "CursorBaseEffectName" >
           <Parameters>
           <InterpolatingParam id="422" interp="linr"  time="-9999999/1" value="1" leadInLength="0/1"   name="cursorSize"/>
           <InterpolatingParam id="423" interp="linr"  time="-9999999/1" value="0" leadInLength="0/1"   name="highlightBlurRadius"/>
           <InterpolatingParam id="424" interp="linr"  time="-9999999/1" value="0" leadInLength="0/1"   name="highlightColorBlue"/>
           <InterpolatingParam id="425" interp="linr"  time="-9999999/1" value="255" leadInLength="0/1"   name="highlightColorGreen"/>
           <InterpolatingParam id="426" interp="linr"  time="-9999999/1" value="255" leadInLength="0/1"   name="highlightColorRed"/>
           <InterpolatingParam id="427" interp="linr"  time="-9999999/1" value="5" leadInLength="0/1"   name="highlightFeatherSize"/>
           <InterpolatingParam id="428" interp="linr"  time="-9999999/1" value="2" leadInLength="0/1"   name="highlightMagnification"/>
           <InterpolatingParam id="429" interp="linr"  time="-9999999/1" value="1" leadInLength="0/1"   name="highlightOpacity"/>
           <InterpolatingParam id="430" interp="linr"  time="-9999999/1" value="45" leadInLength="0/1"   name="highlightSize"/>
           <Parameter id="431"   name="highlightType">
            <Keyframes>
            <Keyframe id="432"  time="-9999999/1" value="0" leadInLength="0/1"  />
            </Keyframes>
           </Parameter>
           <InterpolatingParam id="433" interp="linr"  time="-9999999/1" value="0" leadInLength="0/1"   name="leftClickColorBlue"/>
           <InterpolatingParam id="434" interp="linr"  time="-9999999/1" value="0" leadInLength="0/1"   name="leftClickColorGreen"/>
           <InterpolatingParam id="435" interp="linr"  time="-9999999/1" value="255" leadInLength="0/1"   name="leftClickColorRed"/>
           <InterpolatingParam id="436" interp="linr"  time="-9999999/1" value="0.80000000000000004" leadInLength="0/1"   name="leftClickDuration"/>
           <InterpolatingParam id="437" interp="linr"  time="-9999999/1" value="20" leadInLength="0/1"   name="leftClickSize"/>
           <Parameter id="438"   name="leftClickSoundFilename">
            <Keyframes>
            <Keyframe id="439"  time="-9999999/1" value="" leadInLength="0/1"  />
            </Keyframes>
           </Parameter>
           <InterpolatingParam id="440" interp="linr"  time="-9999999/1" value="1" leadInLength="0/1"   name="leftClickSoundVolume"/>
           <Parameter id="441"   name="leftClickType">
            <Keyframes>
            <Keyframe id="442"  time="-9999999/1" value="0" leadInLength="0/1"  />
            </Keyframes>
           </Parameter>
           <InterpolatingParam id="443" interp="linr"  time="-9999999/1" value="1" leadInLength="0/1"   name="opacity"/>
           <InterpolatingParam id="444" interp="linr"  time="-9999999/1" value="255" leadInLength="0/1"   name="rightClickColorBlue"/>
           <InterpolatingParam id="445" interp="linr"  time="-9999999/1" value="0" leadInLength="0/1"   name="rightClickColorGreen"/>
           <InterpolatingParam id="446" interp="linr"  time="-9999999/1" value="0" leadInLength="0/1"   name="rightClickColorRed"/>
           <InterpolatingParam id="447" interp="linr"  time="-9999999/1" value="0.80000000000000004" leadInLength="0/1"   name="rightClickDuration"/>
           <InterpolatingParam id="448" interp="linr"  time="-9999999/1" value="20" leadInLength="0/1"   name="rightClickSize"/>
           <Parameter id="449"   name="rightClickSoundFilename">
            <Keyframes>
            <Keyframe id="450"  time="-9999999/1" value="" leadInLength="0/1"  />
            </Keyframes>
           </Parameter>
           <InterpolatingParam id="451" interp="linr"  time="-9999999/1" value="1" leadInLength="0/1"   name="rightClickSoundVolume"/>
           <Parameter id="452"   name="rightClickType">
            <Keyframes>
            <Keyframe id="453"  time="-9999999/1" value="0" leadInLength="0/1"  />
            </Keyframes>
           </Parameter>
           </Parameters>
           <MetaData>
            <entry key="effectIndex" val="0"/>
           </MetaData>
          </GenericEffect>
         </Effects>
         <Attributes>
          <Attribute id="454" value="" name="ident"/>
          <Attribute id="455" value="0" name="mixToMono"/>
         </Attributes>
         <MetaData>
          <entry key="AutoAppliedSmartFocus" val="False"/>
          <entry key="WinSubProjectDisplayName" val=""/>
         </MetaData>
         <ExtraData>
          <Entry key="ZoomPanBin">
           <ZoomPanBin id="456"  >
            <ZoomPanKeyframes>
             <ZoomPanKeyframe id="457" timeRangeEnd="-9999999/1" timeRangeDuration="0/1" interpolaterName="linr"  />
            </ZoomPanKeyframes>
           </ZoomPanBin>
          </Entry>
          <Entry key="CursorEffectBin">
           <CursorEffectBin id="458"  >
            <CursorEffectKeyframes>
             <CursorEffectKeyframe id="459" timeRangeEnd="-9999999/1" timeRangeDuration="0/1" interpolaterName=""  />
            </CursorEffectKeyframes>
           </CursorEffectBin>
          </Entry>
         </ExtraData>
         <GenericTrack id="460"  >
          <Attributes>
           <Attribute id="461" value="" name="ident"/>
           <Attribute id="462" value="0" name="audioMuted"/>
           <Attribute id="463" value="0" name="videoHidden"/>
          </Attributes>
          <MetaData>
           <entry key="IsLocked" val="False"/>
           <entry key="WinTrackHeight" val="0"/>
          </MetaData>
          <Medias>
           <UnifiedMedia id="464"  >
            <AMFile id="465" start="0" duration="500" scalar="1/1" mediaStart="0/1" mediaDuration="500/1" trackNumber="1" src="6" channelNumber="0,1" >
             <Parameters>
              <InterpolatingParam id="466" interp="linr"  time="0/1" value="1" leadInLength="0/1"  name="volume"/>
              <Parameter id="467"  name="captions"/>
             </Parameters>
             <Attributes>
              <Attribute id="468" value="" name="ident"/>
              <Attribute id="469" value="44100" name="sampleRate"/>
              <Attribute id="470" value="16" name="bitDepth"/>
              <Attribute id="471" value="1" name="gain"/>
              <Attribute id="472" value="0" name="mixToMono"/>
             </Attributes>
            </AMFile>
            <ScreenVMFile id="473" start="0" duration="500" scalar="1/1" mediaStart="0/1" mediaDuration="500/1" trackNumber="0" src="6" >
             <Transformer>
              <VectorParam id="474"  name="translation">
               <InterpolatingParam id="475" interp="linr"  time="-9999999/1" value="0" leadInLength="0/1"  />
               <InterpolatingParam id="476" interp="linr"  time="-9999999/1" value="0" leadInLength="0/1"  />
               <InterpolatingParam id="477" interp="linr"  time="-9999999/1" value="0" leadInLength="0/1"  />
              </VectorParam>
              <VectorParam id="478"  name="rotation">
               <InterpolatingParam id="479" interp="linr"  time="-9999999/1" value="0" leadInLength="0/1"  />
               <InterpolatingParam id="480" interp="linr"  time="-9999999/1" value="0" leadInLength="0/1"  />
               <InterpolatingParam id="481" interp="linr"  time="-9999999/1" value="0" leadInLength="0/1"  />
              </VectorParam>
              <VectorParam id="482"  name="shear">
               <InterpolatingParam id="483" interp="linr"  time="-9999999/1" value="0" leadInLength="0/1"  />
               <InterpolatingParam id="484" interp="linr"  time="-9999999/1" value="0" leadInLength="0/1"  />
               <InterpolatingParam id="485" interp="linr"  time="-9999999/1" value="0" leadInLength="0/1"  />
              </VectorParam>
              <VectorParam id="486"  name="scale">
               <InterpolatingParam id="487" interp="linr"  time="-9999999/1" value="1" leadInLength="0/1"  />
               <InterpolatingParam id="488" interp="linr"  time="-9999999/1" value="1" leadInLength="0/1"  />
               <InterpolatingParam id="489" interp="linr"  time="-9999999/1" value="1" leadInLength="0/1"  />
              </VectorParam>
              <VectorParam id="490"  name="anchor">
               <InterpolatingParam id="491" interp="linr"  time="0/1" value="0" leadInLength="0/1"  />
               <InterpolatingParam id="492" interp="linr"  time="0/1" value="0" leadInLength="0/1"  />
               <InterpolatingParam id="493" interp="linr"  time="0/1" value="0" leadInLength="0/1"  />
              </VectorParam>
             </Transformer>
             <Parameters>
              <VectorParam id="494"  name="sourceCrop">
               <InterpolatingParam id="495" interp="linr"  time="0/1" value="0" leadInLength="0/1"  />
               <InterpolatingParam id="496" interp="linr"  time="0/1" value="0" leadInLength="0/1"  />
               <InterpolatingParam id="497" interp="linr"  time="0/1" value="0" leadInLength="0/1"  />
               <InterpolatingParam id="498" interp="linr"  time="0/1" value="0" leadInLength="0/1"  />
              </VectorParam>
              <VectorParam id="499"  name="geometryCrop">
               <InterpolatingParam id="500" interp="linr"  time="-9999999/1" value="0" leadInLength="0/1"  />
               <InterpolatingParam id="501" interp="linr"  time="-9999999/1" value="0" leadInLength="0/1"  />
               <InterpolatingParam id="502" interp="linr"  time="-9999999/1" value="0" leadInLength="0/1"  />
               <InterpolatingParam id="503" interp="linr"  time="-9999999/1" value="0" leadInLength="0/1"  />
              </VectorParam>
              <InterpolatingParam id="504" interp="linr"  time="-9999999/1" value="1" leadInLength="0/1"  name="opacity"/>
              <InterpolatingParam id="505" interp="linr"  time="0/1" value="0" leadInLength="0/1"  name="cursorOpacity"/>
              <InterpolatingParam id="506" interp="linr"  time="0/1" value="0" leadInLength="0/1"  name="cursorScale"/>
             </Parameters>
             <Attributes>
              <Attribute id="507" value="" name="ident"/>
             </Attributes>
             <ExtraData>
              <Entry key="ZoomPanBin">
               <ZoomPanBin id="508"  >
                <ZoomPanKeyframes>
                 <ZoomPanKeyframe id="509" timeRangeEnd="-9999999/1" timeRangeDuration="0/1" interpolaterName="linr"  />
                </ZoomPanKeyframes>
               </ZoomPanBin>
              </Entry>
              <Entry key="CursorEffectBin">
               <CursorEffectBin id="510"  >
                <CursorEffectKeyframes>
                </CursorEffectKeyframes>
               </CursorEffectBin>
              </Entry>
             </ExtraData>
            </ScreenVMFile>
            <MetaData>
             <entry key="AutoAppliedSmartFocus" val="False"/>
             <entry key="WinSubProjectDisplayName" val=""/>
            </MetaData>
           </UnifiedMedia>
           <UnifiedMedia id="511"  >
            <AMFile id="512" start="500" duration="452" scalar="1/1" mediaStart="537/1" mediaDuration="452/1" trackNumber="1" src="6" channelNumber="0,1" >
             <Parameters>
              <InterpolatingParam id="513" interp="linr"  time="0/1" value="1" leadInLength="0/1"  name="volume"/>
              <Parameter id="514"  name="captions"/>
             </Parameters>
             <Attributes>
              <Attribute id="515" value="" name="ident"/>
              <Attribute id="516" value="44100" name="sampleRate"/>
              <Attribute id="517" value="16" name="bitDepth"/>
              <Attribute id="518" value="1" name="gain"/>
              <Attribute id="519" value="0" name="mixToMono"/>
             </Attributes>
            </AMFile>
            <ScreenVMFile id="520" start="500" duration="452" scalar="1/1" mediaStart="537/1" mediaDuration="452/1" trackNumber="0" src="6" >
             <Transformer>
              <VectorParam id="521"  name="translation">
               <InterpolatingParam id="522" interp="linr"  time="-9999999/1" value="0" leadInLength="0/1"  />
               <InterpolatingParam id="523" interp="linr"  time="-9999999/1" value="0" leadInLength="0/1"  />
               <InterpolatingParam id="524" interp="linr"  time="-9999999/1" value="0" leadInLength="0/1"  />
              </VectorParam>
              <VectorParam id="525"  name="rotation">
               <InterpolatingParam id="526" interp="linr"  time="-9999999/1" value="0" leadInLength="0/1"  />
               <InterpolatingParam id="527" interp="linr"  time="-9999999/1" value="0" leadInLength="0/1"  />
               <InterpolatingParam id="528" interp="linr"  time="-9999999/1" value="0" leadInLength="0/1"  />
              </VectorParam>
              <VectorParam id="529"  name="shear">
               <InterpolatingParam id="530" interp="linr"  time="-9999999/1" value="0" leadInLength="0/1"  />
               <InterpolatingParam id="531" interp="linr"  time="-9999999/1" value="0" leadInLength="0/1"  />
               <InterpolatingParam id="532" interp="linr"  time="-9999999/1" value="0" leadInLength="0/1"  />
              </VectorParam>
              <VectorParam id="533"  name="scale">
               <InterpolatingParam id="534" interp="linr"  time="-9999999/1" value="1" leadInLength="0/1"  />
               <InterpolatingParam id="535" interp="linr"  time="-9999999/1" value="1" leadInLength="0/1"  />
               <InterpolatingParam id="536" interp="linr"  time="-9999999/1" value="1" leadInLength="0/1"  />
              </VectorParam>
              <VectorParam id="537"  name="anchor">
               <InterpolatingParam id="538" interp="linr"  time="0/1" value="0" leadInLength="0/1"  />
               <InterpolatingParam id="539" interp="linr"  time="0/1" value="0" leadInLength="0/1"  />
               <InterpolatingParam id="540" interp="linr"  time="0/1" value="0" leadInLength="0/1"  />
              </VectorParam>
             </Transformer>
             <Parameters>
              <VectorParam id="541"  name="sourceCrop">
               <InterpolatingParam id="542" interp="linr"  time="0/1" value="0" leadInLength="0/1"  />
               <InterpolatingParam id="543" interp="linr"  time="0/1" value="0" leadInLength="0/1"  />
               <InterpolatingParam id="544" interp="linr"  time="0/1" value="0" leadInLength="0/1"  />
               <InterpolatingParam id="545" interp="linr"  time="0/1" value="0" leadInLength="0/1"  />
              </VectorParam>
              <VectorParam id="546"  name="geometryCrop">
               <InterpolatingParam id="547" interp="linr"  time="-9999999/1" value="0" leadInLength="0/1"  />
               <InterpolatingParam id="548" interp="linr"  time="-9999999/1" value="0" leadInLength="0/1"  />
               <InterpolatingParam id="549" interp="linr"  time="-9999999/1" value="0" leadInLength="0/1"  />
               <InterpolatingParam id="550" interp="linr"  time="-9999999/1" value="0" leadInLength="0/1"  />
              </VectorParam>
              <InterpolatingParam id="551" interp="linr"  time="-9999999/1" value="1" leadInLength="0/1"  name="opacity"/>
              <InterpolatingParam id="552" interp="linr"  time="0/1" value="0" leadInLength="0/1"  name="cursorOpacity"/>
              <InterpolatingParam id="553" interp="linr"  time="0/1" value="0" leadInLength="0/1"  name="cursorScale"/>
             </Parameters>
             <Attributes>
              <Attribute id="554" value="" name="ident"/>
             </Attributes>
             <ExtraData>
              <Entry key="ZoomPanBin">
               <ZoomPanBin id="555"  >
                <ZoomPanKeyframes>
                 <ZoomPanKeyframe id="556" timeRangeEnd="-9999999/1" timeRangeDuration="0/1" interpolaterName="linr"  />
                </ZoomPanKeyframes>
               </ZoomPanBin>
              </Entry>
              <Entry key="CursorEffectBin">
               <CursorEffectBin id="557"  >
                <CursorEffectKeyframes>
                </CursorEffectKeyframes>
               </CursorEffectBin>
              </Entry>
             </ExtraData>
            </ScreenVMFile>
            <MetaData>
             <entry key="AutoAppliedSmartFocus" val="False"/>
             <entry key="WinSubProjectDisplayName" val=""/>
            </MetaData>
           </UnifiedMedia>
           <UnifiedMedia id="558"  >
            <AMFile id="559" start="952" duration="767" scalar="1/1" mediaStart="1019/1" mediaDuration="767/1" trackNumber="1" src="6" channelNumber="0,1" >
             <Parameters>
              <InterpolatingParam id="560" interp="linr"  time="0/1" value="1" leadInLength="0/1"  name="volume"/>
              <Parameter id="561"  name="captions"/>
             </Parameters>
             <Attributes>
              <Attribute id="562" value="" name="ident"/>
              <Attribute id="563" value="44100" name="sampleRate"/>
              <Attribute id="564" value="16" name="bitDepth"/>
              <Attribute id="565" value="1" name="gain"/>
              <Attribute id="566" value="0" name="mixToMono"/>
             </Attributes>
            </AMFile>
            <ScreenVMFile id="567" start="952" duration="767" scalar="1/1" mediaStart="1019/1" mediaDuration="767/1" trackNumber="0" src="6" >
             <Transformer>
              <VectorParam id="568"  name="translation">
               <InterpolatingParam id="569" interp="linr"  time="-9999999/1" value="0" leadInLength="0/1"  />
               <InterpolatingParam id="570" interp="linr"  time="-9999999/1" value="0" leadInLength="0/1"  />
               <InterpolatingParam id="571" interp="linr"  time="-9999999/1" value="0" leadInLength="0/1"  />
              </VectorParam>
              <VectorParam id="572"  name="rotation">
               <InterpolatingParam id="573" interp="linr"  time="-9999999/1" value="0" leadInLength="0/1"  />
               <InterpolatingParam id="574" interp="linr"  time="-9999999/1" value="0" leadInLength="0/1"  />
               <InterpolatingParam id="575" interp="linr"  time="-9999999/1" value="0" leadInLength="0/1"  />
              </VectorParam>
              <VectorParam id="576"  name="shear">
               <InterpolatingParam id="577" interp="linr"  time="-9999999/1" value="0" leadInLength="0/1"  />
               <InterpolatingParam id="578" interp="linr"  time="-9999999/1" value="0" leadInLength="0/1"  />
               <InterpolatingParam id="579" interp="linr"  time="-9999999/1" value="0" leadInLength="0/1"  />
              </VectorParam>
              <VectorParam id="580"  name="scale">
               <InterpolatingParam id="581" interp="linr"  time="-9999999/1" value="1" leadInLength="0/1"  />
               <InterpolatingParam id="582" interp="linr"  time="-9999999/1" value="1" leadInLength="0/1"  />
               <InterpolatingParam id="583" interp="linr"  time="-9999999/1" value="1" leadInLength="0/1"  />
              </VectorParam>
              <VectorParam id="584"  name="anchor">
               <InterpolatingParam id="585" interp="linr"  time="0/1" value="0" leadInLength="0/1"  />
               <InterpolatingParam id="586" interp="linr"  time="0/1" value="0" leadInLength="0/1"  />
               <InterpolatingParam id="587" interp="linr"  time="0/1" value="0" leadInLength="0/1"  />
              </VectorParam>
             </Transformer>
             <Parameters>
              <VectorParam id="588"  name="sourceCrop">
               <InterpolatingParam id="589" interp="linr"  time="0/1" value="0" leadInLength="0/1"  />
               <InterpolatingParam id="590" interp="linr"  time="0/1" value="0" leadInLength="0/1"  />
               <InterpolatingParam id="591" interp="linr"  time="0/1" value="0" leadInLength="0/1"  />
               <InterpolatingParam id="592" interp="linr"  time="0/1" value="0" leadInLength="0/1"  />
              </VectorParam>
              <VectorParam id="593"  name="geometryCrop">
               <InterpolatingParam id="594" interp="linr"  time="-9999999/1" value="0" leadInLength="0/1"  />
               <InterpolatingParam id="595" interp="linr"  time="-9999999/1" value="0" leadInLength="0/1"  />
               <InterpolatingParam id="596" interp="linr"  time="-9999999/1" value="0" leadInLength="0/1"  />
               <InterpolatingParam id="597" interp="linr"  time="-9999999/1" value="0" leadInLength="0/1"  />
              </VectorParam>
              <InterpolatingParam id="598" interp="linr"  time="-9999999/1" value="1" leadInLength="0/1"  name="opacity"/>
              <InterpolatingParam id="599" interp="linr"  time="0/1" value="0" leadInLength="0/1"  name="cursorOpacity"/>
              <InterpolatingParam id="600" interp="linr"  time="0/1" value="0" leadInLength="0/1"  name="cursorScale"/>
             </Parameters>
             <Attributes>
              <Attribute id="601" value="" name="ident"/>
             </Attributes>
             <ExtraData>
              <Entry key="ZoomPanBin">
               <ZoomPanBin id="602"  >
                <ZoomPanKeyframes>
                 <ZoomPanKeyframe id="603" timeRangeEnd="-9999999/1" timeRangeDuration="0/1" interpolaterName="linr"  />
                </ZoomPanKeyframes>
               </ZoomPanBin>
              </Entry>
              <Entry key="CursorEffectBin">
               <CursorEffectBin id="604"  >
                <CursorEffectKeyframes>
                </CursorEffectKeyframes>
               </CursorEffectBin>
              </Entry>
             </ExtraData>
            </ScreenVMFile>
            <MetaData>
             <entry key="AutoAppliedSmartFocus" val="False"/>
             <entry key="WinSubProjectDisplayName" val=""/>
            </MetaData>
           </UnifiedMedia>
          </Medias>
         </GenericTrack>
        </StitchedMedia>
        <UnifiedMedia id="605"  >
         <AMFile id="606" start="2880" duration="585" scalar="1/1" mediaStart="0/1" mediaDuration="585/1" trackNumber="1" src="7" channelNumber="0,1" >
          <Parameters>
           <InterpolatingParam id="607" interp="linr"  time="0/1" value="1" leadInLength="0/1"  name="volume"/>
           <Parameter id="608"  name="captions"/>
          </Parameters>
          <Attributes>
           <Attribute id="609" value="" name="ident"/>
           <Attribute id="610" value="44100" name="sampleRate"/>
           <Attribute id="611" value="16" name="bitDepth"/>
           <Attribute id="612" value="1" name="gain"/>
           <Attribute id="613" value="0" name="mixToMono"/>
          </Attributes>
         </AMFile>
         <ScreenVMFile id="614" start="2880" duration="585" scalar="1/1" mediaStart="0/1" mediaDuration="585/1" trackNumber="0" src="7" >
          <Transformer>
           <VectorParam id="615"  name="translation">
            <InterpolatingParam id="616" interp="linr"  time="-9999999/1" value="8.9397023117489002e-011" leadInLength="0/1"  />
            <InterpolatingParam id="617" interp="linr"  time="-9999999/1" value="-7.7753779696109193" leadInLength="0/1"  />
            <InterpolatingParam id="618" interp="linr"  time="-9999999/1" value="-3.4106051316488567e-010" leadInLength="0/1"  />
           </VectorParam>
           <VectorParam id="619"  name="rotation">
            <InterpolatingParam id="620" interp="linr"  time="-9999999/1" value="0" leadInLength="0/1"  />
            <InterpolatingParam id="621" interp="linr"  time="-9999999/1" value="0" leadInLength="0/1"  />
            <InterpolatingParam id="622" interp="linr"  time="-9999999/1" value="0" leadInLength="0/1"  />
           </VectorParam>
           <VectorParam id="623"  name="shear">
            <InterpolatingParam id="624" interp="linr"  time="-9999999/1" value="0" leadInLength="0/1"  />
            <InterpolatingParam id="625" interp="linr"  time="-9999999/1" value="0" leadInLength="0/1"  />
            <InterpolatingParam id="626" interp="linr"  time="-9999999/1" value="0" leadInLength="0/1"  />
           </VectorParam>
           <VectorParam id="627"  name="scale">
            <InterpolatingParam id="628" interp="linr"  time="-9999999/1" value="0.80000000000000004" leadInLength="0/1"  />
            <InterpolatingParam id="629" interp="linr"  time="-9999999/1" value="0.80000000000000004" leadInLength="0/1"  />
            <InterpolatingParam id="630" interp="linr"  time="-9999999/1" value="1" leadInLength="0/1"  />
           </VectorParam>
           <VectorParam id="631"  name="anchor">
            <InterpolatingParam id="632" interp="linr"  time="0/1" value="0" leadInLength="0/1"  />
            <InterpolatingParam id="633" interp="linr"  time="0/1" value="0" leadInLength="0/1"  />
            <InterpolatingParam id="634" interp="linr"  time="0/1" value="0" leadInLength="0/1"  />
           </VectorParam>
          </Transformer>
          <Parameters>
           <VectorParam id="635"  name="sourceCrop">
            <InterpolatingParam id="636" interp="linr"  time="0/1" value="0" leadInLength="0/1"  />
            <InterpolatingParam id="637" interp="linr"  time="0/1" value="0" leadInLength="0/1"  />
            <InterpolatingParam id="638" interp="linr"  time="0/1" value="0" leadInLength="0/1"  />
            <InterpolatingParam id="639" interp="linr"  time="0/1" value="0" leadInLength="0/1"  />
           </VectorParam>
           <VectorParam id="640"  name="geometryCrop">
            <InterpolatingParam id="641" interp="linr"  time="-9999999/1" value="0" leadInLength="0/1"  />
            <InterpolatingParam id="642" interp="linr"  time="-9999999/1" value="0" leadInLength="0/1"  />
            <InterpolatingParam id="643" interp="linr"  time="-9999999/1" value="0" leadInLength="0/1"  />
            <InterpolatingParam id="644" interp="linr"  time="-9999999/1" value="0" leadInLength="0/1"  />
           </VectorParam>
           <InterpolatingParam id="645" interp="linr"  time="-9999999/1" value="1" leadInLength="0/1"  name="opacity"/>
           <InterpolatingParam id="646" interp="linr"  time="0/1" value="1" leadInLength="0/1"  name="cursorOpacity"/>
           <InterpolatingParam id="647" interp="linr"  time="0/1" value="1" leadInLength="0/1"  name="cursorScale"/>
          </Parameters>
          <Effects>
           <GenericEffect id="648" name = "CursorBaseEffectName" >
            <Parameters>
            <InterpolatingParam id="649" interp="linr"  time="-9999999/1" value="1" leadInLength="0/1"   name="cursorSize"/>
            <InterpolatingParam id="650" interp="linr"  time="-9999999/1" value="0" leadInLength="0/1"   name="highlightBlurRadius"/>
            <InterpolatingParam id="651" interp="linr"  time="-9999999/1" value="0" leadInLength="0/1"   name="highlightColorBlue"/>
            <InterpolatingParam id="652" interp="linr"  time="-9999999/1" value="255" leadInLength="0/1"   name="highlightColorGreen"/>
            <InterpolatingParam id="653" interp="linr"  time="-9999999/1" value="255" leadInLength="0/1"   name="highlightColorRed"/>
            <InterpolatingParam id="654" interp="linr"  time="-9999999/1" value="5" leadInLength="0/1"   name="highlightFeatherSize"/>
            <InterpolatingParam id="655" interp="linr"  time="-9999999/1" value="2" leadInLength="0/1"   name="highlightMagnification"/>
            <InterpolatingParam id="656" interp="linr"  time="-9999999/1" value="1" leadInLength="0/1"   name="highlightOpacity"/>
            <InterpolatingParam id="657" interp="linr"  time="-9999999/1" value="45" leadInLength="0/1"   name="highlightSize"/>
            <Parameter id="658"   name="highlightType">
             <Keyframes>
             <Keyframe id="659"  time="-9999999/1" value="0" leadInLength="0/1"  />
             </Keyframes>
            </Parameter>
            <InterpolatingParam id="660" interp="linr"  time="-9999999/1" value="0" leadInLength="0/1"   name="leftClickColorBlue"/>
            <InterpolatingParam id="661" interp="linr"  time="-9999999/1" value="0" leadInLength="0/1"   name="leftClickColorGreen"/>
            <InterpolatingParam id="662" interp="linr"  time="-9999999/1" value="255" leadInLength="0/1"   name="leftClickColorRed"/>
            <InterpolatingParam id="663" interp="linr"  time="-9999999/1" value="0.80000000000000004" leadInLength="0/1"   name="leftClickDuration"/>
            <InterpolatingParam id="664" interp="linr"  time="-9999999/1" value="20" leadInLength="0/1"   name="leftClickSize"/>
            <Parameter id="665"   name="leftClickSoundFilename">
             <Keyframes>
             <Keyframe id="666"  time="-9999999/1" value="" leadInLength="0/1"  />
             </Keyframes>
            </Parameter>
            <InterpolatingParam id="667" interp="linr"  time="-9999999/1" value="1" leadInLength="0/1"   name="leftClickSoundVolume"/>
            <Parameter id="668"   name="leftClickType">
             <Keyframes>
             <Keyframe id="669"  time="-9999999/1" value="0" leadInLength="0/1"  />
             </Keyframes>
            </Parameter>
            <InterpolatingParam id="670" interp="linr"  time="-9999999/1" value="1" leadInLength="0/1"   name="opacity"/>
            <InterpolatingParam id="671" interp="linr"  time="-9999999/1" value="255" leadInLength="0/1"   name="rightClickColorBlue"/>
            <InterpolatingParam id="672" interp="linr"  time="-9999999/1" value="0" leadInLength="0/1"   name="rightClickColorGreen"/>
            <InterpolatingParam id="673" interp="linr"  time="-9999999/1" value="0" leadInLength="0/1"   name="rightClickColorRed"/>
            <InterpolatingParam id="674" interp="linr"  time="-9999999/1" value="0.80000000000000004" leadInLength="0/1"   name="rightClickDuration"/>
            <InterpolatingParam id="675" interp="linr"  time="-9999999/1" value="20" leadInLength="0/1"   name="rightClickSize"/>
            <Parameter id="676"   name="rightClickSoundFilename">
             <Keyframes>
             <Keyframe id="677"  time="-9999999/1" value="" leadInLength="0/1"  />
             </Keyframes>
            </Parameter>
            <InterpolatingParam id="678" interp="linr"  time="-9999999/1" value="1" leadInLength="0/1"   name="rightClickSoundVolume"/>
            <Parameter id="679"   name="rightClickType">
             <Keyframes>
             <Keyframe id="680"  time="-9999999/1" value="0" leadInLength="0/1"  />
             </Keyframes>
            </Parameter>
            </Parameters>
            <MetaData>
             <entry key="effectIndex" val="0"/>
            </MetaData>
           </GenericEffect>
          </Effects>
          <Attributes>
           <Attribute id="681" value="" name="ident"/>
          </Attributes>
          <ExtraData>
           <Entry key="ZoomPanBin">
            <ZoomPanBin id="682"  >
             <ZoomPanKeyframes>
              <ZoomPanKeyframe id="683" timeRangeEnd="-9999999/1" timeRangeDuration="0/1" interpolaterName="linr"  />
             </ZoomPanKeyframes>
            </ZoomPanBin>
           </Entry>
           <Entry key="CursorEffectBin">
            <CursorEffectBin id="684"  >
             <CursorEffectKeyframes>
              <CursorEffectKeyframe id="685" timeRangeEnd="-9999999/1" timeRangeDuration="0/1" interpolaterName=""  />
             </CursorEffectKeyframes>
            </CursorEffectBin>
           </Entry>
          </ExtraData>
         </ScreenVMFile>
         <MetaData>
          <entry key="AutoAppliedSmartFocus" val="False"/>
          <entry key="WinSubProjectDisplayName" val=""/>
         </MetaData>
        </UnifiedMedia>
        <UnifiedMedia id="686"  >
         <AMFile id="687" start="3465" duration="500" scalar="1/1" mediaStart="100/1" mediaDuration="500/1" trackNumber="1" src="8" channelNumber="0,1" >
          <Parameters>
           <InterpolatingParam id="688" interp="linr"  time="0/1" value="1" leadInLength="0/1"  name="volume"/>
           <Parameter id="689"  name="captions"/>
          </Parameters>
          <Attributes>
           <Attribute id="690" value="" name="ident"/>
           <Attribute id="691" value="44100" name="sampleRate"/>
           <Attribute id="692" value="16" name="bitDepth"/>
           <Attribute id="693" value="1" name="gain"/>
           <Attribute id="694" value="0" name="mixToMono"/>
          </Attributes>
         </AMFile>
         <ScreenVMFile id="695" start="3465" duration="500" scalar="1/1" mediaStart="100/1" mediaDuration="500/1" trackNumber="0" src="8" >
          <Transformer>
           <VectorParam id="696"  name="translation">
            <InterpolatingParam id="697" interp="linr"  time="-9999999/1" value="0" leadInLength="0/1"  />
            <InterpolatingParam id="698" interp="linr"  time="-9999999/1" value="0" leadInLength="0/1"  />
            <InterpolatingParam id="699" interp="linr"  time="-9999999/1" value="0" leadInLength="0/1"  />
           </VectorParam>
           <VectorParam id="700"  name="rotation">
            <InterpolatingParam id="701" interp="linr"  time="-9999999/1" value="0" leadInLength="0/1"  />
            <InterpolatingParam id="702" interp="linr"  time="-9999999/1" value="0" leadInLength="0/1"  />
            <InterpolatingParam id="703" interp="linr"  time="-9999999/1" value="0" leadInLength="0/1"  />
           </VectorParam>
           <VectorParam id="704"  name="shear">
            <InterpolatingParam id="705" interp="linr"  time="-9999999/1" value="0" leadInLength="0/1"  />
            <InterpolatingParam id="706" interp="linr"  time="-9999999/1" value="0" leadInLength="0/1"  />
            <InterpolatingParam id="707" interp="linr"  time="-9999999/1" value="0" leadInLength="0/1"  />
           </VectorParam>
           <VectorParam id="708"  name="scale">
            <InterpolatingParam id="709" interp="linr"  time="-9999999/1" value="0.80000000000000004" leadInLength="0/1"  />
            <InterpolatingParam id="710" interp="linr"  time="-9999999/1" value="0.80000000000000004" leadInLength="0/1"  />
            <InterpolatingParam id="711" interp="linr"  time="-9999999/1" value="1" leadInLength="0/1"  />
           </VectorParam>
           <VectorParam id="712"  name="anchor">
            <InterpolatingParam id="713" interp="linr"  time="0/1" value="0" leadInLength="0/1"  />
            <InterpolatingParam id="714" interp="linr"  time="0/1" value="0" leadInLength="0/1"  />
            <InterpolatingParam id="715" interp="linr"  time="0/1" value="0" leadInLength="0/1"  />
           </VectorParam>
          </Transformer>
          <Parameters>
           <VectorParam id="716"  name="sourceCrop">
            <InterpolatingParam id="717" interp="linr"  time="0/1" value="0" leadInLength="0/1"  />
            <InterpolatingParam id="718" interp="linr"  time="0/1" value="0" leadInLength="0/1"  />
            <InterpolatingParam id="719" interp="linr"  time="0/1" value="0" leadInLength="0/1"  />
            <InterpolatingParam id="720" interp="linr"  time="0/1" value="0" leadInLength="0/1"  />
           </VectorParam>
           <VectorParam id="721"  name="geometryCrop">
            <InterpolatingParam id="722" interp="linr"  time="-9999999/1" value="0" leadInLength="0/1"  />
            <InterpolatingParam id="723" interp="linr"  time="-9999999/1" value="0" leadInLength="0/1"  />
            <InterpolatingParam id="724" interp="linr"  time="-9999999/1" value="0" leadInLength="0/1"  />
            <InterpolatingParam id="725" interp="linr"  time="-9999999/1" value="0" leadInLength="0/1"  />
           </VectorParam>
           <InterpolatingParam id="726" interp="linr"  time="-9999999/1" value="1" leadInLength="0/1"  name="opacity"/>
           <InterpolatingParam id="727" interp="linr"  time="0/1" value="1" leadInLength="0/1"  name="cursorOpacity"/>
           <InterpolatingParam id="728" interp="linr"  time="0/1" value="1" leadInLength="0/1"  name="cursorScale"/>
          </Parameters>
          <Effects>
           <GenericEffect id="729" name = "CursorBaseEffectName" >
            <Parameters>
            <InterpolatingParam id="730" interp="linr"  time="-9999999/1" value="1" leadInLength="0/1"   name="cursorSize"/>
            <InterpolatingParam id="731" interp="linr"  time="-9999999/1" value="0" leadInLength="0/1"   name="highlightBlurRadius"/>
            <InterpolatingParam id="732" interp="linr"  time="-9999999/1" value="0" leadInLength="0/1"   name="highlightColorBlue"/>
            <InterpolatingParam id="733" interp="linr"  time="-9999999/1" value="255" leadInLength="0/1"   name="highlightColorGreen"/>
            <InterpolatingParam id="734" interp="linr"  time="-9999999/1" value="255" leadInLength="0/1"   name="highlightColorRed"/>
            <InterpolatingParam id="735" interp="linr"  time="-9999999/1" value="5" leadInLength="0/1"   name="highlightFeatherSize"/>
            <InterpolatingParam id="736" interp="linr"  time="-9999999/1" value="2" leadInLength="0/1"   name="highlightMagnification"/>
            <InterpolatingParam id="737" interp="linr"  time="-9999999/1" value="1" leadInLength="0/1"   name="highlightOpacity"/>
            <InterpolatingParam id="738" interp="linr"  time="-9999999/1" value="45" leadInLength="0/1"   name="highlightSize"/>
            <Parameter id="739"   name="highlightType">
             <Keyframes>
             <Keyframe id="740"  time="-9999999/1" value="0" leadInLength="0/1"  />
             </Keyframes>
            </Parameter>
            <InterpolatingParam id="741" interp="linr"  time="-9999999/1" value="0" leadInLength="0/1"   name="leftClickColorBlue"/>
            <InterpolatingParam id="742" interp="linr"  time="-9999999/1" value="0" leadInLength="0/1"   name="leftClickColorGreen"/>
            <InterpolatingParam id="743" interp="linr"  time="-9999999/1" value="255" leadInLength="0/1"   name="leftClickColorRed"/>
            <InterpolatingParam id="744" interp="linr"  time="-9999999/1" value="0.80000000000000004" leadInLength="0/1"   name="leftClickDuration"/>
            <InterpolatingParam id="745" interp="linr"  time="-9999999/1" value="20" leadInLength="0/1"   name="leftClickSize"/>
            <Parameter id="746"   name="leftClickSoundFilename">
             <Keyframes>
             <Keyframe id="747"  time="-9999999/1" value="" leadInLength="0/1"  />
             </Keyframes>
            </Parameter>
            <InterpolatingParam id="748" interp="linr"  time="-9999999/1" value="1" leadInLength="0/1"   name="leftClickSoundVolume"/>
            <Parameter id="749"   name="leftClickType">
             <Keyframes>
             <Keyframe id="750"  time="-9999999/1" value="0" leadInLength="0/1"  />
             </Keyframes>
            </Parameter>
            <InterpolatingParam id="751" interp="linr"  time="-9999999/1" value="1" leadInLength="0/1"   name="opacity"/>
            <InterpolatingParam id="752" interp="linr"  time="-9999999/1" value="255" leadInLength="0/1"   name="rightClickColorBlue"/>
            <InterpolatingParam id="753" interp="linr"  time="-9999999/1" value="0" leadInLength="0/1"   name="rightClickColorGreen"/>
            <InterpolatingParam id="754" interp="linr"  time="-9999999/1" value="0" leadInLength="0/1"   name="rightClickColorRed"/>
            <InterpolatingParam id="755" interp="linr"  time="-9999999/1" value="0.80000000000000004" leadInLength="0/1"   name="rightClickDuration"/>
            <InterpolatingParam id="756" interp="linr"  time="-9999999/1" value="20" leadInLength="0/1"   name="rightClickSize"/>
            <Parameter id="757"   name="rightClickSoundFilename">
             <Keyframes>
             <Keyframe id="758"  time="-9999999/1" value="" leadInLength="0/1"  />
             </Keyframes>
            </Parameter>
            <InterpolatingParam id="759" interp="linr"  time="-9999999/1" value="1" leadInLength="0/1"   name="rightClickSoundVolume"/>
            <Parameter id="760"   name="rightClickType">
             <Keyframes>
             <Keyframe id="761"  time="-9999999/1" value="0" leadInLength="0/1"  />
             </Keyframes>
            </Parameter>
            </Parameters>
            <MetaData>
             <entry key="effectIndex" val="0"/>
            </MetaData>
           </GenericEffect>
          </Effects>
          <Attributes>
           <Attribute id="762" value="" name="ident"/>
          </Attributes>
          <ExtraData>
           <Entry key="ZoomPanBin">
            <ZoomPanBin id="763"  >
             <ZoomPanKeyframes>
              <ZoomPanKeyframe id="764" timeRangeEnd="-9999999/1" timeRangeDuration="0/1" interpolaterName="linr"  />
             </ZoomPanKeyframes>
            </ZoomPanBin>
           </Entry>
           <Entry key="CursorEffectBin">
            <CursorEffectBin id="765"  >
             <CursorEffectKeyframes>
              <CursorEffectKeyframe id="766" timeRangeEnd="-9999999/1" timeRangeDuration="0/1" interpolaterName=""  />
             </CursorEffectKeyframes>
            </CursorEffectBin>
           </Entry>
          </ExtraData>
         </ScreenVMFile>
         <MetaData>
          <entry key="AutoAppliedSmartFocus" val="False"/>
          <entry key="WinSubProjectDisplayName" val=""/>
         </MetaData>
        </UnifiedMedia>
        <UnifiedMedia id="767"  >
         <AMFile id="768" start="3965" duration="585" scalar="1/1" mediaStart="0/1" mediaDuration="585/1" trackNumber="1" src="9" channelNumber="0,1" >
          <Parameters>
           <InterpolatingParam id="769" interp="linr"  time="0/1" value="1" leadInLength="0/1"  name="volume"/>
           <Parameter id="770"  name="captions"/>
          </Parameters>
          <Attributes>
           <Attribute id="771" value="" name="ident"/>
           <Attribute id="772" value="44100" name="sampleRate"/>
           <Attribute id="773" value="16" name="bitDepth"/>
           <Attribute id="774" value="1" name="gain"/>
           <Attribute id="775" value="0" name="mixToMono"/>
          </Attributes>
         </AMFile>
         <ScreenVMFile id="776" start="3965" duration="585" scalar="1/1" mediaStart="0/1" mediaDuration="585/1" trackNumber="0" src="9" >
          <Transformer>
           <VectorParam id="777"  name="translation">
            <InterpolatingParam id="778" interp="linr"  time="-9999999/1" value="0" leadInLength="0/1"  />
            <InterpolatingParam id="779" interp="linr"  time="-9999999/1" value="0" leadInLength="0/1"  />
            <InterpolatingParam id="780" interp="linr"  time="-9999999/1" value="0" leadInLength="0/1"  />
           </VectorParam>
           <VectorParam id="781"  name="rotation">
            <InterpolatingParam id="782" interp="linr"  time="-9999999/1" value="0" leadInLength="0/1"  />
            <InterpolatingParam id="783" interp="linr"  time="-9999999/1" value="0" leadInLength="0/1"  />
            <InterpolatingParam id="784" interp="linr"  time="-9999999/1" value="0" leadInLength="0/1"  />
           </VectorParam>
           <VectorParam id="785"  name="shear">
            <InterpolatingParam id="786" interp="linr"  time="-9999999/1" value="0" leadInLength="0/1"  />
            <InterpolatingParam id="787" interp="linr"  time="-9999999/1" value="0" leadInLength="0/1"  />
            <InterpolatingParam id="788" interp="linr"  time="-9999999/1" value="0" leadInLength="0/1"  />
           </VectorParam>
           <VectorParam id="789"  name="scale">
            <InterpolatingParam id="790" interp="linr"  time="-9999999/1" value="0.80000000000000004" leadInLength="0/1"  />
            <InterpolatingParam id="791" interp="linr"  time="-9999999/1" value="0.80000000000000004" leadInLength="0/1"  />
            <InterpolatingParam id="792" interp="linr"  time="-9999999/1" value="1" leadInLength="0/1"  />
           </VectorParam>
           <VectorParam id="793"  name="anchor">
            <InterpolatingParam id="794" interp="linr"  time="0/1" value="0" leadInLength="0/1"  />
            <InterpolatingParam id="795" interp="linr"  time="0/1" value="0" leadInLength="0/1"  />
            <InterpolatingParam id="796" interp="linr"  time="0/1" value="0" leadInLength="0/1"  />
           </VectorParam>
          </Transformer>
          <Parameters>
           <VectorParam id="797"  name="sourceCrop">
            <InterpolatingParam id="798" interp="linr"  time="0/1" value="0" leadInLength="0/1"  />
            <InterpolatingParam id="799" interp="linr"  time="0/1" value="0" leadInLength="0/1"  />
            <InterpolatingParam id="800" interp="linr"  time="0/1" value="0" leadInLength="0/1"  />
            <InterpolatingParam id="801" interp="linr"  time="0/1" value="0" leadInLength="0/1"  />
           </VectorParam>
           <VectorParam id="802"  name="geometryCrop">
            <InterpolatingParam id="803" interp="linr"  time="-9999999/1" value="0" leadInLength="0/1"  />
            <InterpolatingParam id="804" interp="linr"  time="-9999999/1" value="0" leadInLength="0/1"  />
            <InterpolatingParam id="805" interp="linr"  time="-9999999/1" value="0" leadInLength="0/1"  />
            <InterpolatingParam id="806" interp="linr"  time="-9999999/1" value="0" leadInLength="0/1"  />
           </VectorParam>
           <InterpolatingParam id="807" interp="linr"  time="-9999999/1" value="1" leadInLength="0/1"  name="opacity"/>
           <InterpolatingParam id="808" interp="linr"  time="0/1" value="1" leadInLength="0/1"  name="cursorOpacity"/>
           <InterpolatingParam id="809" interp="linr"  time="0/1" value="1" leadInLength="0/1"  name="cursorScale"/>
          </Parameters>
          <Effects>
           <GenericEffect id="810" name = "CursorBaseEffectName" >
            <Parameters>
            <InterpolatingParam id="811" interp="linr"  time="-9999999/1" value="1" leadInLength="0/1"   name="cursorSize"/>
            <InterpolatingParam id="812" interp="linr"  time="-9999999/1" value="0" leadInLength="0/1"   name="highlightBlurRadius"/>
            <InterpolatingParam id="813" interp="linr"  time="-9999999/1" value="0" leadInLength="0/1"   name="highlightColorBlue"/>
            <InterpolatingParam id="814" interp="linr"  time="-9999999/1" value="255" leadInLength="0/1"   name="highlightColorGreen"/>
            <InterpolatingParam id="815" interp="linr"  time="-9999999/1" value="255" leadInLength="0/1"   name="highlightColorRed"/>
            <InterpolatingParam id="816" interp="linr"  time="-9999999/1" value="5" leadInLength="0/1"   name="highlightFeatherSize"/>
            <InterpolatingParam id="817" interp="linr"  time="-9999999/1" value="2" leadInLength="0/1"   name="highlightMagnification"/>
            <InterpolatingParam id="818" interp="linr"  time="-9999999/1" value="1" leadInLength="0/1"   name="highlightOpacity"/>
            <InterpolatingParam id="819" interp="linr"  time="-9999999/1" value="45" leadInLength="0/1"   name="highlightSize"/>
            <Parameter id="820"   name="highlightType">
             <Keyframes>
             <Keyframe id="821"  time="-9999999/1" value="0" leadInLength="0/1"  />
             </Keyframes>
            </Parameter>
            <InterpolatingParam id="822" interp="linr"  time="-9999999/1" value="0" leadInLength="0/1"   name="leftClickColorBlue"/>
            <InterpolatingParam id="823" interp="linr"  time="-9999999/1" value="0" leadInLength="0/1"   name="leftClickColorGreen"/>
            <InterpolatingParam id="824" interp="linr"  time="-9999999/1" value="255" leadInLength="0/1"   name="leftClickColorRed"/>
            <InterpolatingParam id="825" interp="linr"  time="-9999999/1" value="0.80000000000000004" leadInLength="0/1"   name="leftClickDuration"/>
            <InterpolatingParam id="826" interp="linr"  time="-9999999/1" value="20" leadInLength="0/1"   name="leftClickSize"/>
            <Parameter id="827"   name="leftClickSoundFilename">
             <Keyframes>
             <Keyframe id="828"  time="-9999999/1" value="" leadInLength="0/1"  />
             </Keyframes>
            </Parameter>
            <InterpolatingParam id="829" interp="linr"  time="-9999999/1" value="1" leadInLength="0/1"   name="leftClickSoundVolume"/>
            <Parameter id="830"   name="leftClickType">
             <Keyframes>
             <Keyframe id="831"  time="-9999999/1" value="0" leadInLength="0/1"  />
             </Keyframes>
            </Parameter>
            <InterpolatingParam id="832" interp="linr"  time="-9999999/1" value="1" leadInLength="0/1"   name="opacity"/>
            <InterpolatingParam id="833" interp="linr"  time="-9999999/1" value="255" leadInLength="0/1"   name="rightClickColorBlue"/>
            <InterpolatingParam id="834" interp="linr"  time="-9999999/1" value="0" leadInLength="0/1"   name="rightClickColorGreen"/>
            <InterpolatingParam id="835" interp="linr"  time="-9999999/1" value="0" leadInLength="0/1"   name="rightClickColorRed"/>
            <InterpolatingParam id="836" interp="linr"  time="-9999999/1" value="0.80000000000000004" leadInLength="0/1"   name="rightClickDuration"/>
            <InterpolatingParam id="837" interp="linr"  time="-9999999/1" value="20" leadInLength="0/1"   name="rightClickSize"/>
            <Parameter id="838"   name="rightClickSoundFilename">
             <Keyframes>
             <Keyframe id="839"  time="-9999999/1" value="" leadInLength="0/1"  />
             </Keyframes>
            </Parameter>
            <InterpolatingParam id="840" interp="linr"  time="-9999999/1" value="1" leadInLength="0/1"   name="rightClickSoundVolume"/>
            <Parameter id="841"   name="rightClickType">
             <Keyframes>
             <Keyframe id="842"  time="-9999999/1" value="0" leadInLength="0/1"  />
             </Keyframes>
            </Parameter>
            </Parameters>
            <MetaData>
             <entry key="effectIndex" val="0"/>
            </MetaData>
           </GenericEffect>
          </Effects>
          <Attributes>
           <Attribute id="843" value="" name="ident"/>
          </Attributes>
          <ExtraData>
           <Entry key="ZoomPanBin">
            <ZoomPanBin id="844"  >
             <ZoomPanKeyframes>
              <ZoomPanKeyframe id="845" timeRangeEnd="-9999999/1" timeRangeDuration="0/1" interpolaterName="linr"  />
             </ZoomPanKeyframes>
            </ZoomPanBin>
           </Entry>
           <Entry key="CursorEffectBin">
            <CursorEffectBin id="846"  >
             <CursorEffectKeyframes>
              <CursorEffectKeyframe id="847" timeRangeEnd="-9999999/1" timeRangeDuration="0/1" interpolaterName=""  />
             </CursorEffectKeyframes>
            </CursorEffectBin>
           </Entry>
          </ExtraData>
         </ScreenVMFile>
         <MetaData>
          <entry key="AutoAppliedSmartFocus" val="False"/>
          <entry key="WinSubProjectDisplayName" val=""/>
         </MetaData>
        </UnifiedMedia>
        <StitchedMedia id="848" start="4550" duration="4400" scalar="1/1" mediaStart="0/1" mediaDuration="4400/1" minMediaStart="0/1" >
         <Transformer>
          <VectorParam id="849"  name="translation">
           <InterpolatingParam id="850" interp="linr"  time="-9999999/1" value="0" leadInLength="0/1"  />
           <InterpolatingParam id="851" interp="linr"  time="-9999999/1" value="0" leadInLength="0/1"  />
           <InterpolatingParam id="852" interp="linr"  time="-9999999/1" value="0" leadInLength="0/1"  />
          </VectorParam>
          <VectorParam id="853"  name="rotation">
           <InterpolatingParam id="854" interp="linr"  time="-9999999/1" value="0" leadInLength="0/1"  />
           <InterpolatingParam id="855" interp="linr"  time="-9999999/1" value="0" leadInLength="0/1"  />
           <InterpolatingParam id="856" interp="linr"  time="-9999999/1" value="0" leadInLength="0/1"  />
          </VectorParam>
          <VectorParam id="857"  name="shear">
           <InterpolatingParam id="858" interp="linr"  time="-9999999/1" value="0" leadInLength="0/1"  />
           <InterpolatingParam id="859" interp="linr"  time="-9999999/1" value="0" leadInLength="0/1"  />
           <InterpolatingParam id="860" interp="linr"  time="-9999999/1" value="0" leadInLength="0/1"  />
          </VectorParam>
          <VectorParam id="861"  name="scale">
           <InterpolatingParam id="862" interp="linr"  time="-9999999/1" value="0.80000000000000004" leadInLength="0/1"  />
           <InterpolatingParam id="863" interp="linr"  time="-9999999/1" value="0.80000000000000004" leadInLength="0/1"  />
           <InterpolatingParam id="864" interp="linr"  time="-9999999/1" value="1" leadInLength="0/1"  />
          </VectorParam>
          <VectorParam id="865"  name="anchor">
           <InterpolatingParam id="866" interp="linr"  time="0/1" value="0" leadInLength="0/1"  />
           <InterpolatingParam id="867" interp="linr"  time="0/1" value="0" leadInLength="0/1"  />
           <InterpolatingParam id="868" interp="linr"  time="0/1" value="0" leadInLength="0/1"  />
          </VectorParam>
         </Transformer>
         <Parameters>
          <VectorParam id="869"  name="sourceCrop">
           <InterpolatingParam id="870" interp="linr"  time="0/1" value="0" leadInLength="0/1"  />
           <InterpolatingParam id="871" interp="linr"  time="0/1" value="0" leadInLength="0/1"  />
           <InterpolatingParam id="872" interp="linr"  time="0/1" value="0" leadInLength="0/1"  />
           <InterpolatingParam id="873" interp="linr"  time="0/1" value="0" leadInLength="0/1"  />
          </VectorParam>
          <VectorParam id="874"  name="geometryCrop">
           <InterpolatingParam id="875" interp="linr"  time="-9999999/1" value="0" leadInLength="0/1"  />
           <InterpolatingParam id="876" interp="linr"  time="-9999999/1" value="0" leadInLength="0/1"  />
           <InterpolatingParam id="877" interp="linr"  time="-9999999/1" value="0" leadInLength="0/1"  />
           <InterpolatingParam id="878" interp="linr"  time="-9999999/1" value="0" leadInLength="0/1"  />
          </VectorParam>
          <InterpolatingParam id="879" interp="linr"  time="-9999999/1" value="1" leadInLength="0/1"  name="opacity"/>
          <InterpolatingParam id="880" interp="linr"  time="0/1" value="1" leadInLength="0/1"  name="cursorOpacity"/>
          <InterpolatingParam id="881" interp="linr"  time="0/1" value="1" leadInLength="0/1"  name="cursorScale"/>
          <InterpolatingParam id="882" interp="linr"  time="0/1" value="1" leadInLength="0/1"  name="volume"/>
          <Parameter id="883"  name="captions"/>
         </Parameters>
         <Effects>
          <GenericEffect id="884" name = "CursorBaseEffectName" >
           <Parameters>
           <InterpolatingParam id="885" interp="linr"  time="-9999999/1" value="1" leadInLength="0/1"   name="cursorSize"/>
           <InterpolatingParam id="886" interp="linr"  time="-9999999/1" value="0" leadInLength="0/1"   name="highlightBlurRadius"/>
           <InterpolatingParam id="887" interp="linr"  time="-9999999/1" value="0" leadInLength="0/1"   name="highlightColorBlue"/>
           <InterpolatingParam id="888" interp="linr"  time="-9999999/1" value="255" leadInLength="0/1"   name="highlightColorGreen"/>
           <InterpolatingParam id="889" interp="linr"  time="-9999999/1" value="255" leadInLength="0/1"   name="highlightColorRed"/>
           <InterpolatingParam id="890" interp="linr"  time="-9999999/1" value="5" leadInLength="0/1"   name="highlightFeatherSize"/>
           <InterpolatingParam id="891" interp="linr"  time="-9999999/1" value="2" leadInLength="0/1"   name="highlightMagnification"/>
           <InterpolatingParam id="892" interp="linr"  time="-9999999/1" value="1" leadInLength="0/1"   name="highlightOpacity"/>
           <InterpolatingParam id="893" interp="linr"  time="-9999999/1" value="45" leadInLength="0/1"   name="highlightSize"/>
           <Parameter id="894"   name="highlightType">
            <Keyframes>
            <Keyframe id="895"  time="-9999999/1" value="0" leadInLength="0/1"  />
            </Keyframes>
           </Parameter>
           <InterpolatingParam id="896" interp="linr"  time="-9999999/1" value="0" leadInLength="0/1"   name="leftClickColorBlue"/>
           <InterpolatingParam id="897" interp="linr"  time="-9999999/1" value="0" leadInLength="0/1"   name="leftClickColorGreen"/>
           <InterpolatingParam id="898" interp="linr"  time="-9999999/1" value="255" leadInLength="0/1"   name="leftClickColorRed"/>
           <InterpolatingParam id="899" interp="linr"  time="-9999999/1" value="0.80000000000000004" leadInLength="0/1"   name="leftClickDuration"/>
           <InterpolatingParam id="900" interp="linr"  time="-9999999/1" value="20" leadInLength="0/1"   name="leftClickSize"/>
           <Parameter id="901"   name="leftClickSoundFilename">
            <Keyframes>
            <Keyframe id="902"  time="-9999999/1" value="" leadInLength="0/1"  />
            </Keyframes>
           </Parameter>
           <InterpolatingParam id="903" interp="linr"  time="-9999999/1" value="1" leadInLength="0/1"   name="leftClickSoundVolume"/>
           <Parameter id="904"   name="leftClickType">
            <Keyframes>
            <Keyframe id="905"  time="-9999999/1" value="0" leadInLength="0/1"  />
            </Keyframes>
           </Parameter>
           <InterpolatingParam id="906" interp="linr"  time="-9999999/1" value="1" leadInLength="0/1"   name="opacity"/>
           <InterpolatingParam id="907" interp="linr"  time="-9999999/1" value="255" leadInLength="0/1"   name="rightClickColorBlue"/>
           <InterpolatingParam id="908" interp="linr"  time="-9999999/1" value="0" leadInLength="0/1"   name="rightClickColorGreen"/>
           <InterpolatingParam id="909" interp="linr"  time="-9999999/1" value="0" leadInLength="0/1"   name="rightClickColorRed"/>
           <InterpolatingParam id="910" interp="linr"  time="-9999999/1" value="0.80000000000000004" leadInLength="0/1"   name="rightClickDuration"/>
           <InterpolatingParam id="911" interp="linr"  time="-9999999/1" value="20" leadInLength="0/1"   name="rightClickSize"/>
           <Parameter id="912"   name="rightClickSoundFilename">
            <Keyframes>
            <Keyframe id="913"  time="-9999999/1" value="" leadInLength="0/1"  />
            </Keyframes>
           </Parameter>
           <InterpolatingParam id="914" interp="linr"  time="-9999999/1" value="1" leadInLength="0/1"   name="rightClickSoundVolume"/>
           <Parameter id="915"   name="rightClickType">
            <Keyframes>
            <Keyframe id="916"  time="-9999999/1" value="0" leadInLength="0/1"  />
            </Keyframes>
           </Parameter>
           </Parameters>
           <MetaData>
            <entry key="effectIndex" val="0"/>
           </MetaData>
          </GenericEffect>
         </Effects>
         <Attributes>
          <Attribute id="917" value="" name="ident"/>
          <Attribute id="918" value="0" name="mixToMono"/>
         </Attributes>
         <MetaData>
          <entry key="AutoAppliedSmartFocus" val="False"/>
          <entry key="WinSubProjectDisplayName" val=""/>
         </MetaData>
         <ExtraData>
          <Entry key="ZoomPanBin">
           <ZoomPanBin id="919"  >
            <ZoomPanKeyframes>
             <ZoomPanKeyframe id="920" timeRangeEnd="-9999999/1" timeRangeDuration="0/1" interpolaterName=""  />
            </ZoomPanKeyframes>
           </ZoomPanBin>
          </Entry>
          <Entry key="CursorEffectBin">
           <CursorEffectBin id="921"  >
            <CursorEffectKeyframes>
             <CursorEffectKeyframe id="922" timeRangeEnd="-9999999/1" timeRangeDuration="0/1" interpolaterName=""  />
            </CursorEffectKeyframes>
           </CursorEffectBin>
          </Entry>
         </ExtraData>
         <GenericTrack id="923"  >
          <Attributes>
           <Attribute id="924" value="" name="ident"/>
           <Attribute id="925" value="0" name="audioMuted"/>
           <Attribute id="926" value="0" name="videoHidden"/>
          </Attributes>
          <MetaData>
           <entry key="IsLocked" val="False"/>
           <entry key="WinTrackHeight" val="0"/>
          </MetaData>
          <Medias>
           <UnifiedMedia id="927"  >
            <AMFile id="928" start="0" duration="515" scalar="1/1" mediaStart="0/1" mediaDuration="515/1" trackNumber="1" src="10" channelNumber="0,1" >
             <Parameters>
              <InterpolatingParam id="929" interp="linr"  time="0/1" value="1" leadInLength="0/1"  name="volume"/>
              <Parameter id="930"  name="captions"/>
             </Parameters>
             <Attributes>
              <Attribute id="931" value="" name="ident"/>
              <Attribute id="932" value="44100" name="sampleRate"/>
              <Attribute id="933" value="16" name="bitDepth"/>
              <Attribute id="934" value="1" name="gain"/>
              <Attribute id="935" value="0" name="mixToMono"/>
             </Attributes>
            </AMFile>
            <ScreenVMFile id="936" start="0" duration="515" scalar="1/1" mediaStart="0/1" mediaDuration="515/1" trackNumber="0" src="10" >
             <Transformer>
              <VectorParam id="937"  name="translation">
               <InterpolatingParam id="938" interp="linr"  time="-9999999/1" value="0" leadInLength="0/1"  />
               <InterpolatingParam id="939" interp="linr"  time="-9999999/1" value="0" leadInLength="0/1"  />
               <InterpolatingParam id="940" interp="linr"  time="-9999999/1" value="0" leadInLength="0/1"  />
              </VectorParam>
              <VectorParam id="941"  name="rotation">
               <InterpolatingParam id="942" interp="linr"  time="-9999999/1" value="0" leadInLength="0/1"  />
               <InterpolatingParam id="943" interp="linr"  time="-9999999/1" value="0" leadInLength="0/1"  />
               <InterpolatingParam id="944" interp="linr"  time="-9999999/1" value="0" leadInLength="0/1"  />
              </VectorParam>
              <VectorParam id="945"  name="shear">
               <InterpolatingParam id="946" interp="linr"  time="-9999999/1" value="0" leadInLength="0/1"  />
               <InterpolatingParam id="947" interp="linr"  time="-9999999/1" value="0" leadInLength="0/1"  />
               <InterpolatingParam id="948" interp="linr"  time="-9999999/1" value="0" leadInLength="0/1"  />
              </VectorParam>
              <VectorParam id="949"  name="scale">
               <InterpolatingParam id="950" interp="linr"  time="-9999999/1" value="1" leadInLength="0/1"  />
               <InterpolatingParam id="951" interp="linr"  time="-9999999/1" value="1" leadInLength="0/1"  />
               <InterpolatingParam id="952" interp="linr"  time="-9999999/1" value="1" leadInLength="0/1"  />
              </VectorParam>
              <VectorParam id="953"  name="anchor">
               <InterpolatingParam id="954" interp="linr"  time="0/1" value="0" leadInLength="0/1"  />
               <InterpolatingParam id="955" interp="linr"  time="0/1" value="0" leadInLength="0/1"  />
               <InterpolatingParam id="956" interp="linr"  time="0/1" value="0" leadInLength="0/1"  />
              </VectorParam>
             </Transformer>
             <Parameters>
              <VectorParam id="957"  name="sourceCrop">
               <InterpolatingParam id="958" interp="linr"  time="0/1" value="0" leadInLength="0/1"  />
               <InterpolatingParam id="959" interp="linr"  time="0/1" value="0" leadInLength="0/1"  />
               <InterpolatingParam id="960" interp="linr"  time="0/1" value="0" leadInLength="0/1"  />
               <InterpolatingParam id="961" interp="linr"  time="0/1" value="0" leadInLength="0/1"  />
              </VectorParam>
              <VectorParam id="962"  name="geometryCrop">
               <InterpolatingParam id="963" interp="linr"  time="-9999999/1" value="0" leadInLength="0/1"  />
               <InterpolatingParam id="964" interp="linr"  time="-9999999/1" value="0" leadInLength="0/1"  />
               <InterpolatingParam id="965" interp="linr"  time="-9999999/1" value="0" leadInLength="0/1"  />
               <InterpolatingParam id="966" interp="linr"  time="-9999999/1" value="0" leadInLength="0/1"  />
              </VectorParam>
              <InterpolatingParam id="967" interp="linr"  time="-9999999/1" value="1" leadInLength="0/1"  name="opacity"/>
              <InterpolatingParam id="968" interp="linr"  time="0/1" value="0" leadInLength="0/1"  name="cursorOpacity"/>
              <InterpolatingParam id="969" interp="linr"  time="0/1" value="0" leadInLength="0/1"  name="cursorScale"/>
             </Parameters>
             <Attributes>
              <Attribute id="970" value="" name="ident"/>
             </Attributes>
             <ExtraData>
              <Entry key="ZoomPanBin">
               <ZoomPanBin id="971"  >
                <ZoomPanKeyframes>
                 <ZoomPanKeyframe id="972" timeRangeEnd="-9999999/1" timeRangeDuration="0/1" interpolaterName=""  />
                </ZoomPanKeyframes>
               </ZoomPanBin>
              </Entry>
              <Entry key="CursorEffectBin">
               <CursorEffectBin id="973"  >
                <CursorEffectKeyframes>
                </CursorEffectKeyframes>
               </CursorEffectBin>
              </Entry>
             </ExtraData>
            </ScreenVMFile>
            <MetaData>
             <entry key="AutoAppliedSmartFocus" val="False"/>
             <entry key="WinSubProjectDisplayName" val=""/>
            </MetaData>
           </UnifiedMedia>
           <UnifiedMedia id="974"  >
            <AMFile id="975" start="515" duration="703" scalar="1/1" mediaStart="685/1" mediaDuration="703/1" trackNumber="1" src="10" channelNumber="0,1" >
             <Parameters>
              <InterpolatingParam id="976" interp="linr"  time="0/1" value="1" leadInLength="0/1"  name="volume"/>
              <Parameter id="977"  name="captions"/>
             </Parameters>
             <Attributes>
              <Attribute id="978" value="" name="ident"/>
              <Attribute id="979" value="44100" name="sampleRate"/>
              <Attribute id="980" value="16" name="bitDepth"/>
              <Attribute id="981" value="1" name="gain"/>
              <Attribute id="982" value="0" name="mixToMono"/>
             </Attributes>
            </AMFile>
            <ScreenVMFile id="983" start="515" duration="703" scalar="1/1" mediaStart="685/1" mediaDuration="703/1" trackNumber="0" src="10" >
             <Transformer>
              <VectorParam id="984"  name="translation">
               <InterpolatingParam id="985" interp="linr"  time="-9999999/1" value="0" leadInLength="0/1"  />
               <InterpolatingParam id="986" interp="linr"  time="-9999999/1" value="0" leadInLength="0/1"  />
               <InterpolatingParam id="987" interp="linr"  time="-9999999/1" value="0" leadInLength="0/1"  />
              </VectorParam>
              <VectorParam id="988"  name="rotation">
               <InterpolatingParam id="989" interp="linr"  time="-9999999/1" value="0" leadInLength="0/1"  />
               <InterpolatingParam id="990" interp="linr"  time="-9999999/1" value="0" leadInLength="0/1"  />
               <InterpolatingParam id="991" interp="linr"  time="-9999999/1" value="0" leadInLength="0/1"  />
              </VectorParam>
              <VectorParam id="992"  name="shear">
               <InterpolatingParam id="993" interp="linr"  time="-9999999/1" value="0" leadInLength="0/1"  />
               <InterpolatingParam id="994" interp="linr"  time="-9999999/1" value="0" leadInLength="0/1"  />
               <InterpolatingParam id="995" interp="linr"  time="-9999999/1" value="0" leadInLength="0/1"  />
              </VectorParam>
              <VectorParam id="996"  name="scale">
               <InterpolatingParam id="997" interp="linr"  time="-9999999/1" value="1" leadInLength="0/1"  />
               <InterpolatingParam id="998" interp="linr"  time="-9999999/1" value="1" leadInLength="0/1"  />
               <InterpolatingParam id="999" interp="linr"  time="-9999999/1" value="1" leadInLength="0/1"  />
              </VectorParam>
              <VectorParam id="1000"  name="anchor">
               <InterpolatingParam id="1001" interp="linr"  time="0/1" value="0" leadInLength="0/1"  />
               <InterpolatingParam id="1002" interp="linr"  time="0/1" value="0" leadInLength="0/1"  />
               <InterpolatingParam id="1003" interp="linr"  time="0/1" value="0" leadInLength="0/1"  />
              </VectorParam>
             </Transformer>
             <Parameters>
              <VectorParam id="1004"  name="sourceCrop">
               <InterpolatingParam id="1005" interp="linr"  time="0/1" value="0" leadInLength="0/1"  />
               <InterpolatingParam id="1006" interp="linr"  time="0/1" value="0" leadInLength="0/1"  />
               <InterpolatingParam id="1007" interp="linr"  time="0/1" value="0" leadInLength="0/1"  />
               <InterpolatingParam id="1008" interp="linr"  time="0/1" value="0" leadInLength="0/1"  />
              </VectorParam>
              <VectorParam id="1009"  name="geometryCrop">
               <InterpolatingParam id="1010" interp="linr"  time="-9999999/1" value="0" leadInLength="0/1"  />
               <InterpolatingParam id="1011" interp="linr"  time="-9999999/1" value="0" leadInLength="0/1"  />
               <InterpolatingParam id="1012" interp="linr"  time="-9999999/1" value="0" leadInLength="0/1"  />
               <InterpolatingParam id="1013" interp="linr"  time="-9999999/1" value="0" leadInLength="0/1"  />
              </VectorParam>
              <InterpolatingParam id="1014" interp="linr"  time="-9999999/1" value="1" leadInLength="0/1"  name="opacity"/>
              <InterpolatingParam id="1015" interp="linr"  time="0/1" value="0" leadInLength="0/1"  name="cursorOpacity"/>
              <InterpolatingParam id="1016" interp="linr"  time="0/1" value="0" leadInLength="0/1"  name="cursorScale"/>
             </Parameters>
             <Attributes>
              <Attribute id="1017" value="" name="ident"/>
             </Attributes>
             <ExtraData>
              <Entry key="ZoomPanBin">
               <ZoomPanBin id="1018"  >
                <ZoomPanKeyframes>
                 <ZoomPanKeyframe id="1019" timeRangeEnd="-9999999/1" timeRangeDuration="0/1" interpolaterName=""  />
                </ZoomPanKeyframes>
               </ZoomPanBin>
              </Entry>
              <Entry key="CursorEffectBin">
               <CursorEffectBin id="1020"  >
                <CursorEffectKeyframes>
                </CursorEffectKeyframes>
               </CursorEffectBin>
              </Entry>
             </ExtraData>
            </ScreenVMFile>
            <MetaData>
             <entry key="AutoAppliedSmartFocus" val="False"/>
             <entry key="WinSubProjectDisplayName" val=""/>
            </MetaData>
           </UnifiedMedia>
           <UnifiedMedia id="1021"  >
            <AMFile id="1022" start="1218" duration="1945" scalar="1/1" mediaStart="1483/1" mediaDuration="1945/1" trackNumber="1" src="10" channelNumber="0,1" >
             <Parameters>
              <InterpolatingParam id="1023" interp="linr"  time="0/1" value="1" leadInLength="0/1"  name="volume"/>
              <Parameter id="1024"  name="captions"/>
             </Parameters>
             <Attributes>
              <Attribute id="1025" value="" name="ident"/>
              <Attribute id="1026" value="44100" name="sampleRate"/>
              <Attribute id="1027" value="16" name="bitDepth"/>
              <Attribute id="1028" value="1" name="gain"/>
              <Attribute id="1029" value="0" name="mixToMono"/>
             </Attributes>
            </AMFile>
            <ScreenVMFile id="1030" start="1218" duration="1945" scalar="1/1" mediaStart="1483/1" mediaDuration="1945/1" trackNumber="0" src="10" >
             <Transformer>
              <VectorParam id="1031"  name="translation">
               <InterpolatingParam id="1032" interp="linr"  time="-9999999/1" value="0" leadInLength="0/1"  />
               <InterpolatingParam id="1033" interp="linr"  time="-9999999/1" value="0" leadInLength="0/1"  />
               <InterpolatingParam id="1034" interp="linr"  time="-9999999/1" value="0" leadInLength="0/1"  />
              </VectorParam>
              <VectorParam id="1035"  name="rotation">
               <InterpolatingParam id="1036" interp="linr"  time="-9999999/1" value="0" leadInLength="0/1"  />
               <InterpolatingParam id="1037" interp="linr"  time="-9999999/1" value="0" leadInLength="0/1"  />
               <InterpolatingParam id="1038" interp="linr"  time="-9999999/1" value="0" leadInLength="0/1"  />
              </VectorParam>
              <VectorParam id="1039"  name="shear">
               <InterpolatingParam id="1040" interp="linr"  time="-9999999/1" value="0" leadInLength="0/1"  />
               <InterpolatingParam id="1041" interp="linr"  time="-9999999/1" value="0" leadInLength="0/1"  />
               <InterpolatingParam id="1042" interp="linr"  time="-9999999/1" value="0" leadInLength="0/1"  />
              </VectorParam>
              <VectorParam id="1043"  name="scale">
               <InterpolatingParam id="1044" interp="linr"  time="-9999999/1" value="1" leadInLength="0/1"  />
               <InterpolatingParam id="1045" interp="linr"  time="-9999999/1" value="1" leadInLength="0/1"  />
               <InterpolatingParam id="1046" interp="linr"  time="-9999999/1" value="1" leadInLength="0/1"  />
              </VectorParam>
              <VectorParam id="1047"  name="anchor">
               <InterpolatingParam id="1048" interp="linr"  time="0/1" value="0" leadInLength="0/1"  />
               <InterpolatingParam id="1049" interp="linr"  time="0/1" value="0" leadInLength="0/1"  />
               <InterpolatingParam id="1050" interp="linr"  time="0/1" value="0" leadInLength="0/1"  />
              </VectorParam>
             </Transformer>
             <Parameters>
              <VectorParam id="1051"  name="sourceCrop">
               <InterpolatingParam id="1052" interp="linr"  time="0/1" value="0" leadInLength="0/1"  />
               <InterpolatingParam id="1053" interp="linr"  time="0/1" value="0" leadInLength="0/1"  />
               <InterpolatingParam id="1054" interp="linr"  time="0/1" value="0" leadInLength="0/1"  />
               <InterpolatingParam id="1055" interp="linr"  time="0/1" value="0" leadInLength="0/1"  />
              </VectorParam>
              <VectorParam id="1056"  name="geometryCrop">
               <InterpolatingParam id="1057" interp="linr"  time="-9999999/1" value="0" leadInLength="0/1"  />
               <InterpolatingParam id="1058" interp="linr"  time="-9999999/1" value="0" leadInLength="0/1"  />
               <InterpolatingParam id="1059" interp="linr"  time="-9999999/1" value="0" leadInLength="0/1"  />
               <InterpolatingParam id="1060" interp="linr"  time="-9999999/1" value="0" leadInLength="0/1"  />
              </VectorParam>
              <InterpolatingParam id="1061" interp="linr"  time="-9999999/1" value="1" leadInLength="0/1"  name="opacity"/>
              <InterpolatingParam id="1062" interp="linr"  time="0/1" value="0" leadInLength="0/1"  name="cursorOpacity"/>
              <InterpolatingParam id="1063" interp="linr"  time="0/1" value="0" leadInLength="0/1"  name="cursorScale"/>
             </Parameters>
             <Attributes>
              <Attribute id="1064" value="" name="ident"/>
             </Attributes>
             <ExtraData>
              <Entry key="ZoomPanBin">
               <ZoomPanBin id="1065"  >
                <ZoomPanKeyframes>
                 <ZoomPanKeyframe id="1066" timeRangeEnd="-9999999/1" timeRangeDuration="0/1" interpolaterName=""  />
                </ZoomPanKeyframes>
               </ZoomPanBin>
              </Entry>
              <Entry key="CursorEffectBin">
               <CursorEffectBin id="1067"  >
                <CursorEffectKeyframes>
                </CursorEffectKeyframes>
               </CursorEffectBin>
              </Entry>
             </ExtraData>
            </ScreenVMFile>
            <MetaData>
             <entry key="AutoAppliedSmartFocus" val="False"/>
             <entry key="WinSubProjectDisplayName" val=""/>
            </MetaData>
           </UnifiedMedia>
           <UnifiedMedia id="1068"  >
            <AMFile id="1069" start="3163" duration="764" scalar="1/1" mediaStart="3518/1" mediaDuration="764/1" trackNumber="1" src="10" channelNumber="0,1" >
             <Parameters>
              <InterpolatingParam id="1070" interp="linr"  time="0/1" value="1" leadInLength="0/1"  name="volume"/>
              <Parameter id="1071"  name="captions"/>
             </Parameters>
             <Attributes>
              <Attribute id="1072" value="" name="ident"/>
              <Attribute id="1073" value="44100" name="sampleRate"/>
              <Attribute id="1074" value="16" name="bitDepth"/>
              <Attribute id="1075" value="1" name="gain"/>
              <Attribute id="1076" value="0" name="mixToMono"/>
             </Attributes>
            </AMFile>
            <ScreenVMFile id="1077" start="3163" duration="764" scalar="1/1" mediaStart="3518/1" mediaDuration="764/1" trackNumber="0" src="10" >
             <Transformer>
              <VectorParam id="1078"  name="translation">
               <InterpolatingParam id="1079" interp="linr"  time="-9999999/1" value="0" leadInLength="0/1"  />
               <InterpolatingParam id="1080" interp="linr"  time="-9999999/1" value="0" leadInLength="0/1"  />
               <InterpolatingParam id="1081" interp="linr"  time="-9999999/1" value="0" leadInLength="0/1"  />
              </VectorParam>
              <VectorParam id="1082"  name="rotation">
               <InterpolatingParam id="1083" interp="linr"  time="-9999999/1" value="0" leadInLength="0/1"  />
               <InterpolatingParam id="1084" interp="linr"  time="-9999999/1" value="0" leadInLength="0/1"  />
               <InterpolatingParam id="1085" interp="linr"  time="-9999999/1" value="0" leadInLength="0/1"  />
              </VectorParam>
              <VectorParam id="1086"  name="shear">
               <InterpolatingParam id="1087" interp="linr"  time="-9999999/1" value="0" leadInLength="0/1"  />
               <InterpolatingParam id="1088" interp="linr"  time="-9999999/1" value="0" leadInLength="0/1"  />
               <InterpolatingParam id="1089" interp="linr"  time="-9999999/1" value="0" leadInLength="0/1"  />
              </VectorParam>
              <VectorParam id="1090"  name="scale">
               <InterpolatingParam id="1091" interp="linr"  time="-9999999/1" value="1" leadInLength="0/1"  />
               <InterpolatingParam id="1092" interp="linr"  time="-9999999/1" value="1" leadInLength="0/1"  />
               <InterpolatingParam id="1093" interp="linr"  time="-9999999/1" value="1" leadInLength="0/1"  />
              </VectorParam>
              <VectorParam id="1094"  name="anchor">
               <InterpolatingParam id="1095" interp="linr"  time="0/1" value="0" leadInLength="0/1"  />
               <InterpolatingParam id="1096" interp="linr"  time="0/1" value="0" leadInLength="0/1"  />
               <InterpolatingParam id="1097" interp="linr"  time="0/1" value="0" leadInLength="0/1"  />
              </VectorParam>
             </Transformer>
             <Parameters>
              <VectorParam id="1098"  name="sourceCrop">
               <InterpolatingParam id="1099" interp="linr"  time="0/1" value="0" leadInLength="0/1"  />
               <InterpolatingParam id="1100" interp="linr"  time="0/1" value="0" leadInLength="0/1"  />
               <InterpolatingParam id="1101" interp="linr"  time="0/1" value="0" leadInLength="0/1"  />
               <InterpolatingParam id="1102" interp="linr"  time="0/1" value="0" leadInLength="0/1"  />
              </VectorParam>
              <VectorParam id="1103"  name="geometryCrop">
               <InterpolatingParam id="1104" interp="linr"  time="-9999999/1" value="0" leadInLength="0/1"  />
               <InterpolatingParam id="1105" interp="linr"  time="-9999999/1" value="0" leadInLength="0/1"  />
               <InterpolatingParam id="1106" interp="linr"  time="-9999999/1" value="0" leadInLength="0/1"  />
               <InterpolatingParam id="1107" interp="linr"  time="-9999999/1" value="0" leadInLength="0/1"  />
              </VectorParam>
              <InterpolatingParam id="1108" interp="linr"  time="-9999999/1" value="1" leadInLength="0/1"  name="opacity"/>
              <InterpolatingParam id="1109" interp="linr"  time="0/1" value="0" leadInLength="0/1"  name="cursorOpacity"/>
              <InterpolatingParam id="1110" interp="linr"  time="0/1" value="0" leadInLength="0/1"  name="cursorScale"/>
             </Parameters>
             <Attributes>
              <Attribute id="1111" value="" name="ident"/>
             </Attributes>
             <ExtraData>
              <Entry key="ZoomPanBin">
               <ZoomPanBin id="1112"  >
                <ZoomPanKeyframes>
                 <ZoomPanKeyframe id="1113" timeRangeEnd="-9999999/1" timeRangeDuration="0/1" interpolaterName=""  />
                </ZoomPanKeyframes>
               </ZoomPanBin>
              </Entry>
              <Entry key="CursorEffectBin">
               <CursorEffectBin id="1114"  >
                <CursorEffectKeyframes>
                </CursorEffectKeyframes>
               </CursorEffectBin>
              </Entry>
             </ExtraData>
            </ScreenVMFile>
            <MetaData>
             <entry key="AutoAppliedSmartFocus" val="False"/>
             <entry key="WinSubProjectDisplayName" val=""/>
            </MetaData>
           </UnifiedMedia>
           <UnifiedMedia id="1115"  >
            <AMFile id="1116" start="3927" duration="583" scalar="1/1" mediaStart="4458/1" mediaDuration="583/1" trackNumber="1" src="10" channelNumber="0,1" >
             <Parameters>
              <InterpolatingParam id="1117" interp="linr"  time="0/1" value="1" leadInLength="0/1"  name="volume"/>
              <Parameter id="1118"  name="captions"/>
             </Parameters>
             <Attributes>
              <Attribute id="1119" value="" name="ident"/>
              <Attribute id="1120" value="44100" name="sampleRate"/>
              <Attribute id="1121" value="16" name="bitDepth"/>
              <Attribute id="1122" value="1" name="gain"/>
              <Attribute id="1123" value="0" name="mixToMono"/>
             </Attributes>
            </AMFile>
            <ScreenVMFile id="1124" start="3927" duration="583" scalar="1/1" mediaStart="4458/1" mediaDuration="583/1" trackNumber="0" src="10" >
             <Transformer>
              <VectorParam id="1125"  name="translation">
               <InterpolatingParam id="1126" interp="linr"  time="-9999999/1" value="0" leadInLength="0/1"  />
               <InterpolatingParam id="1127" interp="linr"  time="-9999999/1" value="0" leadInLength="0/1"  />
               <InterpolatingParam id="1128" interp="linr"  time="-9999999/1" value="0" leadInLength="0/1"  />
              </VectorParam>
              <VectorParam id="1129"  name="rotation">
               <InterpolatingParam id="1130" interp="linr"  time="-9999999/1" value="0" leadInLength="0/1"  />
               <InterpolatingParam id="1131" interp="linr"  time="-9999999/1" value="0" leadInLength="0/1"  />
               <InterpolatingParam id="1132" interp="linr"  time="-9999999/1" value="0" leadInLength="0/1"  />
              </VectorParam>
              <VectorParam id="1133"  name="shear">
               <InterpolatingParam id="1134" interp="linr"  time="-9999999/1" value="0" leadInLength="0/1"  />
               <InterpolatingParam id="1135" interp="linr"  time="-9999999/1" value="0" leadInLength="0/1"  />
               <InterpolatingParam id="1136" interp="linr"  time="-9999999/1" value="0" leadInLength="0/1"  />
              </VectorParam>
              <VectorParam id="1137"  name="scale">
               <InterpolatingParam id="1138" interp="linr"  time="-9999999/1" value="1" leadInLength="0/1"  />
               <InterpolatingParam id="1139" interp="linr"  time="-9999999/1" value="1" leadInLength="0/1"  />
               <InterpolatingParam id="1140" interp="linr"  time="-9999999/1" value="1" leadInLength="0/1"  />
              </VectorParam>
              <VectorParam id="1141"  name="anchor">
               <InterpolatingParam id="1142" interp="linr"  time="0/1" value="0" leadInLength="0/1"  />
               <InterpolatingParam id="1143" interp="linr"  time="0/1" value="0" leadInLength="0/1"  />
               <InterpolatingParam id="1144" interp="linr"  time="0/1" value="0" leadInLength="0/1"  />
              </VectorParam>
             </Transformer>
             <Parameters>
              <VectorParam id="1145"  name="sourceCrop">
               <InterpolatingParam id="1146" interp="linr"  time="0/1" value="0" leadInLength="0/1"  />
               <InterpolatingParam id="1147" interp="linr"  time="0/1" value="0" leadInLength="0/1"  />
               <InterpolatingParam id="1148" interp="linr"  time="0/1" value="0" leadInLength="0/1"  />
               <InterpolatingParam id="1149" interp="linr"  time="0/1" value="0" leadInLength="0/1"  />
              </VectorParam>
              <VectorParam id="1150"  name="geometryCrop">
               <InterpolatingParam id="1151" interp="linr"  time="-9999999/1" value="0" leadInLength="0/1"  />
               <InterpolatingParam id="1152" interp="linr"  time="-9999999/1" value="0" leadInLength="0/1"  />
               <InterpolatingParam id="1153" interp="linr"  time="-9999999/1" value="0" leadInLength="0/1"  />
               <InterpolatingParam id="1154" interp="linr"  time="-9999999/1" value="0" leadInLength="0/1"  />
              </VectorParam>
              <InterpolatingParam id="1155" interp="linr"  time="-9999999/1" value="1" leadInLength="0/1"  name="opacity"/>
              <InterpolatingParam id="1156" interp="linr"  time="0/1" value="0" leadInLength="0/1"  name="cursorOpacity"/>
              <InterpolatingParam id="1157" interp="linr"  time="0/1" value="0" leadInLength="0/1"  name="cursorScale"/>
             </Parameters>
             <Attributes>
              <Attribute id="1158" value="" name="ident"/>
             </Attributes>
             <ExtraData>
              <Entry key="ZoomPanBin">
               <ZoomPanBin id="1159"  >
                <ZoomPanKeyframes>
                 <ZoomPanKeyframe id="1160" timeRangeEnd="-9999999/1" timeRangeDuration="0/1" interpolaterName=""  />
                </ZoomPanKeyframes>
               </ZoomPanBin>
              </Entry>
              <Entry key="CursorEffectBin">
               <CursorEffectBin id="1161"  >
                <CursorEffectKeyframes>
                </CursorEffectKeyframes>
               </CursorEffectBin>
              </Entry>
             </ExtraData>
            </ScreenVMFile>
            <MetaData>
             <entry key="AutoAppliedSmartFocus" val="False"/>
             <entry key="WinSubProjectDisplayName" val=""/>
            </MetaData>
           </UnifiedMedia>
          </Medias>
         </GenericTrack>
        </StitchedMedia>
        <StitchedMedia id="1162" start="8950" duration="1049" scalar="1/1" mediaStart="83/1" mediaDuration="1049/1" minMediaStart="0/1" >
         <Transformer>
          <VectorParam id="1163"  name="translation">
           <InterpolatingParam id="1164" interp="linr"  time="-9999999/1" value="0" leadInLength="0/1"  />
           <InterpolatingParam id="1165" interp="linr"  time="-9999999/1" value="0" leadInLength="0/1"  />
           <InterpolatingParam id="1166" interp="linr"  time="-9999999/1" value="0" leadInLength="0/1"  />
          </VectorParam>
          <VectorParam id="1167"  name="rotation">
           <InterpolatingParam id="1168" interp="linr"  time="-9999999/1" value="0" leadInLength="0/1"  />
           <InterpolatingParam id="1169" interp="linr"  time="-9999999/1" value="0" leadInLength="0/1"  />
           <InterpolatingParam id="1170" interp="linr"  time="-9999999/1" value="0" leadInLength="0/1"  />
          </VectorParam>
          <VectorParam id="1171"  name="shear">
           <InterpolatingParam id="1172" interp="linr"  time="-9999999/1" value="0" leadInLength="0/1"  />
           <InterpolatingParam id="1173" interp="linr"  time="-9999999/1" value="0" leadInLength="0/1"  />
           <InterpolatingParam id="1174" interp="linr"  time="-9999999/1" value="0" leadInLength="0/1"  />
          </VectorParam>
          <VectorParam id="1175"  name="scale">
           <InterpolatingParam id="1176" interp="linr"  time="-9999999/1" value="0.80000000000000004" leadInLength="0/1"  />
           <InterpolatingParam id="1177" interp="linr"  time="-9999999/1" value="0.80000000000000004" leadInLength="0/1"  />
           <InterpolatingParam id="1178" interp="linr"  time="-9999999/1" value="1" leadInLength="0/1"  />
          </VectorParam>
          <VectorParam id="1179"  name="anchor">
           <InterpolatingParam id="1180" interp="linr"  time="0/1" value="0" leadInLength="0/1"  />
           <InterpolatingParam id="1181" interp="linr"  time="0/1" value="0" leadInLength="0/1"  />
           <InterpolatingParam id="1182" interp="linr"  time="0/1" value="0" leadInLength="0/1"  />
          </VectorParam>
         </Transformer>
         <Parameters>
          <VectorParam id="1183"  name="sourceCrop">
           <InterpolatingParam id="1184" interp="linr"  time="0/1" value="0" leadInLength="0/1"  />
           <InterpolatingParam id="1185" interp="linr"  time="0/1" value="0" leadInLength="0/1"  />
           <InterpolatingParam id="1186" interp="linr"  time="0/1" value="0" leadInLength="0/1"  />
           <InterpolatingParam id="1187" interp="linr"  time="0/1" value="0" leadInLength="0/1"  />
          </VectorParam>
          <VectorParam id="1188"  name="geometryCrop">
           <InterpolatingParam id="1189" interp="linr"  time="-9999999/1" value="0" leadInLength="0/1"  />
           <InterpolatingParam id="1190" interp="linr"  time="-9999999/1" value="0" leadInLength="0/1"  />
           <InterpolatingParam id="1191" interp="linr"  time="-9999999/1" value="0" leadInLength="0/1"  />
           <InterpolatingParam id="1192" interp="linr"  time="-9999999/1" value="0" leadInLength="0/1"  />
          </VectorParam>
          <InterpolatingParam id="1193" interp="linr"  time="-9999999/1" value="1" leadInLength="0/1"  name="opacity"/>
          <InterpolatingParam id="1194" interp="linr"  time="0/1" value="1" leadInLength="0/1"  name="cursorOpacity"/>
          <InterpolatingParam id="1195" interp="linr"  time="0/1" value="1" leadInLength="0/1"  name="cursorScale"/>
          <InterpolatingParam id="1196" interp="linr"  time="0/1" value="1" leadInLength="0/1"  name="volume"/>
          <Parameter id="1197"  name="captions"/>
         </Parameters>
         <Effects>
          <GenericEffect id="1198" name = "CursorBaseEffectName" >
           <Parameters>
           <InterpolatingParam id="1199" interp="linr"  time="-9999999/1" value="1" leadInLength="0/1"   name="cursorSize"/>
           <InterpolatingParam id="1200" interp="linr"  time="-9999999/1" value="0" leadInLength="0/1"   name="highlightBlurRadius"/>
           <InterpolatingParam id="1201" interp="linr"  time="-9999999/1" value="0" leadInLength="0/1"   name="highlightColorBlue"/>
           <InterpolatingParam id="1202" interp="linr"  time="-9999999/1" value="255" leadInLength="0/1"   name="highlightColorGreen"/>
           <InterpolatingParam id="1203" interp="linr"  time="-9999999/1" value="255" leadInLength="0/1"   name="highlightColorRed"/>
           <InterpolatingParam id="1204" interp="linr"  time="-9999999/1" value="5" leadInLength="0/1"   name="highlightFeatherSize"/>
           <InterpolatingParam id="1205" interp="linr"  time="-9999999/1" value="2" leadInLength="0/1"   name="highlightMagnification"/>
           <InterpolatingParam id="1206" interp="linr"  time="-9999999/1" value="1" leadInLength="0/1"   name="highlightOpacity"/>
           <InterpolatingParam id="1207" interp="linr"  time="-9999999/1" value="45" leadInLength="0/1"   name="highlightSize"/>
           <Parameter id="1208"   name="highlightType">
            <Keyframes>
            <Keyframe id="1209"  time="-9999999/1" value="0" leadInLength="0/1"  />
            </Keyframes>
           </Parameter>
           <InterpolatingParam id="1210" interp="linr"  time="-9999999/1" value="0" leadInLength="0/1"   name="leftClickColorBlue"/>
           <InterpolatingParam id="1211" interp="linr"  time="-9999999/1" value="0" leadInLength="0/1"   name="leftClickColorGreen"/>
           <InterpolatingParam id="1212" interp="linr"  time="-9999999/1" value="255" leadInLength="0/1"   name="leftClickColorRed"/>
           <InterpolatingParam id="1213" interp="linr"  time="-9999999/1" value="0.80000000000000004" leadInLength="0/1"   name="leftClickDuration"/>
           <InterpolatingParam id="1214" interp="linr"  time="-9999999/1" value="20" leadInLength="0/1"   name="leftClickSize"/>
           <Parameter id="1215"   name="leftClickSoundFilename">
            <Keyframes>
            <Keyframe id="1216"  time="-9999999/1" value="" leadInLength="0/1"  />
            </Keyframes>
           </Parameter>
           <InterpolatingParam id="1217" interp="linr"  time="-9999999/1" value="1" leadInLength="0/1"   name="leftClickSoundVolume"/>
           <Parameter id="1218"   name="leftClickType">
            <Keyframes>
            <Keyframe id="1219"  time="-9999999/1" value="0" leadInLength="0/1"  />
            </Keyframes>
           </Parameter>
           <InterpolatingParam id="1220" interp="linr"  time="-9999999/1" value="1" leadInLength="0/1"   name="opacity"/>
           <InterpolatingParam id="1221" interp="linr"  time="-9999999/1" value="255" leadInLength="0/1"   name="rightClickColorBlue"/>
           <InterpolatingParam id="1222" interp="linr"  time="-9999999/1" value="0" leadInLength="0/1"   name="rightClickColorGreen"/>
           <InterpolatingParam id="1223" interp="linr"  time="-9999999/1" value="0" leadInLength="0/1"   name="rightClickColorRed"/>
           <InterpolatingParam id="1224" interp="linr"  time="-9999999/1" value="0.80000000000000004" leadInLength="0/1"   name="rightClickDuration"/>
           <InterpolatingParam id="1225" interp="linr"  time="-9999999/1" value="20" leadInLength="0/1"   name="rightClickSize"/>
           <Parameter id="1226"   name="rightClickSoundFilename">
            <Keyframes>
            <Keyframe id="1227"  time="-9999999/1" value="" leadInLength="0/1"  />
            </Keyframes>
           </Parameter>
           <InterpolatingParam id="1228" interp="linr"  time="-9999999/1" value="1" leadInLength="0/1"   name="rightClickSoundVolume"/>
           <Parameter id="1229"   name="rightClickType">
            <Keyframes>
            <Keyframe id="1230"  time="-9999999/1" value="0" leadInLength="0/1"  />
            </Keyframes>
           </Parameter>
           </Parameters>
           <MetaData>
            <entry key="effectIndex" val="0"/>
           </MetaData>
          </GenericEffect>
         </Effects>
         <Attributes>
          <Attribute id="1231" value="" name="ident"/>
          <Attribute id="1232" value="0" name="mixToMono"/>
         </Attributes>
         <MetaData>
          <entry key="AutoAppliedSmartFocus" val="False"/>
          <entry key="WinSubProjectDisplayName" val=""/>
         </MetaData>
         <ExtraData>
          <Entry key="ZoomPanBin">
           <ZoomPanBin id="1233"  >
            <ZoomPanKeyframes>
             <ZoomPanKeyframe id="1234" timeRangeEnd="-9999999/1" timeRangeDuration="0/1" interpolaterName=""  />
            </ZoomPanKeyframes>
           </ZoomPanBin>
          </Entry>
          <Entry key="CursorEffectBin">
           <CursorEffectBin id="1235"  >
            <CursorEffectKeyframes>
             <CursorEffectKeyframe id="1236" timeRangeEnd="-9999999/1" timeRangeDuration="0/1" interpolaterName=""  />
            </CursorEffectKeyframes>
           </CursorEffectBin>
          </Entry>
         </ExtraData>
         <GenericTrack id="1237"  >
          <Attributes>
           <Attribute id="1238" value="" name="ident"/>
           <Attribute id="1239" value="0" name="audioMuted"/>
           <Attribute id="1240" value="0" name="videoHidden"/>
          </Attributes>
          <MetaData>
           <entry key="IsLocked" val="False"/>
           <entry key="WinTrackHeight" val="0"/>
          </MetaData>
          <Medias>
           <UnifiedMedia id="1241"  >
            <AMFile id="1242" start="0" duration="282" scalar="1/1" mediaStart="0/1" mediaDuration="282/1" trackNumber="1" src="11" channelNumber="0,1" >
             <Parameters>
              <InterpolatingParam id="1243" interp="linr"  time="0/1" value="1" leadInLength="0/1"  name="volume"/>
              <Parameter id="1244"  name="captions"/>
             </Parameters>
             <Attributes>
              <Attribute id="1245" value="" name="ident"/>
              <Attribute id="1246" value="44100" name="sampleRate"/>
              <Attribute id="1247" value="16" name="bitDepth"/>
              <Attribute id="1248" value="1" name="gain"/>
              <Attribute id="1249" value="0" name="mixToMono"/>
             </Attributes>
            </AMFile>
            <ScreenVMFile id="1250" start="0" duration="282" scalar="1/1" mediaStart="0/1" mediaDuration="282/1" trackNumber="0" src="11" >
             <Transformer>
              <VectorParam id="1251"  name="translation">
               <InterpolatingParam id="1252" interp="linr"  time="-9999999/1" value="0" leadInLength="0/1"  />
               <InterpolatingParam id="1253" interp="linr"  time="-9999999/1" value="0" leadInLength="0/1"  />
               <InterpolatingParam id="1254" interp="linr"  time="-9999999/1" value="0" leadInLength="0/1"  />
              </VectorParam>
              <VectorParam id="1255"  name="rotation">
               <InterpolatingParam id="1256" interp="linr"  time="-9999999/1" value="0" leadInLength="0/1"  />
               <InterpolatingParam id="1257" interp="linr"  time="-9999999/1" value="0" leadInLength="0/1"  />
               <InterpolatingParam id="1258" interp="linr"  time="-9999999/1" value="0" leadInLength="0/1"  />
              </VectorParam>
              <VectorParam id="1259"  name="shear">
               <InterpolatingParam id="1260" interp="linr"  time="-9999999/1" value="0" leadInLength="0/1"  />
               <InterpolatingParam id="1261" interp="linr"  time="-9999999/1" value="0" leadInLength="0/1"  />
               <InterpolatingParam id="1262" interp="linr"  time="-9999999/1" value="0" leadInLength="0/1"  />
              </VectorParam>
              <VectorParam id="1263"  name="scale">
               <InterpolatingParam id="1264" interp="linr"  time="-9999999/1" value="1" leadInLength="0/1"  />
               <InterpolatingParam id="1265" interp="linr"  time="-9999999/1" value="1" leadInLength="0/1"  />
               <InterpolatingParam id="1266" interp="linr"  time="-9999999/1" value="1" leadInLength="0/1"  />
              </VectorParam>
              <VectorParam id="1267"  name="anchor">
               <InterpolatingParam id="1268" interp="linr"  time="0/1" value="0" leadInLength="0/1"  />
               <InterpolatingParam id="1269" interp="linr"  time="0/1" value="0" leadInLength="0/1"  />
               <InterpolatingParam id="1270" interp="linr"  time="0/1" value="0" leadInLength="0/1"  />
              </VectorParam>
             </Transformer>
             <Parameters>
              <VectorParam id="1271"  name="sourceCrop">
               <InterpolatingParam id="1272" interp="linr"  time="0/1" value="0" leadInLength="0/1"  />
               <InterpolatingParam id="1273" interp="linr"  time="0/1" value="0" leadInLength="0/1"  />
               <InterpolatingParam id="1274" interp="linr"  time="0/1" value="0" leadInLength="0/1"  />
               <InterpolatingParam id="1275" interp="linr"  time="0/1" value="0" leadInLength="0/1"  />
              </VectorParam>
              <VectorParam id="1276"  name="geometryCrop">
               <InterpolatingParam id="1277" interp="linr"  time="-9999999/1" value="0" leadInLength="0/1"  />
               <InterpolatingParam id="1278" interp="linr"  time="-9999999/1" value="0" leadInLength="0/1"  />
               <InterpolatingParam id="1279" interp="linr"  time="-9999999/1" value="0" leadInLength="0/1"  />
               <InterpolatingParam id="1280" interp="linr"  time="-9999999/1" value="0" leadInLength="0/1"  />
              </VectorParam>
              <InterpolatingParam id="1281" interp="linr"  time="-9999999/1" value="1" leadInLength="0/1"  name="opacity"/>
              <InterpolatingParam id="1282" interp="linr"  time="0/1" value="0" leadInLength="0/1"  name="cursorOpacity"/>
              <InterpolatingParam id="1283" interp="linr"  time="0/1" value="0" leadInLength="0/1"  name="cursorScale"/>
             </Parameters>
             <Attributes>
              <Attribute id="1284" value="" name="ident"/>
             </Attributes>
             <ExtraData>
              <Entry key="ZoomPanBin">
               <ZoomPanBin id="1285"  >
                <ZoomPanKeyframes>
                 <ZoomPanKeyframe id="1286" timeRangeEnd="-9999999/1" timeRangeDuration="0/1" interpolaterName=""  />
                </ZoomPanKeyframes>
               </ZoomPanBin>
              </Entry>
              <Entry key="CursorEffectBin">
               <CursorEffectBin id="1287"  >
                <CursorEffectKeyframes>
                </CursorEffectKeyframes>
               </CursorEffectBin>
              </Entry>
             </ExtraData>
            </ScreenVMFile>
            <MetaData>
             <entry key="AutoAppliedSmartFocus" val="False"/>
             <entry key="WinSubProjectDisplayName" val=""/>
            </MetaData>
           </UnifiedMedia>
           <UnifiedMedia id="1288"  >
            <AMFile id="1289" start="282" duration="850" scalar="1/1" mediaStart="500/1" mediaDuration="850/1" trackNumber="1" src="11" channelNumber="0,1" >
             <Parameters>
              <InterpolatingParam id="1290" interp="linr"  time="0/1" value="1" leadInLength="0/1"  name="volume"/>
              <Parameter id="1291"  name="captions"/>
             </Parameters>
             <Attributes>
              <Attribute id="1292" value="" name="ident"/>
              <Attribute id="1293" value="44100" name="sampleRate"/>
              <Attribute id="1294" value="16" name="bitDepth"/>
              <Attribute id="1295" value="1" name="gain"/>
              <Attribute id="1296" value="0" name="mixToMono"/>
             </Attributes>
            </AMFile>
            <ScreenVMFile id="1297" start="282" duration="850" scalar="1/1" mediaStart="500/1" mediaDuration="850/1" trackNumber="0" src="11" >
             <Transformer>
              <VectorParam id="1298"  name="translation">
               <InterpolatingParam id="1299" interp="linr"  time="-9999999/1" value="0" leadInLength="0/1"  />
               <InterpolatingParam id="1300" interp="linr"  time="-9999999/1" value="0" leadInLength="0/1"  />
               <InterpolatingParam id="1301" interp="linr"  time="-9999999/1" value="0" leadInLength="0/1"  />
              </VectorParam>
              <VectorParam id="1302"  name="rotation">
               <InterpolatingParam id="1303" interp="linr"  time="-9999999/1" value="0" leadInLength="0/1"  />
               <InterpolatingParam id="1304" interp="linr"  time="-9999999/1" value="0" leadInLength="0/1"  />
               <InterpolatingParam id="1305" interp="linr"  time="-9999999/1" value="0" leadInLength="0/1"  />
              </VectorParam>
              <VectorParam id="1306"  name="shear">
               <InterpolatingParam id="1307" interp="linr"  time="-9999999/1" value="0" leadInLength="0/1"  />
               <InterpolatingParam id="1308" interp="linr"  time="-9999999/1" value="0" leadInLength="0/1"  />
               <InterpolatingParam id="1309" interp="linr"  time="-9999999/1" value="0" leadInLength="0/1"  />
              </VectorParam>
              <VectorParam id="1310"  name="scale">
               <InterpolatingParam id="1311" interp="linr"  time="-9999999/1" value="1" leadInLength="0/1"  />
               <InterpolatingParam id="1312" interp="linr"  time="-9999999/1" value="1" leadInLength="0/1"  />
               <InterpolatingParam id="1313" interp="linr"  time="-9999999/1" value="1" leadInLength="0/1"  />
              </VectorParam>
              <VectorParam id="1314"  name="anchor">
               <InterpolatingParam id="1315" interp="linr"  time="0/1" value="0" leadInLength="0/1"  />
               <InterpolatingParam id="1316" interp="linr"  time="0/1" value="0" leadInLength="0/1"  />
               <InterpolatingParam id="1317" interp="linr"  time="0/1" value="0" leadInLength="0/1"  />
              </VectorParam>
             </Transformer>
             <Parameters>
              <VectorParam id="1318"  name="sourceCrop">
               <InterpolatingParam id="1319" interp="linr"  time="0/1" value="0" leadInLength="0/1"  />
               <InterpolatingParam id="1320" interp="linr"  time="0/1" value="0" leadInLength="0/1"  />
               <InterpolatingParam id="1321" interp="linr"  time="0/1" value="0" leadInLength="0/1"  />
               <InterpolatingParam id="1322" interp="linr"  time="0/1" value="0" leadInLength="0/1"  />
              </VectorParam>
              <VectorParam id="1323"  name="geometryCrop">
               <InterpolatingParam id="1324" interp="linr"  time="-9999999/1" value="0" leadInLength="0/1"  />
               <InterpolatingParam id="1325" interp="linr"  time="-9999999/1" value="0" leadInLength="0/1"  />
               <InterpolatingParam id="1326" interp="linr"  time="-9999999/1" value="0" leadInLength="0/1"  />
               <InterpolatingParam id="1327" interp="linr"  time="-9999999/1" value="0" leadInLength="0/1"  />
              </VectorParam>
              <InterpolatingParam id="1328" interp="linr"  time="-9999999/1" value="1" leadInLength="0/1"  name="opacity"/>
              <InterpolatingParam id="1329" interp="linr"  time="0/1" value="0" leadInLength="0/1"  name="cursorOpacity"/>
              <InterpolatingParam id="1330" interp="linr"  time="0/1" value="0" leadInLength="0/1"  name="cursorScale"/>
             </Parameters>
             <Attributes>
              <Attribute id="1331" value="" name="ident"/>
             </Attributes>
             <ExtraData>
              <Entry key="ZoomPanBin">
               <ZoomPanBin id="1332"  >
                <ZoomPanKeyframes>
                 <ZoomPanKeyframe id="1333" timeRangeEnd="-9999999/1" timeRangeDuration="0/1" interpolaterName=""  />
                </ZoomPanKeyframes>
               </ZoomPanBin>
              </Entry>
              <Entry key="CursorEffectBin">
               <CursorEffectBin id="1334"  >
                <CursorEffectKeyframes>
                </CursorEffectKeyframes>
               </CursorEffectBin>
              </Entry>
             </ExtraData>
            </ScreenVMFile>
            <MetaData>
             <entry key="AutoAppliedSmartFocus" val="False"/>
             <entry key="WinSubProjectDisplayName" val=""/>
            </MetaData>
           </UnifiedMedia>
          </Medias>
         </GenericTrack>
        </StitchedMedia>
        <StitchedMedia id="1335" start="9999" duration="6264" scalar="1/1" mediaStart="73/1" mediaDuration="6264/1" minMediaStart="0/1" >
         <Transformer>
          <VectorParam id="1336"  name="translation">
           <InterpolatingParam id="1337" interp="linr"  time="-9999999/1" value="0" leadInLength="0/1"  />
           <InterpolatingParam id="1338" interp="linr"  time="-9999999/1" value="0" leadInLength="0/1"  />
           <InterpolatingParam id="1339" interp="linr"  time="-9999999/1" value="0" leadInLength="0/1"  />
          </VectorParam>
          <VectorParam id="1340"  name="rotation">
           <InterpolatingParam id="1341" interp="linr"  time="-9999999/1" value="0" leadInLength="0/1"  />
           <InterpolatingParam id="1342" interp="linr"  time="-9999999/1" value="0" leadInLength="0/1"  />
           <InterpolatingParam id="1343" interp="linr"  time="-9999999/1" value="0" leadInLength="0/1"  />
          </VectorParam>
          <VectorParam id="1344"  name="shear">
           <InterpolatingParam id="1345" interp="linr"  time="-9999999/1" value="0" leadInLength="0/1"  />
           <InterpolatingParam id="1346" interp="linr"  time="-9999999/1" value="0" leadInLength="0/1"  />
           <InterpolatingParam id="1347" interp="linr"  time="-9999999/1" value="0" leadInLength="0/1"  />
          </VectorParam>
          <VectorParam id="1348"  name="scale">
           <InterpolatingParam id="1349" interp="linr"  time="-9999999/1" value="0.80000000000000004" leadInLength="0/1"  />
           <InterpolatingParam id="1350" interp="linr"  time="-9999999/1" value="0.80000000000000004" leadInLength="0/1"  />
           <InterpolatingParam id="1351" interp="linr"  time="-9999999/1" value="1" leadInLength="0/1"  />
          </VectorParam>
          <VectorParam id="1352"  name="anchor">
           <InterpolatingParam id="1353" interp="linr"  time="0/1" value="0" leadInLength="0/1"  />
           <InterpolatingParam id="1354" interp="linr"  time="0/1" value="0" leadInLength="0/1"  />
           <InterpolatingParam id="1355" interp="linr"  time="0/1" value="0" leadInLength="0/1"  />
          </VectorParam>
         </Transformer>
         <Parameters>
          <VectorParam id="1356"  name="sourceCrop">
           <InterpolatingParam id="1357" interp="linr"  time="0/1" value="0" leadInLength="0/1"  />
           <InterpolatingParam id="1358" interp="linr"  time="0/1" value="0" leadInLength="0/1"  />
           <InterpolatingParam id="1359" interp="linr"  time="0/1" value="0" leadInLength="0/1"  />
           <InterpolatingParam id="1360" interp="linr"  time="0/1" value="0" leadInLength="0/1"  />
          </VectorParam>
          <VectorParam id="1361"  name="geometryCrop">
           <InterpolatingParam id="1362" interp="linr"  time="-9999999/1" value="0" leadInLength="0/1"  />
           <InterpolatingParam id="1363" interp="linr"  time="-9999999/1" value="0" leadInLength="0/1"  />
           <InterpolatingParam id="1364" interp="linr"  time="-9999999/1" value="0" leadInLength="0/1"  />
           <InterpolatingParam id="1365" interp="linr"  time="-9999999/1" value="0" leadInLength="0/1"  />
          </VectorParam>
          <InterpolatingParam id="1366" interp="linr"  time="-9999999/1" value="1" leadInLength="0/1"  name="opacity"/>
          <InterpolatingParam id="1367" interp="linr"  time="0/1" value="1" leadInLength="0/1"  name="cursorOpacity"/>
          <InterpolatingParam id="1368" interp="linr"  time="0/1" value="1" leadInLength="0/1"  name="cursorScale"/>
          <InterpolatingParam id="1369" interp="linr"  time="0/1" value="1" leadInLength="0/1"  name="volume"/>
          <Parameter id="1370"  name="captions"/>
         </Parameters>
         <Effects>
          <GenericEffect id="1371" name = "CursorBaseEffectName" >
           <Parameters>
           <InterpolatingParam id="1372" interp="linr"  time="-9999999/1" value="1" leadInLength="0/1"   name="cursorSize"/>
           <InterpolatingParam id="1373" interp="linr"  time="-9999999/1" value="0" leadInLength="0/1"   name="highlightBlurRadius"/>
           <InterpolatingParam id="1374" interp="linr"  time="-9999999/1" value="0" leadInLength="0/1"   name="highlightColorBlue"/>
           <InterpolatingParam id="1375" interp="linr"  time="-9999999/1" value="255" leadInLength="0/1"   name="highlightColorGreen"/>
           <InterpolatingParam id="1376" interp="linr"  time="-9999999/1" value="255" leadInLength="0/1"   name="highlightColorRed"/>
           <InterpolatingParam id="1377" interp="linr"  time="-9999999/1" value="5" leadInLength="0/1"   name="highlightFeatherSize"/>
           <InterpolatingParam id="1378" interp="linr"  time="-9999999/1" value="2" leadInLength="0/1"   name="highlightMagnification"/>
           <InterpolatingParam id="1379" interp="linr"  time="-9999999/1" value="1" leadInLength="0/1"   name="highlightOpacity"/>
           <InterpolatingParam id="1380" interp="linr"  time="-9999999/1" value="45" leadInLength="0/1"   name="highlightSize"/>
           <Parameter id="1381"   name="highlightType">
            <Keyframes>
            <Keyframe id="1382"  time="-9999999/1" value="0" leadInLength="0/1"  />
            </Keyframes>
           </Parameter>
           <InterpolatingParam id="1383" interp="linr"  time="-9999999/1" value="0" leadInLength="0/1"   name="leftClickColorBlue"/>
           <InterpolatingParam id="1384" interp="linr"  time="-9999999/1" value="0" leadInLength="0/1"   name="leftClickColorGreen"/>
           <InterpolatingParam id="1385" interp="linr"  time="-9999999/1" value="255" leadInLength="0/1"   name="leftClickColorRed"/>
           <InterpolatingParam id="1386" interp="linr"  time="-9999999/1" value="0.80000000000000004" leadInLength="0/1"   name="leftClickDuration"/>
           <InterpolatingParam id="1387" interp="linr"  time="-9999999/1" value="20" leadInLength="0/1"   name="leftClickSize"/>
           <Parameter id="1388"   name="leftClickSoundFilename">
            <Keyframes>
            <Keyframe id="1389"  time="-9999999/1" value="" leadInLength="0/1"  />
            </Keyframes>
           </Parameter>
           <InterpolatingParam id="1390" interp="linr"  time="-9999999/1" value="1" leadInLength="0/1"   name="leftClickSoundVolume"/>
           <Parameter id="1391"   name="leftClickType">
            <Keyframes>
            <Keyframe id="1392"  time="-9999999/1" value="0" leadInLength="0/1"  />
            </Keyframes>
           </Parameter>
           <InterpolatingParam id="1393" interp="linr"  time="-9999999/1" value="1" leadInLength="0/1"   name="opacity"/>
           <InterpolatingParam id="1394" interp="linr"  time="-9999999/1" value="255" leadInLength="0/1"   name="rightClickColorBlue"/>
           <InterpolatingParam id="1395" interp="linr"  time="-9999999/1" value="0" leadInLength="0/1"   name="rightClickColorGreen"/>
           <InterpolatingParam id="1396" interp="linr"  time="-9999999/1" value="0" leadInLength="0/1"   name="rightClickColorRed"/>
           <InterpolatingParam id="1397" interp="linr"  time="-9999999/1" value="0.80000000000000004" leadInLength="0/1"   name="rightClickDuration"/>
           <InterpolatingParam id="1398" interp="linr"  time="-9999999/1" value="20" leadInLength="0/1"   name="rightClickSize"/>
           <Parameter id="1399"   name="rightClickSoundFilename">
            <Keyframes>
            <Keyframe id="1400"  time="-9999999/1" value="" leadInLength="0/1"  />
            </Keyframes>
           </Parameter>
           <InterpolatingParam id="1401" interp="linr"  time="-9999999/1" value="1" leadInLength="0/1"   name="rightClickSoundVolume"/>
           <Parameter id="1402"   name="rightClickType">
            <Keyframes>
            <Keyframe id="1403"  time="-9999999/1" value="0" leadInLength="0/1"  />
            </Keyframes>
           </Parameter>
           </Parameters>
           <MetaData>
            <entry key="effectIndex" val="0"/>
           </MetaData>
          </GenericEffect>
         </Effects>
         <Attributes>
          <Attribute id="1404" value="" name="ident"/>
          <Attribute id="1405" value="0" name="mixToMono"/>
         </Attributes>
         <MetaData>
          <entry key="AutoAppliedSmartFocus" val="False"/>
          <entry key="WinSubProjectDisplayName" val=""/>
         </MetaData>
         <ExtraData>
          <Entry key="ZoomPanBin">
           <ZoomPanBin id="1406"  >
            <ZoomPanKeyframes>
             <ZoomPanKeyframe id="1407" timeRangeEnd="-9999999/1" timeRangeDuration="0/1" interpolaterName=""  />
            </ZoomPanKeyframes>
           </ZoomPanBin>
          </Entry>
          <Entry key="CursorEffectBin">
           <CursorEffectBin id="1408"  >
            <CursorEffectKeyframes>
             <CursorEffectKeyframe id="1409" timeRangeEnd="-9999999/1" timeRangeDuration="0/1" interpolaterName=""  />
            </CursorEffectKeyframes>
           </CursorEffectBin>
          </Entry>
         </ExtraData>
         <GenericTrack id="1410"  >
          <Attributes>
           <Attribute id="1411" value="" name="ident"/>
           <Attribute id="1412" value="0" name="audioMuted"/>
           <Attribute id="1413" value="0" name="videoHidden"/>
          </Attributes>
          <MetaData>
           <entry key="IsLocked" val="False"/>
           <entry key="WinTrackHeight" val="0"/>
          </MetaData>
          <Medias>
           <UnifiedMedia id="1414"  >
            <AMFile id="1415" start="0" duration="441" scalar="1/1" mediaStart="0/1" mediaDuration="441/1" trackNumber="1" src="12" channelNumber="0,1" >
             <Parameters>
              <InterpolatingParam id="1416" interp="linr"  time="0/1" value="1" leadInLength="0/1"  name="volume"/>
              <Parameter id="1417"  name="captions"/>
             </Parameters>
             <Attributes>
              <Attribute id="1418" value="" name="ident"/>
              <Attribute id="1419" value="44100" name="sampleRate"/>
              <Attribute id="1420" value="16" name="bitDepth"/>
              <Attribute id="1421" value="1" name="gain"/>
              <Attribute id="1422" value="0" name="mixToMono"/>
             </Attributes>
            </AMFile>
            <ScreenVMFile id="1423" start="0" duration="441" scalar="1/1" mediaStart="0/1" mediaDuration="441/1" trackNumber="0" src="12" >
             <Transformer>
              <VectorParam id="1424"  name="translation">
               <InterpolatingParam id="1425" interp="linr"  time="-9999999/1" value="0" leadInLength="0/1"  />
               <InterpolatingParam id="1426" interp="linr"  time="-9999999/1" value="0" leadInLength="0/1"  />
               <InterpolatingParam id="1427" interp="linr"  time="-9999999/1" value="0" leadInLength="0/1"  />
              </VectorParam>
              <VectorParam id="1428"  name="rotation">
               <InterpolatingParam id="1429" interp="linr"  time="-9999999/1" value="0" leadInLength="0/1"  />
               <InterpolatingParam id="1430" interp="linr"  time="-9999999/1" value="0" leadInLength="0/1"  />
               <InterpolatingParam id="1431" interp="linr"  time="-9999999/1" value="0" leadInLength="0/1"  />
              </VectorParam>
              <VectorParam id="1432"  name="shear">
               <InterpolatingParam id="1433" interp="linr"  time="-9999999/1" value="0" leadInLength="0/1"  />
               <InterpolatingParam id="1434" interp="linr"  time="-9999999/1" value="0" leadInLength="0/1"  />
               <InterpolatingParam id="1435" interp="linr"  time="-9999999/1" value="0" leadInLength="0/1"  />
              </VectorParam>
              <VectorParam id="1436"  name="scale">
               <InterpolatingParam id="1437" interp="linr"  time="-9999999/1" value="1" leadInLength="0/1"  />
               <InterpolatingParam id="1438" interp="linr"  time="-9999999/1" value="1" leadInLength="0/1"  />
               <InterpolatingParam id="1439" interp="linr"  time="-9999999/1" value="1" leadInLength="0/1"  />
              </VectorParam>
              <VectorParam id="1440"  name="anchor">
               <InterpolatingParam id="1441" interp="linr"  time="0/1" value="0" leadInLength="0/1"  />
               <InterpolatingParam id="1442" interp="linr"  time="0/1" value="0" leadInLength="0/1"  />
               <InterpolatingParam id="1443" interp="linr"  time="0/1" value="0" leadInLength="0/1"  />
              </VectorParam>
             </Transformer>
             <Parameters>
              <VectorParam id="1444"  name="sourceCrop">
               <InterpolatingParam id="1445" interp="linr"  time="0/1" value="0" leadInLength="0/1"  />
               <InterpolatingParam id="1446" interp="linr"  time="0/1" value="0" leadInLength="0/1"  />
               <InterpolatingParam id="1447" interp="linr"  time="0/1" value="0" leadInLength="0/1"  />
               <InterpolatingParam id="1448" interp="linr"  time="0/1" value="0" leadInLength="0/1"  />
              </VectorParam>
              <VectorParam id="1449"  name="geometryCrop">
               <InterpolatingParam id="1450" interp="linr"  time="-9999999/1" value="0" leadInLength="0/1"  />
               <InterpolatingParam id="1451" interp="linr"  time="-9999999/1" value="0" leadInLength="0/1"  />
               <InterpolatingParam id="1452" interp="linr"  time="-9999999/1" value="0" leadInLength="0/1"  />
               <InterpolatingParam id="1453" interp="linr"  time="-9999999/1" value="0" leadInLength="0/1"  />
              </VectorParam>
              <InterpolatingParam id="1454" interp="linr"  time="-9999999/1" value="1" leadInLength="0/1"  name="opacity"/>
              <InterpolatingParam id="1455" interp="linr"  time="0/1" value="0" leadInLength="0/1"  name="cursorOpacity"/>
              <InterpolatingParam id="1456" interp="linr"  time="0/1" value="0" leadInLength="0/1"  name="cursorScale"/>
             </Parameters>
             <Attributes>
              <Attribute id="1457" value="" name="ident"/>
             </Attributes>
             <ExtraData>
              <Entry key="ZoomPanBin">
               <ZoomPanBin id="1458"  >
                <ZoomPanKeyframes>
                 <ZoomPanKeyframe id="1459" timeRangeEnd="-9999999/1" timeRangeDuration="0/1" interpolaterName=""  />
                </ZoomPanKeyframes>
               </ZoomPanBin>
              </Entry>
              <Entry key="CursorEffectBin">
               <CursorEffectBin id="1460"  >
                <CursorEffectKeyframes>
                </CursorEffectKeyframes>
               </CursorEffectBin>
              </Entry>
             </ExtraData>
            </ScreenVMFile>
            <MetaData>
             <entry key="AutoAppliedSmartFocus" val="False"/>
             <entry key="WinSubProjectDisplayName" val=""/>
            </MetaData>
           </UnifiedMedia>
           <UnifiedMedia id="1461"  >
            <AMFile id="1462" start="441" duration="270" scalar="1/1" mediaStart="646/1" mediaDuration="270/1" trackNumber="1" src="12" channelNumber="0,1" >
             <Parameters>
              <InterpolatingParam id="1463" interp="linr"  time="0/1" value="1" leadInLength="0/1"  name="volume"/>
              <Parameter id="1464"  name="captions"/>
             </Parameters>
             <Attributes>
              <Attribute id="1465" value="" name="ident"/>
              <Attribute id="1466" value="44100" name="sampleRate"/>
              <Attribute id="1467" value="16" name="bitDepth"/>
              <Attribute id="1468" value="1" name="gain"/>
              <Attribute id="1469" value="0" name="mixToMono"/>
             </Attributes>
            </AMFile>
            <ScreenVMFile id="1470" start="441" duration="270" scalar="1/1" mediaStart="646/1" mediaDuration="270/1" trackNumber="0" src="12" >
             <Transformer>
              <VectorParam id="1471"  name="translation">
               <InterpolatingParam id="1472" interp="linr"  time="-9999999/1" value="0" leadInLength="0/1"  />
               <InterpolatingParam id="1473" interp="linr"  time="-9999999/1" value="0" leadInLength="0/1"  />
               <InterpolatingParam id="1474" interp="linr"  time="-9999999/1" value="0" leadInLength="0/1"  />
              </VectorParam>
              <VectorParam id="1475"  name="rotation">
               <InterpolatingParam id="1476" interp="linr"  time="-9999999/1" value="0" leadInLength="0/1"  />
               <InterpolatingParam id="1477" interp="linr"  time="-9999999/1" value="0" leadInLength="0/1"  />
               <InterpolatingParam id="1478" interp="linr"  time="-9999999/1" value="0" leadInLength="0/1"  />
              </VectorParam>
              <VectorParam id="1479"  name="shear">
               <InterpolatingParam id="1480" interp="linr"  time="-9999999/1" value="0" leadInLength="0/1"  />
               <InterpolatingParam id="1481" interp="linr"  time="-9999999/1" value="0" leadInLength="0/1"  />
               <InterpolatingParam id="1482" interp="linr"  time="-9999999/1" value="0" leadInLength="0/1"  />
              </VectorParam>
              <VectorParam id="1483"  name="scale">
               <InterpolatingParam id="1484" interp="linr"  time="-9999999/1" value="1" leadInLength="0/1"  />
               <InterpolatingParam id="1485" interp="linr"  time="-9999999/1" value="1" leadInLength="0/1"  />
               <InterpolatingParam id="1486" interp="linr"  time="-9999999/1" value="1" leadInLength="0/1"  />
              </VectorParam>
              <VectorParam id="1487"  name="anchor">
               <InterpolatingParam id="1488" interp="linr"  time="0/1" value="0" leadInLength="0/1"  />
               <InterpolatingParam id="1489" interp="linr"  time="0/1" value="0" leadInLength="0/1"  />
               <InterpolatingParam id="1490" interp="linr"  time="0/1" value="0" leadInLength="0/1"  />
              </VectorParam>
             </Transformer>
             <Parameters>
              <VectorParam id="1491"  name="sourceCrop">
               <InterpolatingParam id="1492" interp="linr"  time="0/1" value="0" leadInLength="0/1"  />
               <InterpolatingParam id="1493" interp="linr"  time="0/1" value="0" leadInLength="0/1"  />
               <InterpolatingParam id="1494" interp="linr"  time="0/1" value="0" leadInLength="0/1"  />
               <InterpolatingParam id="1495" interp="linr"  time="0/1" value="0" leadInLength="0/1"  />
              </VectorParam>
              <VectorParam id="1496"  name="geometryCrop">
               <InterpolatingParam id="1497" interp="linr"  time="-9999999/1" value="0" leadInLength="0/1"  />
               <InterpolatingParam id="1498" interp="linr"  time="-9999999/1" value="0" leadInLength="0/1"  />
               <InterpolatingParam id="1499" interp="linr"  time="-9999999/1" value="0" leadInLength="0/1"  />
               <InterpolatingParam id="1500" interp="linr"  time="-9999999/1" value="0" leadInLength="0/1"  />
              </VectorParam>
              <InterpolatingParam id="1501" interp="linr"  time="-9999999/1" value="1" leadInLength="0/1"  name="opacity"/>
              <InterpolatingParam id="1502" interp="linr"  time="0/1" value="0" leadInLength="0/1"  name="cursorOpacity"/>
              <InterpolatingParam id="1503" interp="linr"  time="0/1" value="0" leadInLength="0/1"  name="cursorScale"/>
             </Parameters>
             <Attributes>
              <Attribute id="1504" value="" name="ident"/>
             </Attributes>
             <ExtraData>
              <Entry key="ZoomPanBin">
               <ZoomPanBin id="1505"  >
                <ZoomPanKeyframes>
                 <ZoomPanKeyframe id="1506" timeRangeEnd="-9999999/1" timeRangeDuration="0/1" interpolaterName=""  />
                </ZoomPanKeyframes>
               </ZoomPanBin>
              </Entry>
              <Entry key="CursorEffectBin">
               <CursorEffectBin id="1507"  >
                <CursorEffectKeyframes>
                </CursorEffectKeyframes>
               </CursorEffectBin>
              </Entry>
             </ExtraData>
            </ScreenVMFile>
            <MetaData>
             <entry key="AutoAppliedSmartFocus" val="False"/>
             <entry key="WinSubProjectDisplayName" val=""/>
            </MetaData>
           </UnifiedMedia>
           <UnifiedMedia id="1508"  >
            <AMFile id="1509" start="711" duration="888" scalar="1/1" mediaStart="1157/1" mediaDuration="888/1" trackNumber="1" src="12" channelNumber="0,1" >
             <Parameters>
              <InterpolatingParam id="1510" interp="linr"  time="0/1" value="1" leadInLength="0/1"  name="volume"/>
              <Parameter id="1511"  name="captions"/>
             </Parameters>
             <Attributes>
              <Attribute id="1512" value="" name="ident"/>
              <Attribute id="1513" value="44100" name="sampleRate"/>
              <Attribute id="1514" value="16" name="bitDepth"/>
              <Attribute id="1515" value="1" name="gain"/>
              <Attribute id="1516" value="0" name="mixToMono"/>
             </Attributes>
            </AMFile>
            <ScreenVMFile id="1517" start="711" duration="888" scalar="1/1" mediaStart="1157/1" mediaDuration="888/1" trackNumber="0" src="12" >
             <Transformer>
              <VectorParam id="1518"  name="translation">
               <InterpolatingParam id="1519" interp="linr"  time="-9999999/1" value="0" leadInLength="0/1"  />
               <InterpolatingParam id="1520" interp="linr"  time="-9999999/1" value="0" leadInLength="0/1"  />
               <InterpolatingParam id="1521" interp="linr"  time="-9999999/1" value="0" leadInLength="0/1"  />
              </VectorParam>
              <VectorParam id="1522"  name="rotation">
               <InterpolatingParam id="1523" interp="linr"  time="-9999999/1" value="0" leadInLength="0/1"  />
               <InterpolatingParam id="1524" interp="linr"  time="-9999999/1" value="0" leadInLength="0/1"  />
               <InterpolatingParam id="1525" interp="linr"  time="-9999999/1" value="0" leadInLength="0/1"  />
              </VectorParam>
              <VectorParam id="1526"  name="shear">
               <InterpolatingParam id="1527" interp="linr"  time="-9999999/1" value="0" leadInLength="0/1"  />
               <InterpolatingParam id="1528" interp="linr"  time="-9999999/1" value="0" leadInLength="0/1"  />
               <InterpolatingParam id="1529" interp="linr"  time="-9999999/1" value="0" leadInLength="0/1"  />
              </VectorParam>
              <VectorParam id="1530"  name="scale">
               <InterpolatingParam id="1531" interp="linr"  time="-9999999/1" value="1" leadInLength="0/1"  />
               <InterpolatingParam id="1532" interp="linr"  time="-9999999/1" value="1" leadInLength="0/1"  />
               <InterpolatingParam id="1533" interp="linr"  time="-9999999/1" value="1" leadInLength="0/1"  />
              </VectorParam>
              <VectorParam id="1534"  name="anchor">
               <InterpolatingParam id="1535" interp="linr"  time="0/1" value="0" leadInLength="0/1"  />
               <InterpolatingParam id="1536" interp="linr"  time="0/1" value="0" leadInLength="0/1"  />
               <InterpolatingParam id="1537" interp="linr"  time="0/1" value="0" leadInLength="0/1"  />
              </VectorParam>
             </Transformer>
             <Parameters>
              <VectorParam id="1538"  name="sourceCrop">
               <InterpolatingParam id="1539" interp="linr"  time="0/1" value="0" leadInLength="0/1"  />
               <InterpolatingParam id="1540" interp="linr"  time="0/1" value="0" leadInLength="0/1"  />
               <InterpolatingParam id="1541" interp="linr"  time="0/1" value="0" leadInLength="0/1"  />
               <InterpolatingParam id="1542" interp="linr"  time="0/1" value="0" leadInLength="0/1"  />
              </VectorParam>
              <VectorParam id="1543"  name="geometryCrop">
               <InterpolatingParam id="1544" interp="linr"  time="-9999999/1" value="0" leadInLength="0/1"  />
               <InterpolatingParam id="1545" interp="linr"  time="-9999999/1" value="0" leadInLength="0/1"  />
               <InterpolatingParam id="1546" interp="linr"  time="-9999999/1" value="0" leadInLength="0/1"  />
               <InterpolatingParam id="1547" interp="linr"  time="-9999999/1" value="0" leadInLength="0/1"  />
              </VectorParam>
              <InterpolatingParam id="1548" interp="linr"  time="-9999999/1" value="1" leadInLength="0/1"  name="opacity"/>
              <InterpolatingParam id="1549" interp="linr"  time="0/1" value="0" leadInLength="0/1"  name="cursorOpacity"/>
              <InterpolatingParam id="1550" interp="linr"  time="0/1" value="0" leadInLength="0/1"  name="cursorScale"/>
             </Parameters>
             <Attributes>
              <Attribute id="1551" value="" name="ident"/>
             </Attributes>
             <ExtraData>
              <Entry key="ZoomPanBin">
               <ZoomPanBin id="1552"  >
                <ZoomPanKeyframes>
                 <ZoomPanKeyframe id="1553" timeRangeEnd="-9999999/1" timeRangeDuration="0/1" interpolaterName=""  />
                </ZoomPanKeyframes>
               </ZoomPanBin>
              </Entry>
              <Entry key="CursorEffectBin">
               <CursorEffectBin id="1554"  >
                <CursorEffectKeyframes>
                </CursorEffectKeyframes>
               </CursorEffectBin>
              </Entry>
             </ExtraData>
            </ScreenVMFile>
            <MetaData>
             <entry key="AutoAppliedSmartFocus" val="False"/>
             <entry key="WinSubProjectDisplayName" val=""/>
            </MetaData>
           </UnifiedMedia>
           <UnifiedMedia id="1555"  >
            <AMFile id="1556" start="1599" duration="765" scalar="1/1" mediaStart="2125/1" mediaDuration="765/1" trackNumber="1" src="12" channelNumber="0,1" >
             <Parameters>
              <InterpolatingParam id="1557" interp="linr"  time="0/1" value="1" leadInLength="0/1"  name="volume"/>
              <Parameter id="1558"  name="captions"/>
             </Parameters>
             <Attributes>
              <Attribute id="1559" value="" name="ident"/>
              <Attribute id="1560" value="44100" name="sampleRate"/>
              <Attribute id="1561" value="16" name="bitDepth"/>
              <Attribute id="1562" value="1" name="gain"/>
              <Attribute id="1563" value="0" name="mixToMono"/>
             </Attributes>
            </AMFile>
            <ScreenVMFile id="1564" start="1599" duration="765" scalar="1/1" mediaStart="2125/1" mediaDuration="765/1" trackNumber="0" src="12" >
             <Transformer>
              <VectorParam id="1565"  name="translation">
               <InterpolatingParam id="1566" interp="linr"  time="-9999999/1" value="0" leadInLength="0/1"  />
               <InterpolatingParam id="1567" interp="linr"  time="-9999999/1" value="0" leadInLength="0/1"  />
               <InterpolatingParam id="1568" interp="linr"  time="-9999999/1" value="0" leadInLength="0/1"  />
              </VectorParam>
              <VectorParam id="1569"  name="rotation">
               <InterpolatingParam id="1570" interp="linr"  time="-9999999/1" value="0" leadInLength="0/1"  />
               <InterpolatingParam id="1571" interp="linr"  time="-9999999/1" value="0" leadInLength="0/1"  />
               <InterpolatingParam id="1572" interp="linr"  time="-9999999/1" value="0" leadInLength="0/1"  />
              </VectorParam>
              <VectorParam id="1573"  name="shear">
               <InterpolatingParam id="1574" interp="linr"  time="-9999999/1" value="0" leadInLength="0/1"  />
               <InterpolatingParam id="1575" interp="linr"  time="-9999999/1" value="0" leadInLength="0/1"  />
               <InterpolatingParam id="1576" interp="linr"  time="-9999999/1" value="0" leadInLength="0/1"  />
              </VectorParam>
              <VectorParam id="1577"  name="scale">
               <InterpolatingParam id="1578" interp="linr"  time="-9999999/1" value="1" leadInLength="0/1"  />
               <InterpolatingParam id="1579" interp="linr"  time="-9999999/1" value="1" leadInLength="0/1"  />
               <InterpolatingParam id="1580" interp="linr"  time="-9999999/1" value="1" leadInLength="0/1"  />
              </VectorParam>
              <VectorParam id="1581"  name="anchor">
               <InterpolatingParam id="1582" interp="linr"  time="0/1" value="0" leadInLength="0/1"  />
               <InterpolatingParam id="1583" interp="linr"  time="0/1" value="0" leadInLength="0/1"  />
               <InterpolatingParam id="1584" interp="linr"  time="0/1" value="0" leadInLength="0/1"  />
              </VectorParam>
             </Transformer>
             <Parameters>
              <VectorParam id="1585"  name="sourceCrop">
               <InterpolatingParam id="1586" interp="linr"  time="0/1" value="0" leadInLength="0/1"  />
               <InterpolatingParam id="1587" interp="linr"  time="0/1" value="0" leadInLength="0/1"  />
               <InterpolatingParam id="1588" interp="linr"  time="0/1" value="0" leadInLength="0/1"  />
               <InterpolatingParam id="1589" interp="linr"  time="0/1" value="0" leadInLength="0/1"  />
              </VectorParam>
              <VectorParam id="1590"  name="geometryCrop">
               <InterpolatingParam id="1591" interp="linr"  time="-9999999/1" value="0" leadInLength="0/1"  />
               <InterpolatingParam id="1592" interp="linr"  time="-9999999/1" value="0" leadInLength="0/1"  />
               <InterpolatingParam id="1593" interp="linr"  time="-9999999/1" value="0" leadInLength="0/1"  />
               <InterpolatingParam id="1594" interp="linr"  time="-9999999/1" value="0" leadInLength="0/1"  />
              </VectorParam>
              <InterpolatingParam id="1595" interp="linr"  time="-9999999/1" value="1" leadInLength="0/1"  name="opacity"/>
              <InterpolatingParam id="1596" interp="linr"  time="0/1" value="0" leadInLength="0/1"  name="cursorOpacity"/>
              <InterpolatingParam id="1597" interp="linr"  time="0/1" value="0" leadInLength="0/1"  name="cursorScale"/>
             </Parameters>
             <Attributes>
              <Attribute id="1598" value="" name="ident"/>
             </Attributes>
             <ExtraData>
              <Entry key="ZoomPanBin">
               <ZoomPanBin id="1599"  >
                <ZoomPanKeyframes>
                 <ZoomPanKeyframe id="1600" timeRangeEnd="-9999999/1" timeRangeDuration="0/1" interpolaterName=""  />
                </ZoomPanKeyframes>
               </ZoomPanBin>
              </Entry>
              <Entry key="CursorEffectBin">
               <CursorEffectBin id="1601"  >
                <CursorEffectKeyframes>
                </CursorEffectKeyframes>
               </CursorEffectBin>
              </Entry>
             </ExtraData>
            </ScreenVMFile>
            <MetaData>
             <entry key="AutoAppliedSmartFocus" val="False"/>
             <entry key="WinSubProjectDisplayName" val=""/>
            </MetaData>
           </UnifiedMedia>
           <UnifiedMedia id="1602"  >
            <AMFile id="1603" start="2364" duration="509" scalar="1/1" mediaStart="3263/1" mediaDuration="509/1" trackNumber="1" src="12" channelNumber="0,1" >
             <Parameters>
              <InterpolatingParam id="1604" interp="linr"  time="0/1" value="1" leadInLength="0/1"  name="volume"/>
              <Parameter id="1605"  name="captions"/>
             </Parameters>
             <Attributes>
              <Attribute id="1606" value="" name="ident"/>
              <Attribute id="1607" value="44100" name="sampleRate"/>
              <Attribute id="1608" value="16" name="bitDepth"/>
              <Attribute id="1609" value="1" name="gain"/>
              <Attribute id="1610" value="0" name="mixToMono"/>
             </Attributes>
            </AMFile>
            <ScreenVMFile id="1611" start="2364" duration="509" scalar="1/1" mediaStart="3263/1" mediaDuration="509/1" trackNumber="0" src="12" >
             <Transformer>
              <VectorParam id="1612"  name="translation">
               <InterpolatingParam id="1613" interp="linr"  time="-9999999/1" value="0" leadInLength="0/1"  />
               <InterpolatingParam id="1614" interp="linr"  time="-9999999/1" value="0" leadInLength="0/1"  />
               <InterpolatingParam id="1615" interp="linr"  time="-9999999/1" value="0" leadInLength="0/1"  />
              </VectorParam>
              <VectorParam id="1616"  name="rotation">
               <InterpolatingParam id="1617" interp="linr"  time="-9999999/1" value="0" leadInLength="0/1"  />
               <InterpolatingParam id="1618" interp="linr"  time="-9999999/1" value="0" leadInLength="0/1"  />
               <InterpolatingParam id="1619" interp="linr"  time="-9999999/1" value="0" leadInLength="0/1"  />
              </VectorParam>
              <VectorParam id="1620"  name="shear">
               <InterpolatingParam id="1621" interp="linr"  time="-9999999/1" value="0" leadInLength="0/1"  />
               <InterpolatingParam id="1622" interp="linr"  time="-9999999/1" value="0" leadInLength="0/1"  />
               <InterpolatingParam id="1623" interp="linr"  time="-9999999/1" value="0" leadInLength="0/1"  />
              </VectorParam>
              <VectorParam id="1624"  name="scale">
               <InterpolatingParam id="1625" interp="linr"  time="-9999999/1" value="1" leadInLength="0/1"  />
               <InterpolatingParam id="1626" interp="linr"  time="-9999999/1" value="1" leadInLength="0/1"  />
               <InterpolatingParam id="1627" interp="linr"  time="-9999999/1" value="1" leadInLength="0/1"  />
              </VectorParam>
              <VectorParam id="1628"  name="anchor">
               <InterpolatingParam id="1629" interp="linr"  time="0/1" value="0" leadInLength="0/1"  />
               <InterpolatingParam id="1630" interp="linr"  time="0/1" value="0" leadInLength="0/1"  />
               <InterpolatingParam id="1631" interp="linr"  time="0/1" value="0" leadInLength="0/1"  />
              </VectorParam>
             </Transformer>
             <Parameters>
              <VectorParam id="1632"  name="sourceCrop">
               <InterpolatingParam id="1633" interp="linr"  time="0/1" value="0" leadInLength="0/1"  />
               <InterpolatingParam id="1634" interp="linr"  time="0/1" value="0" leadInLength="0/1"  />
               <InterpolatingParam id="1635" interp="linr"  time="0/1" value="0" leadInLength="0/1"  />
               <InterpolatingParam id="1636" interp="linr"  time="0/1" value="0" leadInLength="0/1"  />
              </VectorParam>
              <VectorParam id="1637"  name="geometryCrop">
               <InterpolatingParam id="1638" interp="linr"  time="-9999999/1" value="0" leadInLength="0/1"  />
               <InterpolatingParam id="1639" interp="linr"  time="-9999999/1" value="0" leadInLength="0/1"  />
               <InterpolatingParam id="1640" interp="linr"  time="-9999999/1" value="0" leadInLength="0/1"  />
               <InterpolatingParam id="1641" interp="linr"  time="-9999999/1" value="0" leadInLength="0/1"  />
              </VectorParam>
              <InterpolatingParam id="1642" interp="linr"  time="-9999999/1" value="1" leadInLength="0/1"  name="opacity"/>
              <InterpolatingParam id="1643" interp="linr"  time="0/1" value="0" leadInLength="0/1"  name="cursorOpacity"/>
              <InterpolatingParam id="1644" interp="linr"  time="0/1" value="0" leadInLength="0/1"  name="cursorScale"/>
             </Parameters>
             <Attributes>
              <Attribute id="1645" value="" name="ident"/>
             </Attributes>
             <ExtraData>
              <Entry key="ZoomPanBin">
               <ZoomPanBin id="1646"  >
                <ZoomPanKeyframes>
                 <ZoomPanKeyframe id="1647" timeRangeEnd="-9999999/1" timeRangeDuration="0/1" interpolaterName=""  />
                </ZoomPanKeyframes>
               </ZoomPanBin>
              </Entry>
              <Entry key="CursorEffectBin">
               <CursorEffectBin id="1648"  >
                <CursorEffectKeyframes>
                </CursorEffectKeyframes>
               </CursorEffectBin>
              </Entry>
             </ExtraData>
            </ScreenVMFile>
            <MetaData>
             <entry key="AutoAppliedSmartFocus" val="False"/>
             <entry key="WinSubProjectDisplayName" val=""/>
            </MetaData>
           </UnifiedMedia>
           <UnifiedMedia id="1649"  >
            <AMFile id="1650" start="2873" duration="656" scalar="1/1" mediaStart="3889/1" mediaDuration="656/1" trackNumber="1" src="12" channelNumber="0,1" >
             <Parameters>
              <InterpolatingParam id="1651" interp="linr"  time="0/1" value="1" leadInLength="0/1"  name="volume"/>
              <Parameter id="1652"  name="captions"/>
             </Parameters>
             <Attributes>
              <Attribute id="1653" value="" name="ident"/>
              <Attribute id="1654" value="44100" name="sampleRate"/>
              <Attribute id="1655" value="16" name="bitDepth"/>
              <Attribute id="1656" value="1" name="gain"/>
              <Attribute id="1657" value="0" name="mixToMono"/>
             </Attributes>
            </AMFile>
            <ScreenVMFile id="1658" start="2873" duration="656" scalar="1/1" mediaStart="3889/1" mediaDuration="656/1" trackNumber="0" src="12" >
             <Transformer>
              <VectorParam id="1659"  name="translation">
               <InterpolatingParam id="1660" interp="linr"  time="-9999999/1" value="0" leadInLength="0/1"  />
               <InterpolatingParam id="1661" interp="linr"  time="-9999999/1" value="0" leadInLength="0/1"  />
               <InterpolatingParam id="1662" interp="linr"  time="-9999999/1" value="0" leadInLength="0/1"  />
              </VectorParam>
              <VectorParam id="1663"  name="rotation">
               <InterpolatingParam id="1664" interp="linr"  time="-9999999/1" value="0" leadInLength="0/1"  />
               <InterpolatingParam id="1665" interp="linr"  time="-9999999/1" value="0" leadInLength="0/1"  />
               <InterpolatingParam id="1666" interp="linr"  time="-9999999/1" value="0" leadInLength="0/1"  />
              </VectorParam>
              <VectorParam id="1667"  name="shear">
               <InterpolatingParam id="1668" interp="linr"  time="-9999999/1" value="0" leadInLength="0/1"  />
               <InterpolatingParam id="1669" interp="linr"  time="-9999999/1" value="0" leadInLength="0/1"  />
               <InterpolatingParam id="1670" interp="linr"  time="-9999999/1" value="0" leadInLength="0/1"  />
              </VectorParam>
              <VectorParam id="1671"  name="scale">
               <InterpolatingParam id="1672" interp="linr"  time="-9999999/1" value="1" leadInLength="0/1"  />
               <InterpolatingParam id="1673" interp="linr"  time="-9999999/1" value="1" leadInLength="0/1"  />
               <InterpolatingParam id="1674" interp="linr"  time="-9999999/1" value="1" leadInLength="0/1"  />
              </VectorParam>
              <VectorParam id="1675"  name="anchor">
               <InterpolatingParam id="1676" interp="linr"  time="0/1" value="0" leadInLength="0/1"  />
               <InterpolatingParam id="1677" interp="linr"  time="0/1" value="0" leadInLength="0/1"  />
               <InterpolatingParam id="1678" interp="linr"  time="0/1" value="0" leadInLength="0/1"  />
              </VectorParam>
             </Transformer>
             <Parameters>
              <VectorParam id="1679"  name="sourceCrop">
               <InterpolatingParam id="1680" interp="linr"  time="0/1" value="0" leadInLength="0/1"  />
               <InterpolatingParam id="1681" interp="linr"  time="0/1" value="0" leadInLength="0/1"  />
               <InterpolatingParam id="1682" interp="linr"  time="0/1" value="0" leadInLength="0/1"  />
               <InterpolatingParam id="1683" interp="linr"  time="0/1" value="0" leadInLength="0/1"  />
              </VectorParam>
              <VectorParam id="1684"  name="geometryCrop">
               <InterpolatingParam id="1685" interp="linr"  time="-9999999/1" value="0" leadInLength="0/1"  />
               <InterpolatingParam id="1686" interp="linr"  time="-9999999/1" value="0" leadInLength="0/1"  />
               <InterpolatingParam id="1687" interp="linr"  time="-9999999/1" value="0" leadInLength="0/1"  />
               <InterpolatingParam id="1688" interp="linr"  time="-9999999/1" value="0" leadInLength="0/1"  />
              </VectorParam>
              <InterpolatingParam id="1689" interp="linr"  time="-9999999/1" value="1" leadInLength="0/1"  name="opacity"/>
              <InterpolatingParam id="1690" interp="linr"  time="0/1" value="0" leadInLength="0/1"  name="cursorOpacity"/>
              <InterpolatingParam id="1691" interp="linr"  time="0/1" value="0" leadInLength="0/1"  name="cursorScale"/>
             </Parameters>
             <Attributes>
              <Attribute id="1692" value="" name="ident"/>
             </Attributes>
             <ExtraData>
              <Entry key="ZoomPanBin">
               <ZoomPanBin id="1693"  >
                <ZoomPanKeyframes>
                 <ZoomPanKeyframe id="1694" timeRangeEnd="-9999999/1" timeRangeDuration="0/1" interpolaterName=""  />
                </ZoomPanKeyframes>
               </ZoomPanBin>
              </Entry>
              <Entry key="CursorEffectBin">
               <CursorEffectBin id="1695"  >
                <CursorEffectKeyframes>
                </CursorEffectKeyframes>
               </CursorEffectBin>
              </Entry>
             </ExtraData>
            </ScreenVMFile>
            <MetaData>
             <entry key="AutoAppliedSmartFocus" val="False"/>
             <entry key="WinSubProjectDisplayName" val=""/>
            </MetaData>
           </UnifiedMedia>
           <UnifiedMedia id="1696"  >
            <AMFile id="1697" start="3529" duration="4" scalar="1/1" mediaStart="4808/1" mediaDuration="4/1" trackNumber="1" src="12" channelNumber="0,1" >
             <Parameters>
              <InterpolatingParam id="1698" interp="linr"  time="0/1" value="1" leadInLength="0/1"  name="volume"/>
              <Parameter id="1699"  name="captions"/>
             </Parameters>
             <Attributes>
              <Attribute id="1700" value="" name="ident"/>
              <Attribute id="1701" value="44100" name="sampleRate"/>
              <Attribute id="1702" value="16" name="bitDepth"/>
              <Attribute id="1703" value="1" name="gain"/>
              <Attribute id="1704" value="0" name="mixToMono"/>
             </Attributes>
            </AMFile>
            <ScreenVMFile id="1705" start="3529" duration="4" scalar="1/1" mediaStart="4808/1" mediaDuration="4/1" trackNumber="0" src="12" >
             <Transformer>
              <VectorParam id="1706"  name="translation">
               <InterpolatingParam id="1707" interp="linr"  time="-9999999/1" value="0" leadInLength="0/1"  />
               <InterpolatingParam id="1708" interp="linr"  time="-9999999/1" value="0" leadInLength="0/1"  />
               <InterpolatingParam id="1709" interp="linr"  time="-9999999/1" value="0" leadInLength="0/1"  />
              </VectorParam>
              <VectorParam id="1710"  name="rotation">
               <InterpolatingParam id="1711" interp="linr"  time="-9999999/1" value="0" leadInLength="0/1"  />
               <InterpolatingParam id="1712" interp="linr"  time="-9999999/1" value="0" leadInLength="0/1"  />
               <InterpolatingParam id="1713" interp="linr"  time="-9999999/1" value="0" leadInLength="0/1"  />
              </VectorParam>
              <VectorParam id="1714"  name="shear">
               <InterpolatingParam id="1715" interp="linr"  time="-9999999/1" value="0" leadInLength="0/1"  />
               <InterpolatingParam id="1716" interp="linr"  time="-9999999/1" value="0" leadInLength="0/1"  />
               <InterpolatingParam id="1717" interp="linr"  time="-9999999/1" value="0" leadInLength="0/1"  />
              </VectorParam>
              <VectorParam id="1718"  name="scale">
               <InterpolatingParam id="1719" interp="linr"  time="-9999999/1" value="1" leadInLength="0/1"  />
               <InterpolatingParam id="1720" interp="linr"  time="-9999999/1" value="1" leadInLength="0/1"  />
               <InterpolatingParam id="1721" interp="linr"  time="-9999999/1" value="1" leadInLength="0/1"  />
              </VectorParam>
              <VectorParam id="1722"  name="anchor">
               <InterpolatingParam id="1723" interp="linr"  time="0/1" value="0" leadInLength="0/1"  />
               <InterpolatingParam id="1724" interp="linr"  time="0/1" value="0" leadInLength="0/1"  />
               <InterpolatingParam id="1725" interp="linr"  time="0/1" value="0" leadInLength="0/1"  />
              </VectorParam>
             </Transformer>
             <Parameters>
              <VectorParam id="1726"  name="sourceCrop">
               <InterpolatingParam id="1727" interp="linr"  time="0/1" value="0" leadInLength="0/1"  />
               <InterpolatingParam id="1728" interp="linr"  time="0/1" value="0" leadInLength="0/1"  />
               <InterpolatingParam id="1729" interp="linr"  time="0/1" value="0" leadInLength="0/1"  />
               <InterpolatingParam id="1730" interp="linr"  time="0/1" value="0" leadInLength="0/1"  />
              </VectorParam>
              <VectorParam id="1731"  name="geometryCrop">
               <InterpolatingParam id="1732" interp="linr"  time="-9999999/1" value="0" leadInLength="0/1"  />
               <InterpolatingParam id="1733" interp="linr"  time="-9999999/1" value="0" leadInLength="0/1"  />
               <InterpolatingParam id="1734" interp="linr"  time="-9999999/1" value="0" leadInLength="0/1"  />
               <InterpolatingParam id="1735" interp="linr"  time="-9999999/1" value="0" leadInLength="0/1"  />
              </VectorParam>
              <InterpolatingParam id="1736" interp="linr"  time="-9999999/1" value="1" leadInLength="0/1"  name="opacity"/>
              <InterpolatingParam id="1737" interp="linr"  time="0/1" value="0" leadInLength="0/1"  name="cursorOpacity"/>
              <InterpolatingParam id="1738" interp="linr"  time="0/1" value="0" leadInLength="0/1"  name="cursorScale"/>
             </Parameters>
             <Attributes>
              <Attribute id="1739" value="" name="ident"/>
             </Attributes>
             <ExtraData>
              <Entry key="ZoomPanBin">
               <ZoomPanBin id="1740"  >
                <ZoomPanKeyframes>
                 <ZoomPanKeyframe id="1741" timeRangeEnd="-9999999/1" timeRangeDuration="0/1" interpolaterName=""  />
                </ZoomPanKeyframes>
               </ZoomPanBin>
              </Entry>
              <Entry key="CursorEffectBin">
               <CursorEffectBin id="1742"  >
                <CursorEffectKeyframes>
                </CursorEffectKeyframes>
               </CursorEffectBin>
              </Entry>
             </ExtraData>
            </ScreenVMFile>
            <MetaData>
             <entry key="AutoAppliedSmartFocus" val="False"/>
             <entry key="WinSubProjectDisplayName" val=""/>
            </MetaData>
           </UnifiedMedia>
           <UnifiedMedia id="1743"  >
            <AMFile id="1744" start="3533" duration="1014" scalar="1/1" mediaStart="6230/1" mediaDuration="1014/1" trackNumber="1" src="12" channelNumber="0,1" >
             <Parameters>
              <InterpolatingParam id="1745" interp="linr"  time="0/1" value="1" leadInLength="0/1"  name="volume"/>
              <Parameter id="1746"  name="captions"/>
             </Parameters>
             <Attributes>
              <Attribute id="1747" value="" name="ident"/>
              <Attribute id="1748" value="44100" name="sampleRate"/>
              <Attribute id="1749" value="16" name="bitDepth"/>
              <Attribute id="1750" value="1" name="gain"/>
              <Attribute id="1751" value="0" name="mixToMono"/>
             </Attributes>
            </AMFile>
            <ScreenVMFile id="1752" start="3533" duration="1014" scalar="1/1" mediaStart="6230/1" mediaDuration="1014/1" trackNumber="0" src="12" >
             <Transformer>
              <VectorParam id="1753"  name="translation">
               <InterpolatingParam id="1754" interp="linr"  time="-9999999/1" value="0" leadInLength="0/1"  />
               <InterpolatingParam id="1755" interp="linr"  time="-9999999/1" value="0" leadInLength="0/1"  />
               <InterpolatingParam id="1756" interp="linr"  time="-9999999/1" value="0" leadInLength="0/1"  />
              </VectorParam>
              <VectorParam id="1757"  name="rotation">
               <InterpolatingParam id="1758" interp="linr"  time="-9999999/1" value="0" leadInLength="0/1"  />
               <InterpolatingParam id="1759" interp="linr"  time="-9999999/1" value="0" leadInLength="0/1"  />
               <InterpolatingParam id="1760" interp="linr"  time="-9999999/1" value="0" leadInLength="0/1"  />
              </VectorParam>
              <VectorParam id="1761"  name="shear">
               <InterpolatingParam id="1762" interp="linr"  time="-9999999/1" value="0" leadInLength="0/1"  />
               <InterpolatingParam id="1763" interp="linr"  time="-9999999/1" value="0" leadInLength="0/1"  />
               <InterpolatingParam id="1764" interp="linr"  time="-9999999/1" value="0" leadInLength="0/1"  />
              </VectorParam>
              <VectorParam id="1765"  name="scale">
               <InterpolatingParam id="1766" interp="linr"  time="-9999999/1" value="1" leadInLength="0/1"  />
               <InterpolatingParam id="1767" interp="linr"  time="-9999999/1" value="1" leadInLength="0/1"  />
               <InterpolatingParam id="1768" interp="linr"  time="-9999999/1" value="1" leadInLength="0/1"  />
              </VectorParam>
              <VectorParam id="1769"  name="anchor">
               <InterpolatingParam id="1770" interp="linr"  time="0/1" value="0" leadInLength="0/1"  />
               <InterpolatingParam id="1771" interp="linr"  time="0/1" value="0" leadInLength="0/1"  />
               <InterpolatingParam id="1772" interp="linr"  time="0/1" value="0" leadInLength="0/1"  />
              </VectorParam>
             </Transformer>
             <Parameters>
              <VectorParam id="1773"  name="sourceCrop">
               <InterpolatingParam id="1774" interp="linr"  time="0/1" value="0" leadInLength="0/1"  />
               <InterpolatingParam id="1775" interp="linr"  time="0/1" value="0" leadInLength="0/1"  />
               <InterpolatingParam id="1776" interp="linr"  time="0/1" value="0" leadInLength="0/1"  />
               <InterpolatingParam id="1777" interp="linr"  time="0/1" value="0" leadInLength="0/1"  />
              </VectorParam>
              <VectorParam id="1778"  name="geometryCrop">
               <InterpolatingParam id="1779" interp="linr"  time="-9999999/1" value="0" leadInLength="0/1"  />
               <InterpolatingParam id="1780" interp="linr"  time="-9999999/1" value="0" leadInLength="0/1"  />
               <InterpolatingParam id="1781" interp="linr"  time="-9999999/1" value="0" leadInLength="0/1"  />
               <InterpolatingParam id="1782" interp="linr"  time="-9999999/1" value="0" leadInLength="0/1"  />
              </VectorParam>
              <InterpolatingParam id="1783" interp="linr"  time="-9999999/1" value="1" leadInLength="0/1"  name="opacity"/>
              <InterpolatingParam id="1784" interp="linr"  time="0/1" value="0" leadInLength="0/1"  name="cursorOpacity"/>
              <InterpolatingParam id="1785" interp="linr"  time="0/1" value="0" leadInLength="0/1"  name="cursorScale"/>
             </Parameters>
             <Attributes>
              <Attribute id="1786" value="" name="ident"/>
             </Attributes>
             <ExtraData>
              <Entry key="ZoomPanBin">
               <ZoomPanBin id="1787"  >
                <ZoomPanKeyframes>
                 <ZoomPanKeyframe id="1788" timeRangeEnd="-9999999/1" timeRangeDuration="0/1" interpolaterName=""  />
                </ZoomPanKeyframes>
               </ZoomPanBin>
              </Entry>
              <Entry key="CursorEffectBin">
               <CursorEffectBin id="1789"  >
                <CursorEffectKeyframes>
                </CursorEffectKeyframes>
               </CursorEffectBin>
              </Entry>
             </ExtraData>
            </ScreenVMFile>
            <MetaData>
             <entry key="AutoAppliedSmartFocus" val="False"/>
             <entry key="WinSubProjectDisplayName" val=""/>
            </MetaData>
           </UnifiedMedia>
           <UnifiedMedia id="1790"  >
            <AMFile id="1791" start="4547" duration="476" scalar="1/1" mediaStart="7405/1" mediaDuration="476/1" trackNumber="1" src="12" channelNumber="0,1" >
             <Parameters>
              <InterpolatingParam id="1792" interp="linr"  time="0/1" value="1" leadInLength="0/1"  name="volume"/>
              <Parameter id="1793"  name="captions"/>
             </Parameters>
             <Attributes>
              <Attribute id="1794" value="" name="ident"/>
              <Attribute id="1795" value="44100" name="sampleRate"/>
              <Attribute id="1796" value="16" name="bitDepth"/>
              <Attribute id="1797" value="1" name="gain"/>
              <Attribute id="1798" value="0" name="mixToMono"/>
             </Attributes>
            </AMFile>
            <ScreenVMFile id="1799" start="4547" duration="476" scalar="1/1" mediaStart="7405/1" mediaDuration="476/1" trackNumber="0" src="12" >
             <Transformer>
              <VectorParam id="1800"  name="translation">
               <InterpolatingParam id="1801" interp="linr"  time="-9999999/1" value="0" leadInLength="0/1"  />
               <InterpolatingParam id="1802" interp="linr"  time="-9999999/1" value="0" leadInLength="0/1"  />
               <InterpolatingParam id="1803" interp="linr"  time="-9999999/1" value="0" leadInLength="0/1"  />
              </VectorParam>
              <VectorParam id="1804"  name="rotation">
               <InterpolatingParam id="1805" interp="linr"  time="-9999999/1" value="0" leadInLength="0/1"  />
               <InterpolatingParam id="1806" interp="linr"  time="-9999999/1" value="0" leadInLength="0/1"  />
               <InterpolatingParam id="1807" interp="linr"  time="-9999999/1" value="0" leadInLength="0/1"  />
              </VectorParam>
              <VectorParam id="1808"  name="shear">
               <InterpolatingParam id="1809" interp="linr"  time="-9999999/1" value="0" leadInLength="0/1"  />
               <InterpolatingParam id="1810" interp="linr"  time="-9999999/1" value="0" leadInLength="0/1"  />
               <InterpolatingParam id="1811" interp="linr"  time="-9999999/1" value="0" leadInLength="0/1"  />
              </VectorParam>
              <VectorParam id="1812"  name="scale">
               <InterpolatingParam id="1813" interp="linr"  time="-9999999/1" value="1" leadInLength="0/1"  />
               <InterpolatingParam id="1814" interp="linr"  time="-9999999/1" value="1" leadInLength="0/1"  />
               <InterpolatingParam id="1815" interp="linr"  time="-9999999/1" value="1" leadInLength="0/1"  />
              </VectorParam>
              <VectorParam id="1816"  name="anchor">
               <InterpolatingParam id="1817" interp="linr"  time="0/1" value="0" leadInLength="0/1"  />
               <InterpolatingParam id="1818" interp="linr"  time="0/1" value="0" leadInLength="0/1"  />
               <InterpolatingParam id="1819" interp="linr"  time="0/1" value="0" leadInLength="0/1"  />
              </VectorParam>
             </Transformer>
             <Parameters>
              <VectorParam id="1820"  name="sourceCrop">
               <InterpolatingParam id="1821" interp="linr"  time="0/1" value="0" leadInLength="0/1"  />
               <InterpolatingParam id="1822" interp="linr"  time="0/1" value="0" leadInLength="0/1"  />
               <InterpolatingParam id="1823" interp="linr"  time="0/1" value="0" leadInLength="0/1"  />
               <InterpolatingParam id="1824" interp="linr"  time="0/1" value="0" leadInLength="0/1"  />
              </VectorParam>
              <VectorParam id="1825"  name="geometryCrop">
               <InterpolatingParam id="1826" interp="linr"  time="-9999999/1" value="0" leadInLength="0/1"  />
               <InterpolatingParam id="1827" interp="linr"  time="-9999999/1" value="0" leadInLength="0/1"  />
               <InterpolatingParam id="1828" interp="linr"  time="-9999999/1" value="0" leadInLength="0/1"  />
               <InterpolatingParam id="1829" interp="linr"  time="-9999999/1" value="0" leadInLength="0/1"  />
              </VectorParam>
              <InterpolatingParam id="1830" interp="linr"  time="-9999999/1" value="1" leadInLength="0/1"  name="opacity"/>
              <InterpolatingParam id="1831" interp="linr"  time="0/1" value="0" leadInLength="0/1"  name="cursorOpacity"/>
              <InterpolatingParam id="1832" interp="linr"  time="0/1" value="0" leadInLength="0/1"  name="cursorScale"/>
             </Parameters>
             <Attributes>
              <Attribute id="1833" value="" name="ident"/>
             </Attributes>
             <ExtraData>
              <Entry key="ZoomPanBin">
               <ZoomPanBin id="1834"  >
                <ZoomPanKeyframes>
                 <ZoomPanKeyframe id="1835" timeRangeEnd="-9999999/1" timeRangeDuration="0/1" interpolaterName=""  />
                </ZoomPanKeyframes>
               </ZoomPanBin>
              </Entry>
              <Entry key="CursorEffectBin">
               <CursorEffectBin id="1836"  >
                <CursorEffectKeyframes>
                </CursorEffectKeyframes>
               </CursorEffectBin>
              </Entry>
             </ExtraData>
            </ScreenVMFile>
            <MetaData>
             <entry key="AutoAppliedSmartFocus" val="False"/>
             <entry key="WinSubProjectDisplayName" val=""/>
            </MetaData>
           </UnifiedMedia>
           <UnifiedMedia id="1837"  >
            <AMFile id="1838" start="5023" duration="1625" scalar="1/1" mediaStart="8042/1" mediaDuration="1625/1" trackNumber="1" src="12" channelNumber="0,1" >
             <Parameters>
              <InterpolatingParam id="1839" interp="linr"  time="0/1" value="1" leadInLength="0/1"  name="volume"/>
              <Parameter id="1840"  name="captions"/>
             </Parameters>
             <Attributes>
              <Attribute id="1841" value="" name="ident"/>
              <Attribute id="1842" value="44100" name="sampleRate"/>
              <Attribute id="1843" value="16" name="bitDepth"/>
              <Attribute id="1844" value="1" name="gain"/>
              <Attribute id="1845" value="0" name="mixToMono"/>
             </Attributes>
            </AMFile>
            <ScreenVMFile id="1846" start="5023" duration="1625" scalar="1/1" mediaStart="8042/1" mediaDuration="1625/1" trackNumber="0" src="12" >
             <Transformer>
              <VectorParam id="1847"  name="translation">
               <InterpolatingParam id="1848" interp="linr"  time="-9999999/1" value="0" leadInLength="0/1"  />
               <InterpolatingParam id="1849" interp="linr"  time="-9999999/1" value="0" leadInLength="0/1"  />
               <InterpolatingParam id="1850" interp="linr"  time="-9999999/1" value="0" leadInLength="0/1"  />
              </VectorParam>
              <VectorParam id="1851"  name="rotation">
               <InterpolatingParam id="1852" interp="linr"  time="-9999999/1" value="0" leadInLength="0/1"  />
               <InterpolatingParam id="1853" interp="linr"  time="-9999999/1" value="0" leadInLength="0/1"  />
               <InterpolatingParam id="1854" interp="linr"  time="-9999999/1" value="0" leadInLength="0/1"  />
              </VectorParam>
              <VectorParam id="1855"  name="shear">
               <InterpolatingParam id="1856" interp="linr"  time="-9999999/1" value="0" leadInLength="0/1"  />
               <InterpolatingParam id="1857" interp="linr"  time="-9999999/1" value="0" leadInLength="0/1"  />
               <InterpolatingParam id="1858" interp="linr"  time="-9999999/1" value="0" leadInLength="0/1"  />
              </VectorParam>
              <VectorParam id="1859"  name="scale">
               <InterpolatingParam id="1860" interp="linr"  time="-9999999/1" value="1" leadInLength="0/1"  />
               <InterpolatingParam id="1861" interp="linr"  time="-9999999/1" value="1" leadInLength="0/1"  />
               <InterpolatingParam id="1862" interp="linr"  time="-9999999/1" value="1" leadInLength="0/1"  />
              </VectorParam>
              <VectorParam id="1863"  name="anchor">
               <InterpolatingParam id="1864" interp="linr"  time="0/1" value="0" leadInLength="0/1"  />
               <InterpolatingParam id="1865" interp="linr"  time="0/1" value="0" leadInLength="0/1"  />
               <InterpolatingParam id="1866" interp="linr"  time="0/1" value="0" leadInLength="0/1"  />
              </VectorParam>
             </Transformer>
             <Parameters>
              <VectorParam id="1867"  name="sourceCrop">
               <InterpolatingParam id="1868" interp="linr"  time="0/1" value="0" leadInLength="0/1"  />
               <InterpolatingParam id="1869" interp="linr"  time="0/1" value="0" leadInLength="0/1"  />
               <InterpolatingParam id="1870" interp="linr"  time="0/1" value="0" leadInLength="0/1"  />
               <InterpolatingParam id="1871" interp="linr"  time="0/1" value="0" leadInLength="0/1"  />
              </VectorParam>
              <VectorParam id="1872"  name="geometryCrop">
               <InterpolatingParam id="1873" interp="linr"  time="-9999999/1" value="0" leadInLength="0/1"  />
               <InterpolatingParam id="1874" interp="linr"  time="-9999999/1" value="0" leadInLength="0/1"  />
               <InterpolatingParam id="1875" interp="linr"  time="-9999999/1" value="0" leadInLength="0/1"  />
               <InterpolatingParam id="1876" interp="linr"  time="-9999999/1" value="0" leadInLength="0/1"  />
              </VectorParam>
              <InterpolatingParam id="1877" interp="linr"  time="-9999999/1" value="1" leadInLength="0/1"  name="opacity"/>
              <InterpolatingParam id="1878" interp="linr"  time="0/1" value="0" leadInLength="0/1"  name="cursorOpacity"/>
              <InterpolatingParam id="1879" interp="linr"  time="0/1" value="0" leadInLength="0/1"  name="cursorScale"/>
             </Parameters>
             <Attributes>
              <Attribute id="1880" value="" name="ident"/>
             </Attributes>
             <ExtraData>
              <Entry key="ZoomPanBin">
               <ZoomPanBin id="1881"  >
                <ZoomPanKeyframes>
                 <ZoomPanKeyframe id="1882" timeRangeEnd="-9999999/1" timeRangeDuration="0/1" interpolaterName=""  />
                </ZoomPanKeyframes>
               </ZoomPanBin>
              </Entry>
              <Entry key="CursorEffectBin">
               <CursorEffectBin id="1883"  >
                <CursorEffectKeyframes>
                </CursorEffectKeyframes>
               </CursorEffectBin>
              </Entry>
             </ExtraData>
            </ScreenVMFile>
            <MetaData>
             <entry key="AutoAppliedSmartFocus" val="False"/>
             <entry key="WinSubProjectDisplayName" val=""/>
            </MetaData>
           </UnifiedMedia>
          </Medias>
         </GenericTrack>
        </StitchedMedia>
        <UnifiedMedia id="1884"  >
         <AMFile id="1885" start="16263" duration="270" scalar="1/1" mediaStart="0/1" mediaDuration="270/1" trackNumber="1" src="13" channelNumber="0,1" >
          <Parameters>
           <InterpolatingParam id="1886" interp="linr"  time="0/1" value="1" leadInLength="0/1"  name="volume"/>
           <Parameter id="1887"  name="captions"/>
          </Parameters>
          <Attributes>
           <Attribute id="1888" value="" name="ident"/>
           <Attribute id="1889" value="44100" name="sampleRate"/>
           <Attribute id="1890" value="16" name="bitDepth"/>
           <Attribute id="1891" value="1" name="gain"/>
           <Attribute id="1892" value="0" name="mixToMono"/>
          </Attributes>
         </AMFile>
         <ScreenVMFile id="1893" start="16263" duration="270" scalar="1/1" mediaStart="0/1" mediaDuration="270/1" trackNumber="0" src="13" >
          <Transformer>
           <VectorParam id="1894"  name="translation">
            <InterpolatingParam id="1895" interp="linr"  time="-9999999/1" value="0" leadInLength="0/1"  />
            <InterpolatingParam id="1896" interp="linr"  time="-9999999/1" value="0" leadInLength="0/1"  />
            <InterpolatingParam id="1897" interp="linr"  time="-9999999/1" value="0" leadInLength="0/1"  />
           </VectorParam>
           <VectorParam id="1898"  name="rotation">
            <InterpolatingParam id="1899" interp="linr"  time="-9999999/1" value="0" leadInLength="0/1"  />
            <InterpolatingParam id="1900" interp="linr"  time="-9999999/1" value="0" leadInLength="0/1"  />
            <InterpolatingParam id="1901" interp="linr"  time="-9999999/1" value="0" leadInLength="0/1"  />
           </VectorParam>
           <VectorParam id="1902"  name="shear">
            <InterpolatingParam id="1903" interp="linr"  time="-9999999/1" value="0" leadInLength="0/1"  />
            <InterpolatingParam id="1904" interp="linr"  time="-9999999/1" value="0" leadInLength="0/1"  />
            <InterpolatingParam id="1905" interp="linr"  time="-9999999/1" value="0" leadInLength="0/1"  />
           </VectorParam>
           <VectorParam id="1906"  name="scale">
            <InterpolatingParam id="1907" interp="linr"  time="-9999999/1" value="0.80000000000000004" leadInLength="0/1"  />
            <InterpolatingParam id="1908" interp="linr"  time="-9999999/1" value="0.80000000000000004" leadInLength="0/1"  />
            <InterpolatingParam id="1909" interp="linr"  time="-9999999/1" value="1" leadInLength="0/1"  />
           </VectorParam>
           <VectorParam id="1910"  name="anchor">
            <InterpolatingParam id="1911" interp="linr"  time="0/1" value="0" leadInLength="0/1"  />
            <InterpolatingParam id="1912" interp="linr"  time="0/1" value="0" leadInLength="0/1"  />
            <InterpolatingParam id="1913" interp="linr"  time="0/1" value="0" leadInLength="0/1"  />
           </VectorParam>
          </Transformer>
          <Parameters>
           <VectorParam id="1914"  name="sourceCrop">
            <InterpolatingParam id="1915" interp="linr"  time="0/1" value="0" leadInLength="0/1"  />
            <InterpolatingParam id="1916" interp="linr"  time="0/1" value="0" leadInLength="0/1"  />
            <InterpolatingParam id="1917" interp="linr"  time="0/1" value="0" leadInLength="0/1"  />
            <InterpolatingParam id="1918" interp="linr"  time="0/1" value="0" leadInLength="0/1"  />
           </VectorParam>
           <VectorParam id="1919"  name="geometryCrop">
            <InterpolatingParam id="1920" interp="linr"  time="-9999999/1" value="0" leadInLength="0/1"  />
            <InterpolatingParam id="1921" interp="linr"  time="-9999999/1" value="0" leadInLength="0/1"  />
            <InterpolatingParam id="1922" interp="linr"  time="-9999999/1" value="0" leadInLength="0/1"  />
            <InterpolatingParam id="1923" interp="linr"  time="-9999999/1" value="0" leadInLength="0/1"  />
           </VectorParam>
           <InterpolatingParam id="1924" interp="linr"  time="-9999999/1" value="1" leadInLength="0/1"  name="opacity"/>
           <InterpolatingParam id="1925" interp="linr"  time="0/1" value="1" leadInLength="0/1"  name="cursorOpacity"/>
           <InterpolatingParam id="1926" interp="linr"  time="0/1" value="1" leadInLength="0/1"  name="cursorScale"/>
          </Parameters>
          <Effects>
           <GenericEffect id="1927" name = "CursorBaseEffectName" >
            <Parameters>
            <InterpolatingParam id="1928" interp="linr"  time="-9999999/1" value="1" leadInLength="0/1"   name="cursorSize"/>
            <InterpolatingParam id="1929" interp="linr"  time="-9999999/1" value="0" leadInLength="0/1"   name="highlightBlurRadius"/>
            <InterpolatingParam id="1930" interp="linr"  time="-9999999/1" value="0" leadInLength="0/1"   name="highlightColorBlue"/>
            <InterpolatingParam id="1931" interp="linr"  time="-9999999/1" value="255" leadInLength="0/1"   name="highlightColorGreen"/>
            <InterpolatingParam id="1932" interp="linr"  time="-9999999/1" value="255" leadInLength="0/1"   name="highlightColorRed"/>
            <InterpolatingParam id="1933" interp="linr"  time="-9999999/1" value="5" leadInLength="0/1"   name="highlightFeatherSize"/>
            <InterpolatingParam id="1934" interp="linr"  time="-9999999/1" value="2" leadInLength="0/1"   name="highlightMagnification"/>
            <InterpolatingParam id="1935" interp="linr"  time="-9999999/1" value="1" leadInLength="0/1"   name="highlightOpacity"/>
            <InterpolatingParam id="1936" interp="linr"  time="-9999999/1" value="45" leadInLength="0/1"   name="highlightSize"/>
            <Parameter id="1937"   name="highlightType">
             <Keyframes>
             <Keyframe id="1938"  time="-9999999/1" value="0" leadInLength="0/1"  />
             </Keyframes>
            </Parameter>
            <InterpolatingParam id="1939" interp="linr"  time="-9999999/1" value="0" leadInLength="0/1"   name="leftClickColorBlue"/>
            <InterpolatingParam id="1940" interp="linr"  time="-9999999/1" value="0" leadInLength="0/1"   name="leftClickColorGreen"/>
            <InterpolatingParam id="1941" interp="linr"  time="-9999999/1" value="255" leadInLength="0/1"   name="leftClickColorRed"/>
            <InterpolatingParam id="1942" interp="linr"  time="-9999999/1" value="0.80000000000000004" leadInLength="0/1"   name="leftClickDuration"/>
            <InterpolatingParam id="1943" interp="linr"  time="-9999999/1" value="20" leadInLength="0/1"   name="leftClickSize"/>
            <Parameter id="1944"   name="leftClickSoundFilename">
             <Keyframes>
             <Keyframe id="1945"  time="-9999999/1" value="" leadInLength="0/1"  />
             </Keyframes>
            </Parameter>
            <InterpolatingParam id="1946" interp="linr"  time="-9999999/1" value="1" leadInLength="0/1"   name="leftClickSoundVolume"/>
            <Parameter id="1947"   name="leftClickType">
             <Keyframes>
             <Keyframe id="1948"  time="-9999999/1" value="0" leadInLength="0/1"  />
             </Keyframes>
            </Parameter>
            <InterpolatingParam id="1949" interp="linr"  time="-9999999/1" value="1" leadInLength="0/1"   name="opacity"/>
            <InterpolatingParam id="1950" interp="linr"  time="-9999999/1" value="255" leadInLength="0/1"   name="rightClickColorBlue"/>
            <InterpolatingParam id="1951" interp="linr"  time="-9999999/1" value="0" leadInLength="0/1"   name="rightClickColorGreen"/>
            <InterpolatingParam id="1952" interp="linr"  time="-9999999/1" value="0" leadInLength="0/1"   name="rightClickColorRed"/>
            <InterpolatingParam id="1953" interp="linr"  time="-9999999/1" value="0.80000000000000004" leadInLength="0/1"   name="rightClickDuration"/>
            <InterpolatingParam id="1954" interp="linr"  time="-9999999/1" value="20" leadInLength="0/1"   name="rightClickSize"/>
            <Parameter id="1955"   name="rightClickSoundFilename">
             <Keyframes>
             <Keyframe id="1956"  time="-9999999/1" value="" leadInLength="0/1"  />
             </Keyframes>
            </Parameter>
            <InterpolatingParam id="1957" interp="linr"  time="-9999999/1" value="1" leadInLength="0/1"   name="rightClickSoundVolume"/>
            <Parameter id="1958"   name="rightClickType">
             <Keyframes>
             <Keyframe id="1959"  time="-9999999/1" value="0" leadInLength="0/1"  />
             </Keyframes>
            </Parameter>
            </Parameters>
            <MetaData>
             <entry key="effectIndex" val="0"/>
            </MetaData>
           </GenericEffect>
          </Effects>
          <Attributes>
           <Attribute id="1960" value="" name="ident"/>
          </Attributes>
          <ExtraData>
           <Entry key="ZoomPanBin">
            <ZoomPanBin id="1961"  >
             <ZoomPanKeyframes>
              <ZoomPanKeyframe id="1962" timeRangeEnd="-9999999/1" timeRangeDuration="0/1" interpolaterName="linr"  />
             </ZoomPanKeyframes>
            </ZoomPanBin>
           </Entry>
           <Entry key="CursorEffectBin">
            <CursorEffectBin id="1963"  >
             <CursorEffectKeyframes>
              <CursorEffectKeyframe id="1964" timeRangeEnd="-9999999/1" timeRangeDuration="0/1" interpolaterName=""  />
             </CursorEffectKeyframes>
            </CursorEffectBin>
           </Entry>
          </ExtraData>
         </ScreenVMFile>
         <MetaData>
          <entry key="AutoAppliedSmartFocus" val="False"/>
          <entry key="WinSubProjectDisplayName" val=""/>
         </MetaData>
        </UnifiedMedia>
        <UnifiedMedia id="1965"  >
         <AMFile id="1966" start="16533" duration="270" scalar="1/1" mediaStart="0/1" mediaDuration="270/1" trackNumber="1" src="14" channelNumber="0,1" >
          <Parameters>
           <InterpolatingParam id="1967" interp="linr"  time="0/1" value="1" leadInLength="0/1"  name="volume"/>
           <Parameter id="1968"  name="captions"/>
          </Parameters>
          <Attributes>
           <Attribute id="1969" value="" name="ident"/>
           <Attribute id="1970" value="44100" name="sampleRate"/>
           <Attribute id="1971" value="16" name="bitDepth"/>
           <Attribute id="1972" value="1" name="gain"/>
           <Attribute id="1973" value="0" name="mixToMono"/>
          </Attributes>
         </AMFile>
         <ScreenVMFile id="1974" start="16533" duration="270" scalar="1/1" mediaStart="0/1" mediaDuration="270/1" trackNumber="0" src="14" >
          <Transformer>
           <VectorParam id="1975"  name="translation">
            <InterpolatingParam id="1976" interp="linr"  time="-9999999/1" value="0" leadInLength="0/1"  />
            <InterpolatingParam id="1977" interp="linr"  time="-9999999/1" value="0" leadInLength="0/1"  />
            <InterpolatingParam id="1978" interp="linr"  time="-9999999/1" value="0" leadInLength="0/1"  />
           </VectorParam>
           <VectorParam id="1979"  name="rotation">
            <InterpolatingParam id="1980" interp="linr"  time="-9999999/1" value="0" leadInLength="0/1"  />
            <InterpolatingParam id="1981" interp="linr"  time="-9999999/1" value="0" leadInLength="0/1"  />
            <InterpolatingParam id="1982" interp="linr"  time="-9999999/1" value="0" leadInLength="0/1"  />
           </VectorParam>
           <VectorParam id="1983"  name="shear">
            <InterpolatingParam id="1984" interp="linr"  time="-9999999/1" value="0" leadInLength="0/1"  />
            <InterpolatingParam id="1985" interp="linr"  time="-9999999/1" value="0" leadInLength="0/1"  />
            <InterpolatingParam id="1986" interp="linr"  time="-9999999/1" value="0" leadInLength="0/1"  />
           </VectorParam>
           <VectorParam id="1987"  name="scale">
            <InterpolatingParam id="1988" interp="linr"  time="-9999999/1" value="0.80000000000000004" leadInLength="0/1"  />
            <InterpolatingParam id="1989" interp="linr"  time="-9999999/1" value="0.80000000000000004" leadInLength="0/1"  />
            <InterpolatingParam id="1990" interp="linr"  time="-9999999/1" value="1" leadInLength="0/1"  />
           </VectorParam>
           <VectorParam id="1991"  name="anchor">
            <InterpolatingParam id="1992" interp="linr"  time="0/1" value="0" leadInLength="0/1"  />
            <InterpolatingParam id="1993" interp="linr"  time="0/1" value="0" leadInLength="0/1"  />
            <InterpolatingParam id="1994" interp="linr"  time="0/1" value="0" leadInLength="0/1"  />
           </VectorParam>
          </Transformer>
          <Parameters>
           <VectorParam id="1995"  name="sourceCrop">
            <InterpolatingParam id="1996" interp="linr"  time="0/1" value="0" leadInLength="0/1"  />
            <InterpolatingParam id="1997" interp="linr"  time="0/1" value="0" leadInLength="0/1"  />
            <InterpolatingParam id="1998" interp="linr"  time="0/1" value="0" leadInLength="0/1"  />
            <InterpolatingParam id="1999" interp="linr"  time="0/1" value="0" leadInLength="0/1"  />
           </VectorParam>
           <VectorParam id="2000"  name="geometryCrop">
            <InterpolatingParam id="2001" interp="linr"  time="-9999999/1" value="0" leadInLength="0/1"  />
            <InterpolatingParam id="2002" interp="linr"  time="-9999999/1" value="0" leadInLength="0/1"  />
            <InterpolatingParam id="2003" interp="linr"  time="-9999999/1" value="0" leadInLength="0/1"  />
            <InterpolatingParam id="2004" interp="linr"  time="-9999999/1" value="0" leadInLength="0/1"  />
           </VectorParam>
           <InterpolatingParam id="2005" interp="linr"  time="-9999999/1" value="1" leadInLength="0/1"  name="opacity"/>
           <InterpolatingParam id="2006" interp="linr"  time="0/1" value="1" leadInLength="0/1"  name="cursorOpacity"/>
           <InterpolatingParam id="2007" interp="linr"  time="0/1" value="1" leadInLength="0/1"  name="cursorScale"/>
          </Parameters>
          <Effects>
           <GenericEffect id="2008" name = "CursorBaseEffectName" >
            <Parameters>
            <InterpolatingParam id="2009" interp="linr"  time="-9999999/1" value="1" leadInLength="0/1"   name="cursorSize"/>
            <InterpolatingParam id="2010" interp="linr"  time="-9999999/1" value="0" leadInLength="0/1"   name="highlightBlurRadius"/>
            <InterpolatingParam id="2011" interp="linr"  time="-9999999/1" value="0" leadInLength="0/1"   name="highlightColorBlue"/>
            <InterpolatingParam id="2012" interp="linr"  time="-9999999/1" value="255" leadInLength="0/1"   name="highlightColorGreen"/>
            <InterpolatingParam id="2013" interp="linr"  time="-9999999/1" value="255" leadInLength="0/1"   name="highlightColorRed"/>
            <InterpolatingParam id="2014" interp="linr"  time="-9999999/1" value="5" leadInLength="0/1"   name="highlightFeatherSize"/>
            <InterpolatingParam id="2015" interp="linr"  time="-9999999/1" value="2" leadInLength="0/1"   name="highlightMagnification"/>
            <InterpolatingParam id="2016" interp="linr"  time="-9999999/1" value="1" leadInLength="0/1"   name="highlightOpacity"/>
            <InterpolatingParam id="2017" interp="linr"  time="-9999999/1" value="45" leadInLength="0/1"   name="highlightSize"/>
            <Parameter id="2018"   name="highlightType">
             <Keyframes>
             <Keyframe id="2019"  time="-9999999/1" value="0" leadInLength="0/1"  />
             </Keyframes>
            </Parameter>
            <InterpolatingParam id="2020" interp="linr"  time="-9999999/1" value="0" leadInLength="0/1"   name="leftClickColorBlue"/>
            <InterpolatingParam id="2021" interp="linr"  time="-9999999/1" value="0" leadInLength="0/1"   name="leftClickColorGreen"/>
            <InterpolatingParam id="2022" interp="linr"  time="-9999999/1" value="255" leadInLength="0/1"   name="leftClickColorRed"/>
            <InterpolatingParam id="2023" interp="linr"  time="-9999999/1" value="0.80000000000000004" leadInLength="0/1"   name="leftClickDuration"/>
            <InterpolatingParam id="2024" interp="linr"  time="-9999999/1" value="20" leadInLength="0/1"   name="leftClickSize"/>
            <Parameter id="2025"   name="leftClickSoundFilename">
             <Keyframes>
             <Keyframe id="2026"  time="-9999999/1" value="" leadInLength="0/1"  />
             </Keyframes>
            </Parameter>
            <InterpolatingParam id="2027" interp="linr"  time="-9999999/1" value="1" leadInLength="0/1"   name="leftClickSoundVolume"/>
            <Parameter id="2028"   name="leftClickType">
             <Keyframes>
             <Keyframe id="2029"  time="-9999999/1" value="0" leadInLength="0/1"  />
             </Keyframes>
            </Parameter>
            <InterpolatingParam id="2030" interp="linr"  time="-9999999/1" value="1" leadInLength="0/1"   name="opacity"/>
            <InterpolatingParam id="2031" interp="linr"  time="-9999999/1" value="255" leadInLength="0/1"   name="rightClickColorBlue"/>
            <InterpolatingParam id="2032" interp="linr"  time="-9999999/1" value="0" leadInLength="0/1"   name="rightClickColorGreen"/>
            <InterpolatingParam id="2033" interp="linr"  time="-9999999/1" value="0" leadInLength="0/1"   name="rightClickColorRed"/>
            <InterpolatingParam id="2034" interp="linr"  time="-9999999/1" value="0.80000000000000004" leadInLength="0/1"   name="rightClickDuration"/>
            <InterpolatingParam id="2035" interp="linr"  time="-9999999/1" value="20" leadInLength="0/1"   name="rightClickSize"/>
            <Parameter id="2036"   name="rightClickSoundFilename">
             <Keyframes>
             <Keyframe id="2037"  time="-9999999/1" value="" leadInLength="0/1"  />
             </Keyframes>
            </Parameter>
            <InterpolatingParam id="2038" interp="linr"  time="-9999999/1" value="1" leadInLength="0/1"   name="rightClickSoundVolume"/>
            <Parameter id="2039"   name="rightClickType">
             <Keyframes>
             <Keyframe id="2040"  time="-9999999/1" value="0" leadInLength="0/1"  />
             </Keyframes>
            </Parameter>
            </Parameters>
            <MetaData>
             <entry key="effectIndex" val="0"/>
            </MetaData>
           </GenericEffect>
          </Effects>
          <Attributes>
           <Attribute id="2041" value="" name="ident"/>
          </Attributes>
          <ExtraData>
           <Entry key="ZoomPanBin">
            <ZoomPanBin id="2042"  >
             <ZoomPanKeyframes>
              <ZoomPanKeyframe id="2043" timeRangeEnd="-9999999/1" timeRangeDuration="0/1" interpolaterName="linr"  />
             </ZoomPanKeyframes>
            </ZoomPanBin>
           </Entry>
           <Entry key="CursorEffectBin">
            <CursorEffectBin id="2044"  >
             <CursorEffectKeyframes>
              <CursorEffectKeyframe id="2045" timeRangeEnd="-9999999/1" timeRangeDuration="0/1" interpolaterName=""  />
             </CursorEffectKeyframes>
            </CursorEffectBin>
           </Entry>
          </ExtraData>
         </ScreenVMFile>
         <MetaData>
          <entry key="AutoAppliedSmartFocus" val="False"/>
          <entry key="WinSubProjectDisplayName" val=""/>
         </MetaData>
        </UnifiedMedia>
        <UnifiedMedia id="2046"  >
         <AMFile id="2047" start="16803" duration="720" scalar="1/1" mediaStart="0/1" mediaDuration="720/1" trackNumber="1" src="15" channelNumber="0,1" >
          <Parameters>
           <InterpolatingParam id="2048" interp="linr"  time="0/1" value="1" leadInLength="0/1"  name="volume"/>
           <Parameter id="2049"  name="captions"/>
          </Parameters>
          <Attributes>
           <Attribute id="2050" value="" name="ident"/>
           <Attribute id="2051" value="44100" name="sampleRate"/>
           <Attribute id="2052" value="16" name="bitDepth"/>
           <Attribute id="2053" value="1" name="gain"/>
           <Attribute id="2054" value="0" name="mixToMono"/>
          </Attributes>
         </AMFile>
         <ScreenVMFile id="2055" start="16803" duration="720" scalar="1/1" mediaStart="0/1" mediaDuration="720/1" trackNumber="0" src="15" >
          <Transformer>
           <VectorParam id="2056"  name="translation">
            <InterpolatingParam id="2057" interp="linr"  time="-9999999/1" value="0" leadInLength="0/1"  />
            <InterpolatingParam id="2058" interp="linr"  time="-9999999/1" value="0" leadInLength="0/1"  />
            <InterpolatingParam id="2059" interp="linr"  time="-9999999/1" value="0" leadInLength="0/1"  />
           </VectorParam>
           <VectorParam id="2060"  name="rotation">
            <InterpolatingParam id="2061" interp="linr"  time="-9999999/1" value="0" leadInLength="0/1"  />
            <InterpolatingParam id="2062" interp="linr"  time="-9999999/1" value="0" leadInLength="0/1"  />
            <InterpolatingParam id="2063" interp="linr"  time="-9999999/1" value="0" leadInLength="0/1"  />
           </VectorParam>
           <VectorParam id="2064"  name="shear">
            <InterpolatingParam id="2065" interp="linr"  time="-9999999/1" value="0" leadInLength="0/1"  />
            <InterpolatingParam id="2066" interp="linr"  time="-9999999/1" value="0" leadInLength="0/1"  />
            <InterpolatingParam id="2067" interp="linr"  time="-9999999/1" value="0" leadInLength="0/1"  />
           </VectorParam>
           <VectorParam id="2068"  name="scale">
            <InterpolatingParam id="2069" interp="linr"  time="-9999999/1" value="0.80000000000000004" leadInLength="0/1"  />
            <InterpolatingParam id="2070" interp="linr"  time="-9999999/1" value="0.80000000000000004" leadInLength="0/1"  />
            <InterpolatingParam id="2071" interp="linr"  time="-9999999/1" value="1" leadInLength="0/1"  />
           </VectorParam>
           <VectorParam id="2072"  name="anchor">
            <InterpolatingParam id="2073" interp="linr"  time="0/1" value="0" leadInLength="0/1"  />
            <InterpolatingParam id="2074" interp="linr"  time="0/1" value="0" leadInLength="0/1"  />
            <InterpolatingParam id="2075" interp="linr"  time="0/1" value="0" leadInLength="0/1"  />
           </VectorParam>
          </Transformer>
          <Parameters>
           <VectorParam id="2076"  name="sourceCrop">
            <InterpolatingParam id="2077" interp="linr"  time="0/1" value="0" leadInLength="0/1"  />
            <InterpolatingParam id="2078" interp="linr"  time="0/1" value="0" leadInLength="0/1"  />
            <InterpolatingParam id="2079" interp="linr"  time="0/1" value="0" leadInLength="0/1"  />
            <InterpolatingParam id="2080" interp="linr"  time="0/1" value="0" leadInLength="0/1"  />
           </VectorParam>
           <VectorParam id="2081"  name="geometryCrop">
            <InterpolatingParam id="2082" interp="linr"  time="-9999999/1" value="0" leadInLength="0/1"  />
            <InterpolatingParam id="2083" interp="linr"  time="-9999999/1" value="0" leadInLength="0/1"  />
            <InterpolatingParam id="2084" interp="linr"  time="-9999999/1" value="0" leadInLength="0/1"  />
            <InterpolatingParam id="2085" interp="linr"  time="-9999999/1" value="0" leadInLength="0/1"  />
           </VectorParam>
           <InterpolatingParam id="2086" interp="linr"  time="-9999999/1" value="1" leadInLength="0/1"  name="opacity"/>
           <InterpolatingParam id="2087" interp="linr"  time="0/1" value="1" leadInLength="0/1"  name="cursorOpacity"/>
           <InterpolatingParam id="2088" interp="linr"  time="0/1" value="1" leadInLength="0/1"  name="cursorScale"/>
          </Parameters>
          <Effects>
           <GenericEffect id="2089" name = "CursorBaseEffectName" >
            <Parameters>
            <InterpolatingParam id="2090" interp="linr"  time="-9999999/1" value="1" leadInLength="0/1"   name="cursorSize"/>
            <InterpolatingParam id="2091" interp="linr"  time="-9999999/1" value="0" leadInLength="0/1"   name="highlightBlurRadius"/>
            <InterpolatingParam id="2092" interp="linr"  time="-9999999/1" value="0" leadInLength="0/1"   name="highlightColorBlue"/>
            <InterpolatingParam id="2093" interp="linr"  time="-9999999/1" value="255" leadInLength="0/1"   name="highlightColorGreen"/>
            <InterpolatingParam id="2094" interp="linr"  time="-9999999/1" value="255" leadInLength="0/1"   name="highlightColorRed"/>
            <InterpolatingParam id="2095" interp="linr"  time="-9999999/1" value="5" leadInLength="0/1"   name="highlightFeatherSize"/>
            <InterpolatingParam id="2096" interp="linr"  time="-9999999/1" value="2" leadInLength="0/1"   name="highlightMagnification"/>
            <InterpolatingParam id="2097" interp="linr"  time="-9999999/1" value="1" leadInLength="0/1"   name="highlightOpacity"/>
            <InterpolatingParam id="2098" interp="linr"  time="-9999999/1" value="45" leadInLength="0/1"   name="highlightSize"/>
            <Parameter id="2099"   name="highlightType">
             <Keyframes>
             <Keyframe id="2100"  time="-9999999/1" value="0" leadInLength="0/1"  />
             </Keyframes>
            </Parameter>
            <InterpolatingParam id="2101" interp="linr"  time="-9999999/1" value="0" leadInLength="0/1"   name="leftClickColorBlue"/>
            <InterpolatingParam id="2102" interp="linr"  time="-9999999/1" value="0" leadInLength="0/1"   name="leftClickColorGreen"/>
            <InterpolatingParam id="2103" interp="linr"  time="-9999999/1" value="255" leadInLength="0/1"   name="leftClickColorRed"/>
            <InterpolatingParam id="2104" interp="linr"  time="-9999999/1" value="0.80000000000000004" leadInLength="0/1"   name="leftClickDuration"/>
            <InterpolatingParam id="2105" interp="linr"  time="-9999999/1" value="20" leadInLength="0/1"   name="leftClickSize"/>
            <Parameter id="2106"   name="leftClickSoundFilename">
             <Keyframes>
             <Keyframe id="2107"  time="-9999999/1" value="" leadInLength="0/1"  />
             </Keyframes>
            </Parameter>
            <InterpolatingParam id="2108" interp="linr"  time="-9999999/1" value="1" leadInLength="0/1"   name="leftClickSoundVolume"/>
            <Parameter id="2109"   name="leftClickType">
             <Keyframes>
             <Keyframe id="2110"  time="-9999999/1" value="0" leadInLength="0/1"  />
             </Keyframes>
            </Parameter>
            <InterpolatingParam id="2111" interp="linr"  time="-9999999/1" value="1" leadInLength="0/1"   name="opacity"/>
            <InterpolatingParam id="2112" interp="linr"  time="-9999999/1" value="255" leadInLength="0/1"   name="rightClickColorBlue"/>
            <InterpolatingParam id="2113" interp="linr"  time="-9999999/1" value="0" leadInLength="0/1"   name="rightClickColorGreen"/>
            <InterpolatingParam id="2114" interp="linr"  time="-9999999/1" value="0" leadInLength="0/1"   name="rightClickColorRed"/>
            <InterpolatingParam id="2115" interp="linr"  time="-9999999/1" value="0.80000000000000004" leadInLength="0/1"   name="rightClickDuration"/>
            <InterpolatingParam id="2116" interp="linr"  time="-9999999/1" value="20" leadInLength="0/1"   name="rightClickSize"/>
            <Parameter id="2117"   name="rightClickSoundFilename">
             <Keyframes>
             <Keyframe id="2118"  time="-9999999/1" value="" leadInLength="0/1"  />
             </Keyframes>
            </Parameter>
            <InterpolatingParam id="2119" interp="linr"  time="-9999999/1" value="1" leadInLength="0/1"   name="rightClickSoundVolume"/>
            <Parameter id="2120"   name="rightClickType">
             <Keyframes>
             <Keyframe id="2121"  time="-9999999/1" value="0" leadInLength="0/1"  />
             </Keyframes>
            </Parameter>
            </Parameters>
            <MetaData>
             <entry key="effectIndex" val="0"/>
            </MetaData>
           </GenericEffect>
          </Effects>
          <Attributes>
           <Attribute id="2122" value="" name="ident"/>
          </Attributes>
          <ExtraData>
           <Entry key="ZoomPanBin">
            <ZoomPanBin id="2123"  >
             <ZoomPanKeyframes>
              <ZoomPanKeyframe id="2124" timeRangeEnd="-9999999/1" timeRangeDuration="0/1" interpolaterName="linr"  />
             </ZoomPanKeyframes>
            </ZoomPanBin>
           </Entry>
           <Entry key="CursorEffectBin">
            <CursorEffectBin id="2125"  >
             <CursorEffectKeyframes>
              <CursorEffectKeyframe id="2126" timeRangeEnd="-9999999/1" timeRangeDuration="0/1" interpolaterName=""  />
             </CursorEffectKeyframes>
            </CursorEffectBin>
           </Entry>
          </ExtraData>
         </ScreenVMFile>
         <MetaData>
          <entry key="AutoAppliedSmartFocus" val="False"/>
          <entry key="WinSubProjectDisplayName" val=""/>
         </MetaData>
        </UnifiedMedia>
        <UnifiedMedia id="2127"  >
         <AMFile id="2128" start="17523" duration="735" scalar="1/1" mediaStart="0/1" mediaDuration="735/1" trackNumber="1" src="16" channelNumber="0,1" >
          <Parameters>
           <InterpolatingParam id="2129" interp="linr"  time="0/1" value="1" leadInLength="0/1"  name="volume"/>
           <Parameter id="2130"  name="captions"/>
          </Parameters>
          <Attributes>
           <Attribute id="2131" value="" name="ident"/>
           <Attribute id="2132" value="44100" name="sampleRate"/>
           <Attribute id="2133" value="16" name="bitDepth"/>
           <Attribute id="2134" value="1" name="gain"/>
           <Attribute id="2135" value="0" name="mixToMono"/>
          </Attributes>
         </AMFile>
         <ScreenVMFile id="2136" start="17523" duration="735" scalar="1/1" mediaStart="0/1" mediaDuration="735/1" trackNumber="0" src="16" >
          <Transformer>
           <VectorParam id="2137"  name="translation">
            <InterpolatingParam id="2138" interp="linr"  time="-9999999/1" value="0" leadInLength="0/1"  />
            <InterpolatingParam id="2139" interp="linr"  time="-9999999/1" value="0" leadInLength="0/1"  />
            <InterpolatingParam id="2140" interp="linr"  time="-9999999/1" value="0" leadInLength="0/1"  />
           </VectorParam>
           <VectorParam id="2141"  name="rotation">
            <InterpolatingParam id="2142" interp="linr"  time="-9999999/1" value="0" leadInLength="0/1"  />
            <InterpolatingParam id="2143" interp="linr"  time="-9999999/1" value="0" leadInLength="0/1"  />
            <InterpolatingParam id="2144" interp="linr"  time="-9999999/1" value="0" leadInLength="0/1"  />
           </VectorParam>
           <VectorParam id="2145"  name="shear">
            <InterpolatingParam id="2146" interp="linr"  time="-9999999/1" value="0" leadInLength="0/1"  />
            <InterpolatingParam id="2147" interp="linr"  time="-9999999/1" value="0" leadInLength="0/1"  />
            <InterpolatingParam id="2148" interp="linr"  time="-9999999/1" value="0" leadInLength="0/1"  />
           </VectorParam>
           <VectorParam id="2149"  name="scale">
            <InterpolatingParam id="2150" interp="linr"  time="-9999999/1" value="0.80000000000000004" leadInLength="0/1"  />
            <InterpolatingParam id="2151" interp="linr"  time="-9999999/1" value="0.80000000000000004" leadInLength="0/1"  />
            <InterpolatingParam id="2152" interp="linr"  time="-9999999/1" value="1" leadInLength="0/1"  />
           </VectorParam>
           <VectorParam id="2153"  name="anchor">
            <InterpolatingParam id="2154" interp="linr"  time="0/1" value="0" leadInLength="0/1"  />
            <InterpolatingParam id="2155" interp="linr"  time="0/1" value="0" leadInLength="0/1"  />
            <InterpolatingParam id="2156" interp="linr"  time="0/1" value="0" leadInLength="0/1"  />
           </VectorParam>
          </Transformer>
          <Parameters>
           <VectorParam id="2157"  name="sourceCrop">
            <InterpolatingParam id="2158" interp="linr"  time="0/1" value="0" leadInLength="0/1"  />
            <InterpolatingParam id="2159" interp="linr"  time="0/1" value="0" leadInLength="0/1"  />
            <InterpolatingParam id="2160" interp="linr"  time="0/1" value="0" leadInLength="0/1"  />
            <InterpolatingParam id="2161" interp="linr"  time="0/1" value="0" leadInLength="0/1"  />
           </VectorParam>
           <VectorParam id="2162"  name="geometryCrop">
            <InterpolatingParam id="2163" interp="linr"  time="-9999999/1" value="0" leadInLength="0/1"  />
            <InterpolatingParam id="2164" interp="linr"  time="-9999999/1" value="0" leadInLength="0/1"  />
            <InterpolatingParam id="2165" interp="linr"  time="-9999999/1" value="0" leadInLength="0/1"  />
            <InterpolatingParam id="2166" interp="linr"  time="-9999999/1" value="0" leadInLength="0/1"  />
           </VectorParam>
           <InterpolatingParam id="2167" interp="linr"  time="-9999999/1" value="1" leadInLength="0/1"  name="opacity"/>
           <InterpolatingParam id="2168" interp="linr"  time="0/1" value="1" leadInLength="0/1"  name="cursorOpacity"/>
           <InterpolatingParam id="2169" interp="linr"  time="0/1" value="1" leadInLength="0/1"  name="cursorScale"/>
          </Parameters>
          <Effects>
           <GenericEffect id="2170" name = "CursorBaseEffectName" >
            <Parameters>
            <InterpolatingParam id="2171" interp="linr"  time="-9999999/1" value="1" leadInLength="0/1"   name="cursorSize"/>
            <InterpolatingParam id="2172" interp="linr"  time="-9999999/1" value="0" leadInLength="0/1"   name="highlightBlurRadius"/>
            <InterpolatingParam id="2173" interp="linr"  time="-9999999/1" value="0" leadInLength="0/1"   name="highlightColorBlue"/>
            <InterpolatingParam id="2174" interp="linr"  time="-9999999/1" value="255" leadInLength="0/1"   name="highlightColorGreen"/>
            <InterpolatingParam id="2175" interp="linr"  time="-9999999/1" value="255" leadInLength="0/1"   name="highlightColorRed"/>
            <InterpolatingParam id="2176" interp="linr"  time="-9999999/1" value="5" leadInLength="0/1"   name="highlightFeatherSize"/>
            <InterpolatingParam id="2177" interp="linr"  time="-9999999/1" value="2" leadInLength="0/1"   name="highlightMagnification"/>
            <InterpolatingParam id="2178" interp="linr"  time="-9999999/1" value="1" leadInLength="0/1"   name="highlightOpacity"/>
            <InterpolatingParam id="2179" interp="linr"  time="-9999999/1" value="45" leadInLength="0/1"   name="highlightSize"/>
            <Parameter id="2180"   name="highlightType">
             <Keyframes>
             <Keyframe id="2181"  time="-9999999/1" value="0" leadInLength="0/1"  />
             </Keyframes>
            </Parameter>
            <InterpolatingParam id="2182" interp="linr"  time="-9999999/1" value="0" leadInLength="0/1"   name="leftClickColorBlue"/>
            <InterpolatingParam id="2183" interp="linr"  time="-9999999/1" value="0" leadInLength="0/1"   name="leftClickColorGreen"/>
            <InterpolatingParam id="2184" interp="linr"  time="-9999999/1" value="255" leadInLength="0/1"   name="leftClickColorRed"/>
            <InterpolatingParam id="2185" interp="linr"  time="-9999999/1" value="0.80000000000000004" leadInLength="0/1"   name="leftClickDuration"/>
            <InterpolatingParam id="2186" interp="linr"  time="-9999999/1" value="20" leadInLength="0/1"   name="leftClickSize"/>
            <Parameter id="2187"   name="leftClickSoundFilename">
             <Keyframes>
             <Keyframe id="2188"  time="-9999999/1" value="" leadInLength="0/1"  />
             </Keyframes>
            </Parameter>
            <InterpolatingParam id="2189" interp="linr"  time="-9999999/1" value="1" leadInLength="0/1"   name="leftClickSoundVolume"/>
            <Parameter id="2190"   name="leftClickType">
             <Keyframes>
             <Keyframe id="2191"  time="-9999999/1" value="0" leadInLength="0/1"  />
             </Keyframes>
            </Parameter>
            <InterpolatingParam id="2192" interp="linr"  time="-9999999/1" value="1" leadInLength="0/1"   name="opacity"/>
            <InterpolatingParam id="2193" interp="linr"  time="-9999999/1" value="255" leadInLength="0/1"   name="rightClickColorBlue"/>
            <InterpolatingParam id="2194" interp="linr"  time="-9999999/1" value="0" leadInLength="0/1"   name="rightClickColorGreen"/>
            <InterpolatingParam id="2195" interp="linr"  time="-9999999/1" value="0" leadInLength="0/1"   name="rightClickColorRed"/>
            <InterpolatingParam id="2196" interp="linr"  time="-9999999/1" value="0.80000000000000004" leadInLength="0/1"   name="rightClickDuration"/>
            <InterpolatingParam id="2197" interp="linr"  time="-9999999/1" value="20" leadInLength="0/1"   name="rightClickSize"/>
            <Parameter id="2198"   name="rightClickSoundFilename">
             <Keyframes>
             <Keyframe id="2199"  time="-9999999/1" value="" leadInLength="0/1"  />
             </Keyframes>
            </Parameter>
            <InterpolatingParam id="2200" interp="linr"  time="-9999999/1" value="1" leadInLength="0/1"   name="rightClickSoundVolume"/>
            <Parameter id="2201"   name="rightClickType">
             <Keyframes>
             <Keyframe id="2202"  time="-9999999/1" value="0" leadInLength="0/1"  />
             </Keyframes>
            </Parameter>
            </Parameters>
            <MetaData>
             <entry key="effectIndex" val="0"/>
            </MetaData>
           </GenericEffect>
          </Effects>
          <Attributes>
           <Attribute id="2203" value="" name="ident"/>
          </Attributes>
          <ExtraData>
           <Entry key="ZoomPanBin">
            <ZoomPanBin id="2204"  >
             <ZoomPanKeyframes>
              <ZoomPanKeyframe id="2205" timeRangeEnd="-9999999/1" timeRangeDuration="0/1" interpolaterName="linr"  />
             </ZoomPanKeyframes>
            </ZoomPanBin>
           </Entry>
           <Entry key="CursorEffectBin">
            <CursorEffectBin id="2206"  >
             <CursorEffectKeyframes>
              <CursorEffectKeyframe id="2207" timeRangeEnd="-9999999/1" timeRangeDuration="0/1" interpolaterName=""  />
             </CursorEffectKeyframes>
            </CursorEffectBin>
           </Entry>
          </ExtraData>
         </ScreenVMFile>
         <MetaData>
          <entry key="AutoAppliedSmartFocus" val="False"/>
          <entry key="WinSubProjectDisplayName" val=""/>
         </MetaData>
        </UnifiedMedia>
        <UnifiedMedia id="2208"  >
         <AMFile id="2209" start="18258" duration="645" scalar="1/1" mediaStart="0/1" mediaDuration="645/1" trackNumber="1" src="17" channelNumber="0,1" >
          <Parameters>
           <InterpolatingParam id="2210" interp="linr"  time="0/1" value="1" leadInLength="0/1"  name="volume"/>
           <Parameter id="2211"  name="captions"/>
          </Parameters>
          <Attributes>
           <Attribute id="2212" value="" name="ident"/>
           <Attribute id="2213" value="44100" name="sampleRate"/>
           <Attribute id="2214" value="16" name="bitDepth"/>
           <Attribute id="2215" value="1" name="gain"/>
           <Attribute id="2216" value="0" name="mixToMono"/>
          </Attributes>
         </AMFile>
         <ScreenVMFile id="2217" start="18258" duration="645" scalar="1/1" mediaStart="0/1" mediaDuration="645/1" trackNumber="0" src="17" >
          <Transformer>
           <VectorParam id="2218"  name="translation">
            <InterpolatingParam id="2219" interp="linr"  time="-9999999/1" value="0" leadInLength="0/1"  />
            <InterpolatingParam id="2220" interp="linr"  time="-9999999/1" value="0" leadInLength="0/1"  />
            <InterpolatingParam id="2221" interp="linr"  time="-9999999/1" value="0" leadInLength="0/1"  />
           </VectorParam>
           <VectorParam id="2222"  name="rotation">
            <InterpolatingParam id="2223" interp="linr"  time="-9999999/1" value="0" leadInLength="0/1"  />
            <InterpolatingParam id="2224" interp="linr"  time="-9999999/1" value="0" leadInLength="0/1"  />
            <InterpolatingParam id="2225" interp="linr"  time="-9999999/1" value="0" leadInLength="0/1"  />
           </VectorParam>
           <VectorParam id="2226"  name="shear">
            <InterpolatingParam id="2227" interp="linr"  time="-9999999/1" value="0" leadInLength="0/1"  />
            <InterpolatingParam id="2228" interp="linr"  time="-9999999/1" value="0" leadInLength="0/1"  />
            <InterpolatingParam id="2229" interp="linr"  time="-9999999/1" value="0" leadInLength="0/1"  />
           </VectorParam>
           <VectorParam id="2230"  name="scale">
            <InterpolatingParam id="2231" interp="linr"  time="-9999999/1" value="0.80000000000000004" leadInLength="0/1"  />
            <InterpolatingParam id="2232" interp="linr"  time="-9999999/1" value="0.80000000000000004" leadInLength="0/1"  />
            <InterpolatingParam id="2233" interp="linr"  time="-9999999/1" value="1" leadInLength="0/1"  />
           </VectorParam>
           <VectorParam id="2234"  name="anchor">
            <InterpolatingParam id="2235" interp="linr"  time="0/1" value="0" leadInLength="0/1"  />
            <InterpolatingParam id="2236" interp="linr"  time="0/1" value="0" leadInLength="0/1"  />
            <InterpolatingParam id="2237" interp="linr"  time="0/1" value="0" leadInLength="0/1"  />
           </VectorParam>
          </Transformer>
          <Parameters>
           <VectorParam id="2238"  name="sourceCrop">
            <InterpolatingParam id="2239" interp="linr"  time="0/1" value="0" leadInLength="0/1"  />
            <InterpolatingParam id="2240" interp="linr"  time="0/1" value="0" leadInLength="0/1"  />
            <InterpolatingParam id="2241" interp="linr"  time="0/1" value="0" leadInLength="0/1"  />
            <InterpolatingParam id="2242" interp="linr"  time="0/1" value="0" leadInLength="0/1"  />
           </VectorParam>
           <VectorParam id="2243"  name="geometryCrop">
            <InterpolatingParam id="2244" interp="linr"  time="-9999999/1" value="0" leadInLength="0/1"  />
            <InterpolatingParam id="2245" interp="linr"  time="-9999999/1" value="0" leadInLength="0/1"  />
            <InterpolatingParam id="2246" interp="linr"  time="-9999999/1" value="0" leadInLength="0/1"  />
            <InterpolatingParam id="2247" interp="linr"  time="-9999999/1" value="0" leadInLength="0/1"  />
           </VectorParam>
           <InterpolatingParam id="2248" interp="linr"  time="-9999999/1" value="1" leadInLength="0/1"  name="opacity"/>
           <InterpolatingParam id="2249" interp="linr"  time="0/1" value="1" leadInLength="0/1"  name="cursorOpacity"/>
           <InterpolatingParam id="2250" interp="linr"  time="0/1" value="1" leadInLength="0/1"  name="cursorScale"/>
          </Parameters>
          <Effects>
           <GenericEffect id="2251" name = "CursorBaseEffectName" >
            <Parameters>
            <InterpolatingParam id="2252" interp="linr"  time="-9999999/1" value="1" leadInLength="0/1"   name="cursorSize"/>
            <InterpolatingParam id="2253" interp="linr"  time="-9999999/1" value="0" leadInLength="0/1"   name="highlightBlurRadius"/>
            <InterpolatingParam id="2254" interp="linr"  time="-9999999/1" value="0" leadInLength="0/1"   name="highlightColorBlue"/>
            <InterpolatingParam id="2255" interp="linr"  time="-9999999/1" value="255" leadInLength="0/1"   name="highlightColorGreen"/>
            <InterpolatingParam id="2256" interp="linr"  time="-9999999/1" value="255" leadInLength="0/1"   name="highlightColorRed"/>
            <InterpolatingParam id="2257" interp="linr"  time="-9999999/1" value="5" leadInLength="0/1"   name="highlightFeatherSize"/>
            <InterpolatingParam id="2258" interp="linr"  time="-9999999/1" value="2" leadInLength="0/1"   name="highlightMagnification"/>
            <InterpolatingParam id="2259" interp="linr"  time="-9999999/1" value="1" leadInLength="0/1"   name="highlightOpacity"/>
            <InterpolatingParam id="2260" interp="linr"  time="-9999999/1" value="45" leadInLength="0/1"   name="highlightSize"/>
            <Parameter id="2261"   name="highlightType">
             <Keyframes>
             <Keyframe id="2262"  time="-9999999/1" value="0" leadInLength="0/1"  />
             </Keyframes>
            </Parameter>
            <InterpolatingParam id="2263" interp="linr"  time="-9999999/1" value="0" leadInLength="0/1"   name="leftClickColorBlue"/>
            <InterpolatingParam id="2264" interp="linr"  time="-9999999/1" value="0" leadInLength="0/1"   name="leftClickColorGreen"/>
            <InterpolatingParam id="2265" interp="linr"  time="-9999999/1" value="255" leadInLength="0/1"   name="leftClickColorRed"/>
            <InterpolatingParam id="2266" interp="linr"  time="-9999999/1" value="0.80000000000000004" leadInLength="0/1"   name="leftClickDuration"/>
            <InterpolatingParam id="2267" interp="linr"  time="-9999999/1" value="20" leadInLength="0/1"   name="leftClickSize"/>
            <Parameter id="2268"   name="leftClickSoundFilename">
             <Keyframes>
             <Keyframe id="2269"  time="-9999999/1" value="" leadInLength="0/1"  />
             </Keyframes>
            </Parameter>
            <InterpolatingParam id="2270" interp="linr"  time="-9999999/1" value="1" leadInLength="0/1"   name="leftClickSoundVolume"/>
            <Parameter id="2271"   name="leftClickType">
             <Keyframes>
             <Keyframe id="2272"  time="-9999999/1" value="0" leadInLength="0/1"  />
             </Keyframes>
            </Parameter>
            <InterpolatingParam id="2273" interp="linr"  time="-9999999/1" value="1" leadInLength="0/1"   name="opacity"/>
            <InterpolatingParam id="2274" interp="linr"  time="-9999999/1" value="255" leadInLength="0/1"   name="rightClickColorBlue"/>
            <InterpolatingParam id="2275" interp="linr"  time="-9999999/1" value="0" leadInLength="0/1"   name="rightClickColorGreen"/>
            <InterpolatingParam id="2276" interp="linr"  time="-9999999/1" value="0" leadInLength="0/1"   name="rightClickColorRed"/>
            <InterpolatingParam id="2277" interp="linr"  time="-9999999/1" value="0.80000000000000004" leadInLength="0/1"   name="rightClickDuration"/>
            <InterpolatingParam id="2278" interp="linr"  time="-9999999/1" value="20" leadInLength="0/1"   name="rightClickSize"/>
            <Parameter id="2279"   name="rightClickSoundFilename">
             <Keyframes>
             <Keyframe id="2280"  time="-9999999/1" value="" leadInLength="0/1"  />
             </Keyframes>
            </Parameter>
            <InterpolatingParam id="2281" interp="linr"  time="-9999999/1" value="1" leadInLength="0/1"   name="rightClickSoundVolume"/>
            <Parameter id="2282"   name="rightClickType">
             <Keyframes>
             <Keyframe id="2283"  time="-9999999/1" value="0" leadInLength="0/1"  />
             </Keyframes>
            </Parameter>
            </Parameters>
            <MetaData>
             <entry key="effectIndex" val="0"/>
            </MetaData>
           </GenericEffect>
          </Effects>
          <Attributes>
           <Attribute id="2284" value="" name="ident"/>
          </Attributes>
          <ExtraData>
           <Entry key="ZoomPanBin">
            <ZoomPanBin id="2285"  >
             <ZoomPanKeyframes>
              <ZoomPanKeyframe id="2286" timeRangeEnd="-9999999/1" timeRangeDuration="0/1" interpolaterName="linr"  />
             </ZoomPanKeyframes>
            </ZoomPanBin>
           </Entry>
           <Entry key="CursorEffectBin">
            <CursorEffectBin id="2287"  >
             <CursorEffectKeyframes>
              <CursorEffectKeyframe id="2288" timeRangeEnd="-9999999/1" timeRangeDuration="0/1" interpolaterName=""  />
             </CursorEffectKeyframes>
            </CursorEffectBin>
           </Entry>
          </ExtraData>
         </ScreenVMFile>
         <MetaData>
          <entry key="AutoAppliedSmartFocus" val="False"/>
          <entry key="WinSubProjectDisplayName" val=""/>
         </MetaData>
        </UnifiedMedia>
        <UnifiedMedia id="2289"  >
         <AMFile id="2290" start="18903" duration="1081" scalar="1/1" mediaStart="0/1" mediaDuration="1081/1" trackNumber="1" src="18" channelNumber="0,1" >
          <Parameters>
           <InterpolatingParam id="2291" interp="linr"  time="0/1" value="1" leadInLength="0/1"  name="volume"/>
           <Parameter id="2292"  name="captions"/>
          </Parameters>
          <Attributes>
           <Attribute id="2293" value="" name="ident"/>
           <Attribute id="2294" value="44100" name="sampleRate"/>
           <Attribute id="2295" value="16" name="bitDepth"/>
           <Attribute id="2296" value="1" name="gain"/>
           <Attribute id="2297" value="0" name="mixToMono"/>
          </Attributes>
         </AMFile>
         <ScreenVMFile id="2298" start="18903" duration="1081" scalar="1/1" mediaStart="0/1" mediaDuration="1081/1" trackNumber="0" src="18" >
          <Transformer>
           <VectorParam id="2299"  name="translation">
            <InterpolatingParam id="2300" interp="linr"  time="-9999999/1" value="0" leadInLength="0/1"  />
            <InterpolatingParam id="2301" interp="linr"  time="-9999999/1" value="0" leadInLength="0/1"  />
            <InterpolatingParam id="2302" interp="linr"  time="-9999999/1" value="0" leadInLength="0/1"  />
           </VectorParam>
           <VectorParam id="2303"  name="rotation">
            <InterpolatingParam id="2304" interp="linr"  time="-9999999/1" value="0" leadInLength="0/1"  />
            <InterpolatingParam id="2305" interp="linr"  time="-9999999/1" value="0" leadInLength="0/1"  />
            <InterpolatingParam id="2306" interp="linr"  time="-9999999/1" value="0" leadInLength="0/1"  />
           </VectorParam>
           <VectorParam id="2307"  name="shear">
            <InterpolatingParam id="2308" interp="linr"  time="-9999999/1" value="0" leadInLength="0/1"  />
            <InterpolatingParam id="2309" interp="linr"  time="-9999999/1" value="0" leadInLength="0/1"  />
            <InterpolatingParam id="2310" interp="linr"  time="-9999999/1" value="0" leadInLength="0/1"  />
           </VectorParam>
           <VectorParam id="2311"  name="scale">
            <InterpolatingParam id="2312" interp="linr"  time="-9999999/1" value="0.80000000000000004" leadInLength="0/1"  />
            <InterpolatingParam id="2313" interp="linr"  time="-9999999/1" value="0.80000000000000004" leadInLength="0/1"  />
            <InterpolatingParam id="2314" interp="linr"  time="-9999999/1" value="1" leadInLength="0/1"  />
           </VectorParam>
           <VectorParam id="2315"  name="anchor">
            <InterpolatingParam id="2316" interp="linr"  time="0/1" value="0" leadInLength="0/1"  />
            <InterpolatingParam id="2317" interp="linr"  time="0/1" value="0" leadInLength="0/1"  />
            <InterpolatingParam id="2318" interp="linr"  time="0/1" value="0" leadInLength="0/1"  />
           </VectorParam>
          </Transformer>
          <Parameters>
           <VectorParam id="2319"  name="sourceCrop">
            <InterpolatingParam id="2320" interp="linr"  time="0/1" value="0" leadInLength="0/1"  />
            <InterpolatingParam id="2321" interp="linr"  time="0/1" value="0" leadInLength="0/1"  />
            <InterpolatingParam id="2322" interp="linr"  time="0/1" value="0" leadInLength="0/1"  />
            <InterpolatingParam id="2323" interp="linr"  time="0/1" value="0" leadInLength="0/1"  />
           </VectorParam>
           <VectorParam id="2324"  name="geometryCrop">
            <InterpolatingParam id="2325" interp="linr"  time="-9999999/1" value="0" leadInLength="0/1"  />
            <InterpolatingParam id="2326" interp="linr"  time="-9999999/1" value="0" leadInLength="0/1"  />
            <InterpolatingParam id="2327" interp="linr"  time="-9999999/1" value="0" leadInLength="0/1"  />
            <InterpolatingParam id="2328" interp="linr"  time="-9999999/1" value="0" leadInLength="0/1"  />
           </VectorParam>
           <InterpolatingParam id="2329" interp="linr"  time="-9999999/1" value="1" leadInLength="0/1"  name="opacity"/>
           <InterpolatingParam id="2330" interp="linr"  time="0/1" value="1" leadInLength="0/1"  name="cursorOpacity"/>
           <InterpolatingParam id="2331" interp="linr"  time="0/1" value="1" leadInLength="0/1"  name="cursorScale"/>
          </Parameters>
          <Effects>
           <GenericEffect id="2332" name = "CursorBaseEffectName" >
            <Parameters>
            <InterpolatingParam id="2333" interp="linr"  time="-9999999/1" value="1" leadInLength="0/1"   name="cursorSize"/>
            <InterpolatingParam id="2334" interp="linr"  time="-9999999/1" value="0" leadInLength="0/1"   name="highlightBlurRadius"/>
            <InterpolatingParam id="2335" interp="linr"  time="-9999999/1" value="0" leadInLength="0/1"   name="highlightColorBlue"/>
            <InterpolatingParam id="2336" interp="linr"  time="-9999999/1" value="255" leadInLength="0/1"   name="highlightColorGreen"/>
            <InterpolatingParam id="2337" interp="linr"  time="-9999999/1" value="255" leadInLength="0/1"   name="highlightColorRed"/>
            <InterpolatingParam id="2338" interp="linr"  time="-9999999/1" value="5" leadInLength="0/1"   name="highlightFeatherSize"/>
            <InterpolatingParam id="2339" interp="linr"  time="-9999999/1" value="2" leadInLength="0/1"   name="highlightMagnification"/>
            <InterpolatingParam id="2340" interp="linr"  time="-9999999/1" value="1" leadInLength="0/1"   name="highlightOpacity"/>
            <InterpolatingParam id="2341" interp="linr"  time="-9999999/1" value="45" leadInLength="0/1"   name="highlightSize"/>
            <Parameter id="2342"   name="highlightType">
             <Keyframes>
             <Keyframe id="2343"  time="-9999999/1" value="0" leadInLength="0/1"  />
             </Keyframes>
            </Parameter>
            <InterpolatingParam id="2344" interp="linr"  time="-9999999/1" value="0" leadInLength="0/1"   name="leftClickColorBlue"/>
            <InterpolatingParam id="2345" interp="linr"  time="-9999999/1" value="0" leadInLength="0/1"   name="leftClickColorGreen"/>
            <InterpolatingParam id="2346" interp="linr"  time="-9999999/1" value="255" leadInLength="0/1"   name="leftClickColorRed"/>
            <InterpolatingParam id="2347" interp="linr"  time="-9999999/1" value="0.80000000000000004" leadInLength="0/1"   name="leftClickDuration"/>
            <InterpolatingParam id="2348" interp="linr"  time="-9999999/1" value="20" leadInLength="0/1"   name="leftClickSize"/>
            <Parameter id="2349"   name="leftClickSoundFilename">
             <Keyframes>
             <Keyframe id="2350"  time="-9999999/1" value="" leadInLength="0/1"  />
             </Keyframes>
            </Parameter>
            <InterpolatingParam id="2351" interp="linr"  time="-9999999/1" value="1" leadInLength="0/1"   name="leftClickSoundVolume"/>
            <Parameter id="2352"   name="leftClickType">
             <Keyframes>
             <Keyframe id="2353"  time="-9999999/1" value="0" leadInLength="0/1"  />
             </Keyframes>
            </Parameter>
            <InterpolatingParam id="2354" interp="linr"  time="-9999999/1" value="1" leadInLength="0/1"   name="opacity"/>
            <InterpolatingParam id="2355" interp="linr"  time="-9999999/1" value="255" leadInLength="0/1"   name="rightClickColorBlue"/>
            <InterpolatingParam id="2356" interp="linr"  time="-9999999/1" value="0" leadInLength="0/1"   name="rightClickColorGreen"/>
            <InterpolatingParam id="2357" interp="linr"  time="-9999999/1" value="0" leadInLength="0/1"   name="rightClickColorRed"/>
            <InterpolatingParam id="2358" interp="linr"  time="-9999999/1" value="0.80000000000000004" leadInLength="0/1"   name="rightClickDuration"/>
            <InterpolatingParam id="2359" interp="linr"  time="-9999999/1" value="20" leadInLength="0/1"   name="rightClickSize"/>
            <Parameter id="2360"   name="rightClickSoundFilename">
             <Keyframes>
             <Keyframe id="2361"  time="-9999999/1" value="" leadInLength="0/1"  />
             </Keyframes>
            </Parameter>
            <InterpolatingParam id="2362" interp="linr"  time="-9999999/1" value="1" leadInLength="0/1"   name="rightClickSoundVolume"/>
            <Parameter id="2363"   name="rightClickType">
             <Keyframes>
             <Keyframe id="2364"  time="-9999999/1" value="0" leadInLength="0/1"  />
             </Keyframes>
            </Parameter>
            </Parameters>
            <MetaData>
             <entry key="effectIndex" val="0"/>
            </MetaData>
           </GenericEffect>
          </Effects>
          <Attributes>
           <Attribute id="2365" value="" name="ident"/>
          </Attributes>
          <ExtraData>
           <Entry key="ZoomPanBin">
            <ZoomPanBin id="2366"  >
             <ZoomPanKeyframes>
              <ZoomPanKeyframe id="2367" timeRangeEnd="-9999999/1" timeRangeDuration="0/1" interpolaterName="linr"  />
             </ZoomPanKeyframes>
            </ZoomPanBin>
           </Entry>
           <Entry key="CursorEffectBin">
            <CursorEffectBin id="2368"  >
             <CursorEffectKeyframes>
              <CursorEffectKeyframe id="2369" timeRangeEnd="-9999999/1" timeRangeDuration="0/1" interpolaterName=""  />
             </CursorEffectKeyframes>
            </CursorEffectBin>
           </Entry>
          </ExtraData>
         </ScreenVMFile>
         <MetaData>
          <entry key="AutoAppliedSmartFocus" val="False"/>
          <entry key="WinSubProjectDisplayName" val=""/>
         </MetaData>
        </UnifiedMedia>
        <UnifiedMedia id="2370"  >
         <AMFile id="2371" start="19984" duration="3076" scalar="1/1" mediaStart="0/1" mediaDuration="3076/1" trackNumber="1" src="19" channelNumber="0,1" >
          <Parameters>
           <InterpolatingParam id="2372" interp="linr"  time="0/1" value="1" leadInLength="0/1"  name="volume"/>
           <Parameter id="2373"  name="captions"/>
          </Parameters>
          <Attributes>
           <Attribute id="2374" value="" name="ident"/>
           <Attribute id="2375" value="44100" name="sampleRate"/>
           <Attribute id="2376" value="16" name="bitDepth"/>
           <Attribute id="2377" value="1" name="gain"/>
           <Attribute id="2378" value="0" name="mixToMono"/>
          </Attributes>
         </AMFile>
         <ScreenVMFile id="2379" start="19984" duration="3076" scalar="1/1" mediaStart="0/1" mediaDuration="3076/1" trackNumber="0" src="19" >
          <Transformer>
           <VectorParam id="2380"  name="translation">
            <InterpolatingParam id="2381" interp="linr"  time="-9999999/1" value="0" leadInLength="0/1"  />
            <InterpolatingParam id="2382" interp="linr"  time="-9999999/1" value="0" leadInLength="0/1"  />
            <InterpolatingParam id="2383" interp="linr"  time="-9999999/1" value="0" leadInLength="0/1"  />
           </VectorParam>
           <VectorParam id="2384"  name="rotation">
            <InterpolatingParam id="2385" interp="linr"  time="-9999999/1" value="0" leadInLength="0/1"  />
            <InterpolatingParam id="2386" interp="linr"  time="-9999999/1" value="0" leadInLength="0/1"  />
            <InterpolatingParam id="2387" interp="linr"  time="-9999999/1" value="0" leadInLength="0/1"  />
           </VectorParam>
           <VectorParam id="2388"  name="shear">
            <InterpolatingParam id="2389" interp="linr"  time="-9999999/1" value="0" leadInLength="0/1"  />
            <InterpolatingParam id="2390" interp="linr"  time="-9999999/1" value="0" leadInLength="0/1"  />
            <InterpolatingParam id="2391" interp="linr"  time="-9999999/1" value="0" leadInLength="0/1"  />
           </VectorParam>
           <VectorParam id="2392"  name="scale">
            <InterpolatingParam id="2393" interp="linr"  time="-9999999/1" value="0.80000000000000004" leadInLength="0/1"  />
            <InterpolatingParam id="2394" interp="linr"  time="-9999999/1" value="0.80000000000000004" leadInLength="0/1"  />
            <InterpolatingParam id="2395" interp="linr"  time="-9999999/1" value="1" leadInLength="0/1"  />
           </VectorParam>
           <VectorParam id="2396"  name="anchor">
            <InterpolatingParam id="2397" interp="linr"  time="0/1" value="0" leadInLength="0/1"  />
            <InterpolatingParam id="2398" interp="linr"  time="0/1" value="0" leadInLength="0/1"  />
            <InterpolatingParam id="2399" interp="linr"  time="0/1" value="0" leadInLength="0/1"  />
           </VectorParam>
          </Transformer>
          <Parameters>
           <VectorParam id="2400"  name="sourceCrop">
            <InterpolatingParam id="2401" interp="linr"  time="0/1" value="0" leadInLength="0/1"  />
            <InterpolatingParam id="2402" interp="linr"  time="0/1" value="0" leadInLength="0/1"  />
            <InterpolatingParam id="2403" interp="linr"  time="0/1" value="0" leadInLength="0/1"  />
            <InterpolatingParam id="2404" interp="linr"  time="0/1" value="0" leadInLength="0/1"  />
           </VectorParam>
           <VectorParam id="2405"  name="geometryCrop">
            <InterpolatingParam id="2406" interp="linr"  time="-9999999/1" value="0" leadInLength="0/1"  />
            <InterpolatingParam id="2407" interp="linr"  time="-9999999/1" value="0" leadInLength="0/1"  />
            <InterpolatingParam id="2408" interp="linr"  time="-9999999/1" value="0" leadInLength="0/1"  />
            <InterpolatingParam id="2409" interp="linr"  time="-9999999/1" value="0" leadInLength="0/1"  />
           </VectorParam>
           <InterpolatingParam id="2410" interp="linr"  time="-9999999/1" value="1" leadInLength="0/1"  name="opacity"/>
           <InterpolatingParam id="2411" interp="linr"  time="0/1" value="1" leadInLength="0/1"  name="cursorOpacity"/>
           <InterpolatingParam id="2412" interp="linr"  time="0/1" value="1" leadInLength="0/1"  name="cursorScale"/>
          </Parameters>
          <Effects>
           <GenericEffect id="2413" name = "CursorBaseEffectName" >
            <Parameters>
            <InterpolatingParam id="2414" interp="linr"  time="-9999999/1" value="1" leadInLength="0/1"   name="cursorSize"/>
            <InterpolatingParam id="2415" interp="linr"  time="-9999999/1" value="0" leadInLength="0/1"   name="highlightBlurRadius"/>
            <InterpolatingParam id="2416" interp="linr"  time="-9999999/1" value="0" leadInLength="0/1"   name="highlightColorBlue"/>
            <InterpolatingParam id="2417" interp="linr"  time="-9999999/1" value="255" leadInLength="0/1"   name="highlightColorGreen"/>
            <InterpolatingParam id="2418" interp="linr"  time="-9999999/1" value="255" leadInLength="0/1"   name="highlightColorRed"/>
            <InterpolatingParam id="2419" interp="linr"  time="-9999999/1" value="5" leadInLength="0/1"   name="highlightFeatherSize"/>
            <InterpolatingParam id="2420" interp="linr"  time="-9999999/1" value="2" leadInLength="0/1"   name="highlightMagnification"/>
            <InterpolatingParam id="2421" interp="linr"  time="-9999999/1" value="1" leadInLength="0/1"   name="highlightOpacity"/>
            <InterpolatingParam id="2422" interp="linr"  time="-9999999/1" value="45" leadInLength="0/1"   name="highlightSize"/>
            <Parameter id="2423"   name="highlightType">
             <Keyframes>
             <Keyframe id="2424"  time="-9999999/1" value="0" leadInLength="0/1"  />
             </Keyframes>
            </Parameter>
            <InterpolatingParam id="2425" interp="linr"  time="-9999999/1" value="0" leadInLength="0/1"   name="leftClickColorBlue"/>
            <InterpolatingParam id="2426" interp="linr"  time="-9999999/1" value="0" leadInLength="0/1"   name="leftClickColorGreen"/>
            <InterpolatingParam id="2427" interp="linr"  time="-9999999/1" value="255" leadInLength="0/1"   name="leftClickColorRed"/>
            <InterpolatingParam id="2428" interp="linr"  time="-9999999/1" value="0.80000000000000004" leadInLength="0/1"   name="leftClickDuration"/>
            <InterpolatingParam id="2429" interp="linr"  time="-9999999/1" value="20" leadInLength="0/1"   name="leftClickSize"/>
            <Parameter id="2430"   name="leftClickSoundFilename">
             <Keyframes>
             <Keyframe id="2431"  time="-9999999/1" value="" leadInLength="0/1"  />
             </Keyframes>
            </Parameter>
            <InterpolatingParam id="2432" interp="linr"  time="-9999999/1" value="1" leadInLength="0/1"   name="leftClickSoundVolume"/>
            <Parameter id="2433"   name="leftClickType">
             <Keyframes>
             <Keyframe id="2434"  time="-9999999/1" value="0" leadInLength="0/1"  />
             </Keyframes>
            </Parameter>
            <InterpolatingParam id="2435" interp="linr"  time="-9999999/1" value="1" leadInLength="0/1"   name="opacity"/>
            <InterpolatingParam id="2436" interp="linr"  time="-9999999/1" value="255" leadInLength="0/1"   name="rightClickColorBlue"/>
            <InterpolatingParam id="2437" interp="linr"  time="-9999999/1" value="0" leadInLength="0/1"   name="rightClickColorGreen"/>
            <InterpolatingParam id="2438" interp="linr"  time="-9999999/1" value="0" leadInLength="0/1"   name="rightClickColorRed"/>
            <InterpolatingParam id="2439" interp="linr"  time="-9999999/1" value="0.80000000000000004" leadInLength="0/1"   name="rightClickDuration"/>
            <InterpolatingParam id="2440" interp="linr"  time="-9999999/1" value="20" leadInLength="0/1"   name="rightClickSize"/>
            <Parameter id="2441"   name="rightClickSoundFilename">
             <Keyframes>
             <Keyframe id="2442"  time="-9999999/1" value="" leadInLength="0/1"  />
             </Keyframes>
            </Parameter>
            <InterpolatingParam id="2443" interp="linr"  time="-9999999/1" value="1" leadInLength="0/1"   name="rightClickSoundVolume"/>
            <Parameter id="2444"   name="rightClickType">
             <Keyframes>
             <Keyframe id="2445"  time="-9999999/1" value="0" leadInLength="0/1"  />
             </Keyframes>
            </Parameter>
            </Parameters>
            <MetaData>
             <entry key="effectIndex" val="0"/>
            </MetaData>
           </GenericEffect>
          </Effects>
          <Attributes>
           <Attribute id="2446" value="" name="ident"/>
          </Attributes>
          <ExtraData>
           <Entry key="ZoomPanBin">
            <ZoomPanBin id="2447"  >
             <ZoomPanKeyframes>
              <ZoomPanKeyframe id="2448" timeRangeEnd="-9999999/1" timeRangeDuration="0/1" interpolaterName="linr"  />
             </ZoomPanKeyframes>
            </ZoomPanBin>
           </Entry>
           <Entry key="CursorEffectBin">
            <CursorEffectBin id="2449"  >
             <CursorEffectKeyframes>
              <CursorEffectKeyframe id="2450" timeRangeEnd="-9999999/1" timeRangeDuration="0/1" interpolaterName=""  />
             </CursorEffectKeyframes>
            </CursorEffectBin>
           </Entry>
          </ExtraData>
         </ScreenVMFile>
         <MetaData>
          <entry key="AutoAppliedSmartFocus" val="False"/>
          <entry key="WinSubProjectDisplayName" val=""/>
         </MetaData>
        </UnifiedMedia>
        <StitchedMedia id="2451" start="23060" duration="3020" scalar="1/1" mediaStart="0/1" mediaDuration="3020/1" minMediaStart="0/1" >
         <Transformer>
          <VectorParam id="2452"  name="translation">
           <InterpolatingParam id="2453" interp="linr"  time="-9999999/1" value="0" leadInLength="0/1"  />
           <InterpolatingParam id="2454" interp="linr"  time="-9999999/1" value="0" leadInLength="0/1"  />
           <InterpolatingParam id="2455" interp="linr"  time="-9999999/1" value="0" leadInLength="0/1"  />
          </VectorParam>
          <VectorParam id="2456"  name="rotation">
           <InterpolatingParam id="2457" interp="linr"  time="-9999999/1" value="0" leadInLength="0/1"  />
           <InterpolatingParam id="2458" interp="linr"  time="-9999999/1" value="0" leadInLength="0/1"  />
           <InterpolatingParam id="2459" interp="linr"  time="-9999999/1" value="0" leadInLength="0/1"  />
          </VectorParam>
          <VectorParam id="2460"  name="shear">
           <InterpolatingParam id="2461" interp="linr"  time="-9999999/1" value="0" leadInLength="0/1"  />
           <InterpolatingParam id="2462" interp="linr"  time="-9999999/1" value="0" leadInLength="0/1"  />
           <InterpolatingParam id="2463" interp="linr"  time="-9999999/1" value="0" leadInLength="0/1"  />
          </VectorParam>
          <VectorParam id="2464"  name="scale">
           <InterpolatingParam id="2465" interp="linr"  time="-9999999/1" value="0.80000000000000004" leadInLength="0/1"  />
           <InterpolatingParam id="2466" interp="linr"  time="-9999999/1" value="0.80000000000000004" leadInLength="0/1"  />
           <InterpolatingParam id="2467" interp="linr"  time="-9999999/1" value="1" leadInLength="0/1"  />
          </VectorParam>
          <VectorParam id="2468"  name="anchor">
           <InterpolatingParam id="2469" interp="linr"  time="0/1" value="0" leadInLength="0/1"  />
           <InterpolatingParam id="2470" interp="linr"  time="0/1" value="0" leadInLength="0/1"  />
           <InterpolatingParam id="2471" interp="linr"  time="0/1" value="0" leadInLength="0/1"  />
          </VectorParam>
         </Transformer>
         <Parameters>
          <VectorParam id="2472"  name="sourceCrop">
           <InterpolatingParam id="2473" interp="linr"  time="0/1" value="0" leadInLength="0/1"  />
           <InterpolatingParam id="2474" interp="linr"  time="0/1" value="0" leadInLength="0/1"  />
           <InterpolatingParam id="2475" interp="linr"  time="0/1" value="0" leadInLength="0/1"  />
           <InterpolatingParam id="2476" interp="linr"  time="0/1" value="0" leadInLength="0/1"  />
          </VectorParam>
          <VectorParam id="2477"  name="geometryCrop">
           <InterpolatingParam id="2478" interp="linr"  time="-9999999/1" value="0" leadInLength="0/1"  />
           <InterpolatingParam id="2479" interp="linr"  time="-9999999/1" value="0" leadInLength="0/1"  />
           <InterpolatingParam id="2480" interp="linr"  time="-9999999/1" value="0" leadInLength="0/1"  />
           <InterpolatingParam id="2481" interp="linr"  time="-9999999/1" value="0" leadInLength="0/1"  />
          </VectorParam>
          <InterpolatingParam id="2482" interp="linr"  time="-9999999/1" value="1" leadInLength="0/1"  name="opacity"/>
          <InterpolatingParam id="2483" interp="linr"  time="0/1" value="1" leadInLength="0/1"  name="cursorOpacity"/>
          <InterpolatingParam id="2484" interp="linr"  time="0/1" value="1" leadInLength="0/1"  name="cursorScale"/>
          <InterpolatingParam id="2485" interp="linr"  time="0/1" value="1" leadInLength="0/1"  name="volume"/>
          <Parameter id="2486"  name="captions"/>
         </Parameters>
         <Effects>
          <GenericEffect id="2487" name = "CursorBaseEffectName" >
           <Parameters>
           <InterpolatingParam id="2488" interp="linr"  time="-9999999/1" value="1" leadInLength="0/1"   name="cursorSize"/>
           <InterpolatingParam id="2489" interp="linr"  time="-9999999/1" value="0" leadInLength="0/1"   name="highlightBlurRadius"/>
           <InterpolatingParam id="2490" interp="linr"  time="-9999999/1" value="0" leadInLength="0/1"   name="highlightColorBlue"/>
           <InterpolatingParam id="2491" interp="linr"  time="-9999999/1" value="255" leadInLength="0/1"   name="highlightColorGreen"/>
           <InterpolatingParam id="2492" interp="linr"  time="-9999999/1" value="255" leadInLength="0/1"   name="highlightColorRed"/>
           <InterpolatingParam id="2493" interp="linr"  time="-9999999/1" value="5" leadInLength="0/1"   name="highlightFeatherSize"/>
           <InterpolatingParam id="2494" interp="linr"  time="-9999999/1" value="2" leadInLength="0/1"   name="highlightMagnification"/>
           <InterpolatingParam id="2495" interp="linr"  time="-9999999/1" value="1" leadInLength="0/1"   name="highlightOpacity"/>
           <InterpolatingParam id="2496" interp="linr"  time="-9999999/1" value="45" leadInLength="0/1"   name="highlightSize"/>
           <Parameter id="2497"   name="highlightType">
            <Keyframes>
            <Keyframe id="2498"  time="-9999999/1" value="0" leadInLength="0/1"  />
            </Keyframes>
           </Parameter>
           <InterpolatingParam id="2499" interp="linr"  time="-9999999/1" value="0" leadInLength="0/1"   name="leftClickColorBlue"/>
           <InterpolatingParam id="2500" interp="linr"  time="-9999999/1" value="0" leadInLength="0/1"   name="leftClickColorGreen"/>
           <InterpolatingParam id="2501" interp="linr"  time="-9999999/1" value="255" leadInLength="0/1"   name="leftClickColorRed"/>
           <InterpolatingParam id="2502" interp="linr"  time="-9999999/1" value="0.80000000000000004" leadInLength="0/1"   name="leftClickDuration"/>
           <InterpolatingParam id="2503" interp="linr"  time="-9999999/1" value="20" leadInLength="0/1"   name="leftClickSize"/>
           <Parameter id="2504"   name="leftClickSoundFilename">
            <Keyframes>
            <Keyframe id="2505"  time="-9999999/1" value="" leadInLength="0/1"  />
            </Keyframes>
           </Parameter>
           <InterpolatingParam id="2506" interp="linr"  time="-9999999/1" value="1" leadInLength="0/1"   name="leftClickSoundVolume"/>
           <Parameter id="2507"   name="leftClickType">
            <Keyframes>
            <Keyframe id="2508"  time="-9999999/1" value="0" leadInLength="0/1"  />
            </Keyframes>
           </Parameter>
           <InterpolatingParam id="2509" interp="linr"  time="-9999999/1" value="1" leadInLength="0/1"   name="opacity"/>
           <InterpolatingParam id="2510" interp="linr"  time="-9999999/1" value="255" leadInLength="0/1"   name="rightClickColorBlue"/>
           <InterpolatingParam id="2511" interp="linr"  time="-9999999/1" value="0" leadInLength="0/1"   name="rightClickColorGreen"/>
           <InterpolatingParam id="2512" interp="linr"  time="-9999999/1" value="0" leadInLength="0/1"   name="rightClickColorRed"/>
           <InterpolatingParam id="2513" interp="linr"  time="-9999999/1" value="0.80000000000000004" leadInLength="0/1"   name="rightClickDuration"/>
           <InterpolatingParam id="2514" interp="linr"  time="-9999999/1" value="20" leadInLength="0/1"   name="rightClickSize"/>
           <Parameter id="2515"   name="rightClickSoundFilename">
            <Keyframes>
            <Keyframe id="2516"  time="-9999999/1" value="" leadInLength="0/1"  />
            </Keyframes>
           </Parameter>
           <InterpolatingParam id="2517" interp="linr"  time="-9999999/1" value="1" leadInLength="0/1"   name="rightClickSoundVolume"/>
           <Parameter id="2518"   name="rightClickType">
            <Keyframes>
            <Keyframe id="2519"  time="-9999999/1" value="0" leadInLength="0/1"  />
            </Keyframes>
           </Parameter>
           </Parameters>
           <MetaData>
            <entry key="effectIndex" val="0"/>
           </MetaData>
          </GenericEffect>
         </Effects>
         <Attributes>
          <Attribute id="2520" value="" name="ident"/>
          <Attribute id="2521" value="0" name="mixToMono"/>
         </Attributes>
         <MetaData>
          <entry key="AutoAppliedSmartFocus" val="False"/>
          <entry key="WinSubProjectDisplayName" val=""/>
         </MetaData>
         <ExtraData>
          <Entry key="ZoomPanBin">
           <ZoomPanBin id="2522"  >
            <ZoomPanKeyframes>
             <ZoomPanKeyframe id="2523" timeRangeEnd="-9999999/1" timeRangeDuration="0/1" interpolaterName=""  />
            </ZoomPanKeyframes>
           </ZoomPanBin>
          </Entry>
          <Entry key="CursorEffectBin">
           <CursorEffectBin id="2524"  >
            <CursorEffectKeyframes>
             <CursorEffectKeyframe id="2525" timeRangeEnd="-9999999/1" timeRangeDuration="0/1" interpolaterName=""  />
            </CursorEffectKeyframes>
           </CursorEffectBin>
          </Entry>
         </ExtraData>
         <GenericTrack id="2526"  >
          <Attributes>
           <Attribute id="2527" value="" name="ident"/>
           <Attribute id="2528" value="0" name="audioMuted"/>
           <Attribute id="2529" value="0" name="videoHidden"/>
          </Attributes>
          <MetaData>
           <entry key="IsLocked" val="False"/>
           <entry key="WinTrackHeight" val="0"/>
          </MetaData>
          <Medias>
           <UnifiedMedia id="2530"  >
            <AMFile id="2531" start="0" duration="446" scalar="1/1" mediaStart="0/1" mediaDuration="446/1" trackNumber="1" src="20" channelNumber="0,1" >
             <Parameters>
              <InterpolatingParam id="2532" interp="linr"  time="0/1" value="1" leadInLength="0/1"  name="volume"/>
              <Parameter id="2533"  name="captions"/>
             </Parameters>
             <Attributes>
              <Attribute id="2534" value="" name="ident"/>
              <Attribute id="2535" value="44100" name="sampleRate"/>
              <Attribute id="2536" value="16" name="bitDepth"/>
              <Attribute id="2537" value="1" name="gain"/>
              <Attribute id="2538" value="0" name="mixToMono"/>
             </Attributes>
            </AMFile>
            <ScreenVMFile id="2539" start="0" duration="446" scalar="1/1" mediaStart="0/1" mediaDuration="446/1" trackNumber="0" src="20" >
             <Transformer>
              <VectorParam id="2540"  name="translation">
               <InterpolatingParam id="2541" interp="linr"  time="-9999999/1" value="0" leadInLength="0/1"  />
               <InterpolatingParam id="2542" interp="linr"  time="-9999999/1" value="0" leadInLength="0/1"  />
               <InterpolatingParam id="2543" interp="linr"  time="-9999999/1" value="0" leadInLength="0/1"  />
              </VectorParam>
              <VectorParam id="2544"  name="rotation">
               <InterpolatingParam id="2545" interp="linr"  time="-9999999/1" value="0" leadInLength="0/1"  />
               <InterpolatingParam id="2546" interp="linr"  time="-9999999/1" value="0" leadInLength="0/1"  />
               <InterpolatingParam id="2547" interp="linr"  time="-9999999/1" value="0" leadInLength="0/1"  />
              </VectorParam>
              <VectorParam id="2548"  name="shear">
               <InterpolatingParam id="2549" interp="linr"  time="-9999999/1" value="0" leadInLength="0/1"  />
               <InterpolatingParam id="2550" interp="linr"  time="-9999999/1" value="0" leadInLength="0/1"  />
               <InterpolatingParam id="2551" interp="linr"  time="-9999999/1" value="0" leadInLength="0/1"  />
              </VectorParam>
              <VectorParam id="2552"  name="scale">
               <InterpolatingParam id="2553" interp="linr"  time="-9999999/1" value="1" leadInLength="0/1"  />
               <InterpolatingParam id="2554" interp="linr"  time="-9999999/1" value="1" leadInLength="0/1"  />
               <InterpolatingParam id="2555" interp="linr"  time="-9999999/1" value="1" leadInLength="0/1"  />
              </VectorParam>
              <VectorParam id="2556"  name="anchor">
               <InterpolatingParam id="2557" interp="linr"  time="0/1" value="0" leadInLength="0/1"  />
               <InterpolatingParam id="2558" interp="linr"  time="0/1" value="0" leadInLength="0/1"  />
               <InterpolatingParam id="2559" interp="linr"  time="0/1" value="0" leadInLength="0/1"  />
              </VectorParam>
             </Transformer>
             <Parameters>
              <VectorParam id="2560"  name="sourceCrop">
               <InterpolatingParam id="2561" interp="linr"  time="0/1" value="0" leadInLength="0/1"  />
               <InterpolatingParam id="2562" interp="linr"  time="0/1" value="0" leadInLength="0/1"  />
               <InterpolatingParam id="2563" interp="linr"  time="0/1" value="0" leadInLength="0/1"  />
               <InterpolatingParam id="2564" interp="linr"  time="0/1" value="0" leadInLength="0/1"  />
              </VectorParam>
              <VectorParam id="2565"  name="geometryCrop">
               <InterpolatingParam id="2566" interp="linr"  time="-9999999/1" value="0" leadInLength="0/1"  />
               <InterpolatingParam id="2567" interp="linr"  time="-9999999/1" value="0" leadInLength="0/1"  />
               <InterpolatingParam id="2568" interp="linr"  time="-9999999/1" value="0" leadInLength="0/1"  />
               <InterpolatingParam id="2569" interp="linr"  time="-9999999/1" value="0" leadInLength="0/1"  />
              </VectorParam>
              <InterpolatingParam id="2570" interp="linr"  time="-9999999/1" value="1" leadInLength="0/1"  name="opacity"/>
              <InterpolatingParam id="2571" interp="linr"  time="0/1" value="0" leadInLength="0/1"  name="cursorOpacity"/>
              <InterpolatingParam id="2572" interp="linr"  time="0/1" value="0" leadInLength="0/1"  name="cursorScale"/>
             </Parameters>
             <Attributes>
              <Attribute id="2573" value="" name="ident"/>
             </Attributes>
             <ExtraData>
              <Entry key="ZoomPanBin">
               <ZoomPanBin id="2574"  >
                <ZoomPanKeyframes>
                 <ZoomPanKeyframe id="2575" timeRangeEnd="-9999999/1" timeRangeDuration="0/1" interpolaterName=""  />
                </ZoomPanKeyframes>
               </ZoomPanBin>
              </Entry>
              <Entry key="CursorEffectBin">
               <CursorEffectBin id="2576"  >
                <CursorEffectKeyframes>
                </CursorEffectKeyframes>
               </CursorEffectBin>
              </Entry>
             </ExtraData>
            </ScreenVMFile>
            <MetaData>
             <entry key="AutoAppliedSmartFocus" val="False"/>
             <entry key="WinSubProjectDisplayName" val=""/>
            </MetaData>
           </UnifiedMedia>
           <UnifiedMedia id="2577"  >
            <AMFile id="2578" start="446" duration="378" scalar="1/1" mediaStart="676/1" mediaDuration="378/1" trackNumber="1" src="20" channelNumber="0,1" >
             <Parameters>
              <InterpolatingParam id="2579" interp="linr"  time="0/1" value="1" leadInLength="0/1"  name="volume"/>
              <Parameter id="2580"  name="captions"/>
             </Parameters>
             <Attributes>
              <Attribute id="2581" value="" name="ident"/>
              <Attribute id="2582" value="44100" name="sampleRate"/>
              <Attribute id="2583" value="16" name="bitDepth"/>
              <Attribute id="2584" value="1" name="gain"/>
              <Attribute id="2585" value="0" name="mixToMono"/>
             </Attributes>
            </AMFile>
            <ScreenVMFile id="2586" start="446" duration="378" scalar="1/1" mediaStart="676/1" mediaDuration="378/1" trackNumber="0" src="20" >
             <Transformer>
              <VectorParam id="2587"  name="translation">
               <InterpolatingParam id="2588" interp="linr"  time="-9999999/1" value="0" leadInLength="0/1"  />
               <InterpolatingParam id="2589" interp="linr"  time="-9999999/1" value="0" leadInLength="0/1"  />
               <InterpolatingParam id="2590" interp="linr"  time="-9999999/1" value="0" leadInLength="0/1"  />
              </VectorParam>
              <VectorParam id="2591"  name="rotation">
               <InterpolatingParam id="2592" interp="linr"  time="-9999999/1" value="0" leadInLength="0/1"  />
               <InterpolatingParam id="2593" interp="linr"  time="-9999999/1" value="0" leadInLength="0/1"  />
               <InterpolatingParam id="2594" interp="linr"  time="-9999999/1" value="0" leadInLength="0/1"  />
              </VectorParam>
              <VectorParam id="2595"  name="shear">
               <InterpolatingParam id="2596" interp="linr"  time="-9999999/1" value="0" leadInLength="0/1"  />
               <InterpolatingParam id="2597" interp="linr"  time="-9999999/1" value="0" leadInLength="0/1"  />
               <InterpolatingParam id="2598" interp="linr"  time="-9999999/1" value="0" leadInLength="0/1"  />
              </VectorParam>
              <VectorParam id="2599"  name="scale">
               <InterpolatingParam id="2600" interp="linr"  time="-9999999/1" value="1" leadInLength="0/1"  />
               <InterpolatingParam id="2601" interp="linr"  time="-9999999/1" value="1" leadInLength="0/1"  />
               <InterpolatingParam id="2602" interp="linr"  time="-9999999/1" value="1" leadInLength="0/1"  />
              </VectorParam>
              <VectorParam id="2603"  name="anchor">
               <InterpolatingParam id="2604" interp="linr"  time="0/1" value="0" leadInLength="0/1"  />
               <InterpolatingParam id="2605" interp="linr"  time="0/1" value="0" leadInLength="0/1"  />
               <InterpolatingParam id="2606" interp="linr"  time="0/1" value="0" leadInLength="0/1"  />
              </VectorParam>
             </Transformer>
             <Parameters>
              <VectorParam id="2607"  name="sourceCrop">
               <InterpolatingParam id="2608" interp="linr"  time="0/1" value="0" leadInLength="0/1"  />
               <InterpolatingParam id="2609" interp="linr"  time="0/1" value="0" leadInLength="0/1"  />
               <InterpolatingParam id="2610" interp="linr"  time="0/1" value="0" leadInLength="0/1"  />
               <InterpolatingParam id="2611" interp="linr"  time="0/1" value="0" leadInLength="0/1"  />
              </VectorParam>
              <VectorParam id="2612"  name="geometryCrop">
               <InterpolatingParam id="2613" interp="linr"  time="-9999999/1" value="0" leadInLength="0/1"  />
               <InterpolatingParam id="2614" interp="linr"  time="-9999999/1" value="0" leadInLength="0/1"  />
               <InterpolatingParam id="2615" interp="linr"  time="-9999999/1" value="0" leadInLength="0/1"  />
               <InterpolatingParam id="2616" interp="linr"  time="-9999999/1" value="0" leadInLength="0/1"  />
              </VectorParam>
              <InterpolatingParam id="2617" interp="linr"  time="-9999999/1" value="1" leadInLength="0/1"  name="opacity"/>
              <InterpolatingParam id="2618" interp="linr"  time="0/1" value="0" leadInLength="0/1"  name="cursorOpacity"/>
              <InterpolatingParam id="2619" interp="linr"  time="0/1" value="0" leadInLength="0/1"  name="cursorScale"/>
             </Parameters>
             <Attributes>
              <Attribute id="2620" value="" name="ident"/>
             </Attributes>
             <ExtraData>
              <Entry key="ZoomPanBin">
               <ZoomPanBin id="2621"  >
                <ZoomPanKeyframes>
                 <ZoomPanKeyframe id="2622" timeRangeEnd="-9999999/1" timeRangeDuration="0/1" interpolaterName=""  />
                </ZoomPanKeyframes>
               </ZoomPanBin>
              </Entry>
              <Entry key="CursorEffectBin">
               <CursorEffectBin id="2623"  >
                <CursorEffectKeyframes>
                </CursorEffectKeyframes>
               </CursorEffectBin>
              </Entry>
             </ExtraData>
            </ScreenVMFile>
            <MetaData>
             <entry key="AutoAppliedSmartFocus" val="False"/>
             <entry key="WinSubProjectDisplayName" val=""/>
            </MetaData>
           </UnifiedMedia>
           <UnifiedMedia id="2624"  >
            <AMFile id="2625" start="824" duration="226" scalar="1/1" mediaStart="1249/1" mediaDuration="226/1" trackNumber="1" src="20" channelNumber="0,1" >
             <Parameters>
              <InterpolatingParam id="2626" interp="linr"  time="0/1" value="1" leadInLength="0/1"  name="volume"/>
              <Parameter id="2627"  name="captions"/>
             </Parameters>
             <Attributes>
              <Attribute id="2628" value="" name="ident"/>
              <Attribute id="2629" value="44100" name="sampleRate"/>
              <Attribute id="2630" value="16" name="bitDepth"/>
              <Attribute id="2631" value="1" name="gain"/>
              <Attribute id="2632" value="0" name="mixToMono"/>
             </Attributes>
            </AMFile>
            <ScreenVMFile id="2633" start="824" duration="226" scalar="1/1" mediaStart="1249/1" mediaDuration="226/1" trackNumber="0" src="20" >
             <Transformer>
              <VectorParam id="2634"  name="translation">
               <InterpolatingParam id="2635" interp="linr"  time="-9999999/1" value="0" leadInLength="0/1"  />
               <InterpolatingParam id="2636" interp="linr"  time="-9999999/1" value="0" leadInLength="0/1"  />
               <InterpolatingParam id="2637" interp="linr"  time="-9999999/1" value="0" leadInLength="0/1"  />
              </VectorParam>
              <VectorParam id="2638"  name="rotation">
               <InterpolatingParam id="2639" interp="linr"  time="-9999999/1" value="0" leadInLength="0/1"  />
               <InterpolatingParam id="2640" interp="linr"  time="-9999999/1" value="0" leadInLength="0/1"  />
               <InterpolatingParam id="2641" interp="linr"  time="-9999999/1" value="0" leadInLength="0/1"  />
              </VectorParam>
              <VectorParam id="2642"  name="shear">
               <InterpolatingParam id="2643" interp="linr"  time="-9999999/1" value="0" leadInLength="0/1"  />
               <InterpolatingParam id="2644" interp="linr"  time="-9999999/1" value="0" leadInLength="0/1"  />
               <InterpolatingParam id="2645" interp="linr"  time="-9999999/1" value="0" leadInLength="0/1"  />
              </VectorParam>
              <VectorParam id="2646"  name="scale">
               <InterpolatingParam id="2647" interp="linr"  time="-9999999/1" value="1" leadInLength="0/1"  />
               <InterpolatingParam id="2648" interp="linr"  time="-9999999/1" value="1" leadInLength="0/1"  />
               <InterpolatingParam id="2649" interp="linr"  time="-9999999/1" value="1" leadInLength="0/1"  />
              </VectorParam>
              <VectorParam id="2650"  name="anchor">
               <InterpolatingParam id="2651" interp="linr"  time="0/1" value="0" leadInLength="0/1"  />
               <InterpolatingParam id="2652" interp="linr"  time="0/1" value="0" leadInLength="0/1"  />
               <InterpolatingParam id="2653" interp="linr"  time="0/1" value="0" leadInLength="0/1"  />
              </VectorParam>
             </Transformer>
             <Parameters>
              <VectorParam id="2654"  name="sourceCrop">
               <InterpolatingParam id="2655" interp="linr"  time="0/1" value="0" leadInLength="0/1"  />
               <InterpolatingParam id="2656" interp="linr"  time="0/1" value="0" leadInLength="0/1"  />
               <InterpolatingParam id="2657" interp="linr"  time="0/1" value="0" leadInLength="0/1"  />
               <InterpolatingParam id="2658" interp="linr"  time="0/1" value="0" leadInLength="0/1"  />
              </VectorParam>
              <VectorParam id="2659"  name="geometryCrop">
               <InterpolatingParam id="2660" interp="linr"  time="-9999999/1" value="0" leadInLength="0/1"  />
               <InterpolatingParam id="2661" interp="linr"  time="-9999999/1" value="0" leadInLength="0/1"  />
               <InterpolatingParam id="2662" interp="linr"  time="-9999999/1" value="0" leadInLength="0/1"  />
               <InterpolatingParam id="2663" interp="linr"  time="-9999999/1" value="0" leadInLength="0/1"  />
              </VectorParam>
              <InterpolatingParam id="2664" interp="linr"  time="-9999999/1" value="1" leadInLength="0/1"  name="opacity"/>
              <InterpolatingParam id="2665" interp="linr"  time="0/1" value="0" leadInLength="0/1"  name="cursorOpacity"/>
              <InterpolatingParam id="2666" interp="linr"  time="0/1" value="0" leadInLength="0/1"  name="cursorScale"/>
             </Parameters>
             <Attributes>
              <Attribute id="2667" value="" name="ident"/>
             </Attributes>
             <ExtraData>
              <Entry key="ZoomPanBin">
               <ZoomPanBin id="2668"  >
                <ZoomPanKeyframes>
                 <ZoomPanKeyframe id="2669" timeRangeEnd="-9999999/1" timeRangeDuration="0/1" interpolaterName=""  />
                </ZoomPanKeyframes>
               </ZoomPanBin>
              </Entry>
              <Entry key="CursorEffectBin">
               <CursorEffectBin id="2670"  >
                <CursorEffectKeyframes>
                </CursorEffectKeyframes>
               </CursorEffectBin>
              </Entry>
             </ExtraData>
            </ScreenVMFile>
            <MetaData>
             <entry key="AutoAppliedSmartFocus" val="False"/>
             <entry key="WinSubProjectDisplayName" val=""/>
            </MetaData>
           </UnifiedMedia>
           <UnifiedMedia id="2671"  >
            <AMFile id="2672" start="1050" duration="435" scalar="1/1" mediaStart="1670/1" mediaDuration="435/1" trackNumber="1" src="20" channelNumber="0,1" >
             <Parameters>
              <InterpolatingParam id="2673" interp="linr"  time="0/1" value="1" leadInLength="0/1"  name="volume"/>
              <Parameter id="2674"  name="captions"/>
             </Parameters>
             <Attributes>
              <Attribute id="2675" value="" name="ident"/>
              <Attribute id="2676" value="44100" name="sampleRate"/>
              <Attribute id="2677" value="16" name="bitDepth"/>
              <Attribute id="2678" value="1" name="gain"/>
              <Attribute id="2679" value="0" name="mixToMono"/>
             </Attributes>
            </AMFile>
            <ScreenVMFile id="2680" start="1050" duration="435" scalar="1/1" mediaStart="1670/1" mediaDuration="435/1" trackNumber="0" src="20" >
             <Transformer>
              <VectorParam id="2681"  name="translation">
               <InterpolatingParam id="2682" interp="linr"  time="-9999999/1" value="0" leadInLength="0/1"  />
               <InterpolatingParam id="2683" interp="linr"  time="-9999999/1" value="0" leadInLength="0/1"  />
               <InterpolatingParam id="2684" interp="linr"  time="-9999999/1" value="0" leadInLength="0/1"  />
              </VectorParam>
              <VectorParam id="2685"  name="rotation">
               <InterpolatingParam id="2686" interp="linr"  time="-9999999/1" value="0" leadInLength="0/1"  />
               <InterpolatingParam id="2687" interp="linr"  time="-9999999/1" value="0" leadInLength="0/1"  />
               <InterpolatingParam id="2688" interp="linr"  time="-9999999/1" value="0" leadInLength="0/1"  />
              </VectorParam>
              <VectorParam id="2689"  name="shear">
               <InterpolatingParam id="2690" interp="linr"  time="-9999999/1" value="0" leadInLength="0/1"  />
               <InterpolatingParam id="2691" interp="linr"  time="-9999999/1" value="0" leadInLength="0/1"  />
               <InterpolatingParam id="2692" interp="linr"  time="-9999999/1" value="0" leadInLength="0/1"  />
              </VectorParam>
              <VectorParam id="2693"  name="scale">
               <InterpolatingParam id="2694" interp="linr"  time="-9999999/1" value="1" leadInLength="0/1"  />
               <InterpolatingParam id="2695" interp="linr"  time="-9999999/1" value="1" leadInLength="0/1"  />
               <InterpolatingParam id="2696" interp="linr"  time="-9999999/1" value="1" leadInLength="0/1"  />
              </VectorParam>
              <VectorParam id="2697"  name="anchor">
               <InterpolatingParam id="2698" interp="linr"  time="0/1" value="0" leadInLength="0/1"  />
               <InterpolatingParam id="2699" interp="linr"  time="0/1" value="0" leadInLength="0/1"  />
               <InterpolatingParam id="2700" interp="linr"  time="0/1" value="0" leadInLength="0/1"  />
              </VectorParam>
             </Transformer>
             <Parameters>
              <VectorParam id="2701"  name="sourceCrop">
               <InterpolatingParam id="2702" interp="linr"  time="0/1" value="0" leadInLength="0/1"  />
               <InterpolatingParam id="2703" interp="linr"  time="0/1" value="0" leadInLength="0/1"  />
               <InterpolatingParam id="2704" interp="linr"  time="0/1" value="0" leadInLength="0/1"  />
               <InterpolatingParam id="2705" interp="linr"  time="0/1" value="0" leadInLength="0/1"  />
              </VectorParam>
              <VectorParam id="2706"  name="geometryCrop">
               <InterpolatingParam id="2707" interp="linr"  time="-9999999/1" value="0" leadInLength="0/1"  />
               <InterpolatingParam id="2708" interp="linr"  time="-9999999/1" value="0" leadInLength="0/1"  />
               <InterpolatingParam id="2709" interp="linr"  time="-9999999/1" value="0" leadInLength="0/1"  />
               <InterpolatingParam id="2710" interp="linr"  time="-9999999/1" value="0" leadInLength="0/1"  />
              </VectorParam>
              <InterpolatingParam id="2711" interp="linr"  time="-9999999/1" value="1" leadInLength="0/1"  name="opacity"/>
              <InterpolatingParam id="2712" interp="linr"  time="0/1" value="0" leadInLength="0/1"  name="cursorOpacity"/>
              <InterpolatingParam id="2713" interp="linr"  time="0/1" value="0" leadInLength="0/1"  name="cursorScale"/>
             </Parameters>
             <Attributes>
              <Attribute id="2714" value="" name="ident"/>
             </Attributes>
             <ExtraData>
              <Entry key="ZoomPanBin">
               <ZoomPanBin id="2715"  >
                <ZoomPanKeyframes>
                 <ZoomPanKeyframe id="2716" timeRangeEnd="-9999999/1" timeRangeDuration="0/1" interpolaterName=""  />
                </ZoomPanKeyframes>
               </ZoomPanBin>
              </Entry>
              <Entry key="CursorEffectBin">
               <CursorEffectBin id="2717"  >
                <CursorEffectKeyframes>
                </CursorEffectKeyframes>
               </CursorEffectBin>
              </Entry>
             </ExtraData>
            </ScreenVMFile>
            <MetaData>
             <entry key="AutoAppliedSmartFocus" val="False"/>
             <entry key="WinSubProjectDisplayName" val=""/>
            </MetaData>
           </UnifiedMedia>
           <UnifiedMedia id="2718"  >
            <AMFile id="2719" start="1485" duration="597" scalar="1/1" mediaStart="4416/1" mediaDuration="597/1" trackNumber="1" src="20" channelNumber="0,1" >
             <Parameters>
              <InterpolatingParam id="2720" interp="linr"  time="0/1" value="1" leadInLength="0/1"  name="volume"/>
              <Parameter id="2721"  name="captions"/>
             </Parameters>
             <Attributes>
              <Attribute id="2722" value="" name="ident"/>
              <Attribute id="2723" value="44100" name="sampleRate"/>
              <Attribute id="2724" value="16" name="bitDepth"/>
              <Attribute id="2725" value="1" name="gain"/>
              <Attribute id="2726" value="0" name="mixToMono"/>
             </Attributes>
            </AMFile>
            <ScreenVMFile id="2727" start="1485" duration="597" scalar="1/1" mediaStart="4416/1" mediaDuration="597/1" trackNumber="0" src="20" >
             <Transformer>
              <VectorParam id="2728"  name="translation">
               <InterpolatingParam id="2729" interp="linr"  time="-9999999/1" value="0" leadInLength="0/1"  />
               <InterpolatingParam id="2730" interp="linr"  time="-9999999/1" value="0" leadInLength="0/1"  />
               <InterpolatingParam id="2731" interp="linr"  time="-9999999/1" value="0" leadInLength="0/1"  />
              </VectorParam>
              <VectorParam id="2732"  name="rotation">
               <InterpolatingParam id="2733" interp="linr"  time="-9999999/1" value="0" leadInLength="0/1"  />
               <InterpolatingParam id="2734" interp="linr"  time="-9999999/1" value="0" leadInLength="0/1"  />
               <InterpolatingParam id="2735" interp="linr"  time="-9999999/1" value="0" leadInLength="0/1"  />
              </VectorParam>
              <VectorParam id="2736"  name="shear">
               <InterpolatingParam id="2737" interp="linr"  time="-9999999/1" value="0" leadInLength="0/1"  />
               <InterpolatingParam id="2738" interp="linr"  time="-9999999/1" value="0" leadInLength="0/1"  />
               <InterpolatingParam id="2739" interp="linr"  time="-9999999/1" value="0" leadInLength="0/1"  />
              </VectorParam>
              <VectorParam id="2740"  name="scale">
               <InterpolatingParam id="2741" interp="linr"  time="-9999999/1" value="1" leadInLength="0/1"  />
               <InterpolatingParam id="2742" interp="linr"  time="-9999999/1" value="1" leadInLength="0/1"  />
               <InterpolatingParam id="2743" interp="linr"  time="-9999999/1" value="1" leadInLength="0/1"  />
              </VectorParam>
              <VectorParam id="2744"  name="anchor">
               <InterpolatingParam id="2745" interp="linr"  time="0/1" value="0" leadInLength="0/1"  />
               <InterpolatingParam id="2746" interp="linr"  time="0/1" value="0" leadInLength="0/1"  />
               <InterpolatingParam id="2747" interp="linr"  time="0/1" value="0" leadInLength="0/1"  />
              </VectorParam>
             </Transformer>
             <Parameters>
              <VectorParam id="2748"  name="sourceCrop">
               <InterpolatingParam id="2749" interp="linr"  time="0/1" value="0" leadInLength="0/1"  />
               <InterpolatingParam id="2750" interp="linr"  time="0/1" value="0" leadInLength="0/1"  />
               <InterpolatingParam id="2751" interp="linr"  time="0/1" value="0" leadInLength="0/1"  />
               <InterpolatingParam id="2752" interp="linr"  time="0/1" value="0" leadInLength="0/1"  />
              </VectorParam>
              <VectorParam id="2753"  name="geometryCrop">
               <InterpolatingParam id="2754" interp="linr"  time="-9999999/1" value="0" leadInLength="0/1"  />
               <InterpolatingParam id="2755" interp="linr"  time="-9999999/1" value="0" leadInLength="0/1"  />
               <InterpolatingParam id="2756" interp="linr"  time="-9999999/1" value="0" leadInLength="0/1"  />
               <InterpolatingParam id="2757" interp="linr"  time="-9999999/1" value="0" leadInLength="0/1"  />
              </VectorParam>
              <InterpolatingParam id="2758" interp="linr"  time="-9999999/1" value="1" leadInLength="0/1"  name="opacity"/>
              <InterpolatingParam id="2759" interp="linr"  time="0/1" value="0" leadInLength="0/1"  name="cursorOpacity"/>
              <InterpolatingParam id="2760" interp="linr"  time="0/1" value="0" leadInLength="0/1"  name="cursorScale"/>
             </Parameters>
             <Attributes>
              <Attribute id="2761" value="" name="ident"/>
             </Attributes>
             <ExtraData>
              <Entry key="ZoomPanBin">
               <ZoomPanBin id="2762"  >
                <ZoomPanKeyframes>
                 <ZoomPanKeyframe id="2763" timeRangeEnd="-9999999/1" timeRangeDuration="0/1" interpolaterName=""  />
                </ZoomPanKeyframes>
               </ZoomPanBin>
              </Entry>
              <Entry key="CursorEffectBin">
               <CursorEffectBin id="2764"  >
                <CursorEffectKeyframes>
                </CursorEffectKeyframes>
               </CursorEffectBin>
              </Entry>
             </ExtraData>
            </ScreenVMFile>
            <MetaData>
             <entry key="AutoAppliedSmartFocus" val="False"/>
             <entry key="WinSubProjectDisplayName" val=""/>
            </MetaData>
           </UnifiedMedia>
           <UnifiedMedia id="2765"  >
            <AMFile id="2766" start="2082" duration="2293" scalar="1/1" mediaStart="5403/1" mediaDuration="2293/1" trackNumber="1" src="20" channelNumber="0,1" >
             <Parameters>
              <InterpolatingParam id="2767" interp="linr"  time="0/1" value="1" leadInLength="0/1"  name="volume"/>
              <Parameter id="2768"  name="captions"/>
             </Parameters>
             <Attributes>
              <Attribute id="2769" value="" name="ident"/>
              <Attribute id="2770" value="44100" name="sampleRate"/>
              <Attribute id="2771" value="16" name="bitDepth"/>
              <Attribute id="2772" value="1" name="gain"/>
              <Attribute id="2773" value="0" name="mixToMono"/>
             </Attributes>
            </AMFile>
            <ScreenVMFile id="2774" start="2082" duration="2293" scalar="1/1" mediaStart="5403/1" mediaDuration="2293/1" trackNumber="0" src="20" >
             <Transformer>
              <VectorParam id="2775"  name="translation">
               <InterpolatingParam id="2776" interp="linr"  time="-9999999/1" value="0" leadInLength="0/1"  />
               <InterpolatingParam id="2777" interp="linr"  time="-9999999/1" value="0" leadInLength="0/1"  />
               <InterpolatingParam id="2778" interp="linr"  time="-9999999/1" value="0" leadInLength="0/1"  />
              </VectorParam>
              <VectorParam id="2779"  name="rotation">
               <InterpolatingParam id="2780" interp="linr"  time="-9999999/1" value="0" leadInLength="0/1"  />
               <InterpolatingParam id="2781" interp="linr"  time="-9999999/1" value="0" leadInLength="0/1"  />
               <InterpolatingParam id="2782" interp="linr"  time="-9999999/1" value="0" leadInLength="0/1"  />
              </VectorParam>
              <VectorParam id="2783"  name="shear">
               <InterpolatingParam id="2784" interp="linr"  time="-9999999/1" value="0" leadInLength="0/1"  />
               <InterpolatingParam id="2785" interp="linr"  time="-9999999/1" value="0" leadInLength="0/1"  />
               <InterpolatingParam id="2786" interp="linr"  time="-9999999/1" value="0" leadInLength="0/1"  />
              </VectorParam>
              <VectorParam id="2787"  name="scale">
               <InterpolatingParam id="2788" interp="linr"  time="-9999999/1" value="1" leadInLength="0/1"  />
               <InterpolatingParam id="2789" interp="linr"  time="-9999999/1" value="1" leadInLength="0/1"  />
               <InterpolatingParam id="2790" interp="linr"  time="-9999999/1" value="1" leadInLength="0/1"  />
              </VectorParam>
              <VectorParam id="2791"  name="anchor">
               <InterpolatingParam id="2792" interp="linr"  time="0/1" value="0" leadInLength="0/1"  />
               <InterpolatingParam id="2793" interp="linr"  time="0/1" value="0" leadInLength="0/1"  />
               <InterpolatingParam id="2794" interp="linr"  time="0/1" value="0" leadInLength="0/1"  />
              </VectorParam>
             </Transformer>
             <Parameters>
              <VectorParam id="2795"  name="sourceCrop">
               <InterpolatingParam id="2796" interp="linr"  time="0/1" value="0" leadInLength="0/1"  />
               <InterpolatingParam id="2797" interp="linr"  time="0/1" value="0" leadInLength="0/1"  />
               <InterpolatingParam id="2798" interp="linr"  time="0/1" value="0" leadInLength="0/1"  />
               <InterpolatingParam id="2799" interp="linr"  time="0/1" value="0" leadInLength="0/1"  />
              </VectorParam>
              <VectorParam id="2800"  name="geometryCrop">
               <InterpolatingParam id="2801" interp="linr"  time="-9999999/1" value="0" leadInLength="0/1"  />
               <InterpolatingParam id="2802" interp="linr"  time="-9999999/1" value="0" leadInLength="0/1"  />
               <InterpolatingParam id="2803" interp="linr"  time="-9999999/1" value="0" leadInLength="0/1"  />
               <InterpolatingParam id="2804" interp="linr"  time="-9999999/1" value="0" leadInLength="0/1"  />
              </VectorParam>
              <InterpolatingParam id="2805" interp="linr"  time="-9999999/1" value="1" leadInLength="0/1"  name="opacity"/>
              <InterpolatingParam id="2806" interp="linr"  time="0/1" value="0" leadInLength="0/1"  name="cursorOpacity"/>
              <InterpolatingParam id="2807" interp="linr"  time="0/1" value="0" leadInLength="0/1"  name="cursorScale"/>
             </Parameters>
             <Attributes>
              <Attribute id="2808" value="" name="ident"/>
             </Attributes>
             <ExtraData>
              <Entry key="ZoomPanBin">
               <ZoomPanBin id="2809"  >
                <ZoomPanKeyframes>
                 <ZoomPanKeyframe id="2810" timeRangeEnd="-9999999/1" timeRangeDuration="0/1" interpolaterName=""  />
                </ZoomPanKeyframes>
               </ZoomPanBin>
              </Entry>
              <Entry key="CursorEffectBin">
               <CursorEffectBin id="2811"  >
                <CursorEffectKeyframes>
                </CursorEffectKeyframes>
               </CursorEffectBin>
              </Entry>
             </ExtraData>
            </ScreenVMFile>
            <MetaData>
             <entry key="AutoAppliedSmartFocus" val="False"/>
             <entry key="WinSubProjectDisplayName" val=""/>
            </MetaData>
           </UnifiedMedia>
          </Medias>
         </GenericTrack>
        </StitchedMedia>
        <StitchedMedia id="2812" start="26080" duration="3275" scalar="1/1" mediaStart="0/1" mediaDuration="3275/1" minMediaStart="0/1" >
         <Transformer>
          <VectorParam id="2813"  name="translation">
           <InterpolatingParam id="2814" interp="linr"  time="-9999999/1" value="0" leadInLength="0/1"  />
           <InterpolatingParam id="2815" interp="linr"  time="-9999999/1" value="0" leadInLength="0/1"  />
           <InterpolatingParam id="2816" interp="linr"  time="-9999999/1" value="0" leadInLength="0/1"  />
          </VectorParam>
          <VectorParam id="2817"  name="rotation">
           <InterpolatingParam id="2818" interp="linr"  time="-9999999/1" value="0" leadInLength="0/1"  />
           <InterpolatingParam id="2819" interp="linr"  time="-9999999/1" value="0" leadInLength="0/1"  />
           <InterpolatingParam id="2820" interp="linr"  time="-9999999/1" value="0" leadInLength="0/1"  />
          </VectorParam>
          <VectorParam id="2821"  name="shear">
           <InterpolatingParam id="2822" interp="linr"  time="-9999999/1" value="0" leadInLength="0/1"  />
           <InterpolatingParam id="2823" interp="linr"  time="-9999999/1" value="0" leadInLength="0/1"  />
           <InterpolatingParam id="2824" interp="linr"  time="-9999999/1" value="0" leadInLength="0/1"  />
          </VectorParam>
          <VectorParam id="2825"  name="scale">
           <InterpolatingParam id="2826" interp="linr"  time="-9999999/1" value="0.80000000000000004" leadInLength="0/1"  />
           <InterpolatingParam id="2827" interp="linr"  time="-9999999/1" value="0.80000000000000004" leadInLength="0/1"  />
           <InterpolatingParam id="2828" interp="linr"  time="-9999999/1" value="1" leadInLength="0/1"  />
          </VectorParam>
          <VectorParam id="2829"  name="anchor">
           <InterpolatingParam id="2830" interp="linr"  time="0/1" value="0" leadInLength="0/1"  />
           <InterpolatingParam id="2831" interp="linr"  time="0/1" value="0" leadInLength="0/1"  />
           <InterpolatingParam id="2832" interp="linr"  time="0/1" value="0" leadInLength="0/1"  />
          </VectorParam>
         </Transformer>
         <Parameters>
          <VectorParam id="2833"  name="sourceCrop">
           <InterpolatingParam id="2834" interp="linr"  time="0/1" value="0" leadInLength="0/1"  />
           <InterpolatingParam id="2835" interp="linr"  time="0/1" value="0" leadInLength="0/1"  />
           <InterpolatingParam id="2836" interp="linr"  time="0/1" value="0" leadInLength="0/1"  />
           <InterpolatingParam id="2837" interp="linr"  time="0/1" value="0" leadInLength="0/1"  />
          </VectorParam>
          <VectorParam id="2838"  name="geometryCrop">
           <InterpolatingParam id="2839" interp="linr"  time="-9999999/1" value="0" leadInLength="0/1"  />
           <InterpolatingParam id="2840" interp="linr"  time="-9999999/1" value="0" leadInLength="0/1"  />
           <InterpolatingParam id="2841" interp="linr"  time="-9999999/1" value="0" leadInLength="0/1"  />
           <InterpolatingParam id="2842" interp="linr"  time="-9999999/1" value="0" leadInLength="0/1"  />
          </VectorParam>
          <InterpolatingParam id="2843" interp="linr"  time="-9999999/1" value="1" leadInLength="0/1"  name="opacity"/>
          <InterpolatingParam id="2844" interp="linr"  time="0/1" value="1" leadInLength="0/1"  name="cursorOpacity"/>
          <InterpolatingParam id="2845" interp="linr"  time="0/1" value="1" leadInLength="0/1"  name="cursorScale"/>
          <InterpolatingParam id="2846" interp="linr"  time="0/1" value="1" leadInLength="0/1"  name="volume"/>
          <Parameter id="2847"  name="captions"/>
         </Parameters>
         <Effects>
          <GenericEffect id="2848" name = "CursorBaseEffectName" >
           <Parameters>
           <InterpolatingParam id="2849" interp="linr"  time="-9999999/1" value="1" leadInLength="0/1"   name="cursorSize"/>
           <InterpolatingParam id="2850" interp="linr"  time="-9999999/1" value="0" leadInLength="0/1"   name="highlightBlurRadius"/>
           <InterpolatingParam id="2851" interp="linr"  time="-9999999/1" value="0" leadInLength="0/1"   name="highlightColorBlue"/>
           <InterpolatingParam id="2852" interp="linr"  time="-9999999/1" value="255" leadInLength="0/1"   name="highlightColorGreen"/>
           <InterpolatingParam id="2853" interp="linr"  time="-9999999/1" value="255" leadInLength="0/1"   name="highlightColorRed"/>
           <InterpolatingParam id="2854" interp="linr"  time="-9999999/1" value="5" leadInLength="0/1"   name="highlightFeatherSize"/>
           <InterpolatingParam id="2855" interp="linr"  time="-9999999/1" value="2" leadInLength="0/1"   name="highlightMagnification"/>
           <InterpolatingParam id="2856" interp="linr"  time="-9999999/1" value="1" leadInLength="0/1"   name="highlightOpacity"/>
           <InterpolatingParam id="2857" interp="linr"  time="-9999999/1" value="45" leadInLength="0/1"   name="highlightSize"/>
           <Parameter id="2858"   name="highlightType">
            <Keyframes>
            <Keyframe id="2859"  time="-9999999/1" value="0" leadInLength="0/1"  />
            </Keyframes>
           </Parameter>
           <InterpolatingParam id="2860" interp="linr"  time="-9999999/1" value="0" leadInLength="0/1"   name="leftClickColorBlue"/>
           <InterpolatingParam id="2861" interp="linr"  time="-9999999/1" value="0" leadInLength="0/1"   name="leftClickColorGreen"/>
           <InterpolatingParam id="2862" interp="linr"  time="-9999999/1" value="255" leadInLength="0/1"   name="leftClickColorRed"/>
           <InterpolatingParam id="2863" interp="linr"  time="-9999999/1" value="0.80000000000000004" leadInLength="0/1"   name="leftClickDuration"/>
           <InterpolatingParam id="2864" interp="linr"  time="-9999999/1" value="20" leadInLength="0/1"   name="leftClickSize"/>
           <Parameter id="2865"   name="leftClickSoundFilename">
            <Keyframes>
            <Keyframe id="2866"  time="-9999999/1" value="" leadInLength="0/1"  />
            </Keyframes>
           </Parameter>
           <InterpolatingParam id="2867" interp="linr"  time="-9999999/1" value="1" leadInLength="0/1"   name="leftClickSoundVolume"/>
           <Parameter id="2868"   name="leftClickType">
            <Keyframes>
            <Keyframe id="2869"  time="-9999999/1" value="0" leadInLength="0/1"  />
            </Keyframes>
           </Parameter>
           <InterpolatingParam id="2870" interp="linr"  time="-9999999/1" value="1" leadInLength="0/1"   name="opacity"/>
           <InterpolatingParam id="2871" interp="linr"  time="-9999999/1" value="255" leadInLength="0/1"   name="rightClickColorBlue"/>
           <InterpolatingParam id="2872" interp="linr"  time="-9999999/1" value="0" leadInLength="0/1"   name="rightClickColorGreen"/>
           <InterpolatingParam id="2873" interp="linr"  time="-9999999/1" value="0" leadInLength="0/1"   name="rightClickColorRed"/>
           <InterpolatingParam id="2874" interp="linr"  time="-9999999/1" value="0.80000000000000004" leadInLength="0/1"   name="rightClickDuration"/>
           <InterpolatingParam id="2875" interp="linr"  time="-9999999/1" value="20" leadInLength="0/1"   name="rightClickSize"/>
           <Parameter id="2876"   name="rightClickSoundFilename">
            <Keyframes>
            <Keyframe id="2877"  time="-9999999/1" value="" leadInLength="0/1"  />
            </Keyframes>
           </Parameter>
           <InterpolatingParam id="2878" interp="linr"  time="-9999999/1" value="1" leadInLength="0/1"   name="rightClickSoundVolume"/>
           <Parameter id="2879"   name="rightClickType">
            <Keyframes>
            <Keyframe id="2880"  time="-9999999/1" value="0" leadInLength="0/1"  />
            </Keyframes>
           </Parameter>
           </Parameters>
           <MetaData>
            <entry key="effectIndex" val="0"/>
           </MetaData>
          </GenericEffect>
         </Effects>
         <Attributes>
          <Attribute id="2881" value="" name="ident"/>
          <Attribute id="2882" value="0" name="mixToMono"/>
         </Attributes>
         <MetaData>
          <entry key="AutoAppliedSmartFocus" val="False"/>
          <entry key="WinSubProjectDisplayName" val=""/>
         </MetaData>
         <ExtraData>
          <Entry key="ZoomPanBin">
           <ZoomPanBin id="2883"  >
            <ZoomPanKeyframes>
             <ZoomPanKeyframe id="2884" timeRangeEnd="-9999999/1" timeRangeDuration="0/1" interpolaterName=""  />
            </ZoomPanKeyframes>
           </ZoomPanBin>
          </Entry>
          <Entry key="CursorEffectBin">
           <CursorEffectBin id="2885"  >
            <CursorEffectKeyframes>
             <CursorEffectKeyframe id="2886" timeRangeEnd="-9999999/1" timeRangeDuration="0/1" interpolaterName=""  />
            </CursorEffectKeyframes>
           </CursorEffectBin>
          </Entry>
         </ExtraData>
         <GenericTrack id="2887"  >
          <Attributes>
           <Attribute id="2888" value="" name="ident"/>
           <Attribute id="2889" value="0" name="audioMuted"/>
           <Attribute id="2890" value="0" name="videoHidden"/>
          </Attributes>
          <MetaData>
           <entry key="IsLocked" val="False"/>
           <entry key="WinTrackHeight" val="0"/>
          </MetaData>
          <Medias>
           <UnifiedMedia id="2891"  >
            <AMFile id="2892" start="0" duration="339" scalar="1/1" mediaStart="0/1" mediaDuration="339/1" trackNumber="1" src="21" channelNumber="0,1" >
             <Parameters>
              <InterpolatingParam id="2893" interp="linr"  time="0/1" value="1" leadInLength="0/1"  name="volume"/>
              <Parameter id="2894"  name="captions"/>
             </Parameters>
             <Attributes>
              <Attribute id="2895" value="" name="ident"/>
              <Attribute id="2896" value="44100" name="sampleRate"/>
              <Attribute id="2897" value="16" name="bitDepth"/>
              <Attribute id="2898" value="1" name="gain"/>
              <Attribute id="2899" value="0" name="mixToMono"/>
             </Attributes>
            </AMFile>
            <ScreenVMFile id="2900" start="0" duration="339" scalar="1/1" mediaStart="0/1" mediaDuration="339/1" trackNumber="0" src="21" >
             <Transformer>
              <VectorParam id="2901"  name="translation">
               <InterpolatingParam id="2902" interp="linr"  time="-9999999/1" value="0" leadInLength="0/1"  />
               <InterpolatingParam id="2903" interp="linr"  time="-9999999/1" value="0" leadInLength="0/1"  />
               <InterpolatingParam id="2904" interp="linr"  time="-9999999/1" value="0" leadInLength="0/1"  />
              </VectorParam>
              <VectorParam id="2905"  name="rotation">
               <InterpolatingParam id="2906" interp="linr"  time="-9999999/1" value="0" leadInLength="0/1"  />
               <InterpolatingParam id="2907" interp="linr"  time="-9999999/1" value="0" leadInLength="0/1"  />
               <InterpolatingParam id="2908" interp="linr"  time="-9999999/1" value="0" leadInLength="0/1"  />
              </VectorParam>
              <VectorParam id="2909"  name="shear">
               <InterpolatingParam id="2910" interp="linr"  time="-9999999/1" value="0" leadInLength="0/1"  />
               <InterpolatingParam id="2911" interp="linr"  time="-9999999/1" value="0" leadInLength="0/1"  />
               <InterpolatingParam id="2912" interp="linr"  time="-9999999/1" value="0" leadInLength="0/1"  />
              </VectorParam>
              <VectorParam id="2913"  name="scale">
               <InterpolatingParam id="2914" interp="linr"  time="-9999999/1" value="1" leadInLength="0/1"  />
               <InterpolatingParam id="2915" interp="linr"  time="-9999999/1" value="1" leadInLength="0/1"  />
               <InterpolatingParam id="2916" interp="linr"  time="-9999999/1" value="1" leadInLength="0/1"  />
              </VectorParam>
              <VectorParam id="2917"  name="anchor">
               <InterpolatingParam id="2918" interp="linr"  time="0/1" value="0" leadInLength="0/1"  />
               <InterpolatingParam id="2919" interp="linr"  time="0/1" value="0" leadInLength="0/1"  />
               <InterpolatingParam id="2920" interp="linr"  time="0/1" value="0" leadInLength="0/1"  />
              </VectorParam>
             </Transformer>
             <Parameters>
              <VectorParam id="2921"  name="sourceCrop">
               <InterpolatingParam id="2922" interp="linr"  time="0/1" value="0" leadInLength="0/1"  />
               <InterpolatingParam id="2923" interp="linr"  time="0/1" value="0" leadInLength="0/1"  />
               <InterpolatingParam id="2924" interp="linr"  time="0/1" value="0" leadInLength="0/1"  />
               <InterpolatingParam id="2925" interp="linr"  time="0/1" value="0" leadInLength="0/1"  />
              </VectorParam>
              <VectorParam id="2926"  name="geometryCrop">
               <InterpolatingParam id="2927" interp="linr"  time="-9999999/1" value="0" leadInLength="0/1"  />
               <InterpolatingParam id="2928" interp="linr"  time="-9999999/1" value="0" leadInLength="0/1"  />
               <InterpolatingParam id="2929" interp="linr"  time="-9999999/1" value="0" leadInLength="0/1"  />
               <InterpolatingParam id="2930" interp="linr"  time="-9999999/1" value="0" leadInLength="0/1"  />
              </VectorParam>
              <InterpolatingParam id="2931" interp="linr"  time="-9999999/1" value="1" leadInLength="0/1"  name="opacity"/>
              <InterpolatingParam id="2932" interp="linr"  time="0/1" value="0" leadInLength="0/1"  name="cursorOpacity"/>
              <InterpolatingParam id="2933" interp="linr"  time="0/1" value="0" leadInLength="0/1"  name="cursorScale"/>
             </Parameters>
             <Attributes>
              <Attribute id="2934" value="" name="ident"/>
             </Attributes>
             <ExtraData>
              <Entry key="ZoomPanBin">
               <ZoomPanBin id="2935"  >
                <ZoomPanKeyframes>
                 <ZoomPanKeyframe id="2936" timeRangeEnd="-9999999/1" timeRangeDuration="0/1" interpolaterName=""  />
                </ZoomPanKeyframes>
               </ZoomPanBin>
              </Entry>
              <Entry key="CursorEffectBin">
               <CursorEffectBin id="2937"  >
                <CursorEffectKeyframes>
                </CursorEffectKeyframes>
               </CursorEffectBin>
              </Entry>
             </ExtraData>
            </ScreenVMFile>
            <MetaData>
             <entry key="AutoAppliedSmartFocus" val="False"/>
             <entry key="WinSubProjectDisplayName" val=""/>
            </MetaData>
           </UnifiedMedia>
           <UnifiedMedia id="2938"  >
            <AMFile id="2939" start="339" duration="1251" scalar="1/1" mediaStart="571/1" mediaDuration="1251/1" trackNumber="1" src="21" channelNumber="0,1" >
             <Parameters>
              <InterpolatingParam id="2940" interp="linr"  time="0/1" value="1" leadInLength="0/1"  name="volume"/>
              <Parameter id="2941"  name="captions"/>
             </Parameters>
             <Attributes>
              <Attribute id="2942" value="" name="ident"/>
              <Attribute id="2943" value="44100" name="sampleRate"/>
              <Attribute id="2944" value="16" name="bitDepth"/>
              <Attribute id="2945" value="1" name="gain"/>
              <Attribute id="2946" value="0" name="mixToMono"/>
             </Attributes>
            </AMFile>
            <ScreenVMFile id="2947" start="339" duration="1251" scalar="1/1" mediaStart="571/1" mediaDuration="1251/1" trackNumber="0" src="21" >
             <Transformer>
              <VectorParam id="2948"  name="translation">
               <InterpolatingParam id="2949" interp="linr"  time="-9999999/1" value="0" leadInLength="0/1"  />
               <InterpolatingParam id="2950" interp="linr"  time="-9999999/1" value="0" leadInLength="0/1"  />
               <InterpolatingParam id="2951" interp="linr"  time="-9999999/1" value="0" leadInLength="0/1"  />
              </VectorParam>
              <VectorParam id="2952"  name="rotation">
               <InterpolatingParam id="2953" interp="linr"  time="-9999999/1" value="0" leadInLength="0/1"  />
               <InterpolatingParam id="2954" interp="linr"  time="-9999999/1" value="0" leadInLength="0/1"  />
               <InterpolatingParam id="2955" interp="linr"  time="-9999999/1" value="0" leadInLength="0/1"  />
              </VectorParam>
              <VectorParam id="2956"  name="shear">
               <InterpolatingParam id="2957" interp="linr"  time="-9999999/1" value="0" leadInLength="0/1"  />
               <InterpolatingParam id="2958" interp="linr"  time="-9999999/1" value="0" leadInLength="0/1"  />
               <InterpolatingParam id="2959" interp="linr"  time="-9999999/1" value="0" leadInLength="0/1"  />
              </VectorParam>
              <VectorParam id="2960"  name="scale">
               <InterpolatingParam id="2961" interp="linr"  time="-9999999/1" value="1" leadInLength="0/1"  />
               <InterpolatingParam id="2962" interp="linr"  time="-9999999/1" value="1" leadInLength="0/1"  />
               <InterpolatingParam id="2963" interp="linr"  time="-9999999/1" value="1" leadInLength="0/1"  />
              </VectorParam>
              <VectorParam id="2964"  name="anchor">
               <InterpolatingParam id="2965" interp="linr"  time="0/1" value="0" leadInLength="0/1"  />
               <InterpolatingParam id="2966" interp="linr"  time="0/1" value="0" leadInLength="0/1"  />
               <InterpolatingParam id="2967" interp="linr"  time="0/1" value="0" leadInLength="0/1"  />
              </VectorParam>
             </Transformer>
             <Parameters>
              <VectorParam id="2968"  name="sourceCrop">
               <InterpolatingParam id="2969" interp="linr"  time="0/1" value="0" leadInLength="0/1"  />
               <InterpolatingParam id="2970" interp="linr"  time="0/1" value="0" leadInLength="0/1"  />
               <InterpolatingParam id="2971" interp="linr"  time="0/1" value="0" leadInLength="0/1"  />
               <InterpolatingParam id="2972" interp="linr"  time="0/1" value="0" leadInLength="0/1"  />
              </VectorParam>
              <VectorParam id="2973"  name="geometryCrop">
               <InterpolatingParam id="2974" interp="linr"  time="-9999999/1" value="0" leadInLength="0/1"  />
               <InterpolatingParam id="2975" interp="linr"  time="-9999999/1" value="0" leadInLength="0/1"  />
               <InterpolatingParam id="2976" interp="linr"  time="-9999999/1" value="0" leadInLength="0/1"  />
               <InterpolatingParam id="2977" interp="linr"  time="-9999999/1" value="0" leadInLength="0/1"  />
              </VectorParam>
              <InterpolatingParam id="2978" interp="linr"  time="-9999999/1" value="1" leadInLength="0/1"  name="opacity"/>
              <InterpolatingParam id="2979" interp="linr"  time="0/1" value="0" leadInLength="0/1"  name="cursorOpacity"/>
              <InterpolatingParam id="2980" interp="linr"  time="0/1" value="0" leadInLength="0/1"  name="cursorScale"/>
             </Parameters>
             <Attributes>
              <Attribute id="2981" value="" name="ident"/>
             </Attributes>
             <ExtraData>
              <Entry key="ZoomPanBin">
               <ZoomPanBin id="2982"  >
                <ZoomPanKeyframes>
                 <ZoomPanKeyframe id="2983" timeRangeEnd="-9999999/1" timeRangeDuration="0/1" interpolaterName=""  />
                </ZoomPanKeyframes>
               </ZoomPanBin>
              </Entry>
              <Entry key="CursorEffectBin">
               <CursorEffectBin id="2984"  >
                <CursorEffectKeyframes>
                </CursorEffectKeyframes>
               </CursorEffectBin>
              </Entry>
             </ExtraData>
            </ScreenVMFile>
            <MetaData>
             <entry key="AutoAppliedSmartFocus" val="False"/>
             <entry key="WinSubProjectDisplayName" val=""/>
            </MetaData>
           </UnifiedMedia>
           <UnifiedMedia id="2985"  >
            <AMFile id="2986" start="1590" duration="26" scalar="1/1" mediaStart="2215/1" mediaDuration="26/1" trackNumber="1" src="21" channelNumber="0,1" >
             <Parameters>
              <InterpolatingParam id="2987" interp="linr"  time="0/1" value="1" leadInLength="0/1"  name="volume"/>
              <Parameter id="2988"  name="captions"/>
             </Parameters>
             <Attributes>
              <Attribute id="2989" value="" name="ident"/>
              <Attribute id="2990" value="44100" name="sampleRate"/>
              <Attribute id="2991" value="16" name="bitDepth"/>
              <Attribute id="2992" value="1" name="gain"/>
              <Attribute id="2993" value="0" name="mixToMono"/>
             </Attributes>
            </AMFile>
            <ScreenVMFile id="2994" start="1590" duration="26" scalar="1/1" mediaStart="2215/1" mediaDuration="26/1" trackNumber="0" src="21" >
             <Transformer>
              <VectorParam id="2995"  name="translation">
               <InterpolatingParam id="2996" interp="linr"  time="-9999999/1" value="0" leadInLength="0/1"  />
               <InterpolatingParam id="2997" interp="linr"  time="-9999999/1" value="0" leadInLength="0/1"  />
               <InterpolatingParam id="2998" interp="linr"  time="-9999999/1" value="0" leadInLength="0/1"  />
              </VectorParam>
              <VectorParam id="2999"  name="rotation">
               <InterpolatingParam id="3000" interp="linr"  time="-9999999/1" value="0" leadInLength="0/1"  />
               <InterpolatingParam id="3001" interp="linr"  time="-9999999/1" value="0" leadInLength="0/1"  />
               <InterpolatingParam id="3002" interp="linr"  time="-9999999/1" value="0" leadInLength="0/1"  />
              </VectorParam>
              <VectorParam id="3003"  name="shear">
               <InterpolatingParam id="3004" interp="linr"  time="-9999999/1" value="0" leadInLength="0/1"  />
               <InterpolatingParam id="3005" interp="linr"  time="-9999999/1" value="0" leadInLength="0/1"  />
               <InterpolatingParam id="3006" interp="linr"  time="-9999999/1" value="0" leadInLength="0/1"  />
              </VectorParam>
              <VectorParam id="3007"  name="scale">
               <InterpolatingParam id="3008" interp="linr"  time="-9999999/1" value="1" leadInLength="0/1"  />
               <InterpolatingParam id="3009" interp="linr"  time="-9999999/1" value="1" leadInLength="0/1"  />
               <InterpolatingParam id="3010" interp="linr"  time="-9999999/1" value="1" leadInLength="0/1"  />
              </VectorParam>
              <VectorParam id="3011"  name="anchor">
               <InterpolatingParam id="3012" interp="linr"  time="0/1" value="0" leadInLength="0/1"  />
               <InterpolatingParam id="3013" interp="linr"  time="0/1" value="0" leadInLength="0/1"  />
               <InterpolatingParam id="3014" interp="linr"  time="0/1" value="0" leadInLength="0/1"  />
              </VectorParam>
             </Transformer>
             <Parameters>
              <VectorParam id="3015"  name="sourceCrop">
               <InterpolatingParam id="3016" interp="linr"  time="0/1" value="0" leadInLength="0/1"  />
               <InterpolatingParam id="3017" interp="linr"  time="0/1" value="0" leadInLength="0/1"  />
               <InterpolatingParam id="3018" interp="linr"  time="0/1" value="0" leadInLength="0/1"  />
               <InterpolatingParam id="3019" interp="linr"  time="0/1" value="0" leadInLength="0/1"  />
              </VectorParam>
              <VectorParam id="3020"  name="geometryCrop">
               <InterpolatingParam id="3021" interp="linr"  time="-9999999/1" value="0" leadInLength="0/1"  />
               <InterpolatingParam id="3022" interp="linr"  time="-9999999/1" value="0" leadInLength="0/1"  />
               <InterpolatingParam id="3023" interp="linr"  time="-9999999/1" value="0" leadInLength="0/1"  />
               <InterpolatingParam id="3024" interp="linr"  time="-9999999/1" value="0" leadInLength="0/1"  />
              </VectorParam>
              <InterpolatingParam id="3025" interp="linr"  time="-9999999/1" value="1" leadInLength="0/1"  name="opacity"/>
              <InterpolatingParam id="3026" interp="linr"  time="0/1" value="0" leadInLength="0/1"  name="cursorOpacity"/>
              <InterpolatingParam id="3027" interp="linr"  time="0/1" value="0" leadInLength="0/1"  name="cursorScale"/>
             </Parameters>
             <Attributes>
              <Attribute id="3028" value="" name="ident"/>
             </Attributes>
             <ExtraData>
              <Entry key="ZoomPanBin">
               <ZoomPanBin id="3029"  >
                <ZoomPanKeyframes>
                 <ZoomPanKeyframe id="3030" timeRangeEnd="-9999999/1" timeRangeDuration="0/1" interpolaterName=""  />
                </ZoomPanKeyframes>
               </ZoomPanBin>
              </Entry>
              <Entry key="CursorEffectBin">
               <CursorEffectBin id="3031"  >
                <CursorEffectKeyframes>
                </CursorEffectKeyframes>
               </CursorEffectBin>
              </Entry>
             </ExtraData>
            </ScreenVMFile>
            <MetaData>
             <entry key="AutoAppliedSmartFocus" val="False"/>
             <entry key="WinSubProjectDisplayName" val=""/>
            </MetaData>
           </UnifiedMedia>
           <UnifiedMedia id="3032"  >
            <AMFile id="3033" start="1616" duration="1343" scalar="1/1" mediaStart="2640/1" mediaDuration="1343/1" trackNumber="1" src="21" channelNumber="0,1" >
             <Parameters>
              <InterpolatingParam id="3034" interp="linr"  time="0/1" value="1" leadInLength="0/1"  name="volume"/>
              <Parameter id="3035"  name="captions"/>
             </Parameters>
             <Attributes>
              <Attribute id="3036" value="" name="ident"/>
              <Attribute id="3037" value="44100" name="sampleRate"/>
              <Attribute id="3038" value="16" name="bitDepth"/>
              <Attribute id="3039" value="1" name="gain"/>
              <Attribute id="3040" value="0" name="mixToMono"/>
             </Attributes>
            </AMFile>
            <ScreenVMFile id="3041" start="1616" duration="1343" scalar="1/1" mediaStart="2640/1" mediaDuration="1343/1" trackNumber="0" src="21" >
             <Transformer>
              <VectorParam id="3042"  name="translation">
               <InterpolatingParam id="3043" interp="linr"  time="-9999999/1" value="0" leadInLength="0/1"  />
               <InterpolatingParam id="3044" interp="linr"  time="-9999999/1" value="0" leadInLength="0/1"  />
               <InterpolatingParam id="3045" interp="linr"  time="-9999999/1" value="0" leadInLength="0/1"  />
              </VectorParam>
              <VectorParam id="3046"  name="rotation">
               <InterpolatingParam id="3047" interp="linr"  time="-9999999/1" value="0" leadInLength="0/1"  />
               <InterpolatingParam id="3048" interp="linr"  time="-9999999/1" value="0" leadInLength="0/1"  />
               <InterpolatingParam id="3049" interp="linr"  time="-9999999/1" value="0" leadInLength="0/1"  />
              </VectorParam>
              <VectorParam id="3050"  name="shear">
               <InterpolatingParam id="3051" interp="linr"  time="-9999999/1" value="0" leadInLength="0/1"  />
               <InterpolatingParam id="3052" interp="linr"  time="-9999999/1" value="0" leadInLength="0/1"  />
               <InterpolatingParam id="3053" interp="linr"  time="-9999999/1" value="0" leadInLength="0/1"  />
              </VectorParam>
              <VectorParam id="3054"  name="scale">
               <InterpolatingParam id="3055" interp="linr"  time="-9999999/1" value="1" leadInLength="0/1"  />
               <InterpolatingParam id="3056" interp="linr"  time="-9999999/1" value="1" leadInLength="0/1"  />
               <InterpolatingParam id="3057" interp="linr"  time="-9999999/1" value="1" leadInLength="0/1"  />
              </VectorParam>
              <VectorParam id="3058"  name="anchor">
               <InterpolatingParam id="3059" interp="linr"  time="0/1" value="0" leadInLength="0/1"  />
               <InterpolatingParam id="3060" interp="linr"  time="0/1" value="0" leadInLength="0/1"  />
               <InterpolatingParam id="3061" interp="linr"  time="0/1" value="0" leadInLength="0/1"  />
              </VectorParam>
             </Transformer>
             <Parameters>
              <VectorParam id="3062"  name="sourceCrop">
               <InterpolatingParam id="3063" interp="linr"  time="0/1" value="0" leadInLength="0/1"  />
               <InterpolatingParam id="3064" interp="linr"  time="0/1" value="0" leadInLength="0/1"  />
               <InterpolatingParam id="3065" interp="linr"  time="0/1" value="0" leadInLength="0/1"  />
               <InterpolatingParam id="3066" interp="linr"  time="0/1" value="0" leadInLength="0/1"  />
              </VectorParam>
              <VectorParam id="3067"  name="geometryCrop">
               <InterpolatingParam id="3068" interp="linr"  time="-9999999/1" value="0" leadInLength="0/1"  />
               <InterpolatingParam id="3069" interp="linr"  time="-9999999/1" value="0" leadInLength="0/1"  />
               <InterpolatingParam id="3070" interp="linr"  time="-9999999/1" value="0" leadInLength="0/1"  />
               <InterpolatingParam id="3071" interp="linr"  time="-9999999/1" value="0" leadInLength="0/1"  />
              </VectorParam>
              <InterpolatingParam id="3072" interp="linr"  time="-9999999/1" value="1" leadInLength="0/1"  name="opacity"/>
              <InterpolatingParam id="3073" interp="linr"  time="0/1" value="0" leadInLength="0/1"  name="cursorOpacity"/>
              <InterpolatingParam id="3074" interp="linr"  time="0/1" value="0" leadInLength="0/1"  name="cursorScale"/>
             </Parameters>
             <Attributes>
              <Attribute id="3075" value="" name="ident"/>
             </Attributes>
             <ExtraData>
              <Entry key="ZoomPanBin">
               <ZoomPanBin id="3076"  >
                <ZoomPanKeyframes>
                 <ZoomPanKeyframe id="3077" timeRangeEnd="-9999999/1" timeRangeDuration="0/1" interpolaterName=""  />
                </ZoomPanKeyframes>
               </ZoomPanBin>
              </Entry>
              <Entry key="CursorEffectBin">
               <CursorEffectBin id="3078"  >
                <CursorEffectKeyframes>
                </CursorEffectKeyframes>
               </CursorEffectBin>
              </Entry>
             </ExtraData>
            </ScreenVMFile>
            <MetaData>
             <entry key="AutoAppliedSmartFocus" val="False"/>
             <entry key="WinSubProjectDisplayName" val=""/>
            </MetaData>
           </UnifiedMedia>
           <UnifiedMedia id="3079"  >
            <AMFile id="3080" start="2959" duration="2" scalar="1/1" mediaStart="4941/1" mediaDuration="2/1" trackNumber="1" src="21" channelNumber="0,1" >
             <Parameters>
              <InterpolatingParam id="3081" interp="linr"  time="0/1" value="1" leadInLength="0/1"  name="volume"/>
              <Parameter id="3082"  name="captions"/>
             </Parameters>
             <Attributes>
              <Attribute id="3083" value="" name="ident"/>
              <Attribute id="3084" value="44100" name="sampleRate"/>
              <Attribute id="3085" value="16" name="bitDepth"/>
              <Attribute id="3086" value="1" name="gain"/>
              <Attribute id="3087" value="0" name="mixToMono"/>
             </Attributes>
            </AMFile>
            <ScreenVMFile id="3088" start="2959" duration="2" scalar="1/1" mediaStart="4941/1" mediaDuration="2/1" trackNumber="0" src="21" >
             <Transformer>
              <VectorParam id="3089"  name="translation">
               <InterpolatingParam id="3090" interp="linr"  time="-9999999/1" value="0" leadInLength="0/1"  />
               <InterpolatingParam id="3091" interp="linr"  time="-9999999/1" value="0" leadInLength="0/1"  />
               <InterpolatingParam id="3092" interp="linr"  time="-9999999/1" value="0" leadInLength="0/1"  />
              </VectorParam>
              <VectorParam id="3093"  name="rotation">
               <InterpolatingParam id="3094" interp="linr"  time="-9999999/1" value="0" leadInLength="0/1"  />
               <InterpolatingParam id="3095" interp="linr"  time="-9999999/1" value="0" leadInLength="0/1"  />
               <InterpolatingParam id="3096" interp="linr"  time="-9999999/1" value="0" leadInLength="0/1"  />
              </VectorParam>
              <VectorParam id="3097"  name="shear">
               <InterpolatingParam id="3098" interp="linr"  time="-9999999/1" value="0" leadInLength="0/1"  />
               <InterpolatingParam id="3099" interp="linr"  time="-9999999/1" value="0" leadInLength="0/1"  />
               <InterpolatingParam id="3100" interp="linr"  time="-9999999/1" value="0" leadInLength="0/1"  />
              </VectorParam>
              <VectorParam id="3101"  name="scale">
               <InterpolatingParam id="3102" interp="linr"  time="-9999999/1" value="1" leadInLength="0/1"  />
               <InterpolatingParam id="3103" interp="linr"  time="-9999999/1" value="1" leadInLength="0/1"  />
               <InterpolatingParam id="3104" interp="linr"  time="-9999999/1" value="1" leadInLength="0/1"  />
              </VectorParam>
              <VectorParam id="3105"  name="anchor">
               <InterpolatingParam id="3106" interp="linr"  time="0/1" value="0" leadInLength="0/1"  />
               <InterpolatingParam id="3107" interp="linr"  time="0/1" value="0" leadInLength="0/1"  />
               <InterpolatingParam id="3108" interp="linr"  time="0/1" value="0" leadInLength="0/1"  />
              </VectorParam>
             </Transformer>
             <Parameters>
              <VectorParam id="3109"  name="sourceCrop">
               <InterpolatingParam id="3110" interp="linr"  time="0/1" value="0" leadInLength="0/1"  />
               <InterpolatingParam id="3111" interp="linr"  time="0/1" value="0" leadInLength="0/1"  />
               <InterpolatingParam id="3112" interp="linr"  time="0/1" value="0" leadInLength="0/1"  />
               <InterpolatingParam id="3113" interp="linr"  time="0/1" value="0" leadInLength="0/1"  />
              </VectorParam>
              <VectorParam id="3114"  name="geometryCrop">
               <InterpolatingParam id="3115" interp="linr"  time="-9999999/1" value="0" leadInLength="0/1"  />
               <InterpolatingParam id="3116" interp="linr"  time="-9999999/1" value="0" leadInLength="0/1"  />
               <InterpolatingParam id="3117" interp="linr"  time="-9999999/1" value="0" leadInLength="0/1"  />
               <InterpolatingParam id="3118" interp="linr"  time="-9999999/1" value="0" leadInLength="0/1"  />
              </VectorParam>
              <InterpolatingParam id="3119" interp="linr"  time="-9999999/1" value="1" leadInLength="0/1"  name="opacity"/>
              <InterpolatingParam id="3120" interp="linr"  time="0/1" value="0" leadInLength="0/1"  name="cursorOpacity"/>
              <InterpolatingParam id="3121" interp="linr"  time="0/1" value="0" leadInLength="0/1"  name="cursorScale"/>
             </Parameters>
             <Attributes>
              <Attribute id="3122" value="" name="ident"/>
             </Attributes>
             <ExtraData>
              <Entry key="ZoomPanBin">
               <ZoomPanBin id="3123"  >
                <ZoomPanKeyframes>
                 <ZoomPanKeyframe id="3124" timeRangeEnd="-9999999/1" timeRangeDuration="0/1" interpolaterName=""  />
                </ZoomPanKeyframes>
               </ZoomPanBin>
              </Entry>
              <Entry key="CursorEffectBin">
               <CursorEffectBin id="3125"  >
                <CursorEffectKeyframes>
                </CursorEffectKeyframes>
               </CursorEffectBin>
              </Entry>
             </ExtraData>
            </ScreenVMFile>
            <MetaData>
             <entry key="AutoAppliedSmartFocus" val="False"/>
             <entry key="WinSubProjectDisplayName" val=""/>
            </MetaData>
           </UnifiedMedia>
           <UnifiedMedia id="3126"  >
            <AMFile id="3127" start="2961" duration="476" scalar="1/1" mediaStart="5105/1" mediaDuration="476/1" trackNumber="1" src="21" channelNumber="0,1" >
             <Parameters>
              <InterpolatingParam id="3128" interp="linr"  time="0/1" value="1" leadInLength="0/1"  name="volume"/>
              <Parameter id="3129"  name="captions"/>
             </Parameters>
             <Attributes>
              <Attribute id="3130" value="" name="ident"/>
              <Attribute id="3131" value="44100" name="sampleRate"/>
              <Attribute id="3132" value="16" name="bitDepth"/>
              <Attribute id="3133" value="1" name="gain"/>
              <Attribute id="3134" value="0" name="mixToMono"/>
             </Attributes>
            </AMFile>
            <ScreenVMFile id="3135" start="2961" duration="476" scalar="1/1" mediaStart="5105/1" mediaDuration="476/1" trackNumber="0" src="21" >
             <Transformer>
              <VectorParam id="3136"  name="translation">
               <InterpolatingParam id="3137" interp="linr"  time="-9999999/1" value="0" leadInLength="0/1"  />
               <InterpolatingParam id="3138" interp="linr"  time="-9999999/1" value="0" leadInLength="0/1"  />
               <InterpolatingParam id="3139" interp="linr"  time="-9999999/1" value="0" leadInLength="0/1"  />
              </VectorParam>
              <VectorParam id="3140"  name="rotation">
               <InterpolatingParam id="3141" interp="linr"  time="-9999999/1" value="0" leadInLength="0/1"  />
               <InterpolatingParam id="3142" interp="linr"  time="-9999999/1" value="0" leadInLength="0/1"  />
               <InterpolatingParam id="3143" interp="linr"  time="-9999999/1" value="0" leadInLength="0/1"  />
              </VectorParam>
              <VectorParam id="3144"  name="shear">
               <InterpolatingParam id="3145" interp="linr"  time="-9999999/1" value="0" leadInLength="0/1"  />
               <InterpolatingParam id="3146" interp="linr"  time="-9999999/1" value="0" leadInLength="0/1"  />
               <InterpolatingParam id="3147" interp="linr"  time="-9999999/1" value="0" leadInLength="0/1"  />
              </VectorParam>
              <VectorParam id="3148"  name="scale">
               <InterpolatingParam id="3149" interp="linr"  time="-9999999/1" value="1" leadInLength="0/1"  />
               <InterpolatingParam id="3150" interp="linr"  time="-9999999/1" value="1" leadInLength="0/1"  />
               <InterpolatingParam id="3151" interp="linr"  time="-9999999/1" value="1" leadInLength="0/1"  />
              </VectorParam>
              <VectorParam id="3152"  name="anchor">
               <InterpolatingParam id="3153" interp="linr"  time="0/1" value="0" leadInLength="0/1"  />
               <InterpolatingParam id="3154" interp="linr"  time="0/1" value="0" leadInLength="0/1"  />
               <InterpolatingParam id="3155" interp="linr"  time="0/1" value="0" leadInLength="0/1"  />
              </VectorParam>
             </Transformer>
             <Parameters>
              <VectorParam id="3156"  name="sourceCrop">
               <InterpolatingParam id="3157" interp="linr"  time="0/1" value="0" leadInLength="0/1"  />
               <InterpolatingParam id="3158" interp="linr"  time="0/1" value="0" leadInLength="0/1"  />
               <InterpolatingParam id="3159" interp="linr"  time="0/1" value="0" leadInLength="0/1"  />
               <InterpolatingParam id="3160" interp="linr"  time="0/1" value="0" leadInLength="0/1"  />
              </VectorParam>
              <VectorParam id="3161"  name="geometryCrop">
               <InterpolatingParam id="3162" interp="linr"  time="-9999999/1" value="0" leadInLength="0/1"  />
               <InterpolatingParam id="3163" interp="linr"  time="-9999999/1" value="0" leadInLength="0/1"  />
               <InterpolatingParam id="3164" interp="linr"  time="-9999999/1" value="0" leadInLength="0/1"  />
               <InterpolatingParam id="3165" interp="linr"  time="-9999999/1" value="0" leadInLength="0/1"  />
              </VectorParam>
              <InterpolatingParam id="3166" interp="linr"  time="-9999999/1" value="1" leadInLength="0/1"  name="opacity"/>
              <InterpolatingParam id="3167" interp="linr"  time="0/1" value="0" leadInLength="0/1"  name="cursorOpacity"/>
              <InterpolatingParam id="3168" interp="linr"  time="0/1" value="0" leadInLength="0/1"  name="cursorScale"/>
             </Parameters>
             <Attributes>
              <Attribute id="3169" value="" name="ident"/>
             </Attributes>
             <ExtraData>
              <Entry key="ZoomPanBin">
               <ZoomPanBin id="3170"  >
                <ZoomPanKeyframes>
                 <ZoomPanKeyframe id="3171" timeRangeEnd="-9999999/1" timeRangeDuration="0/1" interpolaterName=""  />
                </ZoomPanKeyframes>
               </ZoomPanBin>
              </Entry>
              <Entry key="CursorEffectBin">
               <CursorEffectBin id="3172"  >
                <CursorEffectKeyframes>
                </CursorEffectKeyframes>
               </CursorEffectBin>
              </Entry>
             </ExtraData>
            </ScreenVMFile>
            <MetaData>
             <entry key="AutoAppliedSmartFocus" val="False"/>
             <entry key="WinSubProjectDisplayName" val=""/>
            </MetaData>
           </UnifiedMedia>
          </Medias>
         </GenericTrack>
        </StitchedMedia>
        <StitchedMedia id="3173" start="29355" duration="4184" scalar="1/1" mediaStart="0/1" mediaDuration="4184/1" minMediaStart="0/1" >
         <Transformer>
          <VectorParam id="3174"  name="translation">
           <InterpolatingParam id="3175" interp="linr"  time="-9999999/1" value="0" leadInLength="0/1"  />
           <InterpolatingParam id="3176" interp="linr"  time="-9999999/1" value="0" leadInLength="0/1"  />
           <InterpolatingParam id="3177" interp="linr"  time="-9999999/1" value="0" leadInLength="0/1"  />
          </VectorParam>
          <VectorParam id="3178"  name="rotation">
           <InterpolatingParam id="3179" interp="linr"  time="-9999999/1" value="0" leadInLength="0/1"  />
           <InterpolatingParam id="3180" interp="linr"  time="-9999999/1" value="0" leadInLength="0/1"  />
           <InterpolatingParam id="3181" interp="linr"  time="-9999999/1" value="0" leadInLength="0/1"  />
          </VectorParam>
          <VectorParam id="3182"  name="shear">
           <InterpolatingParam id="3183" interp="linr"  time="-9999999/1" value="0" leadInLength="0/1"  />
           <InterpolatingParam id="3184" interp="linr"  time="-9999999/1" value="0" leadInLength="0/1"  />
           <InterpolatingParam id="3185" interp="linr"  time="-9999999/1" value="0" leadInLength="0/1"  />
          </VectorParam>
          <VectorParam id="3186"  name="scale">
           <InterpolatingParam id="3187" interp="linr"  time="-9999999/1" value="0.80000000000000004" leadInLength="0/1"  />
           <InterpolatingParam id="3188" interp="linr"  time="-9999999/1" value="0.80000000000000004" leadInLength="0/1"  />
           <InterpolatingParam id="3189" interp="linr"  time="-9999999/1" value="1" leadInLength="0/1"  />
          </VectorParam>
          <VectorParam id="3190"  name="anchor">
           <InterpolatingParam id="3191" interp="linr"  time="0/1" value="0" leadInLength="0/1"  />
           <InterpolatingParam id="3192" interp="linr"  time="0/1" value="0" leadInLength="0/1"  />
           <InterpolatingParam id="3193" interp="linr"  time="0/1" value="0" leadInLength="0/1"  />
          </VectorParam>
         </Transformer>
         <Parameters>
          <VectorParam id="3194"  name="sourceCrop">
           <InterpolatingParam id="3195" interp="linr"  time="0/1" value="0" leadInLength="0/1"  />
           <InterpolatingParam id="3196" interp="linr"  time="0/1" value="0" leadInLength="0/1"  />
           <InterpolatingParam id="3197" interp="linr"  time="0/1" value="0" leadInLength="0/1"  />
           <InterpolatingParam id="3198" interp="linr"  time="0/1" value="0" leadInLength="0/1"  />
          </VectorParam>
          <VectorParam id="3199"  name="geometryCrop">
           <InterpolatingParam id="3200" interp="linr"  time="-9999999/1" value="0" leadInLength="0/1"  />
           <InterpolatingParam id="3201" interp="linr"  time="-9999999/1" value="0" leadInLength="0/1"  />
           <InterpolatingParam id="3202" interp="linr"  time="-9999999/1" value="0" leadInLength="0/1"  />
           <InterpolatingParam id="3203" interp="linr"  time="-9999999/1" value="0" leadInLength="0/1"  />
          </VectorParam>
          <InterpolatingParam id="3204" interp="linr"  time="-9999999/1" value="1" leadInLength="0/1"  name="opacity"/>
          <InterpolatingParam id="3205" interp="linr"  time="0/1" value="1" leadInLength="0/1"  name="cursorOpacity"/>
          <InterpolatingParam id="3206" interp="linr"  time="0/1" value="1" leadInLength="0/1"  name="cursorScale"/>
          <InterpolatingParam id="3207" interp="linr"  time="0/1" value="1" leadInLength="0/1"  name="volume"/>
          <Parameter id="3208"  name="captions"/>
         </Parameters>
         <Effects>
          <GenericEffect id="3209" name = "CursorBaseEffectName" >
           <Parameters>
           <InterpolatingParam id="3210" interp="linr"  time="-9999999/1" value="1" leadInLength="0/1"   name="cursorSize"/>
           <InterpolatingParam id="3211" interp="linr"  time="-9999999/1" value="0" leadInLength="0/1"   name="highlightBlurRadius"/>
           <InterpolatingParam id="3212" interp="linr"  time="-9999999/1" value="0" leadInLength="0/1"   name="highlightColorBlue"/>
           <InterpolatingParam id="3213" interp="linr"  time="-9999999/1" value="255" leadInLength="0/1"   name="highlightColorGreen"/>
           <InterpolatingParam id="3214" interp="linr"  time="-9999999/1" value="255" leadInLength="0/1"   name="highlightColorRed"/>
           <InterpolatingParam id="3215" interp="linr"  time="-9999999/1" value="5" leadInLength="0/1"   name="highlightFeatherSize"/>
           <InterpolatingParam id="3216" interp="linr"  time="-9999999/1" value="2" leadInLength="0/1"   name="highlightMagnification"/>
           <InterpolatingParam id="3217" interp="linr"  time="-9999999/1" value="1" leadInLength="0/1"   name="highlightOpacity"/>
           <InterpolatingParam id="3218" interp="linr"  time="-9999999/1" value="45" leadInLength="0/1"   name="highlightSize"/>
           <Parameter id="3219"   name="highlightType">
            <Keyframes>
            <Keyframe id="3220"  time="-9999999/1" value="0" leadInLength="0/1"  />
            </Keyframes>
           </Parameter>
           <InterpolatingParam id="3221" interp="linr"  time="-9999999/1" value="0" leadInLength="0/1"   name="leftClickColorBlue"/>
           <InterpolatingParam id="3222" interp="linr"  time="-9999999/1" value="0" leadInLength="0/1"   name="leftClickColorGreen"/>
           <InterpolatingParam id="3223" interp="linr"  time="-9999999/1" value="255" leadInLength="0/1"   name="leftClickColorRed"/>
           <InterpolatingParam id="3224" interp="linr"  time="-9999999/1" value="0.80000000000000004" leadInLength="0/1"   name="leftClickDuration"/>
           <InterpolatingParam id="3225" interp="linr"  time="-9999999/1" value="20" leadInLength="0/1"   name="leftClickSize"/>
           <Parameter id="3226"   name="leftClickSoundFilename">
            <Keyframes>
            <Keyframe id="3227"  time="-9999999/1" value="" leadInLength="0/1"  />
            </Keyframes>
           </Parameter>
           <InterpolatingParam id="3228" interp="linr"  time="-9999999/1" value="1" leadInLength="0/1"   name="leftClickSoundVolume"/>
           <Parameter id="3229"   name="leftClickType">
            <Keyframes>
            <Keyframe id="3230"  time="-9999999/1" value="0" leadInLength="0/1"  />
            </Keyframes>
           </Parameter>
           <InterpolatingParam id="3231" interp="linr"  time="-9999999/1" value="1" leadInLength="0/1"   name="opacity"/>
           <InterpolatingParam id="3232" interp="linr"  time="-9999999/1" value="255" leadInLength="0/1"   name="rightClickColorBlue"/>
           <InterpolatingParam id="3233" interp="linr"  time="-9999999/1" value="0" leadInLength="0/1"   name="rightClickColorGreen"/>
           <InterpolatingParam id="3234" interp="linr"  time="-9999999/1" value="0" leadInLength="0/1"   name="rightClickColorRed"/>
           <InterpolatingParam id="3235" interp="linr"  time="-9999999/1" value="0.80000000000000004" leadInLength="0/1"   name="rightClickDuration"/>
           <InterpolatingParam id="3236" interp="linr"  time="-9999999/1" value="20" leadInLength="0/1"   name="rightClickSize"/>
           <Parameter id="3237"   name="rightClickSoundFilename">
            <Keyframes>
            <Keyframe id="3238"  time="-9999999/1" value="" leadInLength="0/1"  />
            </Keyframes>
           </Parameter>
           <InterpolatingParam id="3239" interp="linr"  time="-9999999/1" value="1" leadInLength="0/1"   name="rightClickSoundVolume"/>
           <Parameter id="3240"   name="rightClickType">
            <Keyframes>
            <Keyframe id="3241"  time="-9999999/1" value="0" leadInLength="0/1"  />
            </Keyframes>
           </Parameter>
           </Parameters>
           <MetaData>
            <entry key="effectIndex" val="0"/>
           </MetaData>
          </GenericEffect>
         </Effects>
         <Attributes>
          <Attribute id="3242" value="" name="ident"/>
          <Attribute id="3243" value="0" name="mixToMono"/>
         </Attributes>
         <MetaData>
          <entry key="AutoAppliedSmartFocus" val="False"/>
          <entry key="WinSubProjectDisplayName" val=""/>
         </MetaData>
         <ExtraData>
          <Entry key="ZoomPanBin">
           <ZoomPanBin id="3244"  >
            <ZoomPanKeyframes>
             <ZoomPanKeyframe id="3245" timeRangeEnd="-9999999/1" timeRangeDuration="0/1" interpolaterName=""  />
            </ZoomPanKeyframes>
           </ZoomPanBin>
          </Entry>
          <Entry key="CursorEffectBin">
           <CursorEffectBin id="3246"  >
            <CursorEffectKeyframes>
             <CursorEffectKeyframe id="3247" timeRangeEnd="-9999999/1" timeRangeDuration="0/1" interpolaterName=""  />
            </CursorEffectKeyframes>
           </CursorEffectBin>
          </Entry>
         </ExtraData>
         <GenericTrack id="3248"  >
          <Attributes>
           <Attribute id="3249" value="" name="ident"/>
           <Attribute id="3250" value="0" name="audioMuted"/>
           <Attribute id="3251" value="0" name="videoHidden"/>
          </Attributes>
          <MetaData>
           <entry key="IsLocked" val="False"/>
           <entry key="WinTrackHeight" val="0"/>
          </MetaData>
          <Medias>
           <UnifiedMedia id="3252"  >
            <AMFile id="3253" start="0" duration="638" scalar="1/1" mediaStart="0/1" mediaDuration="638/1" trackNumber="1" src="22" channelNumber="0,1" >
             <Parameters>
              <InterpolatingParam id="3254" interp="linr"  time="0/1" value="1" leadInLength="0/1"  name="volume"/>
              <Parameter id="3255"  name="captions"/>
             </Parameters>
             <Attributes>
              <Attribute id="3256" value="" name="ident"/>
              <Attribute id="3257" value="44100" name="sampleRate"/>
              <Attribute id="3258" value="16" name="bitDepth"/>
              <Attribute id="3259" value="1" name="gain"/>
              <Attribute id="3260" value="0" name="mixToMono"/>
             </Attributes>
            </AMFile>
            <ScreenVMFile id="3261" start="0" duration="638" scalar="1/1" mediaStart="0/1" mediaDuration="638/1" trackNumber="0" src="22" >
             <Transformer>
              <VectorParam id="3262"  name="translation">
               <InterpolatingParam id="3263" interp="linr"  time="-9999999/1" value="0" leadInLength="0/1"  />
               <InterpolatingParam id="3264" interp="linr"  time="-9999999/1" value="0" leadInLength="0/1"  />
               <InterpolatingParam id="3265" interp="linr"  time="-9999999/1" value="0" leadInLength="0/1"  />
              </VectorParam>
              <VectorParam id="3266"  name="rotation">
               <InterpolatingParam id="3267" interp="linr"  time="-9999999/1" value="0" leadInLength="0/1"  />
               <InterpolatingParam id="3268" interp="linr"  time="-9999999/1" value="0" leadInLength="0/1"  />
               <InterpolatingParam id="3269" interp="linr"  time="-9999999/1" value="0" leadInLength="0/1"  />
              </VectorParam>
              <VectorParam id="3270"  name="shear">
               <InterpolatingParam id="3271" interp="linr"  time="-9999999/1" value="0" leadInLength="0/1"  />
               <InterpolatingParam id="3272" interp="linr"  time="-9999999/1" value="0" leadInLength="0/1"  />
               <InterpolatingParam id="3273" interp="linr"  time="-9999999/1" value="0" leadInLength="0/1"  />
              </VectorParam>
              <VectorParam id="3274"  name="scale">
               <InterpolatingParam id="3275" interp="linr"  time="-9999999/1" value="1" leadInLength="0/1"  />
               <InterpolatingParam id="3276" interp="linr"  time="-9999999/1" value="1" leadInLength="0/1"  />
               <InterpolatingParam id="3277" interp="linr"  time="-9999999/1" value="1" leadInLength="0/1"  />
              </VectorParam>
              <VectorParam id="3278"  name="anchor">
               <InterpolatingParam id="3279" interp="linr"  time="0/1" value="0" leadInLength="0/1"  />
               <InterpolatingParam id="3280" interp="linr"  time="0/1" value="0" leadInLength="0/1"  />
               <InterpolatingParam id="3281" interp="linr"  time="0/1" value="0" leadInLength="0/1"  />
              </VectorParam>
             </Transformer>
             <Parameters>
              <VectorParam id="3282"  name="sourceCrop">
               <InterpolatingParam id="3283" interp="linr"  time="0/1" value="0" leadInLength="0/1"  />
               <InterpolatingParam id="3284" interp="linr"  time="0/1" value="0" leadInLength="0/1"  />
               <InterpolatingParam id="3285" interp="linr"  time="0/1" value="0" leadInLength="0/1"  />
               <InterpolatingParam id="3286" interp="linr"  time="0/1" value="0" leadInLength="0/1"  />
              </VectorParam>
              <VectorParam id="3287"  name="geometryCrop">
               <InterpolatingParam id="3288" interp="linr"  time="-9999999/1" value="0" leadInLength="0/1"  />
               <InterpolatingParam id="3289" interp="linr"  time="-9999999/1" value="0" leadInLength="0/1"  />
               <InterpolatingParam id="3290" interp="linr"  time="-9999999/1" value="0" leadInLength="0/1"  />
               <InterpolatingParam id="3291" interp="linr"  time="-9999999/1" value="0" leadInLength="0/1"  />
              </VectorParam>
              <InterpolatingParam id="3292" interp="linr"  time="-9999999/1" value="1" leadInLength="0/1"  name="opacity"/>
              <InterpolatingParam id="3293" interp="linr"  time="0/1" value="0" leadInLength="0/1"  name="cursorOpacity"/>
              <InterpolatingParam id="3294" interp="linr"  time="0/1" value="0" leadInLength="0/1"  name="cursorScale"/>
             </Parameters>
             <Attributes>
              <Attribute id="3295" value="" name="ident"/>
             </Attributes>
             <ExtraData>
              <Entry key="ZoomPanBin">
               <ZoomPanBin id="3296"  >
                <ZoomPanKeyframes>
                 <ZoomPanKeyframe id="3297" timeRangeEnd="-9999999/1" timeRangeDuration="0/1" interpolaterName=""  />
                </ZoomPanKeyframes>
               </ZoomPanBin>
              </Entry>
              <Entry key="CursorEffectBin">
               <CursorEffectBin id="3298"  >
                <CursorEffectKeyframes>
                </CursorEffectKeyframes>
               </CursorEffectBin>
              </Entry>
             </ExtraData>
            </ScreenVMFile>
            <MetaData>
             <entry key="AutoAppliedSmartFocus" val="False"/>
             <entry key="WinSubProjectDisplayName" val=""/>
            </MetaData>
           </UnifiedMedia>
           <UnifiedMedia id="3299"  >
            <AMFile id="3300" start="638" duration="1530" scalar="1/1" mediaStart="740/1" mediaDuration="1530/1" trackNumber="1" src="22" channelNumber="0,1" >
             <Parameters>
              <InterpolatingParam id="3301" interp="linr"  time="0/1" value="1" leadInLength="0/1"  name="volume"/>
              <Parameter id="3302"  name="captions"/>
             </Parameters>
             <Attributes>
              <Attribute id="3303" value="" name="ident"/>
              <Attribute id="3304" value="44100" name="sampleRate"/>
              <Attribute id="3305" value="16" name="bitDepth"/>
              <Attribute id="3306" value="1" name="gain"/>
              <Attribute id="3307" value="0" name="mixToMono"/>
             </Attributes>
            </AMFile>
            <ScreenVMFile id="3308" start="638" duration="1530" scalar="1/1" mediaStart="740/1" mediaDuration="1530/1" trackNumber="0" src="22" >
             <Transformer>
              <VectorParam id="3309"  name="translation">
               <InterpolatingParam id="3310" interp="linr"  time="-9999999/1" value="0" leadInLength="0/1"  />
               <InterpolatingParam id="3311" interp="linr"  time="-9999999/1" value="0" leadInLength="0/1"  />
               <InterpolatingParam id="3312" interp="linr"  time="-9999999/1" value="0" leadInLength="0/1"  />
              </VectorParam>
              <VectorParam id="3313"  name="rotation">
               <InterpolatingParam id="3314" interp="linr"  time="-9999999/1" value="0" leadInLength="0/1"  />
               <InterpolatingParam id="3315" interp="linr"  time="-9999999/1" value="0" leadInLength="0/1"  />
               <InterpolatingParam id="3316" interp="linr"  time="-9999999/1" value="0" leadInLength="0/1"  />
              </VectorParam>
              <VectorParam id="3317"  name="shear">
               <InterpolatingParam id="3318" interp="linr"  time="-9999999/1" value="0" leadInLength="0/1"  />
               <InterpolatingParam id="3319" interp="linr"  time="-9999999/1" value="0" leadInLength="0/1"  />
               <InterpolatingParam id="3320" interp="linr"  time="-9999999/1" value="0" leadInLength="0/1"  />
              </VectorParam>
              <VectorParam id="3321"  name="scale">
               <InterpolatingParam id="3322" interp="linr"  time="-9999999/1" value="1" leadInLength="0/1"  />
               <InterpolatingParam id="3323" interp="linr"  time="-9999999/1" value="1" leadInLength="0/1"  />
               <InterpolatingParam id="3324" interp="linr"  time="-9999999/1" value="1" leadInLength="0/1"  />
              </VectorParam>
              <VectorParam id="3325"  name="anchor">
               <InterpolatingParam id="3326" interp="linr"  time="0/1" value="0" leadInLength="0/1"  />
               <InterpolatingParam id="3327" interp="linr"  time="0/1" value="0" leadInLength="0/1"  />
               <InterpolatingParam id="3328" interp="linr"  time="0/1" value="0" leadInLength="0/1"  />
              </VectorParam>
             </Transformer>
             <Parameters>
              <VectorParam id="3329"  name="sourceCrop">
               <InterpolatingParam id="3330" interp="linr"  time="0/1" value="0" leadInLength="0/1"  />
               <InterpolatingParam id="3331" interp="linr"  time="0/1" value="0" leadInLength="0/1"  />
               <InterpolatingParam id="3332" interp="linr"  time="0/1" value="0" leadInLength="0/1"  />
               <InterpolatingParam id="3333" interp="linr"  time="0/1" value="0" leadInLength="0/1"  />
              </VectorParam>
              <VectorParam id="3334"  name="geometryCrop">
               <InterpolatingParam id="3335" interp="linr"  time="-9999999/1" value="0" leadInLength="0/1"  />
               <InterpolatingParam id="3336" interp="linr"  time="-9999999/1" value="0" leadInLength="0/1"  />
               <InterpolatingParam id="3337" interp="linr"  time="-9999999/1" value="0" leadInLength="0/1"  />
               <InterpolatingParam id="3338" interp="linr"  time="-9999999/1" value="0" leadInLength="0/1"  />
              </VectorParam>
              <InterpolatingParam id="3339" interp="linr"  time="-9999999/1" value="1" leadInLength="0/1"  name="opacity"/>
              <InterpolatingParam id="3340" interp="linr"  time="0/1" value="0" leadInLength="0/1"  name="cursorOpacity"/>
              <InterpolatingParam id="3341" interp="linr"  time="0/1" value="0" leadInLength="0/1"  name="cursorScale"/>
             </Parameters>
             <Attributes>
              <Attribute id="3342" value="" name="ident"/>
             </Attributes>
             <ExtraData>
              <Entry key="ZoomPanBin">
               <ZoomPanBin id="3343"  >
                <ZoomPanKeyframes>
                 <ZoomPanKeyframe id="3344" timeRangeEnd="-9999999/1" timeRangeDuration="0/1" interpolaterName=""  />
                </ZoomPanKeyframes>
               </ZoomPanBin>
              </Entry>
              <Entry key="CursorEffectBin">
               <CursorEffectBin id="3345"  >
                <CursorEffectKeyframes>
                </CursorEffectKeyframes>
               </CursorEffectBin>
              </Entry>
             </ExtraData>
            </ScreenVMFile>
            <MetaData>
             <entry key="AutoAppliedSmartFocus" val="False"/>
             <entry key="WinSubProjectDisplayName" val=""/>
            </MetaData>
           </UnifiedMedia>
           <UnifiedMedia id="3346"  >
            <AMFile id="3347" start="2168" duration="1590" scalar="1/1" mediaStart="2525/1" mediaDuration="1590/1" trackNumber="1" src="22" channelNumber="0,1" >
             <Parameters>
              <InterpolatingParam id="3348" interp="linr"  time="0/1" value="1" leadInLength="0/1"  name="volume"/>
              <Parameter id="3349"  name="captions"/>
             </Parameters>
             <Attributes>
              <Attribute id="3350" value="" name="ident"/>
              <Attribute id="3351" value="44100" name="sampleRate"/>
              <Attribute id="3352" value="16" name="bitDepth"/>
              <Attribute id="3353" value="1" name="gain"/>
              <Attribute id="3354" value="0" name="mixToMono"/>
             </Attributes>
            </AMFile>
            <ScreenVMFile id="3355" start="2168" duration="1590" scalar="1/1" mediaStart="2525/1" mediaDuration="1590/1" trackNumber="0" src="22" >
             <Transformer>
              <VectorParam id="3356"  name="translation">
               <InterpolatingParam id="3357" interp="linr"  time="-9999999/1" value="0" leadInLength="0/1"  />
               <InterpolatingParam id="3358" interp="linr"  time="-9999999/1" value="0" leadInLength="0/1"  />
               <InterpolatingParam id="3359" interp="linr"  time="-9999999/1" value="0" leadInLength="0/1"  />
              </VectorParam>
              <VectorParam id="3360"  name="rotation">
               <InterpolatingParam id="3361" interp="linr"  time="-9999999/1" value="0" leadInLength="0/1"  />
               <InterpolatingParam id="3362" interp="linr"  time="-9999999/1" value="0" leadInLength="0/1"  />
               <InterpolatingParam id="3363" interp="linr"  time="-9999999/1" value="0" leadInLength="0/1"  />
              </VectorParam>
              <VectorParam id="3364"  name="shear">
               <InterpolatingParam id="3365" interp="linr"  time="-9999999/1" value="0" leadInLength="0/1"  />
               <InterpolatingParam id="3366" interp="linr"  time="-9999999/1" value="0" leadInLength="0/1"  />
               <InterpolatingParam id="3367" interp="linr"  time="-9999999/1" value="0" leadInLength="0/1"  />
              </VectorParam>
              <VectorParam id="3368"  name="scale">
               <InterpolatingParam id="3369" interp="linr"  time="-9999999/1" value="1" leadInLength="0/1"  />
               <InterpolatingParam id="3370" interp="linr"  time="-9999999/1" value="1" leadInLength="0/1"  />
               <InterpolatingParam id="3371" interp="linr"  time="-9999999/1" value="1" leadInLength="0/1"  />
              </VectorParam>
              <VectorParam id="3372"  name="anchor">
               <InterpolatingParam id="3373" interp="linr"  time="0/1" value="0" leadInLength="0/1"  />
               <InterpolatingParam id="3374" interp="linr"  time="0/1" value="0" leadInLength="0/1"  />
               <InterpolatingParam id="3375" interp="linr"  time="0/1" value="0" leadInLength="0/1"  />
              </VectorParam>
             </Transformer>
             <Parameters>
              <VectorParam id="3376"  name="sourceCrop">
               <InterpolatingParam id="3377" interp="linr"  time="0/1" value="0" leadInLength="0/1"  />
               <InterpolatingParam id="3378" interp="linr"  time="0/1" value="0" leadInLength="0/1"  />
               <InterpolatingParam id="3379" interp="linr"  time="0/1" value="0" leadInLength="0/1"  />
               <InterpolatingParam id="3380" interp="linr"  time="0/1" value="0" leadInLength="0/1"  />
              </VectorParam>
              <VectorParam id="3381"  name="geometryCrop">
               <InterpolatingParam id="3382" interp="linr"  time="-9999999/1" value="0" leadInLength="0/1"  />
               <InterpolatingParam id="3383" interp="linr"  time="-9999999/1" value="0" leadInLength="0/1"  />
               <InterpolatingParam id="3384" interp="linr"  time="-9999999/1" value="0" leadInLength="0/1"  />
               <InterpolatingParam id="3385" interp="linr"  time="-9999999/1" value="0" leadInLength="0/1"  />
              </VectorParam>
              <InterpolatingParam id="3386" interp="linr"  time="-9999999/1" value="1" leadInLength="0/1"  name="opacity"/>
              <InterpolatingParam id="3387" interp="linr"  time="0/1" value="0" leadInLength="0/1"  name="cursorOpacity"/>
              <InterpolatingParam id="3388" interp="linr"  time="0/1" value="0" leadInLength="0/1"  name="cursorScale"/>
             </Parameters>
             <Attributes>
              <Attribute id="3389" value="" name="ident"/>
             </Attributes>
             <ExtraData>
              <Entry key="ZoomPanBin">
               <ZoomPanBin id="3390"  >
                <ZoomPanKeyframes>
                 <ZoomPanKeyframe id="3391" timeRangeEnd="-9999999/1" timeRangeDuration="0/1" interpolaterName=""  />
                </ZoomPanKeyframes>
               </ZoomPanBin>
              </Entry>
              <Entry key="CursorEffectBin">
               <CursorEffectBin id="3392"  >
                <CursorEffectKeyframes>
                </CursorEffectKeyframes>
               </CursorEffectBin>
              </Entry>
             </ExtraData>
            </ScreenVMFile>
            <MetaData>
             <entry key="AutoAppliedSmartFocus" val="False"/>
             <entry key="WinSubProjectDisplayName" val=""/>
            </MetaData>
           </UnifiedMedia>
           <UnifiedMedia id="3393"  >
            <AMFile id="3394" start="3758" duration="426" scalar="1/1" mediaStart="5138/1" mediaDuration="426/1" trackNumber="1" src="22" channelNumber="0,1" >
             <Parameters>
              <InterpolatingParam id="3395" interp="linr"  time="0/1" value="1" leadInLength="0/1"  name="volume"/>
              <Parameter id="3396"  name="captions"/>
             </Parameters>
             <Attributes>
              <Attribute id="3397" value="" name="ident"/>
              <Attribute id="3398" value="44100" name="sampleRate"/>
              <Attribute id="3399" value="16" name="bitDepth"/>
              <Attribute id="3400" value="1" name="gain"/>
              <Attribute id="3401" value="0" name="mixToMono"/>
             </Attributes>
            </AMFile>
            <ScreenVMFile id="3402" start="3758" duration="426" scalar="1/1" mediaStart="5138/1" mediaDuration="426/1" trackNumber="0" src="22" >
             <Transformer>
              <VectorParam id="3403"  name="translation">
               <InterpolatingParam id="3404" interp="linr"  time="-9999999/1" value="0" leadInLength="0/1"  />
               <InterpolatingParam id="3405" interp="linr"  time="-9999999/1" value="0" leadInLength="0/1"  />
               <InterpolatingParam id="3406" interp="linr"  time="-9999999/1" value="0" leadInLength="0/1"  />
              </VectorParam>
              <VectorParam id="3407"  name="rotation">
               <InterpolatingParam id="3408" interp="linr"  time="-9999999/1" value="0" leadInLength="0/1"  />
               <InterpolatingParam id="3409" interp="linr"  time="-9999999/1" value="0" leadInLength="0/1"  />
               <InterpolatingParam id="3410" interp="linr"  time="-9999999/1" value="0" leadInLength="0/1"  />
              </VectorParam>
              <VectorParam id="3411"  name="shear">
               <InterpolatingParam id="3412" interp="linr"  time="-9999999/1" value="0" leadInLength="0/1"  />
               <InterpolatingParam id="3413" interp="linr"  time="-9999999/1" value="0" leadInLength="0/1"  />
               <InterpolatingParam id="3414" interp="linr"  time="-9999999/1" value="0" leadInLength="0/1"  />
              </VectorParam>
              <VectorParam id="3415"  name="scale">
               <InterpolatingParam id="3416" interp="linr"  time="-9999999/1" value="1" leadInLength="0/1"  />
               <InterpolatingParam id="3417" interp="linr"  time="-9999999/1" value="1" leadInLength="0/1"  />
               <InterpolatingParam id="3418" interp="linr"  time="-9999999/1" value="1" leadInLength="0/1"  />
              </VectorParam>
              <VectorParam id="3419"  name="anchor">
               <InterpolatingParam id="3420" interp="linr"  time="0/1" value="0" leadInLength="0/1"  />
               <InterpolatingParam id="3421" interp="linr"  time="0/1" value="0" leadInLength="0/1"  />
               <InterpolatingParam id="3422" interp="linr"  time="0/1" value="0" leadInLength="0/1"  />
              </VectorParam>
             </Transformer>
             <Parameters>
              <VectorParam id="3423"  name="sourceCrop">
               <InterpolatingParam id="3424" interp="linr"  time="0/1" value="0" leadInLength="0/1"  />
               <InterpolatingParam id="3425" interp="linr"  time="0/1" value="0" leadInLength="0/1"  />
               <InterpolatingParam id="3426" interp="linr"  time="0/1" value="0" leadInLength="0/1"  />
               <InterpolatingParam id="3427" interp="linr"  time="0/1" value="0" leadInLength="0/1"  />
              </VectorParam>
              <VectorParam id="3428"  name="geometryCrop">
               <InterpolatingParam id="3429" interp="linr"  time="-9999999/1" value="0" leadInLength="0/1"  />
               <InterpolatingParam id="3430" interp="linr"  time="-9999999/1" value="0" leadInLength="0/1"  />
               <InterpolatingParam id="3431" interp="linr"  time="-9999999/1" value="0" leadInLength="0/1"  />
               <InterpolatingParam id="3432" interp="linr"  time="-9999999/1" value="0" leadInLength="0/1"  />
              </VectorParam>
              <InterpolatingParam id="3433" interp="linr"  time="-9999999/1" value="1" leadInLength="0/1"  name="opacity"/>
              <InterpolatingParam id="3434" interp="linr"  time="0/1" value="0" leadInLength="0/1"  name="cursorOpacity"/>
              <InterpolatingParam id="3435" interp="linr"  time="0/1" value="0" leadInLength="0/1"  name="cursorScale"/>
             </Parameters>
             <Attributes>
              <Attribute id="3436" value="" name="ident"/>
             </Attributes>
             <ExtraData>
              <Entry key="ZoomPanBin">
               <ZoomPanBin id="3437"  >
                <ZoomPanKeyframes>
                 <ZoomPanKeyframe id="3438" timeRangeEnd="-9999999/1" timeRangeDuration="0/1" interpolaterName=""  />
                </ZoomPanKeyframes>
               </ZoomPanBin>
              </Entry>
              <Entry key="CursorEffectBin">
               <CursorEffectBin id="3439"  >
                <CursorEffectKeyframes>
                </CursorEffectKeyframes>
               </CursorEffectBin>
              </Entry>
             </ExtraData>
            </ScreenVMFile>
            <MetaData>
             <entry key="AutoAppliedSmartFocus" val="False"/>
             <entry key="WinSubProjectDisplayName" val=""/>
            </MetaData>
           </UnifiedMedia>
          </Medias>
         </GenericTrack>
        </StitchedMedia>
        <StitchedMedia id="3440" start="33539" duration="2621" scalar="1/1" mediaStart="0/1" mediaDuration="2621/1" minMediaStart="0/1" >
         <Transformer>
          <VectorParam id="3441"  name="translation">
           <InterpolatingParam id="3442" interp="linr"  time="-9999999/1" value="0" leadInLength="0/1"  />
           <InterpolatingParam id="3443" interp="linr"  time="-9999999/1" value="0" leadInLength="0/1"  />
           <InterpolatingParam id="3444" interp="linr"  time="-9999999/1" value="0" leadInLength="0/1"  />
          </VectorParam>
          <VectorParam id="3445"  name="rotation">
           <InterpolatingParam id="3446" interp="linr"  time="-9999999/1" value="0" leadInLength="0/1"  />
           <InterpolatingParam id="3447" interp="linr"  time="-9999999/1" value="0" leadInLength="0/1"  />
           <InterpolatingParam id="3448" interp="linr"  time="-9999999/1" value="0" leadInLength="0/1"  />
          </VectorParam>
          <VectorParam id="3449"  name="shear">
           <InterpolatingParam id="3450" interp="linr"  time="-9999999/1" value="0" leadInLength="0/1"  />
           <InterpolatingParam id="3451" interp="linr"  time="-9999999/1" value="0" leadInLength="0/1"  />
           <InterpolatingParam id="3452" interp="linr"  time="-9999999/1" value="0" leadInLength="0/1"  />
          </VectorParam>
          <VectorParam id="3453"  name="scale">
           <InterpolatingParam id="3454" interp="linr"  time="-9999999/1" value="0.80000000000000004" leadInLength="0/1"  />
           <InterpolatingParam id="3455" interp="linr"  time="-9999999/1" value="0.80000000000000004" leadInLength="0/1"  />
           <InterpolatingParam id="3456" interp="linr"  time="-9999999/1" value="1" leadInLength="0/1"  />
          </VectorParam>
          <VectorParam id="3457"  name="anchor">
           <InterpolatingParam id="3458" interp="linr"  time="0/1" value="0" leadInLength="0/1"  />
           <InterpolatingParam id="3459" interp="linr"  time="0/1" value="0" leadInLength="0/1"  />
           <InterpolatingParam id="3460" interp="linr"  time="0/1" value="0" leadInLength="0/1"  />
          </VectorParam>
         </Transformer>
         <Parameters>
          <VectorParam id="3461"  name="sourceCrop">
           <InterpolatingParam id="3462" interp="linr"  time="0/1" value="0" leadInLength="0/1"  />
           <InterpolatingParam id="3463" interp="linr"  time="0/1" value="0" leadInLength="0/1"  />
           <InterpolatingParam id="3464" interp="linr"  time="0/1" value="0" leadInLength="0/1"  />
           <InterpolatingParam id="3465" interp="linr"  time="0/1" value="0" leadInLength="0/1"  />
          </VectorParam>
          <VectorParam id="3466"  name="geometryCrop">
           <InterpolatingParam id="3467" interp="linr"  time="-9999999/1" value="0" leadInLength="0/1"  />
           <InterpolatingParam id="3468" interp="linr"  time="-9999999/1" value="0" leadInLength="0/1"  />
           <InterpolatingParam id="3469" interp="linr"  time="-9999999/1" value="0" leadInLength="0/1"  />
           <InterpolatingParam id="3470" interp="linr"  time="-9999999/1" value="0" leadInLength="0/1"  />
          </VectorParam>
          <InterpolatingParam id="3471" interp="linr"  time="-9999999/1" value="1" leadInLength="0/1"  name="opacity"/>
          <InterpolatingParam id="3472" interp="linr"  time="0/1" value="1" leadInLength="0/1"  name="cursorOpacity"/>
          <InterpolatingParam id="3473" interp="linr"  time="0/1" value="1" leadInLength="0/1"  name="cursorScale"/>
          <InterpolatingParam id="3474" interp="linr"  time="0/1" value="1" leadInLength="0/1"  name="volume"/>
          <Parameter id="3475"  name="captions"/>
         </Parameters>
         <Effects>
          <GenericEffect id="3476" name = "CursorBaseEffectName" >
           <Parameters>
           <InterpolatingParam id="3477" interp="linr"  time="-9999999/1" value="1" leadInLength="0/1"   name="cursorSize"/>
           <InterpolatingParam id="3478" interp="linr"  time="-9999999/1" value="0" leadInLength="0/1"   name="highlightBlurRadius"/>
           <InterpolatingParam id="3479" interp="linr"  time="-9999999/1" value="0" leadInLength="0/1"   name="highlightColorBlue"/>
           <InterpolatingParam id="3480" interp="linr"  time="-9999999/1" value="255" leadInLength="0/1"   name="highlightColorGreen"/>
           <InterpolatingParam id="3481" interp="linr"  time="-9999999/1" value="255" leadInLength="0/1"   name="highlightColorRed"/>
           <InterpolatingParam id="3482" interp="linr"  time="-9999999/1" value="5" leadInLength="0/1"   name="highlightFeatherSize"/>
           <InterpolatingParam id="3483" interp="linr"  time="-9999999/1" value="2" leadInLength="0/1"   name="highlightMagnification"/>
           <InterpolatingParam id="3484" interp="linr"  time="-9999999/1" value="1" leadInLength="0/1"   name="highlightOpacity"/>
           <InterpolatingParam id="3485" interp="linr"  time="-9999999/1" value="45" leadInLength="0/1"   name="highlightSize"/>
           <Parameter id="3486"   name="highlightType">
            <Keyframes>
            <Keyframe id="3487"  time="-9999999/1" value="0" leadInLength="0/1"  />
            </Keyframes>
           </Parameter>
           <InterpolatingParam id="3488" interp="linr"  time="-9999999/1" value="0" leadInLength="0/1"   name="leftClickColorBlue"/>
           <InterpolatingParam id="3489" interp="linr"  time="-9999999/1" value="0" leadInLength="0/1"   name="leftClickColorGreen"/>
           <InterpolatingParam id="3490" interp="linr"  time="-9999999/1" value="255" leadInLength="0/1"   name="leftClickColorRed"/>
           <InterpolatingParam id="3491" interp="linr"  time="-9999999/1" value="0.80000000000000004" leadInLength="0/1"   name="leftClickDuration"/>
           <InterpolatingParam id="3492" interp="linr"  time="-9999999/1" value="20" leadInLength="0/1"   name="leftClickSize"/>
           <Parameter id="3493"   name="leftClickSoundFilename">
            <Keyframes>
            <Keyframe id="3494"  time="-9999999/1" value="" leadInLength="0/1"  />
            </Keyframes>
           </Parameter>
           <InterpolatingParam id="3495" interp="linr"  time="-9999999/1" value="1" leadInLength="0/1"   name="leftClickSoundVolume"/>
           <Parameter id="3496"   name="leftClickType">
            <Keyframes>
            <Keyframe id="3497"  time="-9999999/1" value="0" leadInLength="0/1"  />
            </Keyframes>
           </Parameter>
           <InterpolatingParam id="3498" interp="linr"  time="-9999999/1" value="1" leadInLength="0/1"   name="opacity"/>
           <InterpolatingParam id="3499" interp="linr"  time="-9999999/1" value="255" leadInLength="0/1"   name="rightClickColorBlue"/>
           <InterpolatingParam id="3500" interp="linr"  time="-9999999/1" value="0" leadInLength="0/1"   name="rightClickColorGreen"/>
           <InterpolatingParam id="3501" interp="linr"  time="-9999999/1" value="0" leadInLength="0/1"   name="rightClickColorRed"/>
           <InterpolatingParam id="3502" interp="linr"  time="-9999999/1" value="0.80000000000000004" leadInLength="0/1"   name="rightClickDuration"/>
           <InterpolatingParam id="3503" interp="linr"  time="-9999999/1" value="20" leadInLength="0/1"   name="rightClickSize"/>
           <Parameter id="3504"   name="rightClickSoundFilename">
            <Keyframes>
            <Keyframe id="3505"  time="-9999999/1" value="" leadInLength="0/1"  />
            </Keyframes>
           </Parameter>
           <InterpolatingParam id="3506" interp="linr"  time="-9999999/1" value="1" leadInLength="0/1"   name="rightClickSoundVolume"/>
           <Parameter id="3507"   name="rightClickType">
            <Keyframes>
            <Keyframe id="3508"  time="-9999999/1" value="0" leadInLength="0/1"  />
            </Keyframes>
           </Parameter>
           </Parameters>
           <MetaData>
            <entry key="effectIndex" val="0"/>
           </MetaData>
          </GenericEffect>
         </Effects>
         <Attributes>
          <Attribute id="3509" value="" name="ident"/>
          <Attribute id="3510" value="0" name="mixToMono"/>
         </Attributes>
         <MetaData>
          <entry key="AutoAppliedSmartFocus" val="False"/>
          <entry key="WinSubProjectDisplayName" val=""/>
         </MetaData>
         <ExtraData>
          <Entry key="ZoomPanBin">
           <ZoomPanBin id="3511"  >
            <ZoomPanKeyframes>
             <ZoomPanKeyframe id="3512" timeRangeEnd="-9999999/1" timeRangeDuration="0/1" interpolaterName=""  />
            </ZoomPanKeyframes>
           </ZoomPanBin>
          </Entry>
          <Entry key="CursorEffectBin">
           <CursorEffectBin id="3513"  >
            <CursorEffectKeyframes>
             <CursorEffectKeyframe id="3514" timeRangeEnd="-9999999/1" timeRangeDuration="0/1" interpolaterName=""  />
            </CursorEffectKeyframes>
           </CursorEffectBin>
          </Entry>
         </ExtraData>
         <GenericTrack id="3515"  >
          <Attributes>
           <Attribute id="3516" value="" name="ident"/>
           <Attribute id="3517" value="0" name="audioMuted"/>
           <Attribute id="3518" value="0" name="videoHidden"/>
          </Attributes>
          <MetaData>
           <entry key="IsLocked" val="False"/>
           <entry key="WinTrackHeight" val="0"/>
          </MetaData>
          <Medias>
           <UnifiedMedia id="3519"  >
            <AMFile id="3520" start="0" duration="550" scalar="1/1" mediaStart="0/1" mediaDuration="550/1" trackNumber="1" src="23" channelNumber="0,1" >
             <Parameters>
              <InterpolatingParam id="3521" interp="linr"  time="0/1" value="1" leadInLength="0/1"  name="volume"/>
              <Parameter id="3522"  name="captions"/>
             </Parameters>
             <Attributes>
              <Attribute id="3523" value="" name="ident"/>
              <Attribute id="3524" value="44100" name="sampleRate"/>
              <Attribute id="3525" value="16" name="bitDepth"/>
              <Attribute id="3526" value="1" name="gain"/>
              <Attribute id="3527" value="0" name="mixToMono"/>
             </Attributes>
            </AMFile>
            <ScreenVMFile id="3528" start="0" duration="550" scalar="1/1" mediaStart="0/1" mediaDuration="550/1" trackNumber="0" src="23" >
             <Transformer>
              <VectorParam id="3529"  name="translation">
               <InterpolatingParam id="3530" interp="linr"  time="-9999999/1" value="0" leadInLength="0/1"  />
               <InterpolatingParam id="3531" interp="linr"  time="-9999999/1" value="0" leadInLength="0/1"  />
               <InterpolatingParam id="3532" interp="linr"  time="-9999999/1" value="0" leadInLength="0/1"  />
              </VectorParam>
              <VectorParam id="3533"  name="rotation">
               <InterpolatingParam id="3534" interp="linr"  time="-9999999/1" value="0" leadInLength="0/1"  />
               <InterpolatingParam id="3535" interp="linr"  time="-9999999/1" value="0" leadInLength="0/1"  />
               <InterpolatingParam id="3536" interp="linr"  time="-9999999/1" value="0" leadInLength="0/1"  />
              </VectorParam>
              <VectorParam id="3537"  name="shear">
               <InterpolatingParam id="3538" interp="linr"  time="-9999999/1" value="0" leadInLength="0/1"  />
               <InterpolatingParam id="3539" interp="linr"  time="-9999999/1" value="0" leadInLength="0/1"  />
               <InterpolatingParam id="3540" interp="linr"  time="-9999999/1" value="0" leadInLength="0/1"  />
              </VectorParam>
              <VectorParam id="3541"  name="scale">
               <InterpolatingParam id="3542" interp="linr"  time="-9999999/1" value="1" leadInLength="0/1"  />
               <InterpolatingParam id="3543" interp="linr"  time="-9999999/1" value="1" leadInLength="0/1"  />
               <InterpolatingParam id="3544" interp="linr"  time="-9999999/1" value="1" leadInLength="0/1"  />
              </VectorParam>
              <VectorParam id="3545"  name="anchor">
               <InterpolatingParam id="3546" interp="linr"  time="0/1" value="0" leadInLength="0/1"  />
               <InterpolatingParam id="3547" interp="linr"  time="0/1" value="0" leadInLength="0/1"  />
               <InterpolatingParam id="3548" interp="linr"  time="0/1" value="0" leadInLength="0/1"  />
              </VectorParam>
             </Transformer>
             <Parameters>
              <VectorParam id="3549"  name="sourceCrop">
               <InterpolatingParam id="3550" interp="linr"  time="0/1" value="0" leadInLength="0/1"  />
               <InterpolatingParam id="3551" interp="linr"  time="0/1" value="0" leadInLength="0/1"  />
               <InterpolatingParam id="3552" interp="linr"  time="0/1" value="0" leadInLength="0/1"  />
               <InterpolatingParam id="3553" interp="linr"  time="0/1" value="0" leadInLength="0/1"  />
              </VectorParam>
              <VectorParam id="3554"  name="geometryCrop">
               <InterpolatingParam id="3555" interp="linr"  time="-9999999/1" value="0" leadInLength="0/1"  />
               <InterpolatingParam id="3556" interp="linr"  time="-9999999/1" value="0" leadInLength="0/1"  />
               <InterpolatingParam id="3557" interp="linr"  time="-9999999/1" value="0" leadInLength="0/1"  />
               <InterpolatingParam id="3558" interp="linr"  time="-9999999/1" value="0" leadInLength="0/1"  />
              </VectorParam>
              <InterpolatingParam id="3559" interp="linr"  time="-9999999/1" value="1" leadInLength="0/1"  name="opacity"/>
              <InterpolatingParam id="3560" interp="linr"  time="0/1" value="0" leadInLength="0/1"  name="cursorOpacity"/>
              <InterpolatingParam id="3561" interp="linr"  time="0/1" value="0" leadInLength="0/1"  name="cursorScale"/>
             </Parameters>
             <Attributes>
              <Attribute id="3562" value="" name="ident"/>
             </Attributes>
             <ExtraData>
              <Entry key="ZoomPanBin">
               <ZoomPanBin id="3563"  >
                <ZoomPanKeyframes>
                 <ZoomPanKeyframe id="3564" timeRangeEnd="-9999999/1" timeRangeDuration="0/1" interpolaterName=""  />
                </ZoomPanKeyframes>
               </ZoomPanBin>
              </Entry>
              <Entry key="CursorEffectBin">
               <CursorEffectBin id="3565"  >
                <CursorEffectKeyframes>
                </CursorEffectKeyframes>
               </CursorEffectBin>
              </Entry>
             </ExtraData>
            </ScreenVMFile>
            <MetaData>
             <entry key="AutoAppliedSmartFocus" val="False"/>
             <entry key="WinSubProjectDisplayName" val=""/>
            </MetaData>
           </UnifiedMedia>
           <UnifiedMedia id="3566"  >
            <AMFile id="3567" start="550" duration="1529" scalar="1/1" mediaStart="851/1" mediaDuration="1529/1" trackNumber="1" src="23" channelNumber="0,1" >
             <Parameters>
              <InterpolatingParam id="3568" interp="linr"  time="0/1" value="1" leadInLength="0/1"  name="volume"/>
              <Parameter id="3569"  name="captions"/>
             </Parameters>
             <Attributes>
              <Attribute id="3570" value="" name="ident"/>
              <Attribute id="3571" value="44100" name="sampleRate"/>
              <Attribute id="3572" value="16" name="bitDepth"/>
              <Attribute id="3573" value="1" name="gain"/>
              <Attribute id="3574" value="0" name="mixToMono"/>
             </Attributes>
            </AMFile>
            <ScreenVMFile id="3575" start="550" duration="1529" scalar="1/1" mediaStart="851/1" mediaDuration="1529/1" trackNumber="0" src="23" >
             <Transformer>
              <VectorParam id="3576"  name="translation">
               <InterpolatingParam id="3577" interp="linr"  time="-9999999/1" value="0" leadInLength="0/1"  />
               <InterpolatingParam id="3578" interp="linr"  time="-9999999/1" value="0" leadInLength="0/1"  />
               <InterpolatingParam id="3579" interp="linr"  time="-9999999/1" value="0" leadInLength="0/1"  />
              </VectorParam>
              <VectorParam id="3580"  name="rotation">
               <InterpolatingParam id="3581" interp="linr"  time="-9999999/1" value="0" leadInLength="0/1"  />
               <InterpolatingParam id="3582" interp="linr"  time="-9999999/1" value="0" leadInLength="0/1"  />
               <InterpolatingParam id="3583" interp="linr"  time="-9999999/1" value="0" leadInLength="0/1"  />
              </VectorParam>
              <VectorParam id="3584"  name="shear">
               <InterpolatingParam id="3585" interp="linr"  time="-9999999/1" value="0" leadInLength="0/1"  />
               <InterpolatingParam id="3586" interp="linr"  time="-9999999/1" value="0" leadInLength="0/1"  />
               <InterpolatingParam id="3587" interp="linr"  time="-9999999/1" value="0" leadInLength="0/1"  />
              </VectorParam>
              <VectorParam id="3588"  name="scale">
               <InterpolatingParam id="3589" interp="linr"  time="-9999999/1" value="1" leadInLength="0/1"  />
               <InterpolatingParam id="3590" interp="linr"  time="-9999999/1" value="1" leadInLength="0/1"  />
               <InterpolatingParam id="3591" interp="linr"  time="-9999999/1" value="1" leadInLength="0/1"  />
              </VectorParam>
              <VectorParam id="3592"  name="anchor">
               <InterpolatingParam id="3593" interp="linr"  time="0/1" value="0" leadInLength="0/1"  />
               <InterpolatingParam id="3594" interp="linr"  time="0/1" value="0" leadInLength="0/1"  />
               <InterpolatingParam id="3595" interp="linr"  time="0/1" value="0" leadInLength="0/1"  />
              </VectorParam>
             </Transformer>
             <Parameters>
              <VectorParam id="3596"  name="sourceCrop">
               <InterpolatingParam id="3597" interp="linr"  time="0/1" value="0" leadInLength="0/1"  />
               <InterpolatingParam id="3598" interp="linr"  time="0/1" value="0" leadInLength="0/1"  />
               <InterpolatingParam id="3599" interp="linr"  time="0/1" value="0" leadInLength="0/1"  />
               <InterpolatingParam id="3600" interp="linr"  time="0/1" value="0" leadInLength="0/1"  />
              </VectorParam>
              <VectorParam id="3601"  name="geometryCrop">
               <InterpolatingParam id="3602" interp="linr"  time="-9999999/1" value="0" leadInLength="0/1"  />
               <InterpolatingParam id="3603" interp="linr"  time="-9999999/1" value="0" leadInLength="0/1"  />
               <InterpolatingParam id="3604" interp="linr"  time="-9999999/1" value="0" leadInLength="0/1"  />
               <InterpolatingParam id="3605" interp="linr"  time="-9999999/1" value="0" leadInLength="0/1"  />
              </VectorParam>
              <InterpolatingParam id="3606" interp="linr"  time="-9999999/1" value="1" leadInLength="0/1"  name="opacity"/>
              <InterpolatingParam id="3607" interp="linr"  time="0/1" value="0" leadInLength="0/1"  name="cursorOpacity"/>
              <InterpolatingParam id="3608" interp="linr"  time="0/1" value="0" leadInLength="0/1"  name="cursorScale"/>
             </Parameters>
             <Attributes>
              <Attribute id="3609" value="" name="ident"/>
             </Attributes>
             <ExtraData>
              <Entry key="ZoomPanBin">
               <ZoomPanBin id="3610"  >
                <ZoomPanKeyframes>
                 <ZoomPanKeyframe id="3611" timeRangeEnd="-9999999/1" timeRangeDuration="0/1" interpolaterName=""  />
                </ZoomPanKeyframes>
               </ZoomPanBin>
              </Entry>
              <Entry key="CursorEffectBin">
               <CursorEffectBin id="3612"  >
                <CursorEffectKeyframes>
                </CursorEffectKeyframes>
               </CursorEffectBin>
              </Entry>
             </ExtraData>
            </ScreenVMFile>
            <MetaData>
             <entry key="AutoAppliedSmartFocus" val="False"/>
             <entry key="WinSubProjectDisplayName" val=""/>
            </MetaData>
           </UnifiedMedia>
           <UnifiedMedia id="3613"  >
            <AMFile id="3614" start="2079" duration="828" scalar="1/1" mediaStart="2651/1" mediaDuration="828/1" trackNumber="1" src="23" channelNumber="0,1" >
             <Parameters>
              <InterpolatingParam id="3615" interp="linr"  time="0/1" value="1" leadInLength="0/1"  name="volume"/>
              <Parameter id="3616"  name="captions"/>
             </Parameters>
             <Attributes>
              <Attribute id="3617" value="" name="ident"/>
              <Attribute id="3618" value="44100" name="sampleRate"/>
              <Attribute id="3619" value="16" name="bitDepth"/>
              <Attribute id="3620" value="1" name="gain"/>
              <Attribute id="3621" value="0" name="mixToMono"/>
             </Attributes>
            </AMFile>
            <ScreenVMFile id="3622" start="2079" duration="828" scalar="1/1" mediaStart="2651/1" mediaDuration="828/1" trackNumber="0" src="23" >
             <Transformer>
              <VectorParam id="3623"  name="translation">
               <InterpolatingParam id="3624" interp="linr"  time="-9999999/1" value="0" leadInLength="0/1"  />
               <InterpolatingParam id="3625" interp="linr"  time="-9999999/1" value="0" leadInLength="0/1"  />
               <InterpolatingParam id="3626" interp="linr"  time="-9999999/1" value="0" leadInLength="0/1"  />
              </VectorParam>
              <VectorParam id="3627"  name="rotation">
               <InterpolatingParam id="3628" interp="linr"  time="-9999999/1" value="0" leadInLength="0/1"  />
               <InterpolatingParam id="3629" interp="linr"  time="-9999999/1" value="0" leadInLength="0/1"  />
               <InterpolatingParam id="3630" interp="linr"  time="-9999999/1" value="0" leadInLength="0/1"  />
              </VectorParam>
              <VectorParam id="3631"  name="shear">
               <InterpolatingParam id="3632" interp="linr"  time="-9999999/1" value="0" leadInLength="0/1"  />
               <InterpolatingParam id="3633" interp="linr"  time="-9999999/1" value="0" leadInLength="0/1"  />
               <InterpolatingParam id="3634" interp="linr"  time="-9999999/1" value="0" leadInLength="0/1"  />
              </VectorParam>
              <VectorParam id="3635"  name="scale">
               <InterpolatingParam id="3636" interp="linr"  time="-9999999/1" value="1" leadInLength="0/1"  />
               <InterpolatingParam id="3637" interp="linr"  time="-9999999/1" value="1" leadInLength="0/1"  />
               <InterpolatingParam id="3638" interp="linr"  time="-9999999/1" value="1" leadInLength="0/1"  />
              </VectorParam>
              <VectorParam id="3639"  name="anchor">
               <InterpolatingParam id="3640" interp="linr"  time="0/1" value="0" leadInLength="0/1"  />
               <InterpolatingParam id="3641" interp="linr"  time="0/1" value="0" leadInLength="0/1"  />
               <InterpolatingParam id="3642" interp="linr"  time="0/1" value="0" leadInLength="0/1"  />
              </VectorParam>
             </Transformer>
             <Parameters>
              <VectorParam id="3643"  name="sourceCrop">
               <InterpolatingParam id="3644" interp="linr"  time="0/1" value="0" leadInLength="0/1"  />
               <InterpolatingParam id="3645" interp="linr"  time="0/1" value="0" leadInLength="0/1"  />
               <InterpolatingParam id="3646" interp="linr"  time="0/1" value="0" leadInLength="0/1"  />
               <InterpolatingParam id="3647" interp="linr"  time="0/1" value="0" leadInLength="0/1"  />
              </VectorParam>
              <VectorParam id="3648"  name="geometryCrop">
               <InterpolatingParam id="3649" interp="linr"  time="-9999999/1" value="0" leadInLength="0/1"  />
               <InterpolatingParam id="3650" interp="linr"  time="-9999999/1" value="0" leadInLength="0/1"  />
               <InterpolatingParam id="3651" interp="linr"  time="-9999999/1" value="0" leadInLength="0/1"  />
               <InterpolatingParam id="3652" interp="linr"  time="-9999999/1" value="0" leadInLength="0/1"  />
              </VectorParam>
              <InterpolatingParam id="3653" interp="linr"  time="-9999999/1" value="1" leadInLength="0/1"  name="opacity"/>
              <InterpolatingParam id="3654" interp="linr"  time="0/1" value="0" leadInLength="0/1"  name="cursorOpacity"/>
              <InterpolatingParam id="3655" interp="linr"  time="0/1" value="0" leadInLength="0/1"  name="cursorScale"/>
             </Parameters>
             <Attributes>
              <Attribute id="3656" value="" name="ident"/>
             </Attributes>
             <ExtraData>
              <Entry key="ZoomPanBin">
               <ZoomPanBin id="3657"  >
                <ZoomPanKeyframes>
                 <ZoomPanKeyframe id="3658" timeRangeEnd="-9999999/1" timeRangeDuration="0/1" interpolaterName=""  />
                </ZoomPanKeyframes>
               </ZoomPanBin>
              </Entry>
              <Entry key="CursorEffectBin">
               <CursorEffectBin id="3659"  >
                <CursorEffectKeyframes>
                </CursorEffectKeyframes>
               </CursorEffectBin>
              </Entry>
             </ExtraData>
            </ScreenVMFile>
            <MetaData>
             <entry key="AutoAppliedSmartFocus" val="False"/>
             <entry key="WinSubProjectDisplayName" val=""/>
            </MetaData>
           </UnifiedMedia>
          </Medias>
         </GenericTrack>
        </StitchedMedia>
        <StitchedMedia id="3660" start="36160" duration="3208" scalar="1/1" mediaStart="0/1" mediaDuration="3208/1" minMediaStart="0/1" >
         <Transformer>
          <VectorParam id="3661"  name="translation">
           <InterpolatingParam id="3662" interp="linr"  time="-9999999/1" value="0" leadInLength="0/1"  />
           <InterpolatingParam id="3663" interp="linr"  time="-9999999/1" value="0" leadInLength="0/1"  />
           <InterpolatingParam id="3664" interp="linr"  time="-9999999/1" value="0" leadInLength="0/1"  />
          </VectorParam>
          <VectorParam id="3665"  name="rotation">
           <InterpolatingParam id="3666" interp="linr"  time="-9999999/1" value="0" leadInLength="0/1"  />
           <InterpolatingParam id="3667" interp="linr"  time="-9999999/1" value="0" leadInLength="0/1"  />
           <InterpolatingParam id="3668" interp="linr"  time="-9999999/1" value="0" leadInLength="0/1"  />
          </VectorParam>
          <VectorParam id="3669"  name="shear">
           <InterpolatingParam id="3670" interp="linr"  time="-9999999/1" value="0" leadInLength="0/1"  />
           <InterpolatingParam id="3671" interp="linr"  time="-9999999/1" value="0" leadInLength="0/1"  />
           <InterpolatingParam id="3672" interp="linr"  time="-9999999/1" value="0" leadInLength="0/1"  />
          </VectorParam>
          <VectorParam id="3673"  name="scale">
           <InterpolatingParam id="3674" interp="linr"  time="-9999999/1" value="0.80000000000000004" leadInLength="0/1"  />
           <InterpolatingParam id="3675" interp="linr"  time="-9999999/1" value="0.80000000000000004" leadInLength="0/1"  />
           <InterpolatingParam id="3676" interp="linr"  time="-9999999/1" value="1" leadInLength="0/1"  />
          </VectorParam>
          <VectorParam id="3677"  name="anchor">
           <InterpolatingParam id="3678" interp="linr"  time="0/1" value="0" leadInLength="0/1"  />
           <InterpolatingParam id="3679" interp="linr"  time="0/1" value="0" leadInLength="0/1"  />
           <InterpolatingParam id="3680" interp="linr"  time="0/1" value="0" leadInLength="0/1"  />
          </VectorParam>
         </Transformer>
         <Parameters>
          <VectorParam id="3681"  name="sourceCrop">
           <InterpolatingParam id="3682" interp="linr"  time="0/1" value="0" leadInLength="0/1"  />
           <InterpolatingParam id="3683" interp="linr"  time="0/1" value="0" leadInLength="0/1"  />
           <InterpolatingParam id="3684" interp="linr"  time="0/1" value="0" leadInLength="0/1"  />
           <InterpolatingParam id="3685" interp="linr"  time="0/1" value="0" leadInLength="0/1"  />
          </VectorParam>
          <VectorParam id="3686"  name="geometryCrop">
           <InterpolatingParam id="3687" interp="linr"  time="-9999999/1" value="0" leadInLength="0/1"  />
           <InterpolatingParam id="3688" interp="linr"  time="-9999999/1" value="0" leadInLength="0/1"  />
           <InterpolatingParam id="3689" interp="linr"  time="-9999999/1" value="0" leadInLength="0/1"  />
           <InterpolatingParam id="3690" interp="linr"  time="-9999999/1" value="0" leadInLength="0/1"  />
          </VectorParam>
          <InterpolatingParam id="3691" interp="linr"  time="-9999999/1" value="1" leadInLength="0/1"  name="opacity"/>
          <InterpolatingParam id="3692" interp="linr"  time="0/1" value="1" leadInLength="0/1"  name="cursorOpacity"/>
          <InterpolatingParam id="3693" interp="linr"  time="0/1" value="1" leadInLength="0/1"  name="cursorScale"/>
          <InterpolatingParam id="3694" interp="linr"  time="0/1" value="1" leadInLength="0/1"  name="volume"/>
          <Parameter id="3695"  name="captions"/>
         </Parameters>
         <Effects>
          <GenericEffect id="3696" name = "CursorBaseEffectName" >
           <Parameters>
           <InterpolatingParam id="3697" interp="linr"  time="-9999999/1" value="1" leadInLength="0/1"   name="cursorSize"/>
           <InterpolatingParam id="3698" interp="linr"  time="-9999999/1" value="0" leadInLength="0/1"   name="highlightBlurRadius"/>
           <InterpolatingParam id="3699" interp="linr"  time="-9999999/1" value="0" leadInLength="0/1"   name="highlightColorBlue"/>
           <InterpolatingParam id="3700" interp="linr"  time="-9999999/1" value="255" leadInLength="0/1"   name="highlightColorGreen"/>
           <InterpolatingParam id="3701" interp="linr"  time="-9999999/1" value="255" leadInLength="0/1"   name="highlightColorRed"/>
           <InterpolatingParam id="3702" interp="linr"  time="-9999999/1" value="5" leadInLength="0/1"   name="highlightFeatherSize"/>
           <InterpolatingParam id="3703" interp="linr"  time="-9999999/1" value="2" leadInLength="0/1"   name="highlightMagnification"/>
           <InterpolatingParam id="3704" interp="linr"  time="-9999999/1" value="1" leadInLength="0/1"   name="highlightOpacity"/>
           <InterpolatingParam id="3705" interp="linr"  time="-9999999/1" value="45" leadInLength="0/1"   name="highlightSize"/>
           <Parameter id="3706"   name="highlightType">
            <Keyframes>
            <Keyframe id="3707"  time="-9999999/1" value="0" leadInLength="0/1"  />
            </Keyframes>
           </Parameter>
           <InterpolatingParam id="3708" interp="linr"  time="-9999999/1" value="0" leadInLength="0/1"   name="leftClickColorBlue"/>
           <InterpolatingParam id="3709" interp="linr"  time="-9999999/1" value="0" leadInLength="0/1"   name="leftClickColorGreen"/>
           <InterpolatingParam id="3710" interp="linr"  time="-9999999/1" value="255" leadInLength="0/1"   name="leftClickColorRed"/>
           <InterpolatingParam id="3711" interp="linr"  time="-9999999/1" value="0.80000000000000004" leadInLength="0/1"   name="leftClickDuration"/>
           <InterpolatingParam id="3712" interp="linr"  time="-9999999/1" value="20" leadInLength="0/1"   name="leftClickSize"/>
           <Parameter id="3713"   name="leftClickSoundFilename">
            <Keyframes>
            <Keyframe id="3714"  time="-9999999/1" value="" leadInLength="0/1"  />
            </Keyframes>
           </Parameter>
           <InterpolatingParam id="3715" interp="linr"  time="-9999999/1" value="1" leadInLength="0/1"   name="leftClickSoundVolume"/>
           <Parameter id="3716"   name="leftClickType">
            <Keyframes>
            <Keyframe id="3717"  time="-9999999/1" value="0" leadInLength="0/1"  />
            </Keyframes>
           </Parameter>
           <InterpolatingParam id="3718" interp="linr"  time="-9999999/1" value="1" leadInLength="0/1"   name="opacity"/>
           <InterpolatingParam id="3719" interp="linr"  time="-9999999/1" value="255" leadInLength="0/1"   name="rightClickColorBlue"/>
           <InterpolatingParam id="3720" interp="linr"  time="-9999999/1" value="0" leadInLength="0/1"   name="rightClickColorGreen"/>
           <InterpolatingParam id="3721" interp="linr"  time="-9999999/1" value="0" leadInLength="0/1"   name="rightClickColorRed"/>
           <InterpolatingParam id="3722" interp="linr"  time="-9999999/1" value="0.80000000000000004" leadInLength="0/1"   name="rightClickDuration"/>
           <InterpolatingParam id="3723" interp="linr"  time="-9999999/1" value="20" leadInLength="0/1"   name="rightClickSize"/>
           <Parameter id="3724"   name="rightClickSoundFilename">
            <Keyframes>
            <Keyframe id="3725"  time="-9999999/1" value="" leadInLength="0/1"  />
            </Keyframes>
           </Parameter>
           <InterpolatingParam id="3726" interp="linr"  time="-9999999/1" value="1" leadInLength="0/1"   name="rightClickSoundVolume"/>
           <Parameter id="3727"   name="rightClickType">
            <Keyframes>
            <Keyframe id="3728"  time="-9999999/1" value="0" leadInLength="0/1"  />
            </Keyframes>
           </Parameter>
           </Parameters>
           <MetaData>
            <entry key="effectIndex" val="0"/>
           </MetaData>
          </GenericEffect>
         </Effects>
         <Attributes>
          <Attribute id="3729" value="" name="ident"/>
          <Attribute id="3730" value="0" name="mixToMono"/>
         </Attributes>
         <MetaData>
          <entry key="AutoAppliedSmartFocus" val="False"/>
          <entry key="WinSubProjectDisplayName" val=""/>
         </MetaData>
         <ExtraData>
          <Entry key="ZoomPanBin">
           <ZoomPanBin id="3731"  >
            <ZoomPanKeyframes>
             <ZoomPanKeyframe id="3732" timeRangeEnd="-9999999/1" timeRangeDuration="0/1" interpolaterName=""  />
            </ZoomPanKeyframes>
           </ZoomPanBin>
          </Entry>
          <Entry key="CursorEffectBin">
           <CursorEffectBin id="3733"  >
            <CursorEffectKeyframes>
             <CursorEffectKeyframe id="3734" timeRangeEnd="-9999999/1" timeRangeDuration="0/1" interpolaterName=""  />
            </CursorEffectKeyframes>
           </CursorEffectBin>
          </Entry>
         </ExtraData>
         <GenericTrack id="3735"  >
          <Attributes>
           <Attribute id="3736" value="" name="ident"/>
           <Attribute id="3737" value="0" name="audioMuted"/>
           <Attribute id="3738" value="0" name="videoHidden"/>
          </Attributes>
          <MetaData>
           <entry key="IsLocked" val="False"/>
           <entry key="WinTrackHeight" val="0"/>
          </MetaData>
          <Medias>
           <UnifiedMedia id="3739"  >
            <AMFile id="3740" start="0" duration="626" scalar="1/1" mediaStart="0/1" mediaDuration="626/1" trackNumber="1" src="24" channelNumber="0,1" >
             <Parameters>
              <InterpolatingParam id="3741" interp="linr"  time="0/1" value="1" leadInLength="0/1"  name="volume"/>
              <Parameter id="3742"  name="captions"/>
             </Parameters>
             <Attributes>
              <Attribute id="3743" value="" name="ident"/>
              <Attribute id="3744" value="44100" name="sampleRate"/>
              <Attribute id="3745" value="16" name="bitDepth"/>
              <Attribute id="3746" value="1" name="gain"/>
              <Attribute id="3747" value="0" name="mixToMono"/>
             </Attributes>
            </AMFile>
            <ScreenVMFile id="3748" start="0" duration="626" scalar="1/1" mediaStart="0/1" mediaDuration="626/1" trackNumber="0" src="24" >
             <Transformer>
              <VectorParam id="3749"  name="translation">
               <InterpolatingParam id="3750" interp="linr"  time="-9999999/1" value="0" leadInLength="0/1"  />
               <InterpolatingParam id="3751" interp="linr"  time="-9999999/1" value="0" leadInLength="0/1"  />
               <InterpolatingParam id="3752" interp="linr"  time="-9999999/1" value="0" leadInLength="0/1"  />
              </VectorParam>
              <VectorParam id="3753"  name="rotation">
               <InterpolatingParam id="3754" interp="linr"  time="-9999999/1" value="0" leadInLength="0/1"  />
               <InterpolatingParam id="3755" interp="linr"  time="-9999999/1" value="0" leadInLength="0/1"  />
               <InterpolatingParam id="3756" interp="linr"  time="-9999999/1" value="0" leadInLength="0/1"  />
              </VectorParam>
              <VectorParam id="3757"  name="shear">
               <InterpolatingParam id="3758" interp="linr"  time="-9999999/1" value="0" leadInLength="0/1"  />
               <InterpolatingParam id="3759" interp="linr"  time="-9999999/1" value="0" leadInLength="0/1"  />
               <InterpolatingParam id="3760" interp="linr"  time="-9999999/1" value="0" leadInLength="0/1"  />
              </VectorParam>
              <VectorParam id="3761"  name="scale">
               <InterpolatingParam id="3762" interp="linr"  time="-9999999/1" value="1" leadInLength="0/1"  />
               <InterpolatingParam id="3763" interp="linr"  time="-9999999/1" value="1" leadInLength="0/1"  />
               <InterpolatingParam id="3764" interp="linr"  time="-9999999/1" value="1" leadInLength="0/1"  />
              </VectorParam>
              <VectorParam id="3765"  name="anchor">
               <InterpolatingParam id="3766" interp="linr"  time="0/1" value="0" leadInLength="0/1"  />
               <InterpolatingParam id="3767" interp="linr"  time="0/1" value="0" leadInLength="0/1"  />
               <InterpolatingParam id="3768" interp="linr"  time="0/1" value="0" leadInLength="0/1"  />
              </VectorParam>
             </Transformer>
             <Parameters>
              <VectorParam id="3769"  name="sourceCrop">
               <InterpolatingParam id="3770" interp="linr"  time="0/1" value="0" leadInLength="0/1"  />
               <InterpolatingParam id="3771" interp="linr"  time="0/1" value="0" leadInLength="0/1"  />
               <InterpolatingParam id="3772" interp="linr"  time="0/1" value="0" leadInLength="0/1"  />
               <InterpolatingParam id="3773" interp="linr"  time="0/1" value="0" leadInLength="0/1"  />
              </VectorParam>
              <VectorParam id="3774"  name="geometryCrop">
               <InterpolatingParam id="3775" interp="linr"  time="-9999999/1" value="0" leadInLength="0/1"  />
               <InterpolatingParam id="3776" interp="linr"  time="-9999999/1" value="0" leadInLength="0/1"  />
               <InterpolatingParam id="3777" interp="linr"  time="-9999999/1" value="0" leadInLength="0/1"  />
               <InterpolatingParam id="3778" interp="linr"  time="-9999999/1" value="0" leadInLength="0/1"  />
              </VectorParam>
              <InterpolatingParam id="3779" interp="linr"  time="-9999999/1" value="1" leadInLength="0/1"  name="opacity"/>
              <InterpolatingParam id="3780" interp="linr"  time="0/1" value="0" leadInLength="0/1"  name="cursorOpacity"/>
              <InterpolatingParam id="3781" interp="linr"  time="0/1" value="0" leadInLength="0/1"  name="cursorScale"/>
             </Parameters>
             <Attributes>
              <Attribute id="3782" value="" name="ident"/>
             </Attributes>
             <ExtraData>
              <Entry key="ZoomPanBin">
               <ZoomPanBin id="3783"  >
                <ZoomPanKeyframes>
                 <ZoomPanKeyframe id="3784" timeRangeEnd="-9999999/1" timeRangeDuration="0/1" interpolaterName=""  />
                </ZoomPanKeyframes>
               </ZoomPanBin>
              </Entry>
              <Entry key="CursorEffectBin">
               <CursorEffectBin id="3785"  >
                <CursorEffectKeyframes>
                </CursorEffectKeyframes>
               </CursorEffectBin>
              </Entry>
             </ExtraData>
            </ScreenVMFile>
            <MetaData>
             <entry key="AutoAppliedSmartFocus" val="False"/>
             <entry key="WinSubProjectDisplayName" val=""/>
            </MetaData>
           </UnifiedMedia>
           <UnifiedMedia id="3786"  >
            <AMFile id="3787" start="626" duration="2582" scalar="1/1" mediaStart="1004/1" mediaDuration="2582/1" trackNumber="1" src="24" channelNumber="0,1" >
             <Parameters>
              <InterpolatingParam id="3788" interp="linr"  time="0/1" value="1" leadInLength="0/1"  name="volume"/>
              <Parameter id="3789"  name="captions"/>
             </Parameters>
             <Attributes>
              <Attribute id="3790" value="" name="ident"/>
              <Attribute id="3791" value="44100" name="sampleRate"/>
              <Attribute id="3792" value="16" name="bitDepth"/>
              <Attribute id="3793" value="1" name="gain"/>
              <Attribute id="3794" value="0" name="mixToMono"/>
             </Attributes>
            </AMFile>
            <ScreenVMFile id="3795" start="626" duration="2582" scalar="1/1" mediaStart="1004/1" mediaDuration="2582/1" trackNumber="0" src="24" >
             <Transformer>
              <VectorParam id="3796"  name="translation">
               <InterpolatingParam id="3797" interp="linr"  time="-9999999/1" value="0" leadInLength="0/1"  />
               <InterpolatingParam id="3798" interp="linr"  time="-9999999/1" value="0" leadInLength="0/1"  />
               <InterpolatingParam id="3799" interp="linr"  time="-9999999/1" value="0" leadInLength="0/1"  />
              </VectorParam>
              <VectorParam id="3800"  name="rotation">
               <InterpolatingParam id="3801" interp="linr"  time="-9999999/1" value="0" leadInLength="0/1"  />
               <InterpolatingParam id="3802" interp="linr"  time="-9999999/1" value="0" leadInLength="0/1"  />
               <InterpolatingParam id="3803" interp="linr"  time="-9999999/1" value="0" leadInLength="0/1"  />
              </VectorParam>
              <VectorParam id="3804"  name="shear">
               <InterpolatingParam id="3805" interp="linr"  time="-9999999/1" value="0" leadInLength="0/1"  />
               <InterpolatingParam id="3806" interp="linr"  time="-9999999/1" value="0" leadInLength="0/1"  />
               <InterpolatingParam id="3807" interp="linr"  time="-9999999/1" value="0" leadInLength="0/1"  />
              </VectorParam>
              <VectorParam id="3808"  name="scale">
               <InterpolatingParam id="3809" interp="linr"  time="-9999999/1" value="1" leadInLength="0/1"  />
               <InterpolatingParam id="3810" interp="linr"  time="-9999999/1" value="1" leadInLength="0/1"  />
               <InterpolatingParam id="3811" interp="linr"  time="-9999999/1" value="1" leadInLength="0/1"  />
              </VectorParam>
              <VectorParam id="3812"  name="anchor">
               <InterpolatingParam id="3813" interp="linr"  time="0/1" value="0" leadInLength="0/1"  />
               <InterpolatingParam id="3814" interp="linr"  time="0/1" value="0" leadInLength="0/1"  />
               <InterpolatingParam id="3815" interp="linr"  time="0/1" value="0" leadInLength="0/1"  />
              </VectorParam>
             </Transformer>
             <Parameters>
              <VectorParam id="3816"  name="sourceCrop">
               <InterpolatingParam id="3817" interp="linr"  time="0/1" value="0" leadInLength="0/1"  />
               <InterpolatingParam id="3818" interp="linr"  time="0/1" value="0" leadInLength="0/1"  />
               <InterpolatingParam id="3819" interp="linr"  time="0/1" value="0" leadInLength="0/1"  />
               <InterpolatingParam id="3820" interp="linr"  time="0/1" value="0" leadInLength="0/1"  />
              </VectorParam>
              <VectorParam id="3821"  name="geometryCrop">
               <InterpolatingParam id="3822" interp="linr"  time="-9999999/1" value="0" leadInLength="0/1"  />
               <InterpolatingParam id="3823" interp="linr"  time="-9999999/1" value="0" leadInLength="0/1"  />
               <InterpolatingParam id="3824" interp="linr"  time="-9999999/1" value="0" leadInLength="0/1"  />
               <InterpolatingParam id="3825" interp="linr"  time="-9999999/1" value="0" leadInLength="0/1"  />
              </VectorParam>
              <InterpolatingParam id="3826" interp="linr"  time="-9999999/1" value="1" leadInLength="0/1"  name="opacity"/>
              <InterpolatingParam id="3827" interp="linr"  time="0/1" value="0" leadInLength="0/1"  name="cursorOpacity"/>
              <InterpolatingParam id="3828" interp="linr"  time="0/1" value="0" leadInLength="0/1"  name="cursorScale"/>
             </Parameters>
             <Attributes>
              <Attribute id="3829" value="" name="ident"/>
             </Attributes>
             <ExtraData>
              <Entry key="ZoomPanBin">
               <ZoomPanBin id="3830"  >
                <ZoomPanKeyframes>
                 <ZoomPanKeyframe id="3831" timeRangeEnd="-9999999/1" timeRangeDuration="0/1" interpolaterName=""  />
                </ZoomPanKeyframes>
               </ZoomPanBin>
              </Entry>
              <Entry key="CursorEffectBin">
               <CursorEffectBin id="3832"  >
                <CursorEffectKeyframes>
                </CursorEffectKeyframes>
               </CursorEffectBin>
              </Entry>
             </ExtraData>
            </ScreenVMFile>
            <MetaData>
             <entry key="AutoAppliedSmartFocus" val="False"/>
             <entry key="WinSubProjectDisplayName" val=""/>
            </MetaData>
           </UnifiedMedia>
          </Medias>
         </GenericTrack>
        </StitchedMedia>
        <StitchedMedia id="3833" start="39368" duration="4912" scalar="1/1" mediaStart="0/1" mediaDuration="4912/1" minMediaStart="0/1" >
         <Transformer>
          <VectorParam id="3834"  name="translation">
           <InterpolatingParam id="3835" interp="linr"  time="-9999999/1" value="0" leadInLength="0/1"  />
           <InterpolatingParam id="3836" interp="linr"  time="-9999999/1" value="0" leadInLength="0/1"  />
           <InterpolatingParam id="3837" interp="linr"  time="-9999999/1" value="0" leadInLength="0/1"  />
          </VectorParam>
          <VectorParam id="3838"  name="rotation">
           <InterpolatingParam id="3839" interp="linr"  time="-9999999/1" value="0" leadInLength="0/1"  />
           <InterpolatingParam id="3840" interp="linr"  time="-9999999/1" value="0" leadInLength="0/1"  />
           <InterpolatingParam id="3841" interp="linr"  time="-9999999/1" value="0" leadInLength="0/1"  />
          </VectorParam>
          <VectorParam id="3842"  name="shear">
           <InterpolatingParam id="3843" interp="linr"  time="-9999999/1" value="0" leadInLength="0/1"  />
           <InterpolatingParam id="3844" interp="linr"  time="-9999999/1" value="0" leadInLength="0/1"  />
           <InterpolatingParam id="3845" interp="linr"  time="-9999999/1" value="0" leadInLength="0/1"  />
          </VectorParam>
          <VectorParam id="3846"  name="scale">
           <InterpolatingParam id="3847" interp="linr"  time="-9999999/1" value="0.80000000000000004" leadInLength="0/1"  />
           <InterpolatingParam id="3848" interp="linr"  time="-9999999/1" value="0.80000000000000004" leadInLength="0/1"  />
           <InterpolatingParam id="3849" interp="linr"  time="-9999999/1" value="1" leadInLength="0/1"  />
          </VectorParam>
          <VectorParam id="3850"  name="anchor">
           <InterpolatingParam id="3851" interp="linr"  time="0/1" value="0" leadInLength="0/1"  />
           <InterpolatingParam id="3852" interp="linr"  time="0/1" value="0" leadInLength="0/1"  />
           <InterpolatingParam id="3853" interp="linr"  time="0/1" value="0" leadInLength="0/1"  />
          </VectorParam>
         </Transformer>
         <Parameters>
          <VectorParam id="3854"  name="sourceCrop">
           <InterpolatingParam id="3855" interp="linr"  time="0/1" value="0" leadInLength="0/1"  />
           <InterpolatingParam id="3856" interp="linr"  time="0/1" value="0" leadInLength="0/1"  />
           <InterpolatingParam id="3857" interp="linr"  time="0/1" value="0" leadInLength="0/1"  />
           <InterpolatingParam id="3858" interp="linr"  time="0/1" value="0" leadInLength="0/1"  />
          </VectorParam>
          <VectorParam id="3859"  name="geometryCrop">
           <InterpolatingParam id="3860" interp="linr"  time="-9999999/1" value="0" leadInLength="0/1"  />
           <InterpolatingParam id="3861" interp="linr"  time="-9999999/1" value="0" leadInLength="0/1"  />
           <InterpolatingParam id="3862" interp="linr"  time="-9999999/1" value="0" leadInLength="0/1"  />
           <InterpolatingParam id="3863" interp="linr"  time="-9999999/1" value="0" leadInLength="0/1"  />
          </VectorParam>
          <InterpolatingParam id="3864" interp="linr"  time="-9999999/1" value="1" leadInLength="0/1"  name="opacity"/>
          <InterpolatingParam id="3865" interp="linr"  time="0/1" value="1" leadInLength="0/1"  name="cursorOpacity"/>
          <InterpolatingParam id="3866" interp="linr"  time="0/1" value="1" leadInLength="0/1"  name="cursorScale"/>
          <InterpolatingParam id="3867" interp="linr"  time="0/1" value="1" leadInLength="0/1"  name="volume"/>
          <Parameter id="3868"  name="captions"/>
         </Parameters>
         <Effects>
          <GenericEffect id="3869" name = "CursorBaseEffectName" >
           <Parameters>
           <InterpolatingParam id="3870" interp="linr"  time="-9999999/1" value="1" leadInLength="0/1"   name="cursorSize"/>
           <InterpolatingParam id="3871" interp="linr"  time="-9999999/1" value="0" leadInLength="0/1"   name="highlightBlurRadius"/>
           <InterpolatingParam id="3872" interp="linr"  time="-9999999/1" value="0" leadInLength="0/1"   name="highlightColorBlue"/>
           <InterpolatingParam id="3873" interp="linr"  time="-9999999/1" value="255" leadInLength="0/1"   name="highlightColorGreen"/>
           <InterpolatingParam id="3874" interp="linr"  time="-9999999/1" value="255" leadInLength="0/1"   name="highlightColorRed"/>
           <InterpolatingParam id="3875" interp="linr"  time="-9999999/1" value="5" leadInLength="0/1"   name="highlightFeatherSize"/>
           <InterpolatingParam id="3876" interp="linr"  time="-9999999/1" value="2" leadInLength="0/1"   name="highlightMagnification"/>
           <InterpolatingParam id="3877" interp="linr"  time="-9999999/1" value="1" leadInLength="0/1"   name="highlightOpacity"/>
           <InterpolatingParam id="3878" interp="linr"  time="-9999999/1" value="45" leadInLength="0/1"   name="highlightSize"/>
           <Parameter id="3879"   name="highlightType">
            <Keyframes>
            <Keyframe id="3880"  time="-9999999/1" value="0" leadInLength="0/1"  />
            </Keyframes>
           </Parameter>
           <InterpolatingParam id="3881" interp="linr"  time="-9999999/1" value="0" leadInLength="0/1"   name="leftClickColorBlue"/>
           <InterpolatingParam id="3882" interp="linr"  time="-9999999/1" value="0" leadInLength="0/1"   name="leftClickColorGreen"/>
           <InterpolatingParam id="3883" interp="linr"  time="-9999999/1" value="255" leadInLength="0/1"   name="leftClickColorRed"/>
           <InterpolatingParam id="3884" interp="linr"  time="-9999999/1" value="0.80000000000000004" leadInLength="0/1"   name="leftClickDuration"/>
           <InterpolatingParam id="3885" interp="linr"  time="-9999999/1" value="20" leadInLength="0/1"   name="leftClickSize"/>
           <Parameter id="3886"   name="leftClickSoundFilename">
            <Keyframes>
            <Keyframe id="3887"  time="-9999999/1" value="" leadInLength="0/1"  />
            </Keyframes>
           </Parameter>
           <InterpolatingParam id="3888" interp="linr"  time="-9999999/1" value="1" leadInLength="0/1"   name="leftClickSoundVolume"/>
           <Parameter id="3889"   name="leftClickType">
            <Keyframes>
            <Keyframe id="3890"  time="-9999999/1" value="0" leadInLength="0/1"  />
            </Keyframes>
           </Parameter>
           <InterpolatingParam id="3891" interp="linr"  time="-9999999/1" value="1" leadInLength="0/1"   name="opacity"/>
           <InterpolatingParam id="3892" interp="linr"  time="-9999999/1" value="255" leadInLength="0/1"   name="rightClickColorBlue"/>
           <InterpolatingParam id="3893" interp="linr"  time="-9999999/1" value="0" leadInLength="0/1"   name="rightClickColorGreen"/>
           <InterpolatingParam id="3894" interp="linr"  time="-9999999/1" value="0" leadInLength="0/1"   name="rightClickColorRed"/>
           <InterpolatingParam id="3895" interp="linr"  time="-9999999/1" value="0.80000000000000004" leadInLength="0/1"   name="rightClickDuration"/>
           <InterpolatingParam id="3896" interp="linr"  time="-9999999/1" value="20" leadInLength="0/1"   name="rightClickSize"/>
           <Parameter id="3897"   name="rightClickSoundFilename">
            <Keyframes>
            <Keyframe id="3898"  time="-9999999/1" value="" leadInLength="0/1"  />
            </Keyframes>
           </Parameter>
           <InterpolatingParam id="3899" interp="linr"  time="-9999999/1" value="1" leadInLength="0/1"   name="rightClickSoundVolume"/>
           <Parameter id="3900"   name="rightClickType">
            <Keyframes>
            <Keyframe id="3901"  time="-9999999/1" value="0" leadInLength="0/1"  />
            </Keyframes>
           </Parameter>
           </Parameters>
           <MetaData>
            <entry key="effectIndex" val="0"/>
           </MetaData>
          </GenericEffect>
         </Effects>
         <Attributes>
          <Attribute id="3902" value="" name="ident"/>
          <Attribute id="3903" value="0" name="mixToMono"/>
         </Attributes>
         <MetaData>
          <entry key="AutoAppliedSmartFocus" val="False"/>
          <entry key="WinSubProjectDisplayName" val=""/>
         </MetaData>
         <ExtraData>
          <Entry key="ZoomPanBin">
           <ZoomPanBin id="3904"  >
            <ZoomPanKeyframes>
             <ZoomPanKeyframe id="3905" timeRangeEnd="-9999999/1" timeRangeDuration="0/1" interpolaterName=""  />
            </ZoomPanKeyframes>
           </ZoomPanBin>
          </Entry>
          <Entry key="CursorEffectBin">
           <CursorEffectBin id="3906"  >
            <CursorEffectKeyframes>
             <CursorEffectKeyframe id="3907" timeRangeEnd="-9999999/1" timeRangeDuration="0/1" interpolaterName=""  />
            </CursorEffectKeyframes>
           </CursorEffectBin>
          </Entry>
         </ExtraData>
         <GenericTrack id="3908"  >
          <Attributes>
           <Attribute id="3909" value="" name="ident"/>
           <Attribute id="3910" value="0" name="audioMuted"/>
           <Attribute id="3911" value="0" name="videoHidden"/>
          </Attributes>
          <MetaData>
           <entry key="IsLocked" val="False"/>
           <entry key="WinTrackHeight" val="0"/>
          </MetaData>
          <Medias>
           <UnifiedMedia id="3912"  >
            <AMFile id="3913" start="0" duration="3836" scalar="1/1" mediaStart="0/1" mediaDuration="3836/1" trackNumber="1" src="25" channelNumber="0,1" >
             <Parameters>
              <InterpolatingParam id="3914" interp="linr"  time="0/1" value="1" leadInLength="0/1"  name="volume"/>
              <Parameter id="3915"  name="captions"/>
             </Parameters>
             <Attributes>
              <Attribute id="3916" value="" name="ident"/>
              <Attribute id="3917" value="44100" name="sampleRate"/>
              <Attribute id="3918" value="16" name="bitDepth"/>
              <Attribute id="3919" value="1" name="gain"/>
              <Attribute id="3920" value="0" name="mixToMono"/>
             </Attributes>
            </AMFile>
            <ScreenVMFile id="3921" start="0" duration="3836" scalar="1/1" mediaStart="0/1" mediaDuration="3836/1" trackNumber="0" src="25" >
             <Transformer>
              <VectorParam id="3922"  name="translation">
               <InterpolatingParam id="3923" interp="linr"  time="-9999999/1" value="0" leadInLength="0/1"  />
               <InterpolatingParam id="3924" interp="linr"  time="-9999999/1" value="0" leadInLength="0/1"  />
               <InterpolatingParam id="3925" interp="linr"  time="-9999999/1" value="0" leadInLength="0/1"  />
              </VectorParam>
              <VectorParam id="3926"  name="rotation">
               <InterpolatingParam id="3927" interp="linr"  time="-9999999/1" value="0" leadInLength="0/1"  />
               <InterpolatingParam id="3928" interp="linr"  time="-9999999/1" value="0" leadInLength="0/1"  />
               <InterpolatingParam id="3929" interp="linr"  time="-9999999/1" value="0" leadInLength="0/1"  />
              </VectorParam>
              <VectorParam id="3930"  name="shear">
               <InterpolatingParam id="3931" interp="linr"  time="-9999999/1" value="0" leadInLength="0/1"  />
               <InterpolatingParam id="3932" interp="linr"  time="-9999999/1" value="0" leadInLength="0/1"  />
               <InterpolatingParam id="3933" interp="linr"  time="-9999999/1" value="0" leadInLength="0/1"  />
              </VectorParam>
              <VectorParam id="3934"  name="scale">
               <InterpolatingParam id="3935" interp="linr"  time="-9999999/1" value="1" leadInLength="0/1"  />
               <InterpolatingParam id="3936" interp="linr"  time="-9999999/1" value="1" leadInLength="0/1"  />
               <InterpolatingParam id="3937" interp="linr"  time="-9999999/1" value="1" leadInLength="0/1"  />
              </VectorParam>
              <VectorParam id="3938"  name="anchor">
               <InterpolatingParam id="3939" interp="linr"  time="0/1" value="0" leadInLength="0/1"  />
               <InterpolatingParam id="3940" interp="linr"  time="0/1" value="0" leadInLength="0/1"  />
               <InterpolatingParam id="3941" interp="linr"  time="0/1" value="0" leadInLength="0/1"  />
              </VectorParam>
             </Transformer>
             <Parameters>
              <VectorParam id="3942"  name="sourceCrop">
               <InterpolatingParam id="3943" interp="linr"  time="0/1" value="0" leadInLength="0/1"  />
               <InterpolatingParam id="3944" interp="linr"  time="0/1" value="0" leadInLength="0/1"  />
               <InterpolatingParam id="3945" interp="linr"  time="0/1" value="0" leadInLength="0/1"  />
               <InterpolatingParam id="3946" interp="linr"  time="0/1" value="0" leadInLength="0/1"  />
              </VectorParam>
              <VectorParam id="3947"  name="geometryCrop">
               <InterpolatingParam id="3948" interp="linr"  time="-9999999/1" value="0" leadInLength="0/1"  />
               <InterpolatingParam id="3949" interp="linr"  time="-9999999/1" value="0" leadInLength="0/1"  />
               <InterpolatingParam id="3950" interp="linr"  time="-9999999/1" value="0" leadInLength="0/1"  />
               <InterpolatingParam id="3951" interp="linr"  time="-9999999/1" value="0" leadInLength="0/1"  />
              </VectorParam>
              <InterpolatingParam id="3952" interp="linr"  time="-9999999/1" value="1" leadInLength="0/1"  name="opacity"/>
              <InterpolatingParam id="3953" interp="linr"  time="0/1" value="0" leadInLength="0/1"  name="cursorOpacity"/>
              <InterpolatingParam id="3954" interp="linr"  time="0/1" value="0" leadInLength="0/1"  name="cursorScale"/>
             </Parameters>
             <Attributes>
              <Attribute id="3955" value="" name="ident"/>
             </Attributes>
             <ExtraData>
              <Entry key="ZoomPanBin">
               <ZoomPanBin id="3956"  >
                <ZoomPanKeyframes>
                 <ZoomPanKeyframe id="3957" timeRangeEnd="-9999999/1" timeRangeDuration="0/1" interpolaterName=""  />
                </ZoomPanKeyframes>
               </ZoomPanBin>
              </Entry>
              <Entry key="CursorEffectBin">
               <CursorEffectBin id="3958"  >
                <CursorEffectKeyframes>
                </CursorEffectKeyframes>
               </CursorEffectBin>
              </Entry>
             </ExtraData>
            </ScreenVMFile>
            <MetaData>
             <entry key="AutoAppliedSmartFocus" val="False"/>
             <entry key="WinSubProjectDisplayName" val=""/>
            </MetaData>
           </UnifiedMedia>
           <UnifiedMedia id="3959"  >
            <AMFile id="3960" start="3836" duration="107" scalar="1/1" mediaStart="4177/1" mediaDuration="107/1" trackNumber="1" src="25" channelNumber="0,1" >
             <Parameters>
              <InterpolatingParam id="3961" interp="linr"  time="0/1" value="1" leadInLength="0/1"  name="volume"/>
              <Parameter id="3962"  name="captions"/>
             </Parameters>
             <Attributes>
              <Attribute id="3963" value="" name="ident"/>
              <Attribute id="3964" value="44100" name="sampleRate"/>
              <Attribute id="3965" value="16" name="bitDepth"/>
              <Attribute id="3966" value="1" name="gain"/>
              <Attribute id="3967" value="0" name="mixToMono"/>
             </Attributes>
            </AMFile>
            <ScreenVMFile id="3968" start="3836" duration="107" scalar="1/1" mediaStart="4177/1" mediaDuration="107/1" trackNumber="0" src="25" >
             <Transformer>
              <VectorParam id="3969"  name="translation">
               <InterpolatingParam id="3970" interp="linr"  time="-9999999/1" value="0" leadInLength="0/1"  />
               <InterpolatingParam id="3971" interp="linr"  time="-9999999/1" value="0" leadInLength="0/1"  />
               <InterpolatingParam id="3972" interp="linr"  time="-9999999/1" value="0" leadInLength="0/1"  />
              </VectorParam>
              <VectorParam id="3973"  name="rotation">
               <InterpolatingParam id="3974" interp="linr"  time="-9999999/1" value="0" leadInLength="0/1"  />
               <InterpolatingParam id="3975" interp="linr"  time="-9999999/1" value="0" leadInLength="0/1"  />
               <InterpolatingParam id="3976" interp="linr"  time="-9999999/1" value="0" leadInLength="0/1"  />
              </VectorParam>
              <VectorParam id="3977"  name="shear">
               <InterpolatingParam id="3978" interp="linr"  time="-9999999/1" value="0" leadInLength="0/1"  />
               <InterpolatingParam id="3979" interp="linr"  time="-9999999/1" value="0" leadInLength="0/1"  />
               <InterpolatingParam id="3980" interp="linr"  time="-9999999/1" value="0" leadInLength="0/1"  />
              </VectorParam>
              <VectorParam id="3981"  name="scale">
               <InterpolatingParam id="3982" interp="linr"  time="-9999999/1" value="1" leadInLength="0/1"  />
               <InterpolatingParam id="3983" interp="linr"  time="-9999999/1" value="1" leadInLength="0/1"  />
               <InterpolatingParam id="3984" interp="linr"  time="-9999999/1" value="1" leadInLength="0/1"  />
              </VectorParam>
              <VectorParam id="3985"  name="anchor">
               <InterpolatingParam id="3986" interp="linr"  time="0/1" value="0" leadInLength="0/1"  />
               <InterpolatingParam id="3987" interp="linr"  time="0/1" value="0" leadInLength="0/1"  />
               <InterpolatingParam id="3988" interp="linr"  time="0/1" value="0" leadInLength="0/1"  />
              </VectorParam>
             </Transformer>
             <Parameters>
              <VectorParam id="3989"  name="sourceCrop">
               <InterpolatingParam id="3990" interp="linr"  time="0/1" value="0" leadInLength="0/1"  />
               <InterpolatingParam id="3991" interp="linr"  time="0/1" value="0" leadInLength="0/1"  />
               <InterpolatingParam id="3992" interp="linr"  time="0/1" value="0" leadInLength="0/1"  />
               <InterpolatingParam id="3993" interp="linr"  time="0/1" value="0" leadInLength="0/1"  />
              </VectorParam>
              <VectorParam id="3994"  name="geometryCrop">
               <InterpolatingParam id="3995" interp="linr"  time="-9999999/1" value="0" leadInLength="0/1"  />
               <InterpolatingParam id="3996" interp="linr"  time="-9999999/1" value="0" leadInLength="0/1"  />
               <InterpolatingParam id="3997" interp="linr"  time="-9999999/1" value="0" leadInLength="0/1"  />
               <InterpolatingParam id="3998" interp="linr"  time="-9999999/1" value="0" leadInLength="0/1"  />
              </VectorParam>
              <InterpolatingParam id="3999" interp="linr"  time="-9999999/1" value="1" leadInLength="0/1"  name="opacity"/>
              <InterpolatingParam id="4000" interp="linr"  time="0/1" value="0" leadInLength="0/1"  name="cursorOpacity"/>
              <InterpolatingParam id="4001" interp="linr"  time="0/1" value="0" leadInLength="0/1"  name="cursorScale"/>
             </Parameters>
             <Attributes>
              <Attribute id="4002" value="" name="ident"/>
             </Attributes>
             <ExtraData>
              <Entry key="ZoomPanBin">
               <ZoomPanBin id="4003"  >
                <ZoomPanKeyframes>
                 <ZoomPanKeyframe id="4004" timeRangeEnd="-9999999/1" timeRangeDuration="0/1" interpolaterName=""  />
                </ZoomPanKeyframes>
               </ZoomPanBin>
              </Entry>
              <Entry key="CursorEffectBin">
               <CursorEffectBin id="4005"  >
                <CursorEffectKeyframes>
                </CursorEffectKeyframes>
               </CursorEffectBin>
              </Entry>
             </ExtraData>
            </ScreenVMFile>
            <MetaData>
             <entry key="AutoAppliedSmartFocus" val="False"/>
             <entry key="WinSubProjectDisplayName" val=""/>
            </MetaData>
           </UnifiedMedia>
           <UnifiedMedia id="4006"  >
            <AMFile id="4007" start="3943" duration="1242" scalar="1/1" mediaStart="6030/1" mediaDuration="1242/1" trackNumber="1" src="25" channelNumber="0,1" >
             <Parameters>
              <InterpolatingParam id="4008" interp="linr"  time="0/1" value="1" leadInLength="0/1"  name="volume"/>
              <Parameter id="4009"  name="captions"/>
             </Parameters>
             <Attributes>
              <Attribute id="4010" value="" name="ident"/>
              <Attribute id="4011" value="44100" name="sampleRate"/>
              <Attribute id="4012" value="16" name="bitDepth"/>
              <Attribute id="4013" value="1" name="gain"/>
              <Attribute id="4014" value="0" name="mixToMono"/>
             </Attributes>
            </AMFile>
            <ScreenVMFile id="4015" start="3943" duration="1242" scalar="1/1" mediaStart="6030/1" mediaDuration="1242/1" trackNumber="0" src="25" >
             <Transformer>
              <VectorParam id="4016"  name="translation">
               <InterpolatingParam id="4017" interp="linr"  time="-9999999/1" value="0" leadInLength="0/1"  />
               <InterpolatingParam id="4018" interp="linr"  time="-9999999/1" value="0" leadInLength="0/1"  />
               <InterpolatingParam id="4019" interp="linr"  time="-9999999/1" value="0" leadInLength="0/1"  />
              </VectorParam>
              <VectorParam id="4020"  name="rotation">
               <InterpolatingParam id="4021" interp="linr"  time="-9999999/1" value="0" leadInLength="0/1"  />
               <InterpolatingParam id="4022" interp="linr"  time="-9999999/1" value="0" leadInLength="0/1"  />
               <InterpolatingParam id="4023" interp="linr"  time="-9999999/1" value="0" leadInLength="0/1"  />
              </VectorParam>
              <VectorParam id="4024"  name="shear">
               <InterpolatingParam id="4025" interp="linr"  time="-9999999/1" value="0" leadInLength="0/1"  />
               <InterpolatingParam id="4026" interp="linr"  time="-9999999/1" value="0" leadInLength="0/1"  />
               <InterpolatingParam id="4027" interp="linr"  time="-9999999/1" value="0" leadInLength="0/1"  />
              </VectorParam>
              <VectorParam id="4028"  name="scale">
               <InterpolatingParam id="4029" interp="linr"  time="-9999999/1" value="1" leadInLength="0/1"  />
               <InterpolatingParam id="4030" interp="linr"  time="-9999999/1" value="1" leadInLength="0/1"  />
               <InterpolatingParam id="4031" interp="linr"  time="-9999999/1" value="1" leadInLength="0/1"  />
              </VectorParam>
              <VectorParam id="4032"  name="anchor">
               <InterpolatingParam id="4033" interp="linr"  time="0/1" value="0" leadInLength="0/1"  />
               <InterpolatingParam id="4034" interp="linr"  time="0/1" value="0" leadInLength="0/1"  />
               <InterpolatingParam id="4035" interp="linr"  time="0/1" value="0" leadInLength="0/1"  />
              </VectorParam>
             </Transformer>
             <Parameters>
              <VectorParam id="4036"  name="sourceCrop">
               <InterpolatingParam id="4037" interp="linr"  time="0/1" value="0" leadInLength="0/1"  />
               <InterpolatingParam id="4038" interp="linr"  time="0/1" value="0" leadInLength="0/1"  />
               <InterpolatingParam id="4039" interp="linr"  time="0/1" value="0" leadInLength="0/1"  />
               <InterpolatingParam id="4040" interp="linr"  time="0/1" value="0" leadInLength="0/1"  />
              </VectorParam>
              <VectorParam id="4041"  name="geometryCrop">
               <InterpolatingParam id="4042" interp="linr"  time="-9999999/1" value="0" leadInLength="0/1"  />
               <InterpolatingParam id="4043" interp="linr"  time="-9999999/1" value="0" leadInLength="0/1"  />
               <InterpolatingParam id="4044" interp="linr"  time="-9999999/1" value="0" leadInLength="0/1"  />
               <InterpolatingParam id="4045" interp="linr"  time="-9999999/1" value="0" leadInLength="0/1"  />
              </VectorParam>
              <InterpolatingParam id="4046" interp="linr"  time="-9999999/1" value="1" leadInLength="0/1"  name="opacity"/>
              <InterpolatingParam id="4047" interp="linr"  time="0/1" value="0" leadInLength="0/1"  name="cursorOpacity"/>
              <InterpolatingParam id="4048" interp="linr"  time="0/1" value="0" leadInLength="0/1"  name="cursorScale"/>
             </Parameters>
             <Attributes>
              <Attribute id="4049" value="" name="ident"/>
             </Attributes>
             <ExtraData>
              <Entry key="ZoomPanBin">
               <ZoomPanBin id="4050"  >
                <ZoomPanKeyframes>
                 <ZoomPanKeyframe id="4051" timeRangeEnd="-9999999/1" timeRangeDuration="0/1" interpolaterName=""  />
                </ZoomPanKeyframes>
               </ZoomPanBin>
              </Entry>
              <Entry key="CursorEffectBin">
               <CursorEffectBin id="4052"  >
                <CursorEffectKeyframes>
                </CursorEffectKeyframes>
               </CursorEffectBin>
              </Entry>
             </ExtraData>
            </ScreenVMFile>
            <MetaData>
             <entry key="AutoAppliedSmartFocus" val="False"/>
             <entry key="WinSubProjectDisplayName" val=""/>
            </MetaData>
           </UnifiedMedia>
          </Medias>
         </GenericTrack>
        </StitchedMedia>
        <StitchedMedia id="4053" start="44280" duration="3014" scalar="1/1" mediaStart="0/1" mediaDuration="3014/1" minMediaStart="0/1" >
         <Transformer>
          <VectorParam id="4054"  name="translation">
           <InterpolatingParam id="4055" interp="linr"  time="-9999999/1" value="0" leadInLength="0/1"  />
           <InterpolatingParam id="4056" interp="linr"  time="-9999999/1" value="0" leadInLength="0/1"  />
           <InterpolatingParam id="4057" interp="linr"  time="-9999999/1" value="0" leadInLength="0/1"  />
          </VectorParam>
          <VectorParam id="4058"  name="rotation">
           <InterpolatingParam id="4059" interp="linr"  time="-9999999/1" value="0" leadInLength="0/1"  />
           <InterpolatingParam id="4060" interp="linr"  time="-9999999/1" value="0" leadInLength="0/1"  />
           <InterpolatingParam id="4061" interp="linr"  time="-9999999/1" value="0" leadInLength="0/1"  />
          </VectorParam>
          <VectorParam id="4062"  name="shear">
           <InterpolatingParam id="4063" interp="linr"  time="-9999999/1" value="0" leadInLength="0/1"  />
           <InterpolatingParam id="4064" interp="linr"  time="-9999999/1" value="0" leadInLength="0/1"  />
           <InterpolatingParam id="4065" interp="linr"  time="-9999999/1" value="0" leadInLength="0/1"  />
          </VectorParam>
          <VectorParam id="4066"  name="scale">
           <InterpolatingParam id="4067" interp="linr"  time="-9999999/1" value="0.80000000000000004" leadInLength="0/1"  />
           <InterpolatingParam id="4068" interp="linr"  time="-9999999/1" value="0.80000000000000004" leadInLength="0/1"  />
           <InterpolatingParam id="4069" interp="linr"  time="-9999999/1" value="1" leadInLength="0/1"  />
          </VectorParam>
          <VectorParam id="4070"  name="anchor">
           <InterpolatingParam id="4071" interp="linr"  time="0/1" value="0" leadInLength="0/1"  />
           <InterpolatingParam id="4072" interp="linr"  time="0/1" value="0" leadInLength="0/1"  />
           <InterpolatingParam id="4073" interp="linr"  time="0/1" value="0" leadInLength="0/1"  />
          </VectorParam>
         </Transformer>
         <Parameters>
          <VectorParam id="4074"  name="sourceCrop">
           <InterpolatingParam id="4075" interp="linr"  time="0/1" value="0" leadInLength="0/1"  />
           <InterpolatingParam id="4076" interp="linr"  time="0/1" value="0" leadInLength="0/1"  />
           <InterpolatingParam id="4077" interp="linr"  time="0/1" value="0" leadInLength="0/1"  />
           <InterpolatingParam id="4078" interp="linr"  time="0/1" value="0" leadInLength="0/1"  />
          </VectorParam>
          <VectorParam id="4079"  name="geometryCrop">
           <InterpolatingParam id="4080" interp="linr"  time="-9999999/1" value="0" leadInLength="0/1"  />
           <InterpolatingParam id="4081" interp="linr"  time="-9999999/1" value="0" leadInLength="0/1"  />
           <InterpolatingParam id="4082" interp="linr"  time="-9999999/1" value="0" leadInLength="0/1"  />
           <InterpolatingParam id="4083" interp="linr"  time="-9999999/1" value="0" leadInLength="0/1"  />
          </VectorParam>
          <InterpolatingParam id="4084" interp="linr"  time="-9999999/1" value="1" leadInLength="0/1"  name="opacity"/>
          <InterpolatingParam id="4085" interp="linr"  time="0/1" value="1" leadInLength="0/1"  name="cursorOpacity"/>
          <InterpolatingParam id="4086" interp="linr"  time="0/1" value="1" leadInLength="0/1"  name="cursorScale"/>
          <InterpolatingParam id="4087" interp="linr"  time="0/1" value="1" leadInLength="0/1"  name="volume"/>
          <Parameter id="4088"  name="captions"/>
         </Parameters>
         <Effects>
          <GenericEffect id="4089" name = "CursorBaseEffectName" >
           <Parameters>
           <InterpolatingParam id="4090" interp="linr"  time="-9999999/1" value="1" leadInLength="0/1"   name="cursorSize"/>
           <InterpolatingParam id="4091" interp="linr"  time="-9999999/1" value="0" leadInLength="0/1"   name="highlightBlurRadius"/>
           <InterpolatingParam id="4092" interp="linr"  time="-9999999/1" value="0" leadInLength="0/1"   name="highlightColorBlue"/>
           <InterpolatingParam id="4093" interp="linr"  time="-9999999/1" value="255" leadInLength="0/1"   name="highlightColorGreen"/>
           <InterpolatingParam id="4094" interp="linr"  time="-9999999/1" value="255" leadInLength="0/1"   name="highlightColorRed"/>
           <InterpolatingParam id="4095" interp="linr"  time="-9999999/1" value="5" leadInLength="0/1"   name="highlightFeatherSize"/>
           <InterpolatingParam id="4096" interp="linr"  time="-9999999/1" value="2" leadInLength="0/1"   name="highlightMagnification"/>
           <InterpolatingParam id="4097" interp="linr"  time="-9999999/1" value="1" leadInLength="0/1"   name="highlightOpacity"/>
           <InterpolatingParam id="4098" interp="linr"  time="-9999999/1" value="45" leadInLength="0/1"   name="highlightSize"/>
           <Parameter id="4099"   name="highlightType">
            <Keyframes>
            <Keyframe id="4100"  time="-9999999/1" value="0" leadInLength="0/1"  />
            </Keyframes>
           </Parameter>
           <InterpolatingParam id="4101" interp="linr"  time="-9999999/1" value="0" leadInLength="0/1"   name="leftClickColorBlue"/>
           <InterpolatingParam id="4102" interp="linr"  time="-9999999/1" value="0" leadInLength="0/1"   name="leftClickColorGreen"/>
           <InterpolatingParam id="4103" interp="linr"  time="-9999999/1" value="255" leadInLength="0/1"   name="leftClickColorRed"/>
           <InterpolatingParam id="4104" interp="linr"  time="-9999999/1" value="0.80000000000000004" leadInLength="0/1"   name="leftClickDuration"/>
           <InterpolatingParam id="4105" interp="linr"  time="-9999999/1" value="20" leadInLength="0/1"   name="leftClickSize"/>
           <Parameter id="4106"   name="leftClickSoundFilename">
            <Keyframes>
            <Keyframe id="4107"  time="-9999999/1" value="" leadInLength="0/1"  />
            </Keyframes>
           </Parameter>
           <InterpolatingParam id="4108" interp="linr"  time="-9999999/1" value="1" leadInLength="0/1"   name="leftClickSoundVolume"/>
           <Parameter id="4109"   name="leftClickType">
            <Keyframes>
            <Keyframe id="4110"  time="-9999999/1" value="0" leadInLength="0/1"  />
            </Keyframes>
           </Parameter>
           <InterpolatingParam id="4111" interp="linr"  time="-9999999/1" value="1" leadInLength="0/1"   name="opacity"/>
           <InterpolatingParam id="4112" interp="linr"  time="-9999999/1" value="255" leadInLength="0/1"   name="rightClickColorBlue"/>
           <InterpolatingParam id="4113" interp="linr"  time="-9999999/1" value="0" leadInLength="0/1"   name="rightClickColorGreen"/>
           <InterpolatingParam id="4114" interp="linr"  time="-9999999/1" value="0" leadInLength="0/1"   name="rightClickColorRed"/>
           <InterpolatingParam id="4115" interp="linr"  time="-9999999/1" value="0.80000000000000004" leadInLength="0/1"   name="rightClickDuration"/>
           <InterpolatingParam id="4116" interp="linr"  time="-9999999/1" value="20" leadInLength="0/1"   name="rightClickSize"/>
           <Parameter id="4117"   name="rightClickSoundFilename">
            <Keyframes>
            <Keyframe id="4118"  time="-9999999/1" value="" leadInLength="0/1"  />
            </Keyframes>
           </Parameter>
           <InterpolatingParam id="4119" interp="linr"  time="-9999999/1" value="1" leadInLength="0/1"   name="rightClickSoundVolume"/>
           <Parameter id="4120"   name="rightClickType">
            <Keyframes>
            <Keyframe id="4121"  time="-9999999/1" value="0" leadInLength="0/1"  />
            </Keyframes>
           </Parameter>
           </Parameters>
           <MetaData>
            <entry key="effectIndex" val="0"/>
           </MetaData>
          </GenericEffect>
         </Effects>
         <Attributes>
          <Attribute id="4122" value="" name="ident"/>
          <Attribute id="4123" value="0" name="mixToMono"/>
         </Attributes>
         <MetaData>
          <entry key="AutoAppliedSmartFocus" val="False"/>
          <entry key="WinSubProjectDisplayName" val=""/>
         </MetaData>
         <ExtraData>
          <Entry key="ZoomPanBin">
           <ZoomPanBin id="4124"  >
            <ZoomPanKeyframes>
             <ZoomPanKeyframe id="4125" timeRangeEnd="-9999999/1" timeRangeDuration="0/1" interpolaterName=""  />
            </ZoomPanKeyframes>
           </ZoomPanBin>
          </Entry>
          <Entry key="CursorEffectBin">
           <CursorEffectBin id="4126"  >
            <CursorEffectKeyframes>
             <CursorEffectKeyframe id="4127" timeRangeEnd="-9999999/1" timeRangeDuration="0/1" interpolaterName=""  />
            </CursorEffectKeyframes>
           </CursorEffectBin>
          </Entry>
         </ExtraData>
         <GenericTrack id="4128"  >
          <Attributes>
           <Attribute id="4129" value="" name="ident"/>
           <Attribute id="4130" value="0" name="audioMuted"/>
           <Attribute id="4131" value="0" name="videoHidden"/>
          </Attributes>
          <MetaData>
           <entry key="IsLocked" val="False"/>
           <entry key="WinTrackHeight" val="0"/>
          </MetaData>
          <Medias>
           <UnifiedMedia id="4132"  >
            <AMFile id="4133" start="0" duration="1252" scalar="1/1" mediaStart="0/1" mediaDuration="1252/1" trackNumber="1" src="26" channelNumber="0,1" >
             <Parameters>
              <InterpolatingParam id="4134" interp="linr"  time="0/1" value="1" leadInLength="0/1"  name="volume"/>
              <Parameter id="4135"  name="captions"/>
             </Parameters>
             <Attributes>
              <Attribute id="4136" value="" name="ident"/>
              <Attribute id="4137" value="44100" name="sampleRate"/>
              <Attribute id="4138" value="16" name="bitDepth"/>
              <Attribute id="4139" value="1" name="gain"/>
              <Attribute id="4140" value="0" name="mixToMono"/>
             </Attributes>
            </AMFile>
            <ScreenVMFile id="4141" start="0" duration="1252" scalar="1/1" mediaStart="0/1" mediaDuration="1252/1" trackNumber="0" src="26" >
             <Transformer>
              <VectorParam id="4142"  name="translation">
               <InterpolatingParam id="4143" interp="linr"  time="-9999999/1" value="0" leadInLength="0/1"  />
               <InterpolatingParam id="4144" interp="linr"  time="-9999999/1" value="0" leadInLength="0/1"  />
               <InterpolatingParam id="4145" interp="linr"  time="-9999999/1" value="0" leadInLength="0/1"  />
              </VectorParam>
              <VectorParam id="4146"  name="rotation">
               <InterpolatingParam id="4147" interp="linr"  time="-9999999/1" value="0" leadInLength="0/1"  />
               <InterpolatingParam id="4148" interp="linr"  time="-9999999/1" value="0" leadInLength="0/1"  />
               <InterpolatingParam id="4149" interp="linr"  time="-9999999/1" value="0" leadInLength="0/1"  />
              </VectorParam>
              <VectorParam id="4150"  name="shear">
               <InterpolatingParam id="4151" interp="linr"  time="-9999999/1" value="0" leadInLength="0/1"  />
               <InterpolatingParam id="4152" interp="linr"  time="-9999999/1" value="0" leadInLength="0/1"  />
               <InterpolatingParam id="4153" interp="linr"  time="-9999999/1" value="0" leadInLength="0/1"  />
              </VectorParam>
              <VectorParam id="4154"  name="scale">
               <InterpolatingParam id="4155" interp="linr"  time="-9999999/1" value="1" leadInLength="0/1"  />
               <InterpolatingParam id="4156" interp="linr"  time="-9999999/1" value="1" leadInLength="0/1"  />
               <InterpolatingParam id="4157" interp="linr"  time="-9999999/1" value="1" leadInLength="0/1"  />
              </VectorParam>
              <VectorParam id="4158"  name="anchor">
               <InterpolatingParam id="4159" interp="linr"  time="0/1" value="0" leadInLength="0/1"  />
               <InterpolatingParam id="4160" interp="linr"  time="0/1" value="0" leadInLength="0/1"  />
               <InterpolatingParam id="4161" interp="linr"  time="0/1" value="0" leadInLength="0/1"  />
              </VectorParam>
             </Transformer>
             <Parameters>
              <VectorParam id="4162"  name="sourceCrop">
               <InterpolatingParam id="4163" interp="linr"  time="0/1" value="0" leadInLength="0/1"  />
               <InterpolatingParam id="4164" interp="linr"  time="0/1" value="0" leadInLength="0/1"  />
               <InterpolatingParam id="4165" interp="linr"  time="0/1" value="0" leadInLength="0/1"  />
               <InterpolatingParam id="4166" interp="linr"  time="0/1" value="0" leadInLength="0/1"  />
              </VectorParam>
              <VectorParam id="4167"  name="geometryCrop">
               <InterpolatingParam id="4168" interp="linr"  time="-9999999/1" value="0" leadInLength="0/1"  />
               <InterpolatingParam id="4169" interp="linr"  time="-9999999/1" value="0" leadInLength="0/1"  />
               <InterpolatingParam id="4170" interp="linr"  time="-9999999/1" value="0" leadInLength="0/1"  />
               <InterpolatingParam id="4171" interp="linr"  time="-9999999/1" value="0" leadInLength="0/1"  />
              </VectorParam>
              <InterpolatingParam id="4172" interp="linr"  time="-9999999/1" value="1" leadInLength="0/1"  name="opacity"/>
              <InterpolatingParam id="4173" interp="linr"  time="0/1" value="0" leadInLength="0/1"  name="cursorOpacity"/>
              <InterpolatingParam id="4174" interp="linr"  time="0/1" value="0" leadInLength="0/1"  name="cursorScale"/>
             </Parameters>
             <Attributes>
              <Attribute id="4175" value="" name="ident"/>
             </Attributes>
             <ExtraData>
              <Entry key="ZoomPanBin">
               <ZoomPanBin id="4176"  >
                <ZoomPanKeyframes>
                 <ZoomPanKeyframe id="4177" timeRangeEnd="-9999999/1" timeRangeDuration="0/1" interpolaterName=""  />
                </ZoomPanKeyframes>
               </ZoomPanBin>
              </Entry>
              <Entry key="CursorEffectBin">
               <CursorEffectBin id="4178"  >
                <CursorEffectKeyframes>
                </CursorEffectKeyframes>
               </CursorEffectBin>
              </Entry>
             </ExtraData>
            </ScreenVMFile>
            <MetaData>
             <entry key="AutoAppliedSmartFocus" val="False"/>
             <entry key="WinSubProjectDisplayName" val=""/>
            </MetaData>
           </UnifiedMedia>
           <UnifiedMedia id="4179"  >
            <AMFile id="4180" start="1252" duration="769" scalar="1/1" mediaStart="1409/1" mediaDuration="769/1" trackNumber="1" src="26" channelNumber="0,1" >
             <Parameters>
              <InterpolatingParam id="4181" interp="linr"  time="0/1" value="1" leadInLength="0/1"  name="volume"/>
              <Parameter id="4182"  name="captions"/>
             </Parameters>
             <Attributes>
              <Attribute id="4183" value="" name="ident"/>
              <Attribute id="4184" value="44100" name="sampleRate"/>
              <Attribute id="4185" value="16" name="bitDepth"/>
              <Attribute id="4186" value="1" name="gain"/>
              <Attribute id="4187" value="0" name="mixToMono"/>
             </Attributes>
            </AMFile>
            <ScreenVMFile id="4188" start="1252" duration="769" scalar="1/1" mediaStart="1409/1" mediaDuration="769/1" trackNumber="0" src="26" >
             <Transformer>
              <VectorParam id="4189"  name="translation">
               <InterpolatingParam id="4190" interp="linr"  time="-9999999/1" value="0" leadInLength="0/1"  />
               <InterpolatingParam id="4191" interp="linr"  time="-9999999/1" value="0" leadInLength="0/1"  />
               <InterpolatingParam id="4192" interp="linr"  time="-9999999/1" value="0" leadInLength="0/1"  />
              </VectorParam>
              <VectorParam id="4193"  name="rotation">
               <InterpolatingParam id="4194" interp="linr"  time="-9999999/1" value="0" leadInLength="0/1"  />
               <InterpolatingParam id="4195" interp="linr"  time="-9999999/1" value="0" leadInLength="0/1"  />
               <InterpolatingParam id="4196" interp="linr"  time="-9999999/1" value="0" leadInLength="0/1"  />
              </VectorParam>
              <VectorParam id="4197"  name="shear">
               <InterpolatingParam id="4198" interp="linr"  time="-9999999/1" value="0" leadInLength="0/1"  />
               <InterpolatingParam id="4199" interp="linr"  time="-9999999/1" value="0" leadInLength="0/1"  />
               <InterpolatingParam id="4200" interp="linr"  time="-9999999/1" value="0" leadInLength="0/1"  />
              </VectorParam>
              <VectorParam id="4201"  name="scale">
               <InterpolatingParam id="4202" interp="linr"  time="-9999999/1" value="1" leadInLength="0/1"  />
               <InterpolatingParam id="4203" interp="linr"  time="-9999999/1" value="1" leadInLength="0/1"  />
               <InterpolatingParam id="4204" interp="linr"  time="-9999999/1" value="1" leadInLength="0/1"  />
              </VectorParam>
              <VectorParam id="4205"  name="anchor">
               <InterpolatingParam id="4206" interp="linr"  time="0/1" value="0" leadInLength="0/1"  />
               <InterpolatingParam id="4207" interp="linr"  time="0/1" value="0" leadInLength="0/1"  />
               <InterpolatingParam id="4208" interp="linr"  time="0/1" value="0" leadInLength="0/1"  />
              </VectorParam>
             </Transformer>
             <Parameters>
              <VectorParam id="4209"  name="sourceCrop">
               <InterpolatingParam id="4210" interp="linr"  time="0/1" value="0" leadInLength="0/1"  />
               <InterpolatingParam id="4211" interp="linr"  time="0/1" value="0" leadInLength="0/1"  />
               <InterpolatingParam id="4212" interp="linr"  time="0/1" value="0" leadInLength="0/1"  />
               <InterpolatingParam id="4213" interp="linr"  time="0/1" value="0" leadInLength="0/1"  />
              </VectorParam>
              <VectorParam id="4214"  name="geometryCrop">
               <InterpolatingParam id="4215" interp="linr"  time="-9999999/1" value="0" leadInLength="0/1"  />
               <InterpolatingParam id="4216" interp="linr"  time="-9999999/1" value="0" leadInLength="0/1"  />
               <InterpolatingParam id="4217" interp="linr"  time="-9999999/1" value="0" leadInLength="0/1"  />
               <InterpolatingParam id="4218" interp="linr"  time="-9999999/1" value="0" leadInLength="0/1"  />
              </VectorParam>
              <InterpolatingParam id="4219" interp="linr"  time="-9999999/1" value="1" leadInLength="0/1"  name="opacity"/>
              <InterpolatingParam id="4220" interp="linr"  time="0/1" value="0" leadInLength="0/1"  name="cursorOpacity"/>
              <InterpolatingParam id="4221" interp="linr"  time="0/1" value="0" leadInLength="0/1"  name="cursorScale"/>
             </Parameters>
             <Attributes>
              <Attribute id="4222" value="" name="ident"/>
             </Attributes>
             <ExtraData>
              <Entry key="ZoomPanBin">
               <ZoomPanBin id="4223"  >
                <ZoomPanKeyframes>
                 <ZoomPanKeyframe id="4224" timeRangeEnd="-9999999/1" timeRangeDuration="0/1" interpolaterName=""  />
                </ZoomPanKeyframes>
               </ZoomPanBin>
              </Entry>
              <Entry key="CursorEffectBin">
               <CursorEffectBin id="4225"  >
                <CursorEffectKeyframes>
                </CursorEffectKeyframes>
               </CursorEffectBin>
              </Entry>
             </ExtraData>
            </ScreenVMFile>
            <MetaData>
             <entry key="AutoAppliedSmartFocus" val="False"/>
             <entry key="WinSubProjectDisplayName" val=""/>
            </MetaData>
           </UnifiedMedia>
           <UnifiedMedia id="4226"  >
            <AMFile id="4227" start="2021" duration="993" scalar="1/1" mediaStart="2352/1" mediaDuration="993/1" trackNumber="1" src="26" channelNumber="0,1" >
             <Parameters>
              <InterpolatingParam id="4228" interp="linr"  time="0/1" value="1" leadInLength="0/1"  name="volume"/>
              <Parameter id="4229"  name="captions"/>
             </Parameters>
             <Attributes>
              <Attribute id="4230" value="" name="ident"/>
              <Attribute id="4231" value="44100" name="sampleRate"/>
              <Attribute id="4232" value="16" name="bitDepth"/>
              <Attribute id="4233" value="1" name="gain"/>
              <Attribute id="4234" value="0" name="mixToMono"/>
             </Attributes>
            </AMFile>
            <ScreenVMFile id="4235" start="2021" duration="993" scalar="1/1" mediaStart="2352/1" mediaDuration="993/1" trackNumber="0" src="26" >
             <Transformer>
              <VectorParam id="4236"  name="translation">
               <InterpolatingParam id="4237" interp="linr"  time="-9999999/1" value="0" leadInLength="0/1"  />
               <InterpolatingParam id="4238" interp="linr"  time="-9999999/1" value="0" leadInLength="0/1"  />
               <InterpolatingParam id="4239" interp="linr"  time="-9999999/1" value="0" leadInLength="0/1"  />
              </VectorParam>
              <VectorParam id="4240"  name="rotation">
               <InterpolatingParam id="4241" interp="linr"  time="-9999999/1" value="0" leadInLength="0/1"  />
               <InterpolatingParam id="4242" interp="linr"  time="-9999999/1" value="0" leadInLength="0/1"  />
               <InterpolatingParam id="4243" interp="linr"  time="-9999999/1" value="0" leadInLength="0/1"  />
              </VectorParam>
              <VectorParam id="4244"  name="shear">
               <InterpolatingParam id="4245" interp="linr"  time="-9999999/1" value="0" leadInLength="0/1"  />
               <InterpolatingParam id="4246" interp="linr"  time="-9999999/1" value="0" leadInLength="0/1"  />
               <InterpolatingParam id="4247" interp="linr"  time="-9999999/1" value="0" leadInLength="0/1"  />
              </VectorParam>
              <VectorParam id="4248"  name="scale">
               <InterpolatingParam id="4249" interp="linr"  time="-9999999/1" value="1" leadInLength="0/1"  />
               <InterpolatingParam id="4250" interp="linr"  time="-9999999/1" value="1" leadInLength="0/1"  />
               <InterpolatingParam id="4251" interp="linr"  time="-9999999/1" value="1" leadInLength="0/1"  />
              </VectorParam>
              <VectorParam id="4252"  name="anchor">
               <InterpolatingParam id="4253" interp="linr"  time="0/1" value="0" leadInLength="0/1"  />
               <InterpolatingParam id="4254" interp="linr"  time="0/1" value="0" leadInLength="0/1"  />
               <InterpolatingParam id="4255" interp="linr"  time="0/1" value="0" leadInLength="0/1"  />
              </VectorParam>
             </Transformer>
             <Parameters>
              <VectorParam id="4256"  name="sourceCrop">
               <InterpolatingParam id="4257" interp="linr"  time="0/1" value="0" leadInLength="0/1"  />
               <InterpolatingParam id="4258" interp="linr"  time="0/1" value="0" leadInLength="0/1"  />
               <InterpolatingParam id="4259" interp="linr"  time="0/1" value="0" leadInLength="0/1"  />
               <InterpolatingParam id="4260" interp="linr"  time="0/1" value="0" leadInLength="0/1"  />
              </VectorParam>
              <VectorParam id="4261"  name="geometryCrop">
               <InterpolatingParam id="4262" interp="linr"  time="-9999999/1" value="0" leadInLength="0/1"  />
               <InterpolatingParam id="4263" interp="linr"  time="-9999999/1" value="0" leadInLength="0/1"  />
               <InterpolatingParam id="4264" interp="linr"  time="-9999999/1" value="0" leadInLength="0/1"  />
               <InterpolatingParam id="4265" interp="linr"  time="-9999999/1" value="0" leadInLength="0/1"  />
              </VectorParam>
              <InterpolatingParam id="4266" interp="linr"  time="-9999999/1" value="1" leadInLength="0/1"  name="opacity"/>
              <InterpolatingParam id="4267" interp="linr"  time="0/1" value="0" leadInLength="0/1"  name="cursorOpacity"/>
              <InterpolatingParam id="4268" interp="linr"  time="0/1" value="0" leadInLength="0/1"  name="cursorScale"/>
             </Parameters>
             <Attributes>
              <Attribute id="4269" value="" name="ident"/>
             </Attributes>
             <ExtraData>
              <Entry key="ZoomPanBin">
               <ZoomPanBin id="4270"  >
                <ZoomPanKeyframes>
                 <ZoomPanKeyframe id="4271" timeRangeEnd="-9999999/1" timeRangeDuration="0/1" interpolaterName=""  />
                </ZoomPanKeyframes>
               </ZoomPanBin>
              </Entry>
              <Entry key="CursorEffectBin">
               <CursorEffectBin id="4272"  >
                <CursorEffectKeyframes>
                </CursorEffectKeyframes>
               </CursorEffectBin>
              </Entry>
             </ExtraData>
            </ScreenVMFile>
            <MetaData>
             <entry key="AutoAppliedSmartFocus" val="False"/>
             <entry key="WinSubProjectDisplayName" val=""/>
            </MetaData>
           </UnifiedMedia>
          </Medias>
         </GenericTrack>
        </StitchedMedia>
        <StitchedMedia id="4273" start="47294" duration="4401" scalar="1/1" mediaStart="0/1" mediaDuration="4401/1" minMediaStart="0/1" >
         <Transformer>
          <VectorParam id="4274"  name="translation">
           <InterpolatingParam id="4275" interp="linr"  time="-9999999/1" value="0" leadInLength="0/1"  />
           <InterpolatingParam id="4276" interp="linr"  time="-9999999/1" value="0" leadInLength="0/1"  />
           <InterpolatingParam id="4277" interp="linr"  time="-9999999/1" value="0" leadInLength="0/1"  />
          </VectorParam>
          <VectorParam id="4278"  name="rotation">
           <InterpolatingParam id="4279" interp="linr"  time="-9999999/1" value="0" leadInLength="0/1"  />
           <InterpolatingParam id="4280" interp="linr"  time="-9999999/1" value="0" leadInLength="0/1"  />
           <InterpolatingParam id="4281" interp="linr"  time="-9999999/1" value="0" leadInLength="0/1"  />
          </VectorParam>
          <VectorParam id="4282"  name="shear">
           <InterpolatingParam id="4283" interp="linr"  time="-9999999/1" value="0" leadInLength="0/1"  />
           <InterpolatingParam id="4284" interp="linr"  time="-9999999/1" value="0" leadInLength="0/1"  />
           <InterpolatingParam id="4285" interp="linr"  time="-9999999/1" value="0" leadInLength="0/1"  />
          </VectorParam>
          <VectorParam id="4286"  name="scale">
           <InterpolatingParam id="4287" interp="linr"  time="-9999999/1" value="0.80000000000000004" leadInLength="0/1"  />
           <InterpolatingParam id="4288" interp="linr"  time="-9999999/1" value="0.80000000000000004" leadInLength="0/1"  />
           <InterpolatingParam id="4289" interp="linr"  time="-9999999/1" value="1" leadInLength="0/1"  />
          </VectorParam>
          <VectorParam id="4290"  name="anchor">
           <InterpolatingParam id="4291" interp="linr"  time="0/1" value="0" leadInLength="0/1"  />
           <InterpolatingParam id="4292" interp="linr"  time="0/1" value="0" leadInLength="0/1"  />
           <InterpolatingParam id="4293" interp="linr"  time="0/1" value="0" leadInLength="0/1"  />
          </VectorParam>
         </Transformer>
         <Parameters>
          <VectorParam id="4294"  name="sourceCrop">
           <InterpolatingParam id="4295" interp="linr"  time="0/1" value="0" leadInLength="0/1"  />
           <InterpolatingParam id="4296" interp="linr"  time="0/1" value="0" leadInLength="0/1"  />
           <InterpolatingParam id="4297" interp="linr"  time="0/1" value="0" leadInLength="0/1"  />
           <InterpolatingParam id="4298" interp="linr"  time="0/1" value="0" leadInLength="0/1"  />
          </VectorParam>
          <VectorParam id="4299"  name="geometryCrop">
           <InterpolatingParam id="4300" interp="linr"  time="-9999999/1" value="0" leadInLength="0/1"  />
           <InterpolatingParam id="4301" interp="linr"  time="-9999999/1" value="0" leadInLength="0/1"  />
           <InterpolatingParam id="4302" interp="linr"  time="-9999999/1" value="0" leadInLength="0/1"  />
           <InterpolatingParam id="4303" interp="linr"  time="-9999999/1" value="0" leadInLength="0/1"  />
          </VectorParam>
          <InterpolatingParam id="4304" interp="linr"  time="-9999999/1" value="1" leadInLength="0/1"  name="opacity"/>
          <InterpolatingParam id="4305" interp="linr"  time="0/1" value="1" leadInLength="0/1"  name="cursorOpacity"/>
          <InterpolatingParam id="4306" interp="linr"  time="0/1" value="1" leadInLength="0/1"  name="cursorScale"/>
          <InterpolatingParam id="4307" interp="linr"  time="0/1" value="1" leadInLength="0/1"  name="volume"/>
          <Parameter id="4308"  name="captions"/>
         </Parameters>
         <Effects>
          <GenericEffect id="4309" name = "CursorBaseEffectName" >
           <Parameters>
           <InterpolatingParam id="4310" interp="linr"  time="-9999999/1" value="1" leadInLength="0/1"   name="cursorSize"/>
           <InterpolatingParam id="4311" interp="linr"  time="-9999999/1" value="0" leadInLength="0/1"   name="highlightBlurRadius"/>
           <InterpolatingParam id="4312" interp="linr"  time="-9999999/1" value="0" leadInLength="0/1"   name="highlightColorBlue"/>
           <InterpolatingParam id="4313" interp="linr"  time="-9999999/1" value="255" leadInLength="0/1"   name="highlightColorGreen"/>
           <InterpolatingParam id="4314" interp="linr"  time="-9999999/1" value="255" leadInLength="0/1"   name="highlightColorRed"/>
           <InterpolatingParam id="4315" interp="linr"  time="-9999999/1" value="5" leadInLength="0/1"   name="highlightFeatherSize"/>
           <InterpolatingParam id="4316" interp="linr"  time="-9999999/1" value="2" leadInLength="0/1"   name="highlightMagnification"/>
           <InterpolatingParam id="4317" interp="linr"  time="-9999999/1" value="1" leadInLength="0/1"   name="highlightOpacity"/>
           <InterpolatingParam id="4318" interp="linr"  time="-9999999/1" value="45" leadInLength="0/1"   name="highlightSize"/>
           <Parameter id="4319"   name="highlightType">
            <Keyframes>
            <Keyframe id="4320"  time="-9999999/1" value="0" leadInLength="0/1"  />
            </Keyframes>
           </Parameter>
           <InterpolatingParam id="4321" interp="linr"  time="-9999999/1" value="0" leadInLength="0/1"   name="leftClickColorBlue"/>
           <InterpolatingParam id="4322" interp="linr"  time="-9999999/1" value="0" leadInLength="0/1"   name="leftClickColorGreen"/>
           <InterpolatingParam id="4323" interp="linr"  time="-9999999/1" value="255" leadInLength="0/1"   name="leftClickColorRed"/>
           <InterpolatingParam id="4324" interp="linr"  time="-9999999/1" value="0.80000000000000004" leadInLength="0/1"   name="leftClickDuration"/>
           <InterpolatingParam id="4325" interp="linr"  time="-9999999/1" value="20" leadInLength="0/1"   name="leftClickSize"/>
           <Parameter id="4326"   name="leftClickSoundFilename">
            <Keyframes>
            <Keyframe id="4327"  time="-9999999/1" value="" leadInLength="0/1"  />
            </Keyframes>
           </Parameter>
           <InterpolatingParam id="4328" interp="linr"  time="-9999999/1" value="1" leadInLength="0/1"   name="leftClickSoundVolume"/>
           <Parameter id="4329"   name="leftClickType">
            <Keyframes>
            <Keyframe id="4330"  time="-9999999/1" value="0" leadInLength="0/1"  />
            </Keyframes>
           </Parameter>
           <InterpolatingParam id="4331" interp="linr"  time="-9999999/1" value="1" leadInLength="0/1"   name="opacity"/>
           <InterpolatingParam id="4332" interp="linr"  time="-9999999/1" value="255" leadInLength="0/1"   name="rightClickColorBlue"/>
           <InterpolatingParam id="4333" interp="linr"  time="-9999999/1" value="0" leadInLength="0/1"   name="rightClickColorGreen"/>
           <InterpolatingParam id="4334" interp="linr"  time="-9999999/1" value="0" leadInLength="0/1"   name="rightClickColorRed"/>
           <InterpolatingParam id="4335" interp="linr"  time="-9999999/1" value="0.80000000000000004" leadInLength="0/1"   name="rightClickDuration"/>
           <InterpolatingParam id="4336" interp="linr"  time="-9999999/1" value="20" leadInLength="0/1"   name="rightClickSize"/>
           <Parameter id="4337"   name="rightClickSoundFilename">
            <Keyframes>
            <Keyframe id="4338"  time="-9999999/1" value="" leadInLength="0/1"  />
            </Keyframes>
           </Parameter>
           <InterpolatingParam id="4339" interp="linr"  time="-9999999/1" value="1" leadInLength="0/1"   name="rightClickSoundVolume"/>
           <Parameter id="4340"   name="rightClickType">
            <Keyframes>
            <Keyframe id="4341"  time="-9999999/1" value="0" leadInLength="0/1"  />
            </Keyframes>
           </Parameter>
           </Parameters>
           <MetaData>
            <entry key="effectIndex" val="0"/>
           </MetaData>
          </GenericEffect>
         </Effects>
         <Attributes>
          <Attribute id="4342" value="" name="ident"/>
          <Attribute id="4343" value="0" name="mixToMono"/>
         </Attributes>
         <MetaData>
          <entry key="AutoAppliedSmartFocus" val="False"/>
          <entry key="WinSubProjectDisplayName" val=""/>
         </MetaData>
         <ExtraData>
          <Entry key="ZoomPanBin">
           <ZoomPanBin id="4344"  >
            <ZoomPanKeyframes>
             <ZoomPanKeyframe id="4345" timeRangeEnd="-9999999/1" timeRangeDuration="0/1" interpolaterName=""  />
            </ZoomPanKeyframes>
           </ZoomPanBin>
          </Entry>
          <Entry key="CursorEffectBin">
           <CursorEffectBin id="4346"  >
            <CursorEffectKeyframes>
             <CursorEffectKeyframe id="4347" timeRangeEnd="-9999999/1" timeRangeDuration="0/1" interpolaterName=""  />
            </CursorEffectKeyframes>
           </CursorEffectBin>
          </Entry>
         </ExtraData>
         <GenericTrack id="4348"  >
          <Attributes>
           <Attribute id="4349" value="" name="ident"/>
           <Attribute id="4350" value="0" name="audioMuted"/>
           <Attribute id="4351" value="0" name="videoHidden"/>
          </Attributes>
          <MetaData>
           <entry key="IsLocked" val="False"/>
           <entry key="WinTrackHeight" val="0"/>
          </MetaData>
          <Medias>
           <UnifiedMedia id="4352"  >
            <AMFile id="4353" start="0" duration="400" scalar="1/1" mediaStart="0/1" mediaDuration="400/1" trackNumber="1" src="27" channelNumber="0,1" >
             <Parameters>
              <InterpolatingParam id="4354" interp="linr"  time="0/1" value="1" leadInLength="0/1"  name="volume"/>
              <Parameter id="4355"  name="captions"/>
             </Parameters>
             <Attributes>
              <Attribute id="4356" value="" name="ident"/>
              <Attribute id="4357" value="44100" name="sampleRate"/>
              <Attribute id="4358" value="16" name="bitDepth"/>
              <Attribute id="4359" value="1" name="gain"/>
              <Attribute id="4360" value="0" name="mixToMono"/>
             </Attributes>
            </AMFile>
            <ScreenVMFile id="4361" start="0" duration="400" scalar="1/1" mediaStart="0/1" mediaDuration="400/1" trackNumber="0" src="27" >
             <Transformer>
              <VectorParam id="4362"  name="translation">
               <InterpolatingParam id="4363" interp="linr"  time="-9999999/1" value="0" leadInLength="0/1"  />
               <InterpolatingParam id="4364" interp="linr"  time="-9999999/1" value="0" leadInLength="0/1"  />
               <InterpolatingParam id="4365" interp="linr"  time="-9999999/1" value="0" leadInLength="0/1"  />
              </VectorParam>
              <VectorParam id="4366"  name="rotation">
               <InterpolatingParam id="4367" interp="linr"  time="-9999999/1" value="0" leadInLength="0/1"  />
               <InterpolatingParam id="4368" interp="linr"  time="-9999999/1" value="0" leadInLength="0/1"  />
               <InterpolatingParam id="4369" interp="linr"  time="-9999999/1" value="0" leadInLength="0/1"  />
              </VectorParam>
              <VectorParam id="4370"  name="shear">
               <InterpolatingParam id="4371" interp="linr"  time="-9999999/1" value="0" leadInLength="0/1"  />
               <InterpolatingParam id="4372" interp="linr"  time="-9999999/1" value="0" leadInLength="0/1"  />
               <InterpolatingParam id="4373" interp="linr"  time="-9999999/1" value="0" leadInLength="0/1"  />
              </VectorParam>
              <VectorParam id="4374"  name="scale">
               <InterpolatingParam id="4375" interp="linr"  time="-9999999/1" value="1" leadInLength="0/1"  />
               <InterpolatingParam id="4376" interp="linr"  time="-9999999/1" value="1" leadInLength="0/1"  />
               <InterpolatingParam id="4377" interp="linr"  time="-9999999/1" value="1" leadInLength="0/1"  />
              </VectorParam>
              <VectorParam id="4378"  name="anchor">
               <InterpolatingParam id="4379" interp="linr"  time="0/1" value="0" leadInLength="0/1"  />
               <InterpolatingParam id="4380" interp="linr"  time="0/1" value="0" leadInLength="0/1"  />
               <InterpolatingParam id="4381" interp="linr"  time="0/1" value="0" leadInLength="0/1"  />
              </VectorParam>
             </Transformer>
             <Parameters>
              <VectorParam id="4382"  name="sourceCrop">
               <InterpolatingParam id="4383" interp="linr"  time="0/1" value="0" leadInLength="0/1"  />
               <InterpolatingParam id="4384" interp="linr"  time="0/1" value="0" leadInLength="0/1"  />
               <InterpolatingParam id="4385" interp="linr"  time="0/1" value="0" leadInLength="0/1"  />
               <InterpolatingParam id="4386" interp="linr"  time="0/1" value="0" leadInLength="0/1"  />
              </VectorParam>
              <VectorParam id="4387"  name="geometryCrop">
               <InterpolatingParam id="4388" interp="linr"  time="-9999999/1" value="0" leadInLength="0/1"  />
               <InterpolatingParam id="4389" interp="linr"  time="-9999999/1" value="0" leadInLength="0/1"  />
               <InterpolatingParam id="4390" interp="linr"  time="-9999999/1" value="0" leadInLength="0/1"  />
               <InterpolatingParam id="4391" interp="linr"  time="-9999999/1" value="0" leadInLength="0/1"  />
              </VectorParam>
              <InterpolatingParam id="4392" interp="linr"  time="-9999999/1" value="1" leadInLength="0/1"  name="opacity"/>
              <InterpolatingParam id="4393" interp="linr"  time="0/1" value="0" leadInLength="0/1"  name="cursorOpacity"/>
              <InterpolatingParam id="4394" interp="linr"  time="0/1" value="0" leadInLength="0/1"  name="cursorScale"/>
             </Parameters>
             <Attributes>
              <Attribute id="4395" value="" name="ident"/>
             </Attributes>
             <ExtraData>
              <Entry key="ZoomPanBin">
               <ZoomPanBin id="4396"  >
                <ZoomPanKeyframes>
                 <ZoomPanKeyframe id="4397" timeRangeEnd="-9999999/1" timeRangeDuration="0/1" interpolaterName=""  />
                </ZoomPanKeyframes>
               </ZoomPanBin>
              </Entry>
              <Entry key="CursorEffectBin">
               <CursorEffectBin id="4398"  >
                <CursorEffectKeyframes>
                </CursorEffectKeyframes>
               </CursorEffectBin>
              </Entry>
             </ExtraData>
            </ScreenVMFile>
            <MetaData>
             <entry key="AutoAppliedSmartFocus" val="False"/>
             <entry key="WinSubProjectDisplayName" val=""/>
            </MetaData>
           </UnifiedMedia>
           <UnifiedMedia id="4399"  >
            <AMFile id="4400" start="400" duration="6640" scalar="1/1" mediaStart="679/1" mediaDuration="6640/1" trackNumber="1" src="27" channelNumber="0,1" >
             <Parameters>
              <InterpolatingParam id="4401" interp="linr"  time="0/1" value="1" leadInLength="0/1"  name="volume"/>
              <Parameter id="4402"  name="captions"/>
             </Parameters>
             <Attributes>
              <Attribute id="4403" value="" name="ident"/>
              <Attribute id="4404" value="44100" name="sampleRate"/>
              <Attribute id="4405" value="16" name="bitDepth"/>
              <Attribute id="4406" value="1" name="gain"/>
              <Attribute id="4407" value="0" name="mixToMono"/>
             </Attributes>
            </AMFile>
            <ScreenVMFile id="4408" start="400" duration="6640" scalar="1/1" mediaStart="679/1" mediaDuration="6640/1" trackNumber="0" src="27" >
             <Transformer>
              <VectorParam id="4409"  name="translation">
               <InterpolatingParam id="4410" interp="linr"  time="-9999999/1" value="0" leadInLength="0/1"  />
               <InterpolatingParam id="4411" interp="linr"  time="-9999999/1" value="0" leadInLength="0/1"  />
               <InterpolatingParam id="4412" interp="linr"  time="-9999999/1" value="0" leadInLength="0/1"  />
              </VectorParam>
              <VectorParam id="4413"  name="rotation">
               <InterpolatingParam id="4414" interp="linr"  time="-9999999/1" value="0" leadInLength="0/1"  />
               <InterpolatingParam id="4415" interp="linr"  time="-9999999/1" value="0" leadInLength="0/1"  />
               <InterpolatingParam id="4416" interp="linr"  time="-9999999/1" value="0" leadInLength="0/1"  />
              </VectorParam>
              <VectorParam id="4417"  name="shear">
               <InterpolatingParam id="4418" interp="linr"  time="-9999999/1" value="0" leadInLength="0/1"  />
               <InterpolatingParam id="4419" interp="linr"  time="-9999999/1" value="0" leadInLength="0/1"  />
               <InterpolatingParam id="4420" interp="linr"  time="-9999999/1" value="0" leadInLength="0/1"  />
              </VectorParam>
              <VectorParam id="4421"  name="scale">
               <InterpolatingParam id="4422" interp="linr"  time="-9999999/1" value="1" leadInLength="0/1"  />
               <InterpolatingParam id="4423" interp="linr"  time="-9999999/1" value="1" leadInLength="0/1"  />
               <InterpolatingParam id="4424" interp="linr"  time="-9999999/1" value="1" leadInLength="0/1"  />
              </VectorParam>
              <VectorParam id="4425"  name="anchor">
               <InterpolatingParam id="4426" interp="linr"  time="0/1" value="0" leadInLength="0/1"  />
               <InterpolatingParam id="4427" interp="linr"  time="0/1" value="0" leadInLength="0/1"  />
               <InterpolatingParam id="4428" interp="linr"  time="0/1" value="0" leadInLength="0/1"  />
              </VectorParam>
             </Transformer>
             <Parameters>
              <VectorParam id="4429"  name="sourceCrop">
               <InterpolatingParam id="4430" interp="linr"  time="0/1" value="0" leadInLength="0/1"  />
               <InterpolatingParam id="4431" interp="linr"  time="0/1" value="0" leadInLength="0/1"  />
               <InterpolatingParam id="4432" interp="linr"  time="0/1" value="0" leadInLength="0/1"  />
               <InterpolatingParam id="4433" interp="linr"  time="0/1" value="0" leadInLength="0/1"  />
              </VectorParam>
              <VectorParam id="4434"  name="geometryCrop">
               <InterpolatingParam id="4435" interp="linr"  time="-9999999/1" value="0" leadInLength="0/1"  />
               <InterpolatingParam id="4436" interp="linr"  time="-9999999/1" value="0" leadInLength="0/1"  />
               <InterpolatingParam id="4437" interp="linr"  time="-9999999/1" value="0" leadInLength="0/1"  />
               <InterpolatingParam id="4438" interp="linr"  time="-9999999/1" value="0" leadInLength="0/1"  />
              </VectorParam>
              <InterpolatingParam id="4439" interp="linr"  time="-9999999/1" value="1" leadInLength="0/1"  name="opacity"/>
              <InterpolatingParam id="4440" interp="linr"  time="0/1" value="0" leadInLength="0/1"  name="cursorOpacity"/>
              <InterpolatingParam id="4441" interp="linr"  time="0/1" value="0" leadInLength="0/1"  name="cursorScale"/>
             </Parameters>
             <Attributes>
              <Attribute id="4442" value="" name="ident"/>
             </Attributes>
             <ExtraData>
              <Entry key="ZoomPanBin">
               <ZoomPanBin id="4443"  >
                <ZoomPanKeyframes>
                 <ZoomPanKeyframe id="4444" timeRangeEnd="-9999999/1" timeRangeDuration="0/1" interpolaterName=""  />
                </ZoomPanKeyframes>
               </ZoomPanBin>
              </Entry>
              <Entry key="CursorEffectBin">
               <CursorEffectBin id="4445"  >
                <CursorEffectKeyframes>
                </CursorEffectKeyframes>
               </CursorEffectBin>
              </Entry>
             </ExtraData>
            </ScreenVMFile>
            <MetaData>
             <entry key="AutoAppliedSmartFocus" val="False"/>
             <entry key="WinSubProjectDisplayName" val=""/>
            </MetaData>
           </UnifiedMedia>
          </Medias>
         </GenericTrack>
        </StitchedMedia>
        <UnifiedMedia id="4446"  >
         <AMFile id="4447" start="51695" duration="316" scalar="1/1" mediaStart="0/1" mediaDuration="316/1" trackNumber="1" src="28" channelNumber="0,1" >
          <Parameters>
           <InterpolatingParam id="4448" interp="linr"  time="0/1" value="1" leadInLength="0/1"  name="volume"/>
           <Parameter id="4449"  name="captions"/>
          </Parameters>
          <Attributes>
           <Attribute id="4450" value="" name="ident"/>
           <Attribute id="4451" value="44100" name="sampleRate"/>
           <Attribute id="4452" value="16" name="bitDepth"/>
           <Attribute id="4453" value="1" name="gain"/>
           <Attribute id="4454" value="0" name="mixToMono"/>
          </Attributes>
         </AMFile>
         <ScreenVMFile id="4455" start="51695" duration="316" scalar="1/1" mediaStart="0/1" mediaDuration="316/1" trackNumber="0" src="28" >
          <Transformer>
           <VectorParam id="4456"  name="translation">
            <InterpolatingParam id="4457" interp="linr"  time="-9999999/1" value="0" leadInLength="0/1"  />
            <InterpolatingParam id="4458" interp="linr"  time="-9999999/1" value="0" leadInLength="0/1"  />
            <InterpolatingParam id="4459" interp="linr"  time="-9999999/1" value="0" leadInLength="0/1"  />
           </VectorParam>
           <VectorParam id="4460"  name="rotation">
            <InterpolatingParam id="4461" interp="linr"  time="-9999999/1" value="0" leadInLength="0/1"  />
            <InterpolatingParam id="4462" interp="linr"  time="-9999999/1" value="0" leadInLength="0/1"  />
            <InterpolatingParam id="4463" interp="linr"  time="-9999999/1" value="0" leadInLength="0/1"  />
           </VectorParam>
           <VectorParam id="4464"  name="shear">
            <InterpolatingParam id="4465" interp="linr"  time="-9999999/1" value="0" leadInLength="0/1"  />
            <InterpolatingParam id="4466" interp="linr"  time="-9999999/1" value="0" leadInLength="0/1"  />
            <InterpolatingParam id="4467" interp="linr"  time="-9999999/1" value="0" leadInLength="0/1"  />
           </VectorParam>
           <VectorParam id="4468"  name="scale">
            <InterpolatingParam id="4469" interp="linr"  time="-9999999/1" value="0.80000000000000004" leadInLength="0/1"  />
            <InterpolatingParam id="4470" interp="linr"  time="-9999999/1" value="0.80000000000000004" leadInLength="0/1"  />
            <InterpolatingParam id="4471" interp="linr"  time="-9999999/1" value="1" leadInLength="0/1"  />
           </VectorParam>
           <VectorParam id="4472"  name="anchor">
            <InterpolatingParam id="4473" interp="linr"  time="0/1" value="0" leadInLength="0/1"  />
            <InterpolatingParam id="4474" interp="linr"  time="0/1" value="0" leadInLength="0/1"  />
            <InterpolatingParam id="4475" interp="linr"  time="0/1" value="0" leadInLength="0/1"  />
           </VectorParam>
          </Transformer>
          <Parameters>
           <VectorParam id="4476"  name="sourceCrop">
            <InterpolatingParam id="4477" interp="linr"  time="0/1" value="0" leadInLength="0/1"  />
            <InterpolatingParam id="4478" interp="linr"  time="0/1" value="0" leadInLength="0/1"  />
            <InterpolatingParam id="4479" interp="linr"  time="0/1" value="0" leadInLength="0/1"  />
            <InterpolatingParam id="4480" interp="linr"  time="0/1" value="0" leadInLength="0/1"  />
           </VectorParam>
           <VectorParam id="4481"  name="geometryCrop">
            <InterpolatingParam id="4482" interp="linr"  time="-9999999/1" value="0" leadInLength="0/1"  />
            <InterpolatingParam id="4483" interp="linr"  time="-9999999/1" value="0" leadInLength="0/1"  />
            <InterpolatingParam id="4484" interp="linr"  time="-9999999/1" value="0" leadInLength="0/1"  />
            <InterpolatingParam id="4485" interp="linr"  time="-9999999/1" value="0" leadInLength="0/1"  />
           </VectorParam>
           <InterpolatingParam id="4486" interp="linr"  time="-9999999/1" value="1" leadInLength="0/1"  name="opacity"/>
           <InterpolatingParam id="4487" interp="linr"  time="0/1" value="1" leadInLength="0/1"  name="cursorOpacity"/>
           <InterpolatingParam id="4488" interp="linr"  time="0/1" value="1" leadInLength="0/1"  name="cursorScale"/>
          </Parameters>
          <Effects>
           <GenericEffect id="4489" name = "CursorBaseEffectName" >
            <Parameters>
            <InterpolatingParam id="4490" interp="linr"  time="-9999999/1" value="1" leadInLength="0/1"   name="cursorSize"/>
            <InterpolatingParam id="4491" interp="linr"  time="-9999999/1" value="0" leadInLength="0/1"   name="highlightBlurRadius"/>
            <InterpolatingParam id="4492" interp="linr"  time="-9999999/1" value="0" leadInLength="0/1"   name="highlightColorBlue"/>
            <InterpolatingParam id="4493" interp="linr"  time="-9999999/1" value="255" leadInLength="0/1"   name="highlightColorGreen"/>
            <InterpolatingParam id="4494" interp="linr"  time="-9999999/1" value="255" leadInLength="0/1"   name="highlightColorRed"/>
            <InterpolatingParam id="4495" interp="linr"  time="-9999999/1" value="5" leadInLength="0/1"   name="highlightFeatherSize"/>
            <InterpolatingParam id="4496" interp="linr"  time="-9999999/1" value="2" leadInLength="0/1"   name="highlightMagnification"/>
            <InterpolatingParam id="4497" interp="linr"  time="-9999999/1" value="1" leadInLength="0/1"   name="highlightOpacity"/>
            <InterpolatingParam id="4498" interp="linr"  time="-9999999/1" value="45" leadInLength="0/1"   name="highlightSize"/>
            <Parameter id="4499"   name="highlightType">
             <Keyframes>
             <Keyframe id="4500"  time="-9999999/1" value="0" leadInLength="0/1"  />
             </Keyframes>
            </Parameter>
            <InterpolatingParam id="4501" interp="linr"  time="-9999999/1" value="0" leadInLength="0/1"   name="leftClickColorBlue"/>
            <InterpolatingParam id="4502" interp="linr"  time="-9999999/1" value="0" leadInLength="0/1"   name="leftClickColorGreen"/>
            <InterpolatingParam id="4503" interp="linr"  time="-9999999/1" value="255" leadInLength="0/1"   name="leftClickColorRed"/>
            <InterpolatingParam id="4504" interp="linr"  time="-9999999/1" value="0.80000000000000004" leadInLength="0/1"   name="leftClickDuration"/>
            <InterpolatingParam id="4505" interp="linr"  time="-9999999/1" value="20" leadInLength="0/1"   name="leftClickSize"/>
            <Parameter id="4506"   name="leftClickSoundFilename">
             <Keyframes>
             <Keyframe id="4507"  time="-9999999/1" value="" leadInLength="0/1"  />
             </Keyframes>
            </Parameter>
            <InterpolatingParam id="4508" interp="linr"  time="-9999999/1" value="1" leadInLength="0/1"   name="leftClickSoundVolume"/>
            <Parameter id="4509"   name="leftClickType">
             <Keyframes>
             <Keyframe id="4510"  time="-9999999/1" value="0" leadInLength="0/1"  />
             </Keyframes>
            </Parameter>
            <InterpolatingParam id="4511" interp="linr"  time="-9999999/1" value="1" leadInLength="0/1"   name="opacity"/>
            <InterpolatingParam id="4512" interp="linr"  time="-9999999/1" value="255" leadInLength="0/1"   name="rightClickColorBlue"/>
            <InterpolatingParam id="4513" interp="linr"  time="-9999999/1" value="0" leadInLength="0/1"   name="rightClickColorGreen"/>
            <InterpolatingParam id="4514" interp="linr"  time="-9999999/1" value="0" leadInLength="0/1"   name="rightClickColorRed"/>
            <InterpolatingParam id="4515" interp="linr"  time="-9999999/1" value="0.80000000000000004" leadInLength="0/1"   name="rightClickDuration"/>
            <InterpolatingParam id="4516" interp="linr"  time="-9999999/1" value="20" leadInLength="0/1"   name="rightClickSize"/>
            <Parameter id="4517"   name="rightClickSoundFilename">
             <Keyframes>
             <Keyframe id="4518"  time="-9999999/1" value="" leadInLength="0/1"  />
             </Keyframes>
            </Parameter>
            <InterpolatingParam id="4519" interp="linr"  time="-9999999/1" value="1" leadInLength="0/1"   name="rightClickSoundVolume"/>
            <Parameter id="4520"   name="rightClickType">
             <Keyframes>
             <Keyframe id="4521"  time="-9999999/1" value="0" leadInLength="0/1"  />
             </Keyframes>
            </Parameter>
            </Parameters>
            <MetaData>
             <entry key="effectIndex" val="0"/>
            </MetaData>
           </GenericEffect>
          </Effects>
          <Attributes>
           <Attribute id="4522" value="" name="ident"/>
          </Attributes>
          <ExtraData>
           <Entry key="ZoomPanBin">
            <ZoomPanBin id="4523"  >
             <ZoomPanKeyframes>
              <ZoomPanKeyframe id="4524" timeRangeEnd="-9999999/1" timeRangeDuration="0/1" interpolaterName="linr"  />
             </ZoomPanKeyframes>
            </ZoomPanBin>
           </Entry>
           <Entry key="CursorEffectBin">
            <CursorEffectBin id="4525"  >
             <CursorEffectKeyframes>
              <CursorEffectKeyframe id="4526" timeRangeEnd="-9999999/1" timeRangeDuration="0/1" interpolaterName=""  />
             </CursorEffectKeyframes>
            </CursorEffectBin>
           </Entry>
          </ExtraData>
         </ScreenVMFile>
         <MetaData>
          <entry key="AutoAppliedSmartFocus" val="False"/>
          <entry key="WinSubProjectDisplayName" val=""/>
         </MetaData>
        </UnifiedMedia>
        <UnifiedMedia id="4527"  >
         <AMFile id="4528" start="52011" duration="481" scalar="1/1" mediaStart="0/1" mediaDuration="481/1" trackNumber="1" src="29" channelNumber="0,1" >
          <Parameters>
           <InterpolatingParam id="4529" interp="linr"  time="0/1" value="1" leadInLength="0/1"  name="volume"/>
           <Parameter id="4530"  name="captions"/>
          </Parameters>
          <Attributes>
           <Attribute id="4531" value="" name="ident"/>
           <Attribute id="4532" value="44100" name="sampleRate"/>
           <Attribute id="4533" value="16" name="bitDepth"/>
           <Attribute id="4534" value="1" name="gain"/>
           <Attribute id="4535" value="0" name="mixToMono"/>
          </Attributes>
         </AMFile>
         <ScreenVMFile id="4536" start="52011" duration="481" scalar="1/1" mediaStart="0/1" mediaDuration="481/1" trackNumber="0" src="29" >
          <Transformer>
           <VectorParam id="4537"  name="translation">
            <InterpolatingParam id="4538" interp="linr"  time="-9999999/1" value="0" leadInLength="0/1"  />
            <InterpolatingParam id="4539" interp="linr"  time="-9999999/1" value="0" leadInLength="0/1"  />
            <InterpolatingParam id="4540" interp="linr"  time="-9999999/1" value="0" leadInLength="0/1"  />
           </VectorParam>
           <VectorParam id="4541"  name="rotation">
            <InterpolatingParam id="4542" interp="linr"  time="-9999999/1" value="0" leadInLength="0/1"  />
            <InterpolatingParam id="4543" interp="linr"  time="-9999999/1" value="0" leadInLength="0/1"  />
            <InterpolatingParam id="4544" interp="linr"  time="-9999999/1" value="0" leadInLength="0/1"  />
           </VectorParam>
           <VectorParam id="4545"  name="shear">
            <InterpolatingParam id="4546" interp="linr"  time="-9999999/1" value="0" leadInLength="0/1"  />
            <InterpolatingParam id="4547" interp="linr"  time="-9999999/1" value="0" leadInLength="0/1"  />
            <InterpolatingParam id="4548" interp="linr"  time="-9999999/1" value="0" leadInLength="0/1"  />
           </VectorParam>
           <VectorParam id="4549"  name="scale">
            <InterpolatingParam id="4550" interp="linr"  time="-9999999/1" value="0.80000000000000004" leadInLength="0/1"  />
            <InterpolatingParam id="4551" interp="linr"  time="-9999999/1" value="0.80000000000000004" leadInLength="0/1"  />
            <InterpolatingParam id="4552" interp="linr"  time="-9999999/1" value="1" leadInLength="0/1"  />
           </VectorParam>
           <VectorParam id="4553"  name="anchor">
            <InterpolatingParam id="4554" interp="linr"  time="0/1" value="0" leadInLength="0/1"  />
            <InterpolatingParam id="4555" interp="linr"  time="0/1" value="0" leadInLength="0/1"  />
            <InterpolatingParam id="4556" interp="linr"  time="0/1" value="0" leadInLength="0/1"  />
           </VectorParam>
          </Transformer>
          <Parameters>
           <VectorParam id="4557"  name="sourceCrop">
            <InterpolatingParam id="4558" interp="linr"  time="0/1" value="0" leadInLength="0/1"  />
            <InterpolatingParam id="4559" interp="linr"  time="0/1" value="0" leadInLength="0/1"  />
            <InterpolatingParam id="4560" interp="linr"  time="0/1" value="0" leadInLength="0/1"  />
            <InterpolatingParam id="4561" interp="linr"  time="0/1" value="0" leadInLength="0/1"  />
           </VectorParam>
           <VectorParam id="4562"  name="geometryCrop">
            <InterpolatingParam id="4563" interp="linr"  time="-9999999/1" value="0" leadInLength="0/1"  />
            <InterpolatingParam id="4564" interp="linr"  time="-9999999/1" value="0" leadInLength="0/1"  />
            <InterpolatingParam id="4565" interp="linr"  time="-9999999/1" value="0" leadInLength="0/1"  />
            <InterpolatingParam id="4566" interp="linr"  time="-9999999/1" value="0" leadInLength="0/1"  />
           </VectorParam>
           <InterpolatingParam id="4567" interp="linr"  time="-9999999/1" value="1" leadInLength="0/1"  name="opacity"/>
           <InterpolatingParam id="4568" interp="linr"  time="0/1" value="1" leadInLength="0/1"  name="cursorOpacity"/>
           <InterpolatingParam id="4569" interp="linr"  time="0/1" value="1" leadInLength="0/1"  name="cursorScale"/>
          </Parameters>
          <Effects>
           <GenericEffect id="4570" name = "CursorBaseEffectName" >
            <Parameters>
            <InterpolatingParam id="4571" interp="linr"  time="-9999999/1" value="1" leadInLength="0/1"   name="cursorSize"/>
            <InterpolatingParam id="4572" interp="linr"  time="-9999999/1" value="0" leadInLength="0/1"   name="highlightBlurRadius"/>
            <InterpolatingParam id="4573" interp="linr"  time="-9999999/1" value="0" leadInLength="0/1"   name="highlightColorBlue"/>
            <InterpolatingParam id="4574" interp="linr"  time="-9999999/1" value="255" leadInLength="0/1"   name="highlightColorGreen"/>
            <InterpolatingParam id="4575" interp="linr"  time="-9999999/1" value="255" leadInLength="0/1"   name="highlightColorRed"/>
            <InterpolatingParam id="4576" interp="linr"  time="-9999999/1" value="5" leadInLength="0/1"   name="highlightFeatherSize"/>
            <InterpolatingParam id="4577" interp="linr"  time="-9999999/1" value="2" leadInLength="0/1"   name="highlightMagnification"/>
            <InterpolatingParam id="4578" interp="linr"  time="-9999999/1" value="1" leadInLength="0/1"   name="highlightOpacity"/>
            <InterpolatingParam id="4579" interp="linr"  time="-9999999/1" value="45" leadInLength="0/1"   name="highlightSize"/>
            <Parameter id="4580"   name="highlightType">
             <Keyframes>
             <Keyframe id="4581"  time="-9999999/1" value="0" leadInLength="0/1"  />
             </Keyframes>
            </Parameter>
            <InterpolatingParam id="4582" interp="linr"  time="-9999999/1" value="0" leadInLength="0/1"   name="leftClickColorBlue"/>
            <InterpolatingParam id="4583" interp="linr"  time="-9999999/1" value="0" leadInLength="0/1"   name="leftClickColorGreen"/>
            <InterpolatingParam id="4584" interp="linr"  time="-9999999/1" value="255" leadInLength="0/1"   name="leftClickColorRed"/>
            <InterpolatingParam id="4585" interp="linr"  time="-9999999/1" value="0.80000000000000004" leadInLength="0/1"   name="leftClickDuration"/>
            <InterpolatingParam id="4586" interp="linr"  time="-9999999/1" value="20" leadInLength="0/1"   name="leftClickSize"/>
            <Parameter id="4587"   name="leftClickSoundFilename">
             <Keyframes>
             <Keyframe id="4588"  time="-9999999/1" value="" leadInLength="0/1"  />
             </Keyframes>
            </Parameter>
            <InterpolatingParam id="4589" interp="linr"  time="-9999999/1" value="1" leadInLength="0/1"   name="leftClickSoundVolume"/>
            <Parameter id="4590"   name="leftClickType">
             <Keyframes>
             <Keyframe id="4591"  time="-9999999/1" value="0" leadInLength="0/1"  />
             </Keyframes>
            </Parameter>
            <InterpolatingParam id="4592" interp="linr"  time="-9999999/1" value="1" leadInLength="0/1"   name="opacity"/>
            <InterpolatingParam id="4593" interp="linr"  time="-9999999/1" value="255" leadInLength="0/1"   name="rightClickColorBlue"/>
            <InterpolatingParam id="4594" interp="linr"  time="-9999999/1" value="0" leadInLength="0/1"   name="rightClickColorGreen"/>
            <InterpolatingParam id="4595" interp="linr"  time="-9999999/1" value="0" leadInLength="0/1"   name="rightClickColorRed"/>
            <InterpolatingParam id="4596" interp="linr"  time="-9999999/1" value="0.80000000000000004" leadInLength="0/1"   name="rightClickDuration"/>
            <InterpolatingParam id="4597" interp="linr"  time="-9999999/1" value="20" leadInLength="0/1"   name="rightClickSize"/>
            <Parameter id="4598"   name="rightClickSoundFilename">
             <Keyframes>
             <Keyframe id="4599"  time="-9999999/1" value="" leadInLength="0/1"  />
             </Keyframes>
            </Parameter>
            <InterpolatingParam id="4600" interp="linr"  time="-9999999/1" value="1" leadInLength="0/1"   name="rightClickSoundVolume"/>
            <Parameter id="4601"   name="rightClickType">
             <Keyframes>
             <Keyframe id="4602"  time="-9999999/1" value="0" leadInLength="0/1"  />
             </Keyframes>
            </Parameter>
            </Parameters>
            <MetaData>
             <entry key="effectIndex" val="0"/>
            </MetaData>
           </GenericEffect>
          </Effects>
          <Attributes>
           <Attribute id="4603" value="" name="ident"/>
          </Attributes>
          <ExtraData>
           <Entry key="ZoomPanBin">
            <ZoomPanBin id="4604"  >
             <ZoomPanKeyframes>
              <ZoomPanKeyframe id="4605" timeRangeEnd="-9999999/1" timeRangeDuration="0/1" interpolaterName="linr"  />
             </ZoomPanKeyframes>
            </ZoomPanBin>
           </Entry>
           <Entry key="CursorEffectBin">
            <CursorEffectBin id="4606"  >
             <CursorEffectKeyframes>
              <CursorEffectKeyframe id="4607" timeRangeEnd="-9999999/1" timeRangeDuration="0/1" interpolaterName=""  />
             </CursorEffectKeyframes>
            </CursorEffectBin>
           </Entry>
          </ExtraData>
         </ScreenVMFile>
         <MetaData>
          <entry key="AutoAppliedSmartFocus" val="False"/>
          <entry key="WinSubProjectDisplayName" val=""/>
         </MetaData>
        </UnifiedMedia>
        <StitchedMedia id="4608" start="52492" duration="1722" scalar="1/1" mediaStart="0/1" mediaDuration="1722/1" minMediaStart="0/1" >
         <Transformer>
          <VectorParam id="4609"  name="translation">
           <InterpolatingParam id="4610" interp="linr"  time="-9999999/1" value="0" leadInLength="0/1"  />
           <InterpolatingParam id="4611" interp="linr"  time="-9999999/1" value="0" leadInLength="0/1"  />
           <InterpolatingParam id="4612" interp="linr"  time="-9999999/1" value="0" leadInLength="0/1"  />
          </VectorParam>
          <VectorParam id="4613"  name="rotation">
           <InterpolatingParam id="4614" interp="linr"  time="-9999999/1" value="0" leadInLength="0/1"  />
           <InterpolatingParam id="4615" interp="linr"  time="-9999999/1" value="0" leadInLength="0/1"  />
           <InterpolatingParam id="4616" interp="linr"  time="-9999999/1" value="0" leadInLength="0/1"  />
          </VectorParam>
          <VectorParam id="4617"  name="shear">
           <InterpolatingParam id="4618" interp="linr"  time="-9999999/1" value="0" leadInLength="0/1"  />
           <InterpolatingParam id="4619" interp="linr"  time="-9999999/1" value="0" leadInLength="0/1"  />
           <InterpolatingParam id="4620" interp="linr"  time="-9999999/1" value="0" leadInLength="0/1"  />
          </VectorParam>
          <VectorParam id="4621"  name="scale">
           <InterpolatingParam id="4622" interp="linr"  time="-9999999/1" value="0.80000000000000004" leadInLength="0/1"  />
           <InterpolatingParam id="4623" interp="linr"  time="-9999999/1" value="0.80000000000000004" leadInLength="0/1"  />
           <InterpolatingParam id="4624" interp="linr"  time="-9999999/1" value="1" leadInLength="0/1"  />
          </VectorParam>
          <VectorParam id="4625"  name="anchor">
           <InterpolatingParam id="4626" interp="linr"  >
            <Keyframes>
            <Keyframe id="4627"  time="0/1" value="0" leadInLength="0/1"  />
            <Keyframe id="4628"  time="195/1" value="0" leadInLength="0/1"  />
            </Keyframes>
           </InterpolatingParam>
           <InterpolatingParam id="4629" interp="linr"  >
            <Keyframes>
            <Keyframe id="4630"  time="0/1" value="0" leadInLength="0/1"  />
            <Keyframe id="4631"  time="195/1" value="0" leadInLength="0/1"  />
            </Keyframes>
           </InterpolatingParam>
           <InterpolatingParam id="4632" interp="linr"  >
            <Keyframes>
            <Keyframe id="4633"  time="0/1" value="0" leadInLength="0/1"  />
            <Keyframe id="4634"  time="195/1" value="0" leadInLength="0/1"  />
            </Keyframes>
           </InterpolatingParam>
          </VectorParam>
         </Transformer>
         <Parameters>
          <VectorParam id="4635"  name="sourceCrop">
           <InterpolatingParam id="4636" interp="linr"  >
            <Keyframes>
            <Keyframe id="4637"  time="0/1" value="0" leadInLength="0/1"  />
            <Keyframe id="4638"  time="195/1" value="0" leadInLength="0/1"  />
            </Keyframes>
           </InterpolatingParam>
           <InterpolatingParam id="4639" interp="linr"  >
            <Keyframes>
            <Keyframe id="4640"  time="0/1" value="0" leadInLength="0/1"  />
            <Keyframe id="4641"  time="195/1" value="0" leadInLength="0/1"  />
            </Keyframes>
           </InterpolatingParam>
           <InterpolatingParam id="4642" interp="linr"  >
            <Keyframes>
            <Keyframe id="4643"  time="0/1" value="0" leadInLength="0/1"  />
            <Keyframe id="4644"  time="195/1" value="0" leadInLength="0/1"  />
            </Keyframes>
           </InterpolatingParam>
           <InterpolatingParam id="4645" interp="linr"  >
            <Keyframes>
            <Keyframe id="4646"  time="0/1" value="0" leadInLength="0/1"  />
            <Keyframe id="4647"  time="195/1" value="0" leadInLength="0/1"  />
            </Keyframes>
           </InterpolatingParam>
          </VectorParam>
          <VectorParam id="4648"  name="geometryCrop">
           <InterpolatingParam id="4649" interp="linr"  time="-9999999/1" value="0" leadInLength="0/1"  />
           <InterpolatingParam id="4650" interp="linr"  time="-9999999/1" value="0" leadInLength="0/1"  />
           <InterpolatingParam id="4651" interp="linr"  time="-9999999/1" value="0" leadInLength="0/1"  />
           <InterpolatingParam id="4652" interp="linr"  time="-9999999/1" value="0" leadInLength="0/1"  />
          </VectorParam>
          <InterpolatingParam id="4653" interp="linr"  time="-9999999/1" value="1" leadInLength="0/1"  name="opacity"/>
          <InterpolatingParam id="4654" interp="linr"  time="0/1" value="1" leadInLength="0/1"  name="cursorOpacity"/>
          <InterpolatingParam id="4655" interp="linr"  name="cursorScale">
           <Keyframes>
           <Keyframe id="4656"  time="0/1" value="1" leadInLength="0/1"  />
           <Keyframe id="4657"  time="195/1" value="1" leadInLength="0/1"  />
           </Keyframes>
          </InterpolatingParam>
          <InterpolatingParam id="4658" interp="linr"  time="0/1" value="1" leadInLength="0/1"  name="volume"/>
          <Parameter id="4659"  name="captions"/>
         </Parameters>
         <Effects>
          <GenericEffect id="4660" name = "CursorBaseEffectName" >
           <Parameters>
           <InterpolatingParam id="4661" interp="linr"  time="-9999999/1" value="1" leadInLength="0/1"   name="cursorSize"/>
           <InterpolatingParam id="4662" interp="linr"  time="-9999999/1" value="0" leadInLength="0/1"   name="highlightBlurRadius"/>
           <InterpolatingParam id="4663" interp="linr"  time="-9999999/1" value="0" leadInLength="0/1"   name="highlightColorBlue"/>
           <InterpolatingParam id="4664" interp="linr"  time="-9999999/1" value="255" leadInLength="0/1"   name="highlightColorGreen"/>
           <InterpolatingParam id="4665" interp="linr"  time="-9999999/1" value="255" leadInLength="0/1"   name="highlightColorRed"/>
           <InterpolatingParam id="4666" interp="linr"  time="-9999999/1" value="5" leadInLength="0/1"   name="highlightFeatherSize"/>
           <InterpolatingParam id="4667" interp="linr"  time="-9999999/1" value="2" leadInLength="0/1"   name="highlightMagnification"/>
           <InterpolatingParam id="4668" interp="linr"  time="-9999999/1" value="1" leadInLength="0/1"   name="highlightOpacity"/>
           <InterpolatingParam id="4669" interp="linr"  time="-9999999/1" value="45" leadInLength="0/1"   name="highlightSize"/>
           <Parameter id="4670"   name="highlightType">
            <Keyframes>
            <Keyframe id="4671"  time="-9999999/1" value="0" leadInLength="0/1"  />
            </Keyframes>
           </Parameter>
           <InterpolatingParam id="4672" interp="linr"  time="-9999999/1" value="0" leadInLength="0/1"   name="leftClickColorBlue"/>
           <InterpolatingParam id="4673" interp="linr"  time="-9999999/1" value="0" leadInLength="0/1"   name="leftClickColorGreen"/>
           <InterpolatingParam id="4674" interp="linr"  time="-9999999/1" value="255" leadInLength="0/1"   name="leftClickColorRed"/>
           <InterpolatingParam id="4675" interp="linr"  time="-9999999/1" value="0.80000000000000004" leadInLength="0/1"   name="leftClickDuration"/>
           <InterpolatingParam id="4676" interp="linr"  time="-9999999/1" value="20" leadInLength="0/1"   name="leftClickSize"/>
           <Parameter id="4677"   name="leftClickSoundFilename">
            <Keyframes>
            <Keyframe id="4678"  time="-9999999/1" value="" leadInLength="0/1"  />
            </Keyframes>
           </Parameter>
           <InterpolatingParam id="4679" interp="linr"  time="-9999999/1" value="1" leadInLength="0/1"   name="leftClickSoundVolume"/>
           <Parameter id="4680"   name="leftClickType">
            <Keyframes>
            <Keyframe id="4681"  time="-9999999/1" value="0" leadInLength="0/1"  />
            </Keyframes>
           </Parameter>
           <InterpolatingParam id="4682" interp="linr"  time="-9999999/1" value="1" leadInLength="0/1"   name="opacity"/>
           <InterpolatingParam id="4683" interp="linr"  time="-9999999/1" value="255" leadInLength="0/1"   name="rightClickColorBlue"/>
           <InterpolatingParam id="4684" interp="linr"  time="-9999999/1" value="0" leadInLength="0/1"   name="rightClickColorGreen"/>
           <InterpolatingParam id="4685" interp="linr"  time="-9999999/1" value="0" leadInLength="0/1"   name="rightClickColorRed"/>
           <InterpolatingParam id="4686" interp="linr"  time="-9999999/1" value="0.80000000000000004" leadInLength="0/1"   name="rightClickDuration"/>
           <InterpolatingParam id="4687" interp="linr"  time="-9999999/1" value="20" leadInLength="0/1"   name="rightClickSize"/>
           <Parameter id="4688"   name="rightClickSoundFilename">
            <Keyframes>
            <Keyframe id="4689"  time="-9999999/1" value="" leadInLength="0/1"  />
            </Keyframes>
           </Parameter>
           <InterpolatingParam id="4690" interp="linr"  time="-9999999/1" value="1" leadInLength="0/1"   name="rightClickSoundVolume"/>
           <Parameter id="4691"   name="rightClickType">
            <Keyframes>
            <Keyframe id="4692"  time="-9999999/1" value="0" leadInLength="0/1"  />
            </Keyframes>
           </Parameter>
           </Parameters>
           <MetaData>
            <entry key="effectIndex" val="0"/>
           </MetaData>
          </GenericEffect>
         </Effects>
         <Attributes>
          <Attribute id="4693" value="" name="ident"/>
          <Attribute id="4694" value="0" name="mixToMono"/>
         </Attributes>
         <MetaData>
          <entry key="AutoAppliedSmartFocus" val="False"/>
          <entry key="WinSubProjectDisplayName" val=""/>
         </MetaData>
         <ExtraData>
          <Entry key="ZoomPanBin">
           <ZoomPanBin id="4695"  >
            <ZoomPanKeyframes>
             <ZoomPanKeyframe id="4696" timeRangeEnd="-9999999/1" timeRangeDuration="0/1" interpolaterName=""  />
            </ZoomPanKeyframes>
           </ZoomPanBin>
          </Entry>
          <Entry key="CursorEffectBin">
           <CursorEffectBin id="4697"  >
            <CursorEffectKeyframes>
             <CursorEffectKeyframe id="4698" timeRangeEnd="-9999999/1" timeRangeDuration="0/1" interpolaterName=""  />
            </CursorEffectKeyframes>
           </CursorEffectBin>
          </Entry>
         </ExtraData>
         <GenericTrack id="4699"  >
          <Attributes>
           <Attribute id="4700" value="" name="ident"/>
           <Attribute id="4701" value="0" name="audioMuted"/>
           <Attribute id="4702" value="0" name="videoHidden"/>
          </Attributes>
          <MetaData>
           <entry key="IsLocked" val="False"/>
           <entry key="WinTrackHeight" val="0"/>
          </MetaData>
          <Medias>
           <UnifiedMedia id="4703"  >
            <AMFile id="4704" start="0" duration="195" scalar="1/1" mediaStart="0/1" mediaDuration="195/1" trackNumber="1" src="30" channelNumber="0,1" >
             <Parameters>
              <InterpolatingParam id="4705" interp="linr"  time="0/1" value="1" leadInLength="0/1"  name="volume"/>
              <Parameter id="4706"  name="captions"/>
             </Parameters>
             <Attributes>
              <Attribute id="4707" value="" name="ident"/>
              <Attribute id="4708" value="44100" name="sampleRate"/>
              <Attribute id="4709" value="16" name="bitDepth"/>
              <Attribute id="4710" value="1" name="gain"/>
              <Attribute id="4711" value="0" name="mixToMono"/>
             </Attributes>
            </AMFile>
            <ScreenVMFile id="4712" start="0" duration="195" scalar="1/1" mediaStart="0/1" mediaDuration="195/1" trackNumber="0" src="30" >
             <Transformer>
              <VectorParam id="4713"  name="translation">
               <InterpolatingParam id="4714" interp="linr"  time="-9999999/1" value="0" leadInLength="0/1"  />
               <InterpolatingParam id="4715" interp="linr"  time="-9999999/1" value="0" leadInLength="0/1"  />
               <InterpolatingParam id="4716" interp="linr"  time="-9999999/1" value="0" leadInLength="0/1"  />
              </VectorParam>
              <VectorParam id="4717"  name="rotation">
               <InterpolatingParam id="4718" interp="linr"  time="-9999999/1" value="0" leadInLength="0/1"  />
               <InterpolatingParam id="4719" interp="linr"  time="-9999999/1" value="0" leadInLength="0/1"  />
               <InterpolatingParam id="4720" interp="linr"  time="-9999999/1" value="0" leadInLength="0/1"  />
              </VectorParam>
              <VectorParam id="4721"  name="shear">
               <InterpolatingParam id="4722" interp="linr"  time="-9999999/1" value="0" leadInLength="0/1"  />
               <InterpolatingParam id="4723" interp="linr"  time="-9999999/1" value="0" leadInLength="0/1"  />
               <InterpolatingParam id="4724" interp="linr"  time="-9999999/1" value="0" leadInLength="0/1"  />
              </VectorParam>
              <VectorParam id="4725"  name="scale">
               <InterpolatingParam id="4726" interp="linr"  time="-9999999/1" value="1" leadInLength="0/1"  />
               <InterpolatingParam id="4727" interp="linr"  time="-9999999/1" value="1" leadInLength="0/1"  />
               <InterpolatingParam id="4728" interp="linr"  time="-9999999/1" value="1" leadInLength="0/1"  />
              </VectorParam>
              <VectorParam id="4729"  name="anchor">
               <InterpolatingParam id="4730" interp="linr"  time="0/1" value="0" leadInLength="0/1"  />
               <InterpolatingParam id="4731" interp="linr"  time="0/1" value="0" leadInLength="0/1"  />
               <InterpolatingParam id="4732" interp="linr"  time="0/1" value="0" leadInLength="0/1"  />
              </VectorParam>
             </Transformer>
             <Parameters>
              <VectorParam id="4733"  name="sourceCrop">
               <InterpolatingParam id="4734" interp="linr"  time="0/1" value="0" leadInLength="0/1"  />
               <InterpolatingParam id="4735" interp="linr"  time="0/1" value="0" leadInLength="0/1"  />
               <InterpolatingParam id="4736" interp="linr"  time="0/1" value="0" leadInLength="0/1"  />
               <InterpolatingParam id="4737" interp="linr"  time="0/1" value="0" leadInLength="0/1"  />
              </VectorParam>
              <VectorParam id="4738"  name="geometryCrop">
               <InterpolatingParam id="4739" interp="linr"  time="-9999999/1" value="0" leadInLength="0/1"  />
               <InterpolatingParam id="4740" interp="linr"  time="-9999999/1" value="0" leadInLength="0/1"  />
               <InterpolatingParam id="4741" interp="linr"  time="-9999999/1" value="0" leadInLength="0/1"  />
               <InterpolatingParam id="4742" interp="linr"  time="-9999999/1" value="0" leadInLength="0/1"  />
              </VectorParam>
              <InterpolatingParam id="4743" interp="linr"  time="-9999999/1" value="1" leadInLength="0/1"  name="opacity"/>
              <InterpolatingParam id="4744" interp="linr"  time="0/1" value="0" leadInLength="0/1"  name="cursorOpacity"/>
              <InterpolatingParam id="4745" interp="linr"  time="0/1" value="0" leadInLength="0/1"  name="cursorScale"/>
             </Parameters>
             <Attributes>
              <Attribute id="4746" value="" name="ident"/>
             </Attributes>
             <ExtraData>
              <Entry key="ZoomPanBin">
               <ZoomPanBin id="4747"  >
                <ZoomPanKeyframes>
                 <ZoomPanKeyframe id="4748" timeRangeEnd="-9999999/1" timeRangeDuration="0/1" interpolaterName=""  />
                </ZoomPanKeyframes>
               </ZoomPanBin>
              </Entry>
              <Entry key="CursorEffectBin">
               <CursorEffectBin id="4749"  >
                <CursorEffectKeyframes>
                </CursorEffectKeyframes>
               </CursorEffectBin>
              </Entry>
             </ExtraData>
            </ScreenVMFile>
            <MetaData>
             <entry key="AutoAppliedSmartFocus" val="False"/>
             <entry key="WinSubProjectDisplayName" val=""/>
            </MetaData>
           </UnifiedMedia>
           <ScreenIMFile id="4750" start="195" duration="30" scalar="1/1" mediaStart="195/1" mediaDuration="1/1" trackNumber="0" src="30" trimStartSum="0/1" >
            <Transformer>
             <VectorParam id="4751"  name="translation">
              <InterpolatingParam id="4752" interp="linr"  time="-9999999/1" value="0" leadInLength="0/1"  />
              <InterpolatingParam id="4753" interp="linr"  time="-9999999/1" value="0" leadInLength="0/1"  />
              <InterpolatingParam id="4754" interp="linr"  time="-9999999/1" value="0" leadInLength="0/1"  />
             </VectorParam>
             <VectorParam id="4755"  name="rotation">
              <InterpolatingParam id="4756" interp="linr"  time="-9999999/1" value="0" leadInLength="0/1"  />
              <InterpolatingParam id="4757" interp="linr"  time="-9999999/1" value="0" leadInLength="0/1"  />
              <InterpolatingParam id="4758" interp="linr"  time="-9999999/1" value="0" leadInLength="0/1"  />
             </VectorParam>
             <VectorParam id="4759"  name="shear">
              <InterpolatingParam id="4760" interp="linr"  time="-9999999/1" value="0" leadInLength="0/1"  />
              <InterpolatingParam id="4761" interp="linr"  time="-9999999/1" value="0" leadInLength="0/1"  />
              <InterpolatingParam id="4762" interp="linr"  time="-9999999/1" value="0" leadInLength="0/1"  />
             </VectorParam>
             <VectorParam id="4763"  name="scale">
              <InterpolatingParam id="4764" interp="linr"  time="-9999999/1" value="1" leadInLength="0/1"  />
              <InterpolatingParam id="4765" interp="linr"  time="-9999999/1" value="1" leadInLength="0/1"  />
              <InterpolatingParam id="4766" interp="linr"  time="-9999999/1" value="1" leadInLength="0/1"  />
             </VectorParam>
             <VectorParam id="4767"  name="anchor">
              <InterpolatingParam id="4768" interp="linr"  time="0/1" value="0" leadInLength="0/1"  />
              <InterpolatingParam id="4769" interp="linr"  time="0/1" value="0" leadInLength="0/1"  />
              <InterpolatingParam id="4770" interp="linr"  time="0/1" value="0" leadInLength="0/1"  />
             </VectorParam>
            </Transformer>
            <Parameters>
             <VectorParam id="4771"  name="sourceCrop">
              <InterpolatingParam id="4772" interp="linr"  time="0/1" value="0" leadInLength="0/1"  />
              <InterpolatingParam id="4773" interp="linr"  time="0/1" value="0" leadInLength="0/1"  />
              <InterpolatingParam id="4774" interp="linr"  time="0/1" value="0" leadInLength="0/1"  />
              <InterpolatingParam id="4775" interp="linr"  time="0/1" value="0" leadInLength="0/1"  />
             </VectorParam>
             <VectorParam id="4776"  name="geometryCrop">
              <InterpolatingParam id="4777" interp="linr"  time="-9999999/1" value="0" leadInLength="0/1"  />
              <InterpolatingParam id="4778" interp="linr"  time="-9999999/1" value="0" leadInLength="0/1"  />
              <InterpolatingParam id="4779" interp="linr"  time="-9999999/1" value="0" leadInLength="0/1"  />
              <InterpolatingParam id="4780" interp="linr"  time="-9999999/1" value="0" leadInLength="0/1"  />
             </VectorParam>
             <InterpolatingParam id="4781" interp="linr"  time="-9999999/1" value="1" leadInLength="0/1"  name="opacity"/>
             <InterpolatingParam id="4782" interp="linr"  name="cursorLocation">
              <Keyframes>
              <Keyframe id="4783"  time="0/1" value="(1528,783,0)" leadInLength="0/1"  />
              <Keyframe id="4784"  time="226/1" value="(1528,783,0)" leadInLength="0/1"  />
              <Keyframe id="4785"  time="229/1" value="(1528,783,0)" leadInLength="0/1"  />
              <Keyframe id="4786"  time="247/1" value="(1528,783,0)" leadInLength="0/1"  />
              <Keyframe id="4787"  time="250/1" value="(1528,783,0)" leadInLength="0/1"  />
              </Keyframes>
             </InterpolatingParam>
             <InterpolatingParam id="4788" interp="linr"  time="0/1" value="(-32000,-32000,160,24)" leadInLength="0/1"  name="topmostWindowCoordinates"/>
             <InterpolatingParam id="4789" interp="linr"  name="cursorAction">
              <Keyframes>
              <Keyframe id="4790"  time="226/1" value="1" leadInLength="0/1"  />
              <Keyframe id="4791"  time="229/1" value="2" leadInLength="0/1"  />
              <Keyframe id="4792"  time="247/1" value="1" leadInLength="0/1"  />
              <Keyframe id="4793"  time="250/1" value="2" leadInLength="0/1"  />
              </Keyframes>
             </InterpolatingParam>
             <Parameter id="4794"  name="cursorImagePath">
              <Keyframes>
              <Keyframe id="4795"  time="0/1" value="2b7b6af1-7a1f-11e2-83d0-0017f200be7f/0" leadInLength="0/1"  />
              </Keyframes>
             </Parameter>
             <InterpolatingParam id="4796" interp="linr"  time="0/1" value="(0,0,1600,900)" leadInLength="0/1"  name="recordingRegion"/>
             <InterpolatingParam id="4797" interp="linr"  time="0/1" value="0" leadInLength="0/1"  name="cursorOpacity"/>
             <InterpolatingParam id="4798" interp="linr"  time="0/1" value="1" leadInLength="0/1"  name="recordedCursorOpacity"/>
             <InterpolatingParam id="4799" interp="linr"  time="0/1" value="0" leadInLength="0/1"  name="cursorScale"/>
            </Parameters>
            <Attributes>
             <Attribute id="4800" value="" name="ident"/>
            </Attributes>
            <MetaData>
             <entry key="AutoAppliedSmartFocus" val="False"/>
             <entry key="WinSubProjectDisplayName" val=""/>
            </MetaData>
            <ExtraData>
             <Entry key="ZoomPanBin">
              <ZoomPanBin id="4801"  >
               <ZoomPanKeyframes>
                <ZoomPanKeyframe id="4802" timeRangeEnd="-9999999/1" timeRangeDuration="0/1" interpolaterName=""  />
               </ZoomPanKeyframes>
              </ZoomPanBin>
             </Entry>
             <Entry key="CursorEffectBin">
              <CursorEffectBin id="4803"  >
               <CursorEffectKeyframes>
               </CursorEffectKeyframes>
              </CursorEffectBin>
             </Entry>
            </ExtraData>
           </ScreenIMFile>
           <UnifiedMedia id="4804"  >
            <AMFile id="4805" start="225" duration="831" scalar="1/1" mediaStart="195/1" mediaDuration="831/1" trackNumber="1" src="30" channelNumber="0,1" >
             <Parameters>
              <InterpolatingParam id="4806" interp="linr"  time="0/1" value="1" leadInLength="0/1"  name="volume"/>
              <Parameter id="4807"  name="captions"/>
             </Parameters>
             <Attributes>
              <Attribute id="4808" value="" name="ident"/>
              <Attribute id="4809" value="44100" name="sampleRate"/>
              <Attribute id="4810" value="16" name="bitDepth"/>
              <Attribute id="4811" value="1" name="gain"/>
              <Attribute id="4812" value="0" name="mixToMono"/>
             </Attributes>
            </AMFile>
            <ScreenVMFile id="4813" start="225" duration="831" scalar="1/1" mediaStart="195/1" mediaDuration="831/1" trackNumber="0" src="30" >
             <Transformer>
              <VectorParam id="4814"  name="translation">
               <InterpolatingParam id="4815" interp="linr"  time="-9999999/1" value="0" leadInLength="0/1"  />
               <InterpolatingParam id="4816" interp="linr"  time="-9999999/1" value="0" leadInLength="0/1"  />
               <InterpolatingParam id="4817" interp="linr"  time="-9999999/1" value="0" leadInLength="0/1"  />
              </VectorParam>
              <VectorParam id="4818"  name="rotation">
               <InterpolatingParam id="4819" interp="linr"  time="-9999999/1" value="0" leadInLength="0/1"  />
               <InterpolatingParam id="4820" interp="linr"  time="-9999999/1" value="0" leadInLength="0/1"  />
               <InterpolatingParam id="4821" interp="linr"  time="-9999999/1" value="0" leadInLength="0/1"  />
              </VectorParam>
              <VectorParam id="4822"  name="shear">
               <InterpolatingParam id="4823" interp="linr"  time="-9999999/1" value="0" leadInLength="0/1"  />
               <InterpolatingParam id="4824" interp="linr"  time="-9999999/1" value="0" leadInLength="0/1"  />
               <InterpolatingParam id="4825" interp="linr"  time="-9999999/1" value="0" leadInLength="0/1"  />
              </VectorParam>
              <VectorParam id="4826"  name="scale">
               <InterpolatingParam id="4827" interp="linr"  time="-9999999/1" value="1" leadInLength="0/1"  />
               <InterpolatingParam id="4828" interp="linr"  time="-9999999/1" value="1" leadInLength="0/1"  />
               <InterpolatingParam id="4829" interp="linr"  time="-9999999/1" value="1" leadInLength="0/1"  />
              </VectorParam>
              <VectorParam id="4830"  name="anchor">
               <InterpolatingParam id="4831" interp="linr"  time="0/1" value="0" leadInLength="0/1"  />
               <InterpolatingParam id="4832" interp="linr"  time="0/1" value="0" leadInLength="0/1"  />
               <InterpolatingParam id="4833" interp="linr"  time="0/1" value="0" leadInLength="0/1"  />
              </VectorParam>
             </Transformer>
             <Parameters>
              <VectorParam id="4834"  name="sourceCrop">
               <InterpolatingParam id="4835" interp="linr"  time="0/1" value="0" leadInLength="0/1"  />
               <InterpolatingParam id="4836" interp="linr"  time="0/1" value="0" leadInLength="0/1"  />
               <InterpolatingParam id="4837" interp="linr"  time="0/1" value="0" leadInLength="0/1"  />
               <InterpolatingParam id="4838" interp="linr"  time="0/1" value="0" leadInLength="0/1"  />
              </VectorParam>
              <VectorParam id="4839"  name="geometryCrop">
               <InterpolatingParam id="4840" interp="linr"  time="-9999999/1" value="0" leadInLength="0/1"  />
               <InterpolatingParam id="4841" interp="linr"  time="-9999999/1" value="0" leadInLength="0/1"  />
               <InterpolatingParam id="4842" interp="linr"  time="-9999999/1" value="0" leadInLength="0/1"  />
               <InterpolatingParam id="4843" interp="linr"  time="-9999999/1" value="0" leadInLength="0/1"  />
              </VectorParam>
              <InterpolatingParam id="4844" interp="linr"  time="-9999999/1" value="1" leadInLength="0/1"  name="opacity"/>
              <InterpolatingParam id="4845" interp="linr"  time="0/1" value="0" leadInLength="0/1"  name="cursorOpacity"/>
              <InterpolatingParam id="4846" interp="linr"  time="0/1" value="0" leadInLength="0/1"  name="cursorScale"/>
             </Parameters>
             <Attributes>
              <Attribute id="4847" value="" name="ident"/>
             </Attributes>
             <ExtraData>
              <Entry key="ZoomPanBin">
               <ZoomPanBin id="4848"  >
                <ZoomPanKeyframes>
                 <ZoomPanKeyframe id="4849" timeRangeEnd="-9999999/1" timeRangeDuration="0/1" interpolaterName=""  />
                </ZoomPanKeyframes>
               </ZoomPanBin>
              </Entry>
              <Entry key="CursorEffectBin">
               <CursorEffectBin id="4850"  >
                <CursorEffectKeyframes>
                </CursorEffectKeyframes>
               </CursorEffectBin>
              </Entry>
             </ExtraData>
            </ScreenVMFile>
            <MetaData>
             <entry key="AutoAppliedSmartFocus" val="False"/>
             <entry key="WinSubProjectDisplayName" val=""/>
            </MetaData>
           </UnifiedMedia>
           <UnifiedMedia id="4851"  >
            <AMFile id="4852" start="1056" duration="666" scalar="1/1" mediaStart="1104/1" mediaDuration="666/1" trackNumber="1" src="30" channelNumber="0,1" >
             <Parameters>
              <InterpolatingParam id="4853" interp="linr"  time="0/1" value="1" leadInLength="0/1"  name="volume"/>
              <Parameter id="4854"  name="captions"/>
             </Parameters>
             <Attributes>
              <Attribute id="4855" value="" name="ident"/>
              <Attribute id="4856" value="44100" name="sampleRate"/>
              <Attribute id="4857" value="16" name="bitDepth"/>
              <Attribute id="4858" value="1" name="gain"/>
              <Attribute id="4859" value="0" name="mixToMono"/>
             </Attributes>
            </AMFile>
            <ScreenVMFile id="4860" start="1056" duration="666" scalar="1/1" mediaStart="1104/1" mediaDuration="666/1" trackNumber="0" src="30" >
             <Transformer>
              <VectorParam id="4861"  name="translation">
               <InterpolatingParam id="4862" interp="linr"  time="-9999999/1" value="0" leadInLength="0/1"  />
               <InterpolatingParam id="4863" interp="linr"  time="-9999999/1" value="0" leadInLength="0/1"  />
               <InterpolatingParam id="4864" interp="linr"  time="-9999999/1" value="0" leadInLength="0/1"  />
              </VectorParam>
              <VectorParam id="4865"  name="rotation">
               <InterpolatingParam id="4866" interp="linr"  time="-9999999/1" value="0" leadInLength="0/1"  />
               <InterpolatingParam id="4867" interp="linr"  time="-9999999/1" value="0" leadInLength="0/1"  />
               <InterpolatingParam id="4868" interp="linr"  time="-9999999/1" value="0" leadInLength="0/1"  />
              </VectorParam>
              <VectorParam id="4869"  name="shear">
               <InterpolatingParam id="4870" interp="linr"  time="-9999999/1" value="0" leadInLength="0/1"  />
               <InterpolatingParam id="4871" interp="linr"  time="-9999999/1" value="0" leadInLength="0/1"  />
               <InterpolatingParam id="4872" interp="linr"  time="-9999999/1" value="0" leadInLength="0/1"  />
              </VectorParam>
              <VectorParam id="4873"  name="scale">
               <InterpolatingParam id="4874" interp="linr"  time="-9999999/1" value="1" leadInLength="0/1"  />
               <InterpolatingParam id="4875" interp="linr"  time="-9999999/1" value="1" leadInLength="0/1"  />
               <InterpolatingParam id="4876" interp="linr"  time="-9999999/1" value="1" leadInLength="0/1"  />
              </VectorParam>
              <VectorParam id="4877"  name="anchor">
               <InterpolatingParam id="4878" interp="linr"  time="0/1" value="0" leadInLength="0/1"  />
               <InterpolatingParam id="4879" interp="linr"  time="0/1" value="0" leadInLength="0/1"  />
               <InterpolatingParam id="4880" interp="linr"  time="0/1" value="0" leadInLength="0/1"  />
              </VectorParam>
             </Transformer>
             <Parameters>
              <VectorParam id="4881"  name="sourceCrop">
               <InterpolatingParam id="4882" interp="linr"  time="0/1" value="0" leadInLength="0/1"  />
               <InterpolatingParam id="4883" interp="linr"  time="0/1" value="0" leadInLength="0/1"  />
               <InterpolatingParam id="4884" interp="linr"  time="0/1" value="0" leadInLength="0/1"  />
               <InterpolatingParam id="4885" interp="linr"  time="0/1" value="0" leadInLength="0/1"  />
              </VectorParam>
              <VectorParam id="4886"  name="geometryCrop">
               <InterpolatingParam id="4887" interp="linr"  time="-9999999/1" value="0" leadInLength="0/1"  />
               <InterpolatingParam id="4888" interp="linr"  time="-9999999/1" value="0" leadInLength="0/1"  />
               <InterpolatingParam id="4889" interp="linr"  time="-9999999/1" value="0" leadInLength="0/1"  />
               <InterpolatingParam id="4890" interp="linr"  time="-9999999/1" value="0" leadInLength="0/1"  />
              </VectorParam>
              <InterpolatingParam id="4891" interp="linr"  time="-9999999/1" value="1" leadInLength="0/1"  name="opacity"/>
              <InterpolatingParam id="4892" interp="linr"  time="0/1" value="0" leadInLength="0/1"  name="cursorOpacity"/>
              <InterpolatingParam id="4893" interp="linr"  time="0/1" value="0" leadInLength="0/1"  name="cursorScale"/>
             </Parameters>
             <Attributes>
              <Attribute id="4894" value="" name="ident"/>
             </Attributes>
             <ExtraData>
              <Entry key="ZoomPanBin">
               <ZoomPanBin id="4895"  >
                <ZoomPanKeyframes>
                 <ZoomPanKeyframe id="4896" timeRangeEnd="-9999999/1" timeRangeDuration="0/1" interpolaterName=""  />
                </ZoomPanKeyframes>
               </ZoomPanBin>
              </Entry>
              <Entry key="CursorEffectBin">
               <CursorEffectBin id="4897"  >
                <CursorEffectKeyframes>
                </CursorEffectKeyframes>
               </CursorEffectBin>
              </Entry>
             </ExtraData>
            </ScreenVMFile>
            <MetaData>
             <entry key="AutoAppliedSmartFocus" val="False"/>
             <entry key="WinSubProjectDisplayName" val=""/>
            </MetaData>
           </UnifiedMedia>
          </Medias>
         </GenericTrack>
        </StitchedMedia>
        <UnifiedMedia id="4898"  >
         <AMFile id="4899" start="54214" duration="1290" scalar="1/1" mediaStart="0/1" mediaDuration="1290/1" trackNumber="1" src="31" channelNumber="0,1" >
          <Parameters>
           <InterpolatingParam id="4900" interp="linr"  time="0/1" value="1" leadInLength="0/1"  name="volume"/>
           <Parameter id="4901"  name="captions"/>
          </Parameters>
          <Attributes>
           <Attribute id="4902" value="" name="ident"/>
           <Attribute id="4903" value="44100" name="sampleRate"/>
           <Attribute id="4904" value="16" name="bitDepth"/>
           <Attribute id="4905" value="1" name="gain"/>
           <Attribute id="4906" value="0" name="mixToMono"/>
          </Attributes>
         </AMFile>
         <ScreenVMFile id="4907" start="54214" duration="1290" scalar="1/1" mediaStart="0/1" mediaDuration="1290/1" trackNumber="0" src="31" >
          <Transformer>
           <VectorParam id="4908"  name="translation">
            <InterpolatingParam id="4909" interp="linr"  time="-9999999/1" value="0" leadInLength="0/1"  />
            <InterpolatingParam id="4910" interp="linr"  time="-9999999/1" value="0" leadInLength="0/1"  />
            <InterpolatingParam id="4911" interp="linr"  time="-9999999/1" value="0" leadInLength="0/1"  />
           </VectorParam>
           <VectorParam id="4912"  name="rotation">
            <InterpolatingParam id="4913" interp="linr"  time="-9999999/1" value="0" leadInLength="0/1"  />
            <InterpolatingParam id="4914" interp="linr"  time="-9999999/1" value="0" leadInLength="0/1"  />
            <InterpolatingParam id="4915" interp="linr"  time="-9999999/1" value="0" leadInLength="0/1"  />
           </VectorParam>
           <VectorParam id="4916"  name="shear">
            <InterpolatingParam id="4917" interp="linr"  time="-9999999/1" value="0" leadInLength="0/1"  />
            <InterpolatingParam id="4918" interp="linr"  time="-9999999/1" value="0" leadInLength="0/1"  />
            <InterpolatingParam id="4919" interp="linr"  time="-9999999/1" value="0" leadInLength="0/1"  />
           </VectorParam>
           <VectorParam id="4920"  name="scale">
            <InterpolatingParam id="4921" interp="linr"  time="-9999999/1" value="0.80000000000000004" leadInLength="0/1"  />
            <InterpolatingParam id="4922" interp="linr"  time="-9999999/1" value="0.80000000000000004" leadInLength="0/1"  />
            <InterpolatingParam id="4923" interp="linr"  time="-9999999/1" value="1" leadInLength="0/1"  />
           </VectorParam>
           <VectorParam id="4924"  name="anchor">
            <InterpolatingParam id="4925" interp="linr"  time="0/1" value="0" leadInLength="0/1"  />
            <InterpolatingParam id="4926" interp="linr"  time="0/1" value="0" leadInLength="0/1"  />
            <InterpolatingParam id="4927" interp="linr"  time="0/1" value="0" leadInLength="0/1"  />
           </VectorParam>
          </Transformer>
          <Parameters>
           <VectorParam id="4928"  name="sourceCrop">
            <InterpolatingParam id="4929" interp="linr"  time="0/1" value="0" leadInLength="0/1"  />
            <InterpolatingParam id="4930" interp="linr"  time="0/1" value="0" leadInLength="0/1"  />
            <InterpolatingParam id="4931" interp="linr"  time="0/1" value="0" leadInLength="0/1"  />
            <InterpolatingParam id="4932" interp="linr"  time="0/1" value="0" leadInLength="0/1"  />
           </VectorParam>
           <VectorParam id="4933"  name="geometryCrop">
            <InterpolatingParam id="4934" interp="linr"  time="-9999999/1" value="0" leadInLength="0/1"  />
            <InterpolatingParam id="4935" interp="linr"  time="-9999999/1" value="0" leadInLength="0/1"  />
            <InterpolatingParam id="4936" interp="linr"  time="-9999999/1" value="0" leadInLength="0/1"  />
            <InterpolatingParam id="4937" interp="linr"  time="-9999999/1" value="0" leadInLength="0/1"  />
           </VectorParam>
           <InterpolatingParam id="4938" interp="linr"  time="-9999999/1" value="1" leadInLength="0/1"  name="opacity"/>
           <InterpolatingParam id="4939" interp="linr"  time="0/1" value="1" leadInLength="0/1"  name="cursorOpacity"/>
           <InterpolatingParam id="4940" interp="linr"  time="0/1" value="1" leadInLength="0/1"  name="cursorScale"/>
          </Parameters>
          <Effects>
           <GenericEffect id="4941" name = "CursorBaseEffectName" >
            <Parameters>
            <InterpolatingParam id="4942" interp="linr"  time="-9999999/1" value="1" leadInLength="0/1"   name="cursorSize"/>
            <InterpolatingParam id="4943" interp="linr"  time="-9999999/1" value="0" leadInLength="0/1"   name="highlightBlurRadius"/>
            <InterpolatingParam id="4944" interp="linr"  time="-9999999/1" value="0" leadInLength="0/1"   name="highlightColorBlue"/>
            <InterpolatingParam id="4945" interp="linr"  time="-9999999/1" value="255" leadInLength="0/1"   name="highlightColorGreen"/>
            <InterpolatingParam id="4946" interp="linr"  time="-9999999/1" value="255" leadInLength="0/1"   name="highlightColorRed"/>
            <InterpolatingParam id="4947" interp="linr"  time="-9999999/1" value="5" leadInLength="0/1"   name="highlightFeatherSize"/>
            <InterpolatingParam id="4948" interp="linr"  time="-9999999/1" value="2" leadInLength="0/1"   name="highlightMagnification"/>
            <InterpolatingParam id="4949" interp="linr"  time="-9999999/1" value="1" leadInLength="0/1"   name="highlightOpacity"/>
            <InterpolatingParam id="4950" interp="linr"  time="-9999999/1" value="45" leadInLength="0/1"   name="highlightSize"/>
            <Parameter id="4951"   name="highlightType">
             <Keyframes>
             <Keyframe id="4952"  time="-9999999/1" value="0" leadInLength="0/1"  />
             </Keyframes>
            </Parameter>
            <InterpolatingParam id="4953" interp="linr"  time="-9999999/1" value="0" leadInLength="0/1"   name="leftClickColorBlue"/>
            <InterpolatingParam id="4954" interp="linr"  time="-9999999/1" value="0" leadInLength="0/1"   name="leftClickColorGreen"/>
            <InterpolatingParam id="4955" interp="linr"  time="-9999999/1" value="255" leadInLength="0/1"   name="leftClickColorRed"/>
            <InterpolatingParam id="4956" interp="linr"  time="-9999999/1" value="0.80000000000000004" leadInLength="0/1"   name="leftClickDuration"/>
            <InterpolatingParam id="4957" interp="linr"  time="-9999999/1" value="20" leadInLength="0/1"   name="leftClickSize"/>
            <Parameter id="4958"   name="leftClickSoundFilename">
             <Keyframes>
             <Keyframe id="4959"  time="-9999999/1" value="" leadInLength="0/1"  />
             </Keyframes>
            </Parameter>
            <InterpolatingParam id="4960" interp="linr"  time="-9999999/1" value="1" leadInLength="0/1"   name="leftClickSoundVolume"/>
            <Parameter id="4961"   name="leftClickType">
             <Keyframes>
             <Keyframe id="4962"  time="-9999999/1" value="0" leadInLength="0/1"  />
             </Keyframes>
            </Parameter>
            <InterpolatingParam id="4963" interp="linr"  time="-9999999/1" value="1" leadInLength="0/1"   name="opacity"/>
            <InterpolatingParam id="4964" interp="linr"  time="-9999999/1" value="255" leadInLength="0/1"   name="rightClickColorBlue"/>
            <InterpolatingParam id="4965" interp="linr"  time="-9999999/1" value="0" leadInLength="0/1"   name="rightClickColorGreen"/>
            <InterpolatingParam id="4966" interp="linr"  time="-9999999/1" value="0" leadInLength="0/1"   name="rightClickColorRed"/>
            <InterpolatingParam id="4967" interp="linr"  time="-9999999/1" value="0.80000000000000004" leadInLength="0/1"   name="rightClickDuration"/>
            <InterpolatingParam id="4968" interp="linr"  time="-9999999/1" value="20" leadInLength="0/1"   name="rightClickSize"/>
            <Parameter id="4969"   name="rightClickSoundFilename">
             <Keyframes>
             <Keyframe id="4970"  time="-9999999/1" value="" leadInLength="0/1"  />
             </Keyframes>
            </Parameter>
            <InterpolatingParam id="4971" interp="linr"  time="-9999999/1" value="1" leadInLength="0/1"   name="rightClickSoundVolume"/>
            <Parameter id="4972"   name="rightClickType">
             <Keyframes>
             <Keyframe id="4973"  time="-9999999/1" value="0" leadInLength="0/1"  />
             </Keyframes>
            </Parameter>
            </Parameters>
            <MetaData>
             <entry key="effectIndex" val="0"/>
            </MetaData>
           </GenericEffect>
          </Effects>
          <Attributes>
           <Attribute id="4974" value="" name="ident"/>
          </Attributes>
          <ExtraData>
           <Entry key="ZoomPanBin">
            <ZoomPanBin id="4975"  >
             <ZoomPanKeyframes>
              <ZoomPanKeyframe id="4976" timeRangeEnd="-9999999/1" timeRangeDuration="0/1" interpolaterName="linr"  />
             </ZoomPanKeyframes>
            </ZoomPanBin>
           </Entry>
           <Entry key="CursorEffectBin">
            <CursorEffectBin id="4977"  >
             <CursorEffectKeyframes>
              <CursorEffectKeyframe id="4978" timeRangeEnd="-9999999/1" timeRangeDuration="0/1" interpolaterName=""  />
             </CursorEffectKeyframes>
            </CursorEffectBin>
           </Entry>
          </ExtraData>
         </ScreenVMFile>
         <MetaData>
          <entry key="AutoAppliedSmartFocus" val="False"/>
          <entry key="WinSubProjectDisplayName" val=""/>
         </MetaData>
        </UnifiedMedia>
        <UnifiedMedia id="4979"  >
         <AMFile id="4980" start="55504" duration="4725" scalar="1/1" mediaStart="0/1" mediaDuration="4725/1" trackNumber="1" src="32" channelNumber="0,1" >
          <Parameters>
           <InterpolatingParam id="4981" interp="linr"  time="0/1" value="1" leadInLength="0/1"  name="volume"/>
           <Parameter id="4982"  name="captions"/>
          </Parameters>
          <Attributes>
           <Attribute id="4983" value="" name="ident"/>
           <Attribute id="4984" value="44100" name="sampleRate"/>
           <Attribute id="4985" value="16" name="bitDepth"/>
           <Attribute id="4986" value="1" name="gain"/>
           <Attribute id="4987" value="0" name="mixToMono"/>
          </Attributes>
         </AMFile>
         <ScreenVMFile id="4988" start="55504" duration="4725" scalar="1/1" mediaStart="0/1" mediaDuration="4725/1" trackNumber="0" src="32" >
          <Transformer>
           <VectorParam id="4989"  name="translation">
            <InterpolatingParam id="4990" interp="linr"  time="-9999999/1" value="0" leadInLength="0/1"  />
            <InterpolatingParam id="4991" interp="linr"  time="-9999999/1" value="0" leadInLength="0/1"  />
            <InterpolatingParam id="4992" interp="linr"  time="-9999999/1" value="0" leadInLength="0/1"  />
           </VectorParam>
           <VectorParam id="4993"  name="rotation">
            <InterpolatingParam id="4994" interp="linr"  time="-9999999/1" value="0" leadInLength="0/1"  />
            <InterpolatingParam id="4995" interp="linr"  time="-9999999/1" value="0" leadInLength="0/1"  />
            <InterpolatingParam id="4996" interp="linr"  time="-9999999/1" value="0" leadInLength="0/1"  />
           </VectorParam>
           <VectorParam id="4997"  name="shear">
            <InterpolatingParam id="4998" interp="linr"  time="-9999999/1" value="0" leadInLength="0/1"  />
            <InterpolatingParam id="4999" interp="linr"  time="-9999999/1" value="0" leadInLength="0/1"  />
            <InterpolatingParam id="5000" interp="linr"  time="-9999999/1" value="0" leadInLength="0/1"  />
           </VectorParam>
           <VectorParam id="5001"  name="scale">
            <InterpolatingParam id="5002" interp="linr"  time="-9999999/1" value="0.80000000000000004" leadInLength="0/1"  />
            <InterpolatingParam id="5003" interp="linr"  time="-9999999/1" value="0.80000000000000004" leadInLength="0/1"  />
            <InterpolatingParam id="5004" interp="linr"  time="-9999999/1" value="1" leadInLength="0/1"  />
           </VectorParam>
           <VectorParam id="5005"  name="anchor">
            <InterpolatingParam id="5006" interp="linr"  time="0/1" value="0" leadInLength="0/1"  />
            <InterpolatingParam id="5007" interp="linr"  time="0/1" value="0" leadInLength="0/1"  />
            <InterpolatingParam id="5008" interp="linr"  time="0/1" value="0" leadInLength="0/1"  />
           </VectorParam>
          </Transformer>
          <Parameters>
           <VectorParam id="5009"  name="sourceCrop">
            <InterpolatingParam id="5010" interp="linr"  time="0/1" value="0" leadInLength="0/1"  />
            <InterpolatingParam id="5011" interp="linr"  time="0/1" value="0" leadInLength="0/1"  />
            <InterpolatingParam id="5012" interp="linr"  time="0/1" value="0" leadInLength="0/1"  />
            <InterpolatingParam id="5013" interp="linr"  time="0/1" value="0" leadInLength="0/1"  />
           </VectorParam>
           <VectorParam id="5014"  name="geometryCrop">
            <InterpolatingParam id="5015" interp="linr"  time="-9999999/1" value="0" leadInLength="0/1"  />
            <InterpolatingParam id="5016" interp="linr"  time="-9999999/1" value="0" leadInLength="0/1"  />
            <InterpolatingParam id="5017" interp="linr"  time="-9999999/1" value="0" leadInLength="0/1"  />
            <InterpolatingParam id="5018" interp="linr"  time="-9999999/1" value="0" leadInLength="0/1"  />
           </VectorParam>
           <InterpolatingParam id="5019" interp="linr"  time="-9999999/1" value="1" leadInLength="0/1"  name="opacity"/>
           <InterpolatingParam id="5020" interp="linr"  time="0/1" value="1" leadInLength="0/1"  name="cursorOpacity"/>
           <InterpolatingParam id="5021" interp="linr"  time="0/1" value="1" leadInLength="0/1"  name="cursorScale"/>
          </Parameters>
          <Effects>
           <GenericEffect id="5022" name = "CursorBaseEffectName" >
            <Parameters>
            <InterpolatingParam id="5023" interp="linr"  time="-9999999/1" value="1" leadInLength="0/1"   name="cursorSize"/>
            <InterpolatingParam id="5024" interp="linr"  time="-9999999/1" value="0" leadInLength="0/1"   name="highlightBlurRadius"/>
            <InterpolatingParam id="5025" interp="linr"  time="-9999999/1" value="0" leadInLength="0/1"   name="highlightColorBlue"/>
            <InterpolatingParam id="5026" interp="linr"  time="-9999999/1" value="255" leadInLength="0/1"   name="highlightColorGreen"/>
            <InterpolatingParam id="5027" interp="linr"  time="-9999999/1" value="255" leadInLength="0/1"   name="highlightColorRed"/>
            <InterpolatingParam id="5028" interp="linr"  time="-9999999/1" value="5" leadInLength="0/1"   name="highlightFeatherSize"/>
            <InterpolatingParam id="5029" interp="linr"  time="-9999999/1" value="2" leadInLength="0/1"   name="highlightMagnification"/>
            <InterpolatingParam id="5030" interp="linr"  time="-9999999/1" value="1" leadInLength="0/1"   name="highlightOpacity"/>
            <InterpolatingParam id="5031" interp="linr"  time="-9999999/1" value="45" leadInLength="0/1"   name="highlightSize"/>
            <Parameter id="5032"   name="highlightType">
             <Keyframes>
             <Keyframe id="5033"  time="-9999999/1" value="0" leadInLength="0/1"  />
             </Keyframes>
            </Parameter>
            <InterpolatingParam id="5034" interp="linr"  time="-9999999/1" value="0" leadInLength="0/1"   name="leftClickColorBlue"/>
            <InterpolatingParam id="5035" interp="linr"  time="-9999999/1" value="0" leadInLength="0/1"   name="leftClickColorGreen"/>
            <InterpolatingParam id="5036" interp="linr"  time="-9999999/1" value="255" leadInLength="0/1"   name="leftClickColorRed"/>
            <InterpolatingParam id="5037" interp="linr"  time="-9999999/1" value="0.80000000000000004" leadInLength="0/1"   name="leftClickDuration"/>
            <InterpolatingParam id="5038" interp="linr"  time="-9999999/1" value="20" leadInLength="0/1"   name="leftClickSize"/>
            <Parameter id="5039"   name="leftClickSoundFilename">
             <Keyframes>
             <Keyframe id="5040"  time="-9999999/1" value="" leadInLength="0/1"  />
             </Keyframes>
            </Parameter>
            <InterpolatingParam id="5041" interp="linr"  time="-9999999/1" value="1" leadInLength="0/1"   name="leftClickSoundVolume"/>
            <Parameter id="5042"   name="leftClickType">
             <Keyframes>
             <Keyframe id="5043"  time="-9999999/1" value="0" leadInLength="0/1"  />
             </Keyframes>
            </Parameter>
            <InterpolatingParam id="5044" interp="linr"  time="-9999999/1" value="1" leadInLength="0/1"   name="opacity"/>
            <InterpolatingParam id="5045" interp="linr"  time="-9999999/1" value="255" leadInLength="0/1"   name="rightClickColorBlue"/>
            <InterpolatingParam id="5046" interp="linr"  time="-9999999/1" value="0" leadInLength="0/1"   name="rightClickColorGreen"/>
            <InterpolatingParam id="5047" interp="linr"  time="-9999999/1" value="0" leadInLength="0/1"   name="rightClickColorRed"/>
            <InterpolatingParam id="5048" interp="linr"  time="-9999999/1" value="0.80000000000000004" leadInLength="0/1"   name="rightClickDuration"/>
            <InterpolatingParam id="5049" interp="linr"  time="-9999999/1" value="20" leadInLength="0/1"   name="rightClickSize"/>
            <Parameter id="5050"   name="rightClickSoundFilename">
             <Keyframes>
             <Keyframe id="5051"  time="-9999999/1" value="" leadInLength="0/1"  />
             </Keyframes>
            </Parameter>
            <InterpolatingParam id="5052" interp="linr"  time="-9999999/1" value="1" leadInLength="0/1"   name="rightClickSoundVolume"/>
            <Parameter id="5053"   name="rightClickType">
             <Keyframes>
             <Keyframe id="5054"  time="-9999999/1" value="0" leadInLength="0/1"  />
             </Keyframes>
            </Parameter>
            </Parameters>
            <MetaData>
             <entry key="effectIndex" val="0"/>
            </MetaData>
           </GenericEffect>
          </Effects>
          <Attributes>
           <Attribute id="5055" value="" name="ident"/>
          </Attributes>
          <ExtraData>
           <Entry key="ZoomPanBin">
            <ZoomPanBin id="5056"  >
             <ZoomPanKeyframes>
              <ZoomPanKeyframe id="5057" timeRangeEnd="-9999999/1" timeRangeDuration="0/1" interpolaterName="linr"  />
             </ZoomPanKeyframes>
            </ZoomPanBin>
           </Entry>
           <Entry key="CursorEffectBin">
            <CursorEffectBin id="5058"  >
             <CursorEffectKeyframes>
              <CursorEffectKeyframe id="5059" timeRangeEnd="-9999999/1" timeRangeDuration="0/1" interpolaterName=""  />
             </CursorEffectKeyframes>
            </CursorEffectBin>
           </Entry>
          </ExtraData>
         </ScreenVMFile>
         <MetaData>
          <entry key="AutoAppliedSmartFocus" val="False"/>
          <entry key="WinSubProjectDisplayName" val=""/>
         </MetaData>
        </UnifiedMedia>
        <UnifiedMedia id="5060"  >
         <AMFile id="5061" start="60229" duration="316" scalar="1/1" mediaStart="0/1" mediaDuration="316/1" trackNumber="1" src="33" channelNumber="0,1" >
          <Parameters>
           <InterpolatingParam id="5062" interp="linr"  time="0/1" value="1" leadInLength="0/1"  name="volume"/>
           <Parameter id="5063"  name="captions"/>
          </Parameters>
          <Attributes>
           <Attribute id="5064" value="" name="ident"/>
           <Attribute id="5065" value="44100" name="sampleRate"/>
           <Attribute id="5066" value="16" name="bitDepth"/>
           <Attribute id="5067" value="1" name="gain"/>
           <Attribute id="5068" value="0" name="mixToMono"/>
          </Attributes>
         </AMFile>
         <ScreenVMFile id="5069" start="60229" duration="316" scalar="1/1" mediaStart="0/1" mediaDuration="316/1" trackNumber="0" src="33" >
          <Transformer>
           <VectorParam id="5070"  name="translation">
            <InterpolatingParam id="5071" interp="linr"  time="-9999999/1" value="0" leadInLength="0/1"  />
            <InterpolatingParam id="5072" interp="linr"  time="-9999999/1" value="0" leadInLength="0/1"  />
            <InterpolatingParam id="5073" interp="linr"  time="-9999999/1" value="0" leadInLength="0/1"  />
           </VectorParam>
           <VectorParam id="5074"  name="rotation">
            <InterpolatingParam id="5075" interp="linr"  time="-9999999/1" value="0" leadInLength="0/1"  />
            <InterpolatingParam id="5076" interp="linr"  time="-9999999/1" value="0" leadInLength="0/1"  />
            <InterpolatingParam id="5077" interp="linr"  time="-9999999/1" value="0" leadInLength="0/1"  />
           </VectorParam>
           <VectorParam id="5078"  name="shear">
            <InterpolatingParam id="5079" interp="linr"  time="-9999999/1" value="0" leadInLength="0/1"  />
            <InterpolatingParam id="5080" interp="linr"  time="-9999999/1" value="0" leadInLength="0/1"  />
            <InterpolatingParam id="5081" interp="linr"  time="-9999999/1" value="0" leadInLength="0/1"  />
           </VectorParam>
           <VectorParam id="5082"  name="scale">
            <InterpolatingParam id="5083" interp="linr"  time="-9999999/1" value="0.80000000000000004" leadInLength="0/1"  />
            <InterpolatingParam id="5084" interp="linr"  time="-9999999/1" value="0.80000000000000004" leadInLength="0/1"  />
            <InterpolatingParam id="5085" interp="linr"  time="-9999999/1" value="1" leadInLength="0/1"  />
           </VectorParam>
           <VectorParam id="5086"  name="anchor">
            <InterpolatingParam id="5087" interp="linr"  time="0/1" value="0" leadInLength="0/1"  />
            <InterpolatingParam id="5088" interp="linr"  time="0/1" value="0" leadInLength="0/1"  />
            <InterpolatingParam id="5089" interp="linr"  time="0/1" value="0" leadInLength="0/1"  />
           </VectorParam>
          </Transformer>
          <Parameters>
           <VectorParam id="5090"  name="sourceCrop">
            <InterpolatingParam id="5091" interp="linr"  time="0/1" value="0" leadInLength="0/1"  />
            <InterpolatingParam id="5092" interp="linr"  time="0/1" value="0" leadInLength="0/1"  />
            <InterpolatingParam id="5093" interp="linr"  time="0/1" value="0" leadInLength="0/1"  />
            <InterpolatingParam id="5094" interp="linr"  time="0/1" value="0" leadInLength="0/1"  />
           </VectorParam>
           <VectorParam id="5095"  name="geometryCrop">
            <InterpolatingParam id="5096" interp="linr"  time="-9999999/1" value="0" leadInLength="0/1"  />
            <InterpolatingParam id="5097" interp="linr"  time="-9999999/1" value="0" leadInLength="0/1"  />
            <InterpolatingParam id="5098" interp="linr"  time="-9999999/1" value="0" leadInLength="0/1"  />
            <InterpolatingParam id="5099" interp="linr"  time="-9999999/1" value="0" leadInLength="0/1"  />
           </VectorParam>
           <InterpolatingParam id="5100" interp="linr"  time="-9999999/1" value="1" leadInLength="0/1"  name="opacity"/>
           <InterpolatingParam id="5101" interp="linr"  time="0/1" value="1" leadInLength="0/1"  name="cursorOpacity"/>
           <InterpolatingParam id="5102" interp="linr"  time="0/1" value="1" leadInLength="0/1"  name="cursorScale"/>
          </Parameters>
          <Effects>
           <GenericEffect id="5103" name = "CursorBaseEffectName" >
            <Parameters>
            <InterpolatingParam id="5104" interp="linr"  time="-9999999/1" value="1" leadInLength="0/1"   name="cursorSize"/>
            <InterpolatingParam id="5105" interp="linr"  time="-9999999/1" value="0" leadInLength="0/1"   name="highlightBlurRadius"/>
            <InterpolatingParam id="5106" interp="linr"  time="-9999999/1" value="0" leadInLength="0/1"   name="highlightColorBlue"/>
            <InterpolatingParam id="5107" interp="linr"  time="-9999999/1" value="255" leadInLength="0/1"   name="highlightColorGreen"/>
            <InterpolatingParam id="5108" interp="linr"  time="-9999999/1" value="255" leadInLength="0/1"   name="highlightColorRed"/>
            <InterpolatingParam id="5109" interp="linr"  time="-9999999/1" value="5" leadInLength="0/1"   name="highlightFeatherSize"/>
            <InterpolatingParam id="5110" interp="linr"  time="-9999999/1" value="2" leadInLength="0/1"   name="highlightMagnification"/>
            <InterpolatingParam id="5111" interp="linr"  time="-9999999/1" value="1" leadInLength="0/1"   name="highlightOpacity"/>
            <InterpolatingParam id="5112" interp="linr"  time="-9999999/1" value="45" leadInLength="0/1"   name="highlightSize"/>
            <Parameter id="5113"   name="highlightType">
             <Keyframes>
             <Keyframe id="5114"  time="-9999999/1" value="0" leadInLength="0/1"  />
             </Keyframes>
            </Parameter>
            <InterpolatingParam id="5115" interp="linr"  time="-9999999/1" value="0" leadInLength="0/1"   name="leftClickColorBlue"/>
            <InterpolatingParam id="5116" interp="linr"  time="-9999999/1" value="0" leadInLength="0/1"   name="leftClickColorGreen"/>
            <InterpolatingParam id="5117" interp="linr"  time="-9999999/1" value="255" leadInLength="0/1"   name="leftClickColorRed"/>
            <InterpolatingParam id="5118" interp="linr"  time="-9999999/1" value="0.80000000000000004" leadInLength="0/1"   name="leftClickDuration"/>
            <InterpolatingParam id="5119" interp="linr"  time="-9999999/1" value="20" leadInLength="0/1"   name="leftClickSize"/>
            <Parameter id="5120"   name="leftClickSoundFilename">
             <Keyframes>
             <Keyframe id="5121"  time="-9999999/1" value="" leadInLength="0/1"  />
             </Keyframes>
            </Parameter>
            <InterpolatingParam id="5122" interp="linr"  time="-9999999/1" value="1" leadInLength="0/1"   name="leftClickSoundVolume"/>
            <Parameter id="5123"   name="leftClickType">
             <Keyframes>
             <Keyframe id="5124"  time="-9999999/1" value="0" leadInLength="0/1"  />
             </Keyframes>
            </Parameter>
            <InterpolatingParam id="5125" interp="linr"  time="-9999999/1" value="1" leadInLength="0/1"   name="opacity"/>
            <InterpolatingParam id="5126" interp="linr"  time="-9999999/1" value="255" leadInLength="0/1"   name="rightClickColorBlue"/>
            <InterpolatingParam id="5127" interp="linr"  time="-9999999/1" value="0" leadInLength="0/1"   name="rightClickColorGreen"/>
            <InterpolatingParam id="5128" interp="linr"  time="-9999999/1" value="0" leadInLength="0/1"   name="rightClickColorRed"/>
            <InterpolatingParam id="5129" interp="linr"  time="-9999999/1" value="0.80000000000000004" leadInLength="0/1"   name="rightClickDuration"/>
            <InterpolatingParam id="5130" interp="linr"  time="-9999999/1" value="20" leadInLength="0/1"   name="rightClickSize"/>
            <Parameter id="5131"   name="rightClickSoundFilename">
             <Keyframes>
             <Keyframe id="5132"  time="-9999999/1" value="" leadInLength="0/1"  />
             </Keyframes>
            </Parameter>
            <InterpolatingParam id="5133" interp="linr"  time="-9999999/1" value="1" leadInLength="0/1"   name="rightClickSoundVolume"/>
            <Parameter id="5134"   name="rightClickType">
             <Keyframes>
             <Keyframe id="5135"  time="-9999999/1" value="0" leadInLength="0/1"  />
             </Keyframes>
            </Parameter>
            </Parameters>
            <MetaData>
             <entry key="effectIndex" val="0"/>
            </MetaData>
           </GenericEffect>
          </Effects>
          <Attributes>
           <Attribute id="5136" value="" name="ident"/>
          </Attributes>
          <ExtraData>
           <Entry key="ZoomPanBin">
            <ZoomPanBin id="5137"  >
             <ZoomPanKeyframes>
              <ZoomPanKeyframe id="5138" timeRangeEnd="-9999999/1" timeRangeDuration="0/1" interpolaterName="linr"  />
             </ZoomPanKeyframes>
            </ZoomPanBin>
           </Entry>
           <Entry key="CursorEffectBin">
            <CursorEffectBin id="5139"  >
             <CursorEffectKeyframes>
              <CursorEffectKeyframe id="5140" timeRangeEnd="-9999999/1" timeRangeDuration="0/1" interpolaterName=""  />
             </CursorEffectKeyframes>
            </CursorEffectBin>
           </Entry>
          </ExtraData>
         </ScreenVMFile>
         <MetaData>
          <entry key="AutoAppliedSmartFocus" val="False"/>
          <entry key="WinSubProjectDisplayName" val=""/>
         </MetaData>
        </UnifiedMedia>
        <UnifiedMedia id="5141"  >
         <AMFile id="5142" start="60592" duration="5457" scalar="1/1" mediaStart="0/1" mediaDuration="5457/1" trackNumber="1" src="34" channelNumber="0,1" >
          <Parameters>
           <InterpolatingParam id="5143" interp="linr"  time="0/1" value="1" leadInLength="0/1"  name="volume"/>
           <Parameter id="5144"  name="captions"/>
          </Parameters>
          <Attributes>
           <Attribute id="5145" value="" name="ident"/>
           <Attribute id="5146" value="44100" name="sampleRate"/>
           <Attribute id="5147" value="16" name="bitDepth"/>
           <Attribute id="5148" value="1" name="gain"/>
           <Attribute id="5149" value="0" name="mixToMono"/>
          </Attributes>
         </AMFile>
         <ScreenVMFile id="5150" start="60592" duration="5457" scalar="1/1" mediaStart="0/1" mediaDuration="5457/1" trackNumber="0" src="34" >
          <Transformer>
           <VectorParam id="5151"  name="translation">
            <InterpolatingParam id="5152" interp="linr"  time="-9999999/1" value="0" leadInLength="0/1"  />
            <InterpolatingParam id="5153" interp="linr"  time="-9999999/1" value="0" leadInLength="0/1"  />
            <InterpolatingParam id="5154" interp="linr"  time="-9999999/1" value="0" leadInLength="0/1"  />
           </VectorParam>
           <VectorParam id="5155"  name="rotation">
            <InterpolatingParam id="5156" interp="linr"  time="-9999999/1" value="0" leadInLength="0/1"  />
            <InterpolatingParam id="5157" interp="linr"  time="-9999999/1" value="0" leadInLength="0/1"  />
            <InterpolatingParam id="5158" interp="linr"  time="-9999999/1" value="0" leadInLength="0/1"  />
           </VectorParam>
           <VectorParam id="5159"  name="shear">
            <InterpolatingParam id="5160" interp="linr"  time="-9999999/1" value="0" leadInLength="0/1"  />
            <InterpolatingParam id="5161" interp="linr"  time="-9999999/1" value="0" leadInLength="0/1"  />
            <InterpolatingParam id="5162" interp="linr"  time="-9999999/1" value="0" leadInLength="0/1"  />
           </VectorParam>
           <VectorParam id="5163"  name="scale">
            <InterpolatingParam id="5164" interp="linr"  time="-9999999/1" value="0.80000000000000004" leadInLength="0/1"  />
            <InterpolatingParam id="5165" interp="linr"  time="-9999999/1" value="0.80000000000000004" leadInLength="0/1"  />
            <InterpolatingParam id="5166" interp="linr"  time="-9999999/1" value="1" leadInLength="0/1"  />
           </VectorParam>
           <VectorParam id="5167"  name="anchor">
            <InterpolatingParam id="5168" interp="linr"  time="0/1" value="0" leadInLength="0/1"  />
            <InterpolatingParam id="5169" interp="linr"  time="0/1" value="0" leadInLength="0/1"  />
            <InterpolatingParam id="5170" interp="linr"  time="0/1" value="0" leadInLength="0/1"  />
           </VectorParam>
          </Transformer>
          <Parameters>
           <VectorParam id="5171"  name="sourceCrop">
            <InterpolatingParam id="5172" interp="linr"  time="0/1" value="0" leadInLength="0/1"  />
            <InterpolatingParam id="5173" interp="linr"  time="0/1" value="0" leadInLength="0/1"  />
            <InterpolatingParam id="5174" interp="linr"  time="0/1" value="0" leadInLength="0/1"  />
            <InterpolatingParam id="5175" interp="linr"  time="0/1" value="0" leadInLength="0/1"  />
           </VectorParam>
           <VectorParam id="5176"  name="geometryCrop">
            <InterpolatingParam id="5177" interp="linr"  time="-9999999/1" value="0" leadInLength="0/1"  />
            <InterpolatingParam id="5178" interp="linr"  time="-9999999/1" value="0" leadInLength="0/1"  />
            <InterpolatingParam id="5179" interp="linr"  time="-9999999/1" value="0" leadInLength="0/1"  />
            <InterpolatingParam id="5180" interp="linr"  time="-9999999/1" value="0" leadInLength="0/1"  />
           </VectorParam>
           <InterpolatingParam id="5181" interp="linr"  time="-9999999/1" value="1" leadInLength="0/1"  name="opacity"/>
           <InterpolatingParam id="5182" interp="linr"  time="0/1" value="1" leadInLength="0/1"  name="cursorOpacity"/>
           <InterpolatingParam id="5183" interp="linr"  time="0/1" value="1" leadInLength="0/1"  name="cursorScale"/>
          </Parameters>
          <Effects>
           <GenericEffect id="5184" name = "CursorBaseEffectName" >
            <Parameters>
            <InterpolatingParam id="5185" interp="linr"  time="-9999999/1" value="1" leadInLength="0/1"   name="cursorSize"/>
            <InterpolatingParam id="5186" interp="linr"  time="-9999999/1" value="0" leadInLength="0/1"   name="highlightBlurRadius"/>
            <InterpolatingParam id="5187" interp="linr"  time="-9999999/1" value="0" leadInLength="0/1"   name="highlightColorBlue"/>
            <InterpolatingParam id="5188" interp="linr"  time="-9999999/1" value="255" leadInLength="0/1"   name="highlightColorGreen"/>
            <InterpolatingParam id="5189" interp="linr"  time="-9999999/1" value="255" leadInLength="0/1"   name="highlightColorRed"/>
            <InterpolatingParam id="5190" interp="linr"  time="-9999999/1" value="5" leadInLength="0/1"   name="highlightFeatherSize"/>
            <InterpolatingParam id="5191" interp="linr"  time="-9999999/1" value="2" leadInLength="0/1"   name="highlightMagnification"/>
            <InterpolatingParam id="5192" interp="linr"  time="-9999999/1" value="1" leadInLength="0/1"   name="highlightOpacity"/>
            <InterpolatingParam id="5193" interp="linr"  time="-9999999/1" value="45" leadInLength="0/1"   name="highlightSize"/>
            <Parameter id="5194"   name="highlightType">
             <Keyframes>
             <Keyframe id="5195"  time="-9999999/1" value="0" leadInLength="0/1"  />
             </Keyframes>
            </Parameter>
            <InterpolatingParam id="5196" interp="linr"  time="-9999999/1" value="0" leadInLength="0/1"   name="leftClickColorBlue"/>
            <InterpolatingParam id="5197" interp="linr"  time="-9999999/1" value="0" leadInLength="0/1"   name="leftClickColorGreen"/>
            <InterpolatingParam id="5198" interp="linr"  time="-9999999/1" value="255" leadInLength="0/1"   name="leftClickColorRed"/>
            <InterpolatingParam id="5199" interp="linr"  time="-9999999/1" value="0.80000000000000004" leadInLength="0/1"   name="leftClickDuration"/>
            <InterpolatingParam id="5200" interp="linr"  time="-9999999/1" value="20" leadInLength="0/1"   name="leftClickSize"/>
            <Parameter id="5201"   name="leftClickSoundFilename">
             <Keyframes>
             <Keyframe id="5202"  time="-9999999/1" value="" leadInLength="0/1"  />
             </Keyframes>
            </Parameter>
            <InterpolatingParam id="5203" interp="linr"  time="-9999999/1" value="1" leadInLength="0/1"   name="leftClickSoundVolume"/>
            <Parameter id="5204"   name="leftClickType">
             <Keyframes>
             <Keyframe id="5205"  time="-9999999/1" value="0" leadInLength="0/1"  />
             </Keyframes>
            </Parameter>
            <InterpolatingParam id="5206" interp="linr"  time="-9999999/1" value="1" leadInLength="0/1"   name="opacity"/>
            <InterpolatingParam id="5207" interp="linr"  time="-9999999/1" value="255" leadInLength="0/1"   name="rightClickColorBlue"/>
            <InterpolatingParam id="5208" interp="linr"  time="-9999999/1" value="0" leadInLength="0/1"   name="rightClickColorGreen"/>
            <InterpolatingParam id="5209" interp="linr"  time="-9999999/1" value="0" leadInLength="0/1"   name="rightClickColorRed"/>
            <InterpolatingParam id="5210" interp="linr"  time="-9999999/1" value="0.80000000000000004" leadInLength="0/1"   name="rightClickDuration"/>
            <InterpolatingParam id="5211" interp="linr"  time="-9999999/1" value="20" leadInLength="0/1"   name="rightClickSize"/>
            <Parameter id="5212"   name="rightClickSoundFilename">
             <Keyframes>
             <Keyframe id="5213"  time="-9999999/1" value="" leadInLength="0/1"  />
             </Keyframes>
            </Parameter>
            <InterpolatingParam id="5214" interp="linr"  time="-9999999/1" value="1" leadInLength="0/1"   name="rightClickSoundVolume"/>
            <Parameter id="5215"   name="rightClickType">
             <Keyframes>
             <Keyframe id="5216"  time="-9999999/1" value="0" leadInLength="0/1"  />
             </Keyframes>
            </Parameter>
            </Parameters>
            <MetaData>
             <entry key="effectIndex" val="0"/>
            </MetaData>
           </GenericEffect>
          </Effects>
          <Attributes>
           <Attribute id="5217" value="" name="ident"/>
          </Attributes>
          <ExtraData>
           <Entry key="ZoomPanBin">
            <ZoomPanBin id="5218"  >
             <ZoomPanKeyframes>
              <ZoomPanKeyframe id="5219" timeRangeEnd="-9999999/1" timeRangeDuration="0/1" interpolaterName="linr"  />
             </ZoomPanKeyframes>
            </ZoomPanBin>
           </Entry>
           <Entry key="CursorEffectBin">
            <CursorEffectBin id="5220"  >
             <CursorEffectKeyframes>
              <CursorEffectKeyframe id="5221" timeRangeEnd="-9999999/1" timeRangeDuration="0/1" interpolaterName=""  />
             </CursorEffectKeyframes>
            </CursorEffectBin>
           </Entry>
          </ExtraData>
         </ScreenVMFile>
         <MetaData>
          <entry key="AutoAppliedSmartFocus" val="False"/>
          <entry key="WinSubProjectDisplayName" val=""/>
         </MetaData>
        </UnifiedMedia>
        <UnifiedMedia id="5222"  >
         <AMFile id="5223" start="66049" duration="10485" scalar="1/1" mediaStart="0/1" mediaDuration="10485/1" trackNumber="1" src="35" channelNumber="0,1" >
          <Parameters>
           <InterpolatingParam id="5224" interp="linr"  time="0/1" value="1" leadInLength="0/1"  name="volume"/>
           <Parameter id="5225"  name="captions"/>
          </Parameters>
          <Attributes>
           <Attribute id="5226" value="" name="ident"/>
           <Attribute id="5227" value="44100" name="sampleRate"/>
           <Attribute id="5228" value="16" name="bitDepth"/>
           <Attribute id="5229" value="1" name="gain"/>
           <Attribute id="5230" value="0" name="mixToMono"/>
          </Attributes>
         </AMFile>
         <ScreenVMFile id="5231" start="66049" duration="10485" scalar="1/1" mediaStart="0/1" mediaDuration="10485/1" trackNumber="0" src="35" >
          <Transformer>
           <VectorParam id="5232"  name="translation">
            <InterpolatingParam id="5233" interp="linr"  time="-9999999/1" value="0" leadInLength="0/1"  />
            <InterpolatingParam id="5234" interp="linr"  time="-9999999/1" value="0" leadInLength="0/1"  />
            <InterpolatingParam id="5235" interp="linr"  time="-9999999/1" value="0" leadInLength="0/1"  />
           </VectorParam>
           <VectorParam id="5236"  name="rotation">
            <InterpolatingParam id="5237" interp="linr"  time="-9999999/1" value="0" leadInLength="0/1"  />
            <InterpolatingParam id="5238" interp="linr"  time="-9999999/1" value="0" leadInLength="0/1"  />
            <InterpolatingParam id="5239" interp="linr"  time="-9999999/1" value="0" leadInLength="0/1"  />
           </VectorParam>
           <VectorParam id="5240"  name="shear">
            <InterpolatingParam id="5241" interp="linr"  time="-9999999/1" value="0" leadInLength="0/1"  />
            <InterpolatingParam id="5242" interp="linr"  time="-9999999/1" value="0" leadInLength="0/1"  />
            <InterpolatingParam id="5243" interp="linr"  time="-9999999/1" value="0" leadInLength="0/1"  />
           </VectorParam>
           <VectorParam id="5244"  name="scale">
            <InterpolatingParam id="5245" interp="linr"  time="-9999999/1" value="0.80000000000000004" leadInLength="0/1"  />
            <InterpolatingParam id="5246" interp="linr"  time="-9999999/1" value="0.80000000000000004" leadInLength="0/1"  />
            <InterpolatingParam id="5247" interp="linr"  time="-9999999/1" value="1" leadInLength="0/1"  />
           </VectorParam>
           <VectorParam id="5248"  name="anchor">
            <InterpolatingParam id="5249" interp="linr"  time="0/1" value="0" leadInLength="0/1"  />
            <InterpolatingParam id="5250" interp="linr"  time="0/1" value="0" leadInLength="0/1"  />
            <InterpolatingParam id="5251" interp="linr"  time="0/1" value="0" leadInLength="0/1"  />
           </VectorParam>
          </Transformer>
          <Parameters>
           <VectorParam id="5252"  name="sourceCrop">
            <InterpolatingParam id="5253" interp="linr"  time="0/1" value="0" leadInLength="0/1"  />
            <InterpolatingParam id="5254" interp="linr"  time="0/1" value="0" leadInLength="0/1"  />
            <InterpolatingParam id="5255" interp="linr"  time="0/1" value="0" leadInLength="0/1"  />
            <InterpolatingParam id="5256" interp="linr"  time="0/1" value="0" leadInLength="0/1"  />
           </VectorParam>
           <VectorParam id="5257"  name="geometryCrop">
            <InterpolatingParam id="5258" interp="linr"  time="-9999999/1" value="0" leadInLength="0/1"  />
            <InterpolatingParam id="5259" interp="linr"  time="-9999999/1" value="0" leadInLength="0/1"  />
            <InterpolatingParam id="5260" interp="linr"  time="-9999999/1" value="0" leadInLength="0/1"  />
            <InterpolatingParam id="5261" interp="linr"  time="-9999999/1" value="0" leadInLength="0/1"  />
           </VectorParam>
           <InterpolatingParam id="5262" interp="linr"  time="-9999999/1" value="1" leadInLength="0/1"  name="opacity"/>
           <InterpolatingParam id="5263" interp="linr"  time="0/1" value="1" leadInLength="0/1"  name="cursorOpacity"/>
           <InterpolatingParam id="5264" interp="linr"  time="0/1" value="1" leadInLength="0/1"  name="cursorScale"/>
          </Parameters>
          <Effects>
           <GenericEffect id="5265" name = "CursorBaseEffectName" >
            <Parameters>
            <InterpolatingParam id="5266" interp="linr"  time="-9999999/1" value="1" leadInLength="0/1"   name="cursorSize"/>
            <InterpolatingParam id="5267" interp="linr"  time="-9999999/1" value="0" leadInLength="0/1"   name="highlightBlurRadius"/>
            <InterpolatingParam id="5268" interp="linr"  time="-9999999/1" value="0" leadInLength="0/1"   name="highlightColorBlue"/>
            <InterpolatingParam id="5269" interp="linr"  time="-9999999/1" value="255" leadInLength="0/1"   name="highlightColorGreen"/>
            <InterpolatingParam id="5270" interp="linr"  time="-9999999/1" value="255" leadInLength="0/1"   name="highlightColorRed"/>
            <InterpolatingParam id="5271" interp="linr"  time="-9999999/1" value="5" leadInLength="0/1"   name="highlightFeatherSize"/>
            <InterpolatingParam id="5272" interp="linr"  time="-9999999/1" value="2" leadInLength="0/1"   name="highlightMagnification"/>
            <InterpolatingParam id="5273" interp="linr"  time="-9999999/1" value="1" leadInLength="0/1"   name="highlightOpacity"/>
            <InterpolatingParam id="5274" interp="linr"  time="-9999999/1" value="45" leadInLength="0/1"   name="highlightSize"/>
            <Parameter id="5275"   name="highlightType">
             <Keyframes>
             <Keyframe id="5276"  time="-9999999/1" value="0" leadInLength="0/1"  />
             </Keyframes>
            </Parameter>
            <InterpolatingParam id="5277" interp="linr"  time="-9999999/1" value="0" leadInLength="0/1"   name="leftClickColorBlue"/>
            <InterpolatingParam id="5278" interp="linr"  time="-9999999/1" value="0" leadInLength="0/1"   name="leftClickColorGreen"/>
            <InterpolatingParam id="5279" interp="linr"  time="-9999999/1" value="255" leadInLength="0/1"   name="leftClickColorRed"/>
            <InterpolatingParam id="5280" interp="linr"  time="-9999999/1" value="0.80000000000000004" leadInLength="0/1"   name="leftClickDuration"/>
            <InterpolatingParam id="5281" interp="linr"  time="-9999999/1" value="20" leadInLength="0/1"   name="leftClickSize"/>
            <Parameter id="5282"   name="leftClickSoundFilename">
             <Keyframes>
             <Keyframe id="5283"  time="-9999999/1" value="" leadInLength="0/1"  />
             </Keyframes>
            </Parameter>
            <InterpolatingParam id="5284" interp="linr"  time="-9999999/1" value="1" leadInLength="0/1"   name="leftClickSoundVolume"/>
            <Parameter id="5285"   name="leftClickType">
             <Keyframes>
             <Keyframe id="5286"  time="-9999999/1" value="0" leadInLength="0/1"  />
             </Keyframes>
            </Parameter>
            <InterpolatingParam id="5287" interp="linr"  time="-9999999/1" value="1" leadInLength="0/1"   name="opacity"/>
            <InterpolatingParam id="5288" interp="linr"  time="-9999999/1" value="255" leadInLength="0/1"   name="rightClickColorBlue"/>
            <InterpolatingParam id="5289" interp="linr"  time="-9999999/1" value="0" leadInLength="0/1"   name="rightClickColorGreen"/>
            <InterpolatingParam id="5290" interp="linr"  time="-9999999/1" value="0" leadInLength="0/1"   name="rightClickColorRed"/>
            <InterpolatingParam id="5291" interp="linr"  time="-9999999/1" value="0.80000000000000004" leadInLength="0/1"   name="rightClickDuration"/>
            <InterpolatingParam id="5292" interp="linr"  time="-9999999/1" value="20" leadInLength="0/1"   name="rightClickSize"/>
            <Parameter id="5293"   name="rightClickSoundFilename">
             <Keyframes>
             <Keyframe id="5294"  time="-9999999/1" value="" leadInLength="0/1"  />
             </Keyframes>
            </Parameter>
            <InterpolatingParam id="5295" interp="linr"  time="-9999999/1" value="1" leadInLength="0/1"   name="rightClickSoundVolume"/>
            <Parameter id="5296"   name="rightClickType">
             <Keyframes>
             <Keyframe id="5297"  time="-9999999/1" value="0" leadInLength="0/1"  />
             </Keyframes>
            </Parameter>
            </Parameters>
            <MetaData>
             <entry key="effectIndex" val="0"/>
            </MetaData>
           </GenericEffect>
          </Effects>
          <Attributes>
           <Attribute id="5298" value="" name="ident"/>
          </Attributes>
          <ExtraData>
           <Entry key="ZoomPanBin">
            <ZoomPanBin id="5299"  >
             <ZoomPanKeyframes>
              <ZoomPanKeyframe id="5300" timeRangeEnd="-9999999/1" timeRangeDuration="0/1" interpolaterName="linr"  />
             </ZoomPanKeyframes>
            </ZoomPanBin>
           </Entry>
           <Entry key="CursorEffectBin">
            <CursorEffectBin id="5301"  >
             <CursorEffectKeyframes>
              <CursorEffectKeyframe id="5302" timeRangeEnd="-9999999/1" timeRangeDuration="0/1" interpolaterName=""  />
             </CursorEffectKeyframes>
            </CursorEffectBin>
           </Entry>
          </ExtraData>
         </ScreenVMFile>
         <MetaData>
          <entry key="AutoAppliedSmartFocus" val="False"/>
          <entry key="WinSubProjectDisplayName" val=""/>
         </MetaData>
        </UnifiedMedia>
        <UnifiedMedia id="5303"  >
         <AMFile id="5304" start="76534" duration="195" scalar="1/1" mediaStart="0/1" mediaDuration="195/1" trackNumber="1" src="36" channelNumber="0,1" >
          <Parameters>
           <InterpolatingParam id="5305" interp="linr"  time="0/1" value="1" leadInLength="0/1"  name="volume"/>
           <Parameter id="5306"  name="captions"/>
          </Parameters>
          <Attributes>
           <Attribute id="5307" value="" name="ident"/>
           <Attribute id="5308" value="44100" name="sampleRate"/>
           <Attribute id="5309" value="16" name="bitDepth"/>
           <Attribute id="5310" value="1" name="gain"/>
           <Attribute id="5311" value="0" name="mixToMono"/>
          </Attributes>
         </AMFile>
         <ScreenVMFile id="5312" start="76534" duration="195" scalar="1/1" mediaStart="0/1" mediaDuration="195/1" trackNumber="0" src="36" >
          <Transformer>
           <VectorParam id="5313"  name="translation">
            <InterpolatingParam id="5314" interp="linr"  time="-9999999/1" value="0" leadInLength="0/1"  />
            <InterpolatingParam id="5315" interp="linr"  time="-9999999/1" value="0" leadInLength="0/1"  />
            <InterpolatingParam id="5316" interp="linr"  time="-9999999/1" value="0" leadInLength="0/1"  />
           </VectorParam>
           <VectorParam id="5317"  name="rotation">
            <InterpolatingParam id="5318" interp="linr"  time="-9999999/1" value="0" leadInLength="0/1"  />
            <InterpolatingParam id="5319" interp="linr"  time="-9999999/1" value="0" leadInLength="0/1"  />
            <InterpolatingParam id="5320" interp="linr"  time="-9999999/1" value="0" leadInLength="0/1"  />
           </VectorParam>
           <VectorParam id="5321"  name="shear">
            <InterpolatingParam id="5322" interp="linr"  time="-9999999/1" value="0" leadInLength="0/1"  />
            <InterpolatingParam id="5323" interp="linr"  time="-9999999/1" value="0" leadInLength="0/1"  />
            <InterpolatingParam id="5324" interp="linr"  time="-9999999/1" value="0" leadInLength="0/1"  />
           </VectorParam>
           <VectorParam id="5325"  name="scale">
            <InterpolatingParam id="5326" interp="linr"  time="-9999999/1" value="0.80000000000000004" leadInLength="0/1"  />
            <InterpolatingParam id="5327" interp="linr"  time="-9999999/1" value="0.80000000000000004" leadInLength="0/1"  />
            <InterpolatingParam id="5328" interp="linr"  time="-9999999/1" value="1" leadInLength="0/1"  />
           </VectorParam>
           <VectorParam id="5329"  name="anchor">
            <InterpolatingParam id="5330" interp="linr"  time="0/1" value="0" leadInLength="0/1"  />
            <InterpolatingParam id="5331" interp="linr"  time="0/1" value="0" leadInLength="0/1"  />
            <InterpolatingParam id="5332" interp="linr"  time="0/1" value="0" leadInLength="0/1"  />
           </VectorParam>
          </Transformer>
          <Parameters>
           <VectorParam id="5333"  name="sourceCrop">
            <InterpolatingParam id="5334" interp="linr"  time="0/1" value="0" leadInLength="0/1"  />
            <InterpolatingParam id="5335" interp="linr"  time="0/1" value="0" leadInLength="0/1"  />
            <InterpolatingParam id="5336" interp="linr"  time="0/1" value="0" leadInLength="0/1"  />
            <InterpolatingParam id="5337" interp="linr"  time="0/1" value="0" leadInLength="0/1"  />
           </VectorParam>
           <VectorParam id="5338"  name="geometryCrop">
            <InterpolatingParam id="5339" interp="linr"  time="-9999999/1" value="0" leadInLength="0/1"  />
            <InterpolatingParam id="5340" interp="linr"  time="-9999999/1" value="0" leadInLength="0/1"  />
            <InterpolatingParam id="5341" interp="linr"  time="-9999999/1" value="0" leadInLength="0/1"  />
            <InterpolatingParam id="5342" interp="linr"  time="-9999999/1" value="0" leadInLength="0/1"  />
           </VectorParam>
           <InterpolatingParam id="5343" interp="linr"  time="-9999999/1" value="1" leadInLength="0/1"  name="opacity"/>
           <InterpolatingParam id="5344" interp="linr"  time="0/1" value="1" leadInLength="0/1"  name="cursorOpacity"/>
           <InterpolatingParam id="5345" interp="linr"  time="0/1" value="1" leadInLength="0/1"  name="cursorScale"/>
          </Parameters>
          <Effects>
           <GenericEffect id="5346" name = "CursorBaseEffectName" >
            <Parameters>
            <InterpolatingParam id="5347" interp="linr"  time="-9999999/1" value="1" leadInLength="0/1"   name="cursorSize"/>
            <InterpolatingParam id="5348" interp="linr"  time="-9999999/1" value="0" leadInLength="0/1"   name="highlightBlurRadius"/>
            <InterpolatingParam id="5349" interp="linr"  time="-9999999/1" value="0" leadInLength="0/1"   name="highlightColorBlue"/>
            <InterpolatingParam id="5350" interp="linr"  time="-9999999/1" value="255" leadInLength="0/1"   name="highlightColorGreen"/>
            <InterpolatingParam id="5351" interp="linr"  time="-9999999/1" value="255" leadInLength="0/1"   name="highlightColorRed"/>
            <InterpolatingParam id="5352" interp="linr"  time="-9999999/1" value="5" leadInLength="0/1"   name="highlightFeatherSize"/>
            <InterpolatingParam id="5353" interp="linr"  time="-9999999/1" value="2" leadInLength="0/1"   name="highlightMagnification"/>
            <InterpolatingParam id="5354" interp="linr"  time="-9999999/1" value="1" leadInLength="0/1"   name="highlightOpacity"/>
            <InterpolatingParam id="5355" interp="linr"  time="-9999999/1" value="45" leadInLength="0/1"   name="highlightSize"/>
            <Parameter id="5356"   name="highlightType">
             <Keyframes>
             <Keyframe id="5357"  time="-9999999/1" value="0" leadInLength="0/1"  />
             </Keyframes>
            </Parameter>
            <InterpolatingParam id="5358" interp="linr"  time="-9999999/1" value="0" leadInLength="0/1"   name="leftClickColorBlue"/>
            <InterpolatingParam id="5359" interp="linr"  time="-9999999/1" value="0" leadInLength="0/1"   name="leftClickColorGreen"/>
            <InterpolatingParam id="5360" interp="linr"  time="-9999999/1" value="255" leadInLength="0/1"   name="leftClickColorRed"/>
            <InterpolatingParam id="5361" interp="linr"  time="-9999999/1" value="0.80000000000000004" leadInLength="0/1"   name="leftClickDuration"/>
            <InterpolatingParam id="5362" interp="linr"  time="-9999999/1" value="20" leadInLength="0/1"   name="leftClickSize"/>
            <Parameter id="5363"   name="leftClickSoundFilename">
             <Keyframes>
             <Keyframe id="5364"  time="-9999999/1" value="" leadInLength="0/1"  />
             </Keyframes>
            </Parameter>
            <InterpolatingParam id="5365" interp="linr"  time="-9999999/1" value="1" leadInLength="0/1"   name="leftClickSoundVolume"/>
            <Parameter id="5366"   name="leftClickType">
             <Keyframes>
             <Keyframe id="5367"  time="-9999999/1" value="0" leadInLength="0/1"  />
             </Keyframes>
            </Parameter>
            <InterpolatingParam id="5368" interp="linr"  time="-9999999/1" value="1" leadInLength="0/1"   name="opacity"/>
            <InterpolatingParam id="5369" interp="linr"  time="-9999999/1" value="255" leadInLength="0/1"   name="rightClickColorBlue"/>
            <InterpolatingParam id="5370" interp="linr"  time="-9999999/1" value="0" leadInLength="0/1"   name="rightClickColorGreen"/>
            <InterpolatingParam id="5371" interp="linr"  time="-9999999/1" value="0" leadInLength="0/1"   name="rightClickColorRed"/>
            <InterpolatingParam id="5372" interp="linr"  time="-9999999/1" value="0.80000000000000004" leadInLength="0/1"   name="rightClickDuration"/>
            <InterpolatingParam id="5373" interp="linr"  time="-9999999/1" value="20" leadInLength="0/1"   name="rightClickSize"/>
            <Parameter id="5374"   name="rightClickSoundFilename">
             <Keyframes>
             <Keyframe id="5375"  time="-9999999/1" value="" leadInLength="0/1"  />
             </Keyframes>
            </Parameter>
            <InterpolatingParam id="5376" interp="linr"  time="-9999999/1" value="1" leadInLength="0/1"   name="rightClickSoundVolume"/>
            <Parameter id="5377"   name="rightClickType">
             <Keyframes>
             <Keyframe id="5378"  time="-9999999/1" value="0" leadInLength="0/1"  />
             </Keyframes>
            </Parameter>
            </Parameters>
            <MetaData>
             <entry key="effectIndex" val="0"/>
            </MetaData>
           </GenericEffect>
          </Effects>
          <Attributes>
           <Attribute id="5379" value="" name="ident"/>
          </Attributes>
          <ExtraData>
           <Entry key="ZoomPanBin">
            <ZoomPanBin id="5380"  >
             <ZoomPanKeyframes>
              <ZoomPanKeyframe id="5381" timeRangeEnd="-9999999/1" timeRangeDuration="0/1" interpolaterName="linr"  />
             </ZoomPanKeyframes>
            </ZoomPanBin>
           </Entry>
           <Entry key="CursorEffectBin">
            <CursorEffectBin id="5382"  >
             <CursorEffectKeyframes>
              <CursorEffectKeyframe id="5383" timeRangeEnd="-9999999/1" timeRangeDuration="0/1" interpolaterName=""  />
             </CursorEffectKeyframes>
            </CursorEffectBin>
           </Entry>
          </ExtraData>
         </ScreenVMFile>
         <MetaData>
          <entry key="AutoAppliedSmartFocus" val="False"/>
          <entry key="WinSubProjectDisplayName" val=""/>
         </MetaData>
        </UnifiedMedia>
        <StitchedMedia id="5384" start="76729" duration="3149" scalar="1/1" mediaStart="0/1" mediaDuration="3149/1" minMediaStart="-108000/1" >
         <Transformer>
          <VectorParam id="5385"  name="translation">
           <InterpolatingParam id="5386" interp="linr"  time="-9999999/1" value="0" leadInLength="0/1"  />
           <InterpolatingParam id="5387" interp="linr"  time="-9999999/1" value="0" leadInLength="0/1"  />
           <InterpolatingParam id="5388" interp="linr"  time="-9999999/1" value="0" leadInLength="0/1"  />
          </VectorParam>
          <VectorParam id="5389"  name="rotation">
           <InterpolatingParam id="5390" interp="linr"  time="-9999999/1" value="0" leadInLength="0/1"  />
           <InterpolatingParam id="5391" interp="linr"  time="-9999999/1" value="0" leadInLength="0/1"  />
           <InterpolatingParam id="5392" interp="linr"  time="-9999999/1" value="0" leadInLength="0/1"  />
          </VectorParam>
          <VectorParam id="5393"  name="shear">
           <InterpolatingParam id="5394" interp="linr"  time="-9999999/1" value="0" leadInLength="0/1"  />
           <InterpolatingParam id="5395" interp="linr"  time="-9999999/1" value="0" leadInLength="0/1"  />
           <InterpolatingParam id="5396" interp="linr"  time="-9999999/1" value="0" leadInLength="0/1"  />
          </VectorParam>
          <VectorParam id="5397"  name="scale">
           <InterpolatingParam id="5398" interp="linr"  time="-9999999/1" value="0.80000000000000004" leadInLength="0/1"  />
           <InterpolatingParam id="5399" interp="linr"  time="-9999999/1" value="0.80000000000000004" leadInLength="0/1"  />
           <InterpolatingParam id="5400" interp="linr"  time="-9999999/1" value="1" leadInLength="0/1"  />
          </VectorParam>
          <VectorParam id="5401"  name="anchor">
           <InterpolatingParam id="5402" interp="linr"  >
            <Keyframes>
            <Keyframe id="5403"  time="0/1" value="0" leadInLength="0/1"  />
            <Keyframe id="5404"  time="30/1" value="0" leadInLength="0/1"  />
            </Keyframes>
           </InterpolatingParam>
           <InterpolatingParam id="5405" interp="linr"  >
            <Keyframes>
            <Keyframe id="5406"  time="0/1" value="0" leadInLength="0/1"  />
            <Keyframe id="5407"  time="30/1" value="0" leadInLength="0/1"  />
            </Keyframes>
           </InterpolatingParam>
           <InterpolatingParam id="5408" interp="linr"  >
            <Keyframes>
            <Keyframe id="5409"  time="0/1" value="0" leadInLength="0/1"  />
            <Keyframe id="5410"  time="30/1" value="0" leadInLength="0/1"  />
            </Keyframes>
           </InterpolatingParam>
          </VectorParam>
         </Transformer>
         <Parameters>
          <VectorParam id="5411"  name="sourceCrop">
           <InterpolatingParam id="5412" interp="linr"  >
            <Keyframes>
            <Keyframe id="5413"  time="0/1" value="0" leadInLength="0/1"  />
            <Keyframe id="5414"  time="30/1" value="0" leadInLength="0/1"  />
            </Keyframes>
           </InterpolatingParam>
           <InterpolatingParam id="5415" interp="linr"  >
            <Keyframes>
            <Keyframe id="5416"  time="0/1" value="0" leadInLength="0/1"  />
            <Keyframe id="5417"  time="30/1" value="0" leadInLength="0/1"  />
            </Keyframes>
           </InterpolatingParam>
           <InterpolatingParam id="5418" interp="linr"  >
            <Keyframes>
            <Keyframe id="5419"  time="0/1" value="0" leadInLength="0/1"  />
            <Keyframe id="5420"  time="30/1" value="0" leadInLength="0/1"  />
            </Keyframes>
           </InterpolatingParam>
           <InterpolatingParam id="5421" interp="linr"  >
            <Keyframes>
            <Keyframe id="5422"  time="0/1" value="0" leadInLength="0/1"  />
            <Keyframe id="5423"  time="30/1" value="0" leadInLength="0/1"  />
            </Keyframes>
           </InterpolatingParam>
          </VectorParam>
          <VectorParam id="5424"  name="geometryCrop">
           <InterpolatingParam id="5425" interp="linr"  time="-9999999/1" value="0" leadInLength="0/1"  />
           <InterpolatingParam id="5426" interp="linr"  time="-9999999/1" value="0" leadInLength="0/1"  />
           <InterpolatingParam id="5427" interp="linr"  time="-9999999/1" value="0" leadInLength="0/1"  />
           <InterpolatingParam id="5428" interp="linr"  time="-9999999/1" value="0" leadInLength="0/1"  />
          </VectorParam>
          <InterpolatingParam id="5429" interp="linr"  time="-9999999/1" value="1" leadInLength="0/1"  name="opacity"/>
          <InterpolatingParam id="5430" interp="linr"  time="30/1" value="1" leadInLength="0/1"  name="cursorOpacity"/>
          <InterpolatingParam id="5431" interp="linr"  name="cursorScale">
           <Keyframes>
           <Keyframe id="5432"  time="0/1" value="1" leadInLength="0/1"  />
           <Keyframe id="5433"  time="30/1" value="1" leadInLength="0/1"  />
           </Keyframes>
          </InterpolatingParam>
          <InterpolatingParam id="5434" interp="linr"  name="volume">
           <Keyframes>
           <Keyframe id="5435"  time="-108000/1" value="1" leadInLength="0/1"  />
           <Keyframe id="5436"  time="30/1" value="1" leadInLength="0/1"  />
           </Keyframes>
          </InterpolatingParam>
          <Parameter id="5437"  name="captions"/>
         </Parameters>
         <Effects>
          <GenericEffect id="5438" range="(-134109728/1,-1/1)" name = "CursorBaseEffectName" >
           <Parameters>
           <InterpolatingParam id="5439" interp="linr"  time="-9999999/1" value="1" leadInLength="0/1"   name="cursorSize"/>
           <InterpolatingParam id="5440" interp="linr"  time="-9999999/1" value="0" leadInLength="0/1"   name="highlightBlurRadius"/>
           <InterpolatingParam id="5441" interp="linr"  time="-9999999/1" value="0" leadInLength="0/1"   name="highlightColorBlue"/>
           <InterpolatingParam id="5442" interp="linr"  time="-9999999/1" value="255" leadInLength="0/1"   name="highlightColorGreen"/>
           <InterpolatingParam id="5443" interp="linr"  time="-9999999/1" value="255" leadInLength="0/1"   name="highlightColorRed"/>
           <InterpolatingParam id="5444" interp="linr"  time="-9999999/1" value="5" leadInLength="0/1"   name="highlightFeatherSize"/>
           <InterpolatingParam id="5445" interp="linr"  time="-9999999/1" value="2" leadInLength="0/1"   name="highlightMagnification"/>
           <InterpolatingParam id="5446" interp="linr"  time="-9999999/1" value="1" leadInLength="0/1"   name="highlightOpacity"/>
           <InterpolatingParam id="5447" interp="linr"  time="-9999999/1" value="45" leadInLength="0/1"   name="highlightSize"/>
           <Parameter id="5448"   name="highlightType">
            <Keyframes>
            <Keyframe id="5449"  time="-9999999/1" value="0" leadInLength="0/1"  />
            </Keyframes>
           </Parameter>
           <InterpolatingParam id="5450" interp="linr"  time="-9999999/1" value="0" leadInLength="0/1"   name="leftClickColorBlue"/>
           <InterpolatingParam id="5451" interp="linr"  time="-9999999/1" value="0" leadInLength="0/1"   name="leftClickColorGreen"/>
           <InterpolatingParam id="5452" interp="linr"  time="-9999999/1" value="255" leadInLength="0/1"   name="leftClickColorRed"/>
           <InterpolatingParam id="5453" interp="linr"  time="-9999999/1" value="0.80000000000000004" leadInLength="0/1"   name="leftClickDuration"/>
           <InterpolatingParam id="5454" interp="linr"  time="-9999999/1" value="20" leadInLength="0/1"   name="leftClickSize"/>
           <Parameter id="5455"   name="leftClickSoundFilename">
            <Keyframes>
            <Keyframe id="5456"  time="-9999999/1" value="" leadInLength="0/1"  />
            </Keyframes>
           </Parameter>
           <InterpolatingParam id="5457" interp="linr"  time="-9999999/1" value="1" leadInLength="0/1"   name="leftClickSoundVolume"/>
           <Parameter id="5458"   name="leftClickType">
            <Keyframes>
            <Keyframe id="5459"  time="-9999999/1" value="0" leadInLength="0/1"  />
            </Keyframes>
           </Parameter>
           <InterpolatingParam id="5460" interp="linr"  time="-9999999/1" value="1" leadInLength="0/1"   name="opacity"/>
           <InterpolatingParam id="5461" interp="linr"  time="-9999999/1" value="255" leadInLength="0/1"   name="rightClickColorBlue"/>
           <InterpolatingParam id="5462" interp="linr"  time="-9999999/1" value="0" leadInLength="0/1"   name="rightClickColorGreen"/>
           <InterpolatingParam id="5463" interp="linr"  time="-9999999/1" value="0" leadInLength="0/1"   name="rightClickColorRed"/>
           <InterpolatingParam id="5464" interp="linr"  time="-9999999/1" value="0.80000000000000004" leadInLength="0/1"   name="rightClickDuration"/>
           <InterpolatingParam id="5465" interp="linr"  time="-9999999/1" value="20" leadInLength="0/1"   name="rightClickSize"/>
           <Parameter id="5466"   name="rightClickSoundFilename">
            <Keyframes>
            <Keyframe id="5467"  time="-9999999/1" value="" leadInLength="0/1"  />
            </Keyframes>
           </Parameter>
           <InterpolatingParam id="5468" interp="linr"  time="-9999999/1" value="1" leadInLength="0/1"   name="rightClickSoundVolume"/>
           <Parameter id="5469"   name="rightClickType">
            <Keyframes>
            <Keyframe id="5470"  time="-9999999/1" value="0" leadInLength="0/1"  />
            </Keyframes>
           </Parameter>
           </Parameters>
          </GenericEffect>
         </Effects>
         <Attributes>
          <Attribute id="5471" value="" name="ident"/>
          <Attribute id="5472" value="0" name="mixToMono"/>
         </Attributes>
         <MetaData>
          <entry key="AutoAppliedSmartFocus" val="False"/>
          <entry key="WinSubProjectDisplayName" val=""/>
         </MetaData>
         <ExtraData>
          <Entry key="ZoomPanBin">
           <ZoomPanBin id="5473"  >
            <ZoomPanKeyframes>
             <ZoomPanKeyframe id="5474" timeRangeEnd="-9999999/1" timeRangeDuration="0/1" interpolaterName=""  />
            </ZoomPanKeyframes>
           </ZoomPanBin>
          </Entry>
          <Entry key="CursorEffectBin">
           <CursorEffectBin id="5475"  >
            <CursorEffectKeyframes>
             <CursorEffectKeyframe id="5476" timeRangeEnd="-9999999/1" timeRangeDuration="0/1" interpolaterName=""  />
            </CursorEffectKeyframes>
           </CursorEffectBin>
          </Entry>
         </ExtraData>
         <GenericTrack id="5477"  >
          <Attributes>
           <Attribute id="5478" value="" name="ident"/>
           <Attribute id="5479" value="0" name="audioMuted"/>
           <Attribute id="5480" value="0" name="videoHidden"/>
          </Attributes>
          <MetaData>
           <entry key="IsLocked" val="False"/>
           <entry key="WinTrackHeight" val="0"/>
          </MetaData>
          <Medias>
           <ScreenIMFile id="5481" start="-108000" duration="108030" scalar="1/1" mediaStart="0/1" mediaDuration="1/1" trackNumber="0" src="37" trimStartSum="-108000/1" >
            <Transformer>
             <VectorParam id="5482"  name="translation">
              <InterpolatingParam id="5483" interp="linr"  time="-9999999/1" value="0" leadInLength="0/1"  />
              <InterpolatingParam id="5484" interp="linr"  time="-9999999/1" value="0" leadInLength="0/1"  />
              <InterpolatingParam id="5485" interp="linr"  time="-9999999/1" value="0" leadInLength="0/1"  />
             </VectorParam>
             <VectorParam id="5486"  name="rotation">
              <InterpolatingParam id="5487" interp="linr"  time="-9999999/1" value="0" leadInLength="0/1"  />
              <InterpolatingParam id="5488" interp="linr"  time="-9999999/1" value="0" leadInLength="0/1"  />
              <InterpolatingParam id="5489" interp="linr"  time="-9999999/1" value="0" leadInLength="0/1"  />
             </VectorParam>
             <VectorParam id="5490"  name="shear">
              <InterpolatingParam id="5491" interp="linr"  time="-9999999/1" value="0" leadInLength="0/1"  />
              <InterpolatingParam id="5492" interp="linr"  time="-9999999/1" value="0" leadInLength="0/1"  />
              <InterpolatingParam id="5493" interp="linr"  time="-9999999/1" value="0" leadInLength="0/1"  />
             </VectorParam>
             <VectorParam id="5494"  name="scale">
              <InterpolatingParam id="5495" interp="linr"  time="-9999999/1" value="1" leadInLength="0/1"  />
              <InterpolatingParam id="5496" interp="linr"  time="-9999999/1" value="1" leadInLength="0/1"  />
              <InterpolatingParam id="5497" interp="linr"  time="-9999999/1" value="1" leadInLength="0/1"  />
             </VectorParam>
             <VectorParam id="5498"  name="anchor">
              <InterpolatingParam id="5499" interp="linr"  time="0/1" value="0" leadInLength="0/1"  />
              <InterpolatingParam id="5500" interp="linr"  time="0/1" value="0" leadInLength="0/1"  />
              <InterpolatingParam id="5501" interp="linr"  time="0/1" value="0" leadInLength="0/1"  />
             </VectorParam>
            </Transformer>
            <Parameters>
             <VectorParam id="5502"  name="sourceCrop">
              <InterpolatingParam id="5503" interp="linr"  time="0/1" value="0" leadInLength="0/1"  />
              <InterpolatingParam id="5504" interp="linr"  time="0/1" value="0" leadInLength="0/1"  />
              <InterpolatingParam id="5505" interp="linr"  time="0/1" value="0" leadInLength="0/1"  />
              <InterpolatingParam id="5506" interp="linr"  time="0/1" value="0" leadInLength="0/1"  />
             </VectorParam>
             <VectorParam id="5507"  name="geometryCrop">
              <InterpolatingParam id="5508" interp="linr"  time="-9999999/1" value="0" leadInLength="0/1"  />
              <InterpolatingParam id="5509" interp="linr"  time="-9999999/1" value="0" leadInLength="0/1"  />
              <InterpolatingParam id="5510" interp="linr"  time="-9999999/1" value="0" leadInLength="0/1"  />
              <InterpolatingParam id="5511" interp="linr"  time="-9999999/1" value="0" leadInLength="0/1"  />
             </VectorParam>
             <InterpolatingParam id="5512" interp="linr"  time="-9999999/1" value="1" leadInLength="0/1"  name="opacity"/>
             <InterpolatingParam id="5513" interp="linr"  name="cursorLocation">
              <Keyframes>
              <Keyframe id="5514"  time="-153/1" value="(1526,785,0)" leadInLength="0/1"  />
              <Keyframe id="5515"  time="0/1" value="(1526,785,0)" leadInLength="0/1"  />
              </Keyframes>
             </InterpolatingParam>
             <InterpolatingParam id="5516" interp="linr"  time="0/1" value="(-32000,-32000,160,24)" leadInLength="0/1"  name="topmostWindowCoordinates"/>
             <Parameter id="5517"  name="cursorImagePath">
              <Keyframes>
              <Keyframe id="5518"  time="0/1" value="2b7b6af1-7a1f-11e2-83d0-0017f200be7f/0" leadInLength="0/1"  />
              </Keyframes>
             </Parameter>
             <InterpolatingParam id="5519" interp="linr"  time="0/1" value="(0,0,1600,900)" leadInLength="0/1"  name="recordingRegion"/>
             <InterpolatingParam id="5520" interp="linr"  time="0/1" value="0" leadInLength="0/1"  name="cursorOpacity"/>
             <InterpolatingParam id="5521" interp="linr"  time="0/1" value="1" leadInLength="0/1"  name="recordedCursorOpacity"/>
             <InterpolatingParam id="5522" interp="linr"  time="0/1" value="0" leadInLength="0/1"  name="cursorScale"/>
            </Parameters>
            <Attributes>
             <Attribute id="5523" value="" name="ident"/>
            </Attributes>
            <MetaData>
             <entry key="AutoAppliedSmartFocus" val="False"/>
             <entry key="WinSubProjectDisplayName" val=""/>
            </MetaData>
            <ExtraData>
             <Entry key="ZoomPanBin">
              <ZoomPanBin id="5524"  >
               <ZoomPanKeyframes>
                <ZoomPanKeyframe id="5525" timeRangeEnd="-9999999/1" timeRangeDuration="0/1" interpolaterName=""  />
               </ZoomPanKeyframes>
              </ZoomPanBin>
             </Entry>
             <Entry key="CursorEffectBin">
              <CursorEffectBin id="5526"  >
               <CursorEffectKeyframes>
               </CursorEffectKeyframes>
              </CursorEffectBin>
             </Entry>
            </ExtraData>
           </ScreenIMFile>
           <UnifiedMedia id="5527"  >
            <AMFile id="5528" start="30" duration="3119" scalar="1/1" mediaStart="0/1" mediaDuration="3119/1" trackNumber="1" src="37" channelNumber="0,1" >
             <Parameters>
              <InterpolatingParam id="5529" interp="linr"  time="0/1" value="1" leadInLength="0/1"  name="volume"/>
              <Parameter id="5530"  name="captions"/>
             </Parameters>
             <Attributes>
              <Attribute id="5531" value="" name="ident"/>
              <Attribute id="5532" value="44100" name="sampleRate"/>
              <Attribute id="5533" value="16" name="bitDepth"/>
              <Attribute id="5534" value="1" name="gain"/>
              <Attribute id="5535" value="0" name="mixToMono"/>
             </Attributes>
            </AMFile>
            <ScreenVMFile id="5536" start="30" duration="3119" scalar="1/1" mediaStart="0/1" mediaDuration="3119/1" trackNumber="0" src="37" >
             <Transformer>
              <VectorParam id="5537"  name="translation">
               <InterpolatingParam id="5538" interp="linr"  time="-9999999/1" value="0" leadInLength="0/1"  />
               <InterpolatingParam id="5539" interp="linr"  time="-9999999/1" value="0" leadInLength="0/1"  />
               <InterpolatingParam id="5540" interp="linr"  time="-9999999/1" value="0" leadInLength="0/1"  />
              </VectorParam>
              <VectorParam id="5541"  name="rotation">
               <InterpolatingParam id="5542" interp="linr"  time="-9999999/1" value="0" leadInLength="0/1"  />
               <InterpolatingParam id="5543" interp="linr"  time="-9999999/1" value="0" leadInLength="0/1"  />
               <InterpolatingParam id="5544" interp="linr"  time="-9999999/1" value="0" leadInLength="0/1"  />
              </VectorParam>
              <VectorParam id="5545"  name="shear">
               <InterpolatingParam id="5546" interp="linr"  time="-9999999/1" value="0" leadInLength="0/1"  />
               <InterpolatingParam id="5547" interp="linr"  time="-9999999/1" value="0" leadInLength="0/1"  />
               <InterpolatingParam id="5548" interp="linr"  time="-9999999/1" value="0" leadInLength="0/1"  />
              </VectorParam>
              <VectorParam id="5549"  name="scale">
               <InterpolatingParam id="5550" interp="linr"  time="-9999999/1" value="1" leadInLength="0/1"  />
               <InterpolatingParam id="5551" interp="linr"  time="-9999999/1" value="1" leadInLength="0/1"  />
               <InterpolatingParam id="5552" interp="linr"  time="-9999999/1" value="1" leadInLength="0/1"  />
              </VectorParam>
              <VectorParam id="5553"  name="anchor">
               <InterpolatingParam id="5554" interp="linr"  time="0/1" value="0" leadInLength="0/1"  />
               <InterpolatingParam id="5555" interp="linr"  time="0/1" value="0" leadInLength="0/1"  />
               <InterpolatingParam id="5556" interp="linr"  time="0/1" value="0" leadInLength="0/1"  />
              </VectorParam>
             </Transformer>
             <Parameters>
              <VectorParam id="5557"  name="sourceCrop">
               <InterpolatingParam id="5558" interp="linr"  time="0/1" value="0" leadInLength="0/1"  />
               <InterpolatingParam id="5559" interp="linr"  time="0/1" value="0" leadInLength="0/1"  />
               <InterpolatingParam id="5560" interp="linr"  time="0/1" value="0" leadInLength="0/1"  />
               <InterpolatingParam id="5561" interp="linr"  time="0/1" value="0" leadInLength="0/1"  />
              </VectorParam>
              <VectorParam id="5562"  name="geometryCrop">
               <InterpolatingParam id="5563" interp="linr"  time="-9999999/1" value="0" leadInLength="0/1"  />
               <InterpolatingParam id="5564" interp="linr"  time="-9999999/1" value="0" leadInLength="0/1"  />
               <InterpolatingParam id="5565" interp="linr"  time="-9999999/1" value="0" leadInLength="0/1"  />
               <InterpolatingParam id="5566" interp="linr"  time="-9999999/1" value="0" leadInLength="0/1"  />
              </VectorParam>
              <InterpolatingParam id="5567" interp="linr"  time="-9999999/1" value="1" leadInLength="0/1"  name="opacity"/>
              <InterpolatingParam id="5568" interp="linr"  time="0/1" value="0" leadInLength="0/1"  name="cursorOpacity"/>
              <InterpolatingParam id="5569" interp="linr"  time="0/1" value="0" leadInLength="0/1"  name="cursorScale"/>
             </Parameters>
             <Attributes>
              <Attribute id="5570" value="" name="ident"/>
             </Attributes>
             <ExtraData>
              <Entry key="ZoomPanBin">
               <ZoomPanBin id="5571"  >
                <ZoomPanKeyframes>
                 <ZoomPanKeyframe id="5572" timeRangeEnd="-9999999/1" timeRangeDuration="0/1" interpolaterName=""  />
                </ZoomPanKeyframes>
               </ZoomPanBin>
              </Entry>
              <Entry key="CursorEffectBin">
               <CursorEffectBin id="5573"  >
                <CursorEffectKeyframes>
                </CursorEffectKeyframes>
               </CursorEffectBin>
              </Entry>
             </ExtraData>
            </ScreenVMFile>
            <MetaData>
             <entry key="AutoAppliedSmartFocus" val="False"/>
             <entry key="WinSubProjectDisplayName" val=""/>
            </MetaData>
           </UnifiedMedia>
          </Medias>
         </GenericTrack>
        </StitchedMedia>
        <UnifiedMedia id="5574"  >
         <AMFile id="5575" start="79878" duration="2338" scalar="1/1" mediaStart="0/1" mediaDuration="2338/1" trackNumber="1" src="38" channelNumber="0,1" >
          <Parameters>
           <InterpolatingParam id="5576" interp="linr"  time="0/1" value="1" leadInLength="0/1"  name="volume"/>
           <Parameter id="5577"  name="captions"/>
          </Parameters>
          <Attributes>
           <Attribute id="5578" value="" name="ident"/>
           <Attribute id="5579" value="44100" name="sampleRate"/>
           <Attribute id="5580" value="16" name="bitDepth"/>
           <Attribute id="5581" value="1" name="gain"/>
           <Attribute id="5582" value="0" name="mixToMono"/>
          </Attributes>
         </AMFile>
         <ScreenVMFile id="5583" start="79878" duration="2338" scalar="1/1" mediaStart="0/1" mediaDuration="2338/1" trackNumber="0" src="38" >
          <Transformer>
           <VectorParam id="5584"  name="translation">
            <InterpolatingParam id="5585" interp="linr"  time="-9999999/1" value="0" leadInLength="0/1"  />
            <InterpolatingParam id="5586" interp="linr"  time="-9999999/1" value="0" leadInLength="0/1"  />
            <InterpolatingParam id="5587" interp="linr"  time="-9999999/1" value="0" leadInLength="0/1"  />
           </VectorParam>
           <VectorParam id="5588"  name="rotation">
            <InterpolatingParam id="5589" interp="linr"  time="-9999999/1" value="0" leadInLength="0/1"  />
            <InterpolatingParam id="5590" interp="linr"  time="-9999999/1" value="0" leadInLength="0/1"  />
            <InterpolatingParam id="5591" interp="linr"  time="-9999999/1" value="0" leadInLength="0/1"  />
           </VectorParam>
           <VectorParam id="5592"  name="shear">
            <InterpolatingParam id="5593" interp="linr"  time="-9999999/1" value="0" leadInLength="0/1"  />
            <InterpolatingParam id="5594" interp="linr"  time="-9999999/1" value="0" leadInLength="0/1"  />
            <InterpolatingParam id="5595" interp="linr"  time="-9999999/1" value="0" leadInLength="0/1"  />
           </VectorParam>
           <VectorParam id="5596"  name="scale">
            <InterpolatingParam id="5597" interp="linr"  time="-9999999/1" value="0.80000000000000004" leadInLength="0/1"  />
            <InterpolatingParam id="5598" interp="linr"  time="-9999999/1" value="0.80000000000000004" leadInLength="0/1"  />
            <InterpolatingParam id="5599" interp="linr"  time="-9999999/1" value="1" leadInLength="0/1"  />
           </VectorParam>
           <VectorParam id="5600"  name="anchor">
            <InterpolatingParam id="5601" interp="linr"  time="0/1" value="0" leadInLength="0/1"  />
            <InterpolatingParam id="5602" interp="linr"  time="0/1" value="0" leadInLength="0/1"  />
            <InterpolatingParam id="5603" interp="linr"  time="0/1" value="0" leadInLength="0/1"  />
           </VectorParam>
          </Transformer>
          <Parameters>
           <VectorParam id="5604"  name="sourceCrop">
            <InterpolatingParam id="5605" interp="linr"  time="0/1" value="0" leadInLength="0/1"  />
            <InterpolatingParam id="5606" interp="linr"  time="0/1" value="0" leadInLength="0/1"  />
            <InterpolatingParam id="5607" interp="linr"  time="0/1" value="0" leadInLength="0/1"  />
            <InterpolatingParam id="5608" interp="linr"  time="0/1" value="0" leadInLength="0/1"  />
           </VectorParam>
           <VectorParam id="5609"  name="geometryCrop">
            <InterpolatingParam id="5610" interp="linr"  time="-9999999/1" value="0" leadInLength="0/1"  />
            <InterpolatingParam id="5611" interp="linr"  time="-9999999/1" value="0" leadInLength="0/1"  />
            <InterpolatingParam id="5612" interp="linr"  time="-9999999/1" value="0" leadInLength="0/1"  />
            <InterpolatingParam id="5613" interp="linr"  time="-9999999/1" value="0" leadInLength="0/1"  />
           </VectorParam>
           <InterpolatingParam id="5614" interp="linr"  time="-9999999/1" value="1" leadInLength="0/1"  name="opacity"/>
           <InterpolatingParam id="5615" interp="linr"  time="0/1" value="1" leadInLength="0/1"  name="cursorOpacity"/>
           <InterpolatingParam id="5616" interp="linr"  time="0/1" value="1" leadInLength="0/1"  name="cursorScale"/>
          </Parameters>
          <Effects>
           <GenericEffect id="5617" name = "CursorBaseEffectName" >
            <Parameters>
            <InterpolatingParam id="5618" interp="linr"  time="-9999999/1" value="1" leadInLength="0/1"   name="cursorSize"/>
            <InterpolatingParam id="5619" interp="linr"  time="-9999999/1" value="0" leadInLength="0/1"   name="highlightBlurRadius"/>
            <InterpolatingParam id="5620" interp="linr"  time="-9999999/1" value="0" leadInLength="0/1"   name="highlightColorBlue"/>
            <InterpolatingParam id="5621" interp="linr"  time="-9999999/1" value="255" leadInLength="0/1"   name="highlightColorGreen"/>
            <InterpolatingParam id="5622" interp="linr"  time="-9999999/1" value="255" leadInLength="0/1"   name="highlightColorRed"/>
            <InterpolatingParam id="5623" interp="linr"  time="-9999999/1" value="5" leadInLength="0/1"   name="highlightFeatherSize"/>
            <InterpolatingParam id="5624" interp="linr"  time="-9999999/1" value="2" leadInLength="0/1"   name="highlightMagnification"/>
            <InterpolatingParam id="5625" interp="linr"  time="-9999999/1" value="1" leadInLength="0/1"   name="highlightOpacity"/>
            <InterpolatingParam id="5626" interp="linr"  time="-9999999/1" value="45" leadInLength="0/1"   name="highlightSize"/>
            <Parameter id="5627"   name="highlightType">
             <Keyframes>
             <Keyframe id="5628"  time="-9999999/1" value="0" leadInLength="0/1"  />
             </Keyframes>
            </Parameter>
            <InterpolatingParam id="5629" interp="linr"  time="-9999999/1" value="0" leadInLength="0/1"   name="leftClickColorBlue"/>
            <InterpolatingParam id="5630" interp="linr"  time="-9999999/1" value="0" leadInLength="0/1"   name="leftClickColorGreen"/>
            <InterpolatingParam id="5631" interp="linr"  time="-9999999/1" value="255" leadInLength="0/1"   name="leftClickColorRed"/>
            <InterpolatingParam id="5632" interp="linr"  time="-9999999/1" value="0.80000000000000004" leadInLength="0/1"   name="leftClickDuration"/>
            <InterpolatingParam id="5633" interp="linr"  time="-9999999/1" value="20" leadInLength="0/1"   name="leftClickSize"/>
            <Parameter id="5634"   name="leftClickSoundFilename">
             <Keyframes>
             <Keyframe id="5635"  time="-9999999/1" value="" leadInLength="0/1"  />
             </Keyframes>
            </Parameter>
            <InterpolatingParam id="5636" interp="linr"  time="-9999999/1" value="1" leadInLength="0/1"   name="leftClickSoundVolume"/>
            <Parameter id="5637"   name="leftClickType">
             <Keyframes>
             <Keyframe id="5638"  time="-9999999/1" value="0" leadInLength="0/1"  />
             </Keyframes>
            </Parameter>
            <InterpolatingParam id="5639" interp="linr"  time="-9999999/1" value="1" leadInLength="0/1"   name="opacity"/>
            <InterpolatingParam id="5640" interp="linr"  time="-9999999/1" value="255" leadInLength="0/1"   name="rightClickColorBlue"/>
            <InterpolatingParam id="5641" interp="linr"  time="-9999999/1" value="0" leadInLength="0/1"   name="rightClickColorGreen"/>
            <InterpolatingParam id="5642" interp="linr"  time="-9999999/1" value="0" leadInLength="0/1"   name="rightClickColorRed"/>
            <InterpolatingParam id="5643" interp="linr"  time="-9999999/1" value="0.80000000000000004" leadInLength="0/1"   name="rightClickDuration"/>
            <InterpolatingParam id="5644" interp="linr"  time="-9999999/1" value="20" leadInLength="0/1"   name="rightClickSize"/>
            <Parameter id="5645"   name="rightClickSoundFilename">
             <Keyframes>
             <Keyframe id="5646"  time="-9999999/1" value="" leadInLength="0/1"  />
             </Keyframes>
            </Parameter>
            <InterpolatingParam id="5647" interp="linr"  time="-9999999/1" value="1" leadInLength="0/1"   name="rightClickSoundVolume"/>
            <Parameter id="5648"   name="rightClickType">
             <Keyframes>
             <Keyframe id="5649"  time="-9999999/1" value="0" leadInLength="0/1"  />
             </Keyframes>
            </Parameter>
            </Parameters>
            <MetaData>
             <entry key="effectIndex" val="0"/>
            </MetaData>
           </GenericEffect>
          </Effects>
          <Attributes>
           <Attribute id="5650" value="" name="ident"/>
          </Attributes>
          <ExtraData>
           <Entry key="ZoomPanBin">
            <ZoomPanBin id="5651"  >
             <ZoomPanKeyframes>
              <ZoomPanKeyframe id="5652" timeRangeEnd="-9999999/1" timeRangeDuration="0/1" interpolaterName="linr"  />
             </ZoomPanKeyframes>
            </ZoomPanBin>
           </Entry>
           <Entry key="CursorEffectBin">
            <CursorEffectBin id="5653"  >
             <CursorEffectKeyframes>
              <CursorEffectKeyframe id="5654" timeRangeEnd="-9999999/1" timeRangeDuration="0/1" interpolaterName=""  />
             </CursorEffectKeyframes>
            </CursorEffectBin>
           </Entry>
          </ExtraData>
         </ScreenVMFile>
         <MetaData>
          <entry key="AutoAppliedSmartFocus" val="False"/>
          <entry key="WinSubProjectDisplayName" val=""/>
         </MetaData>
        </UnifiedMedia>
        <UnifiedMedia id="5655"  >
         <AMFile id="5656" start="82216" duration="3510" scalar="1/1" mediaStart="0/1" mediaDuration="3510/1" trackNumber="1" src="39" channelNumber="0,1" >
          <Parameters>
           <InterpolatingParam id="5657" interp="linr"  time="0/1" value="1" leadInLength="0/1"  name="volume"/>
           <Parameter id="5658"  name="captions"/>
          </Parameters>
          <Attributes>
           <Attribute id="5659" value="" name="ident"/>
           <Attribute id="5660" value="44100" name="sampleRate"/>
           <Attribute id="5661" value="16" name="bitDepth"/>
           <Attribute id="5662" value="1" name="gain"/>
           <Attribute id="5663" value="0" name="mixToMono"/>
          </Attributes>
         </AMFile>
         <ScreenVMFile id="5664" start="82216" duration="3510" scalar="1/1" mediaStart="0/1" mediaDuration="3510/1" trackNumber="0" src="39" >
          <Transformer>
           <VectorParam id="5665"  name="translation">
            <InterpolatingParam id="5666" interp="linr"  time="-9999999/1" value="0" leadInLength="0/1"  />
            <InterpolatingParam id="5667" interp="linr"  time="-9999999/1" value="0" leadInLength="0/1"  />
            <InterpolatingParam id="5668" interp="linr"  time="-9999999/1" value="0" leadInLength="0/1"  />
           </VectorParam>
           <VectorParam id="5669"  name="rotation">
            <InterpolatingParam id="5670" interp="linr"  time="-9999999/1" value="0" leadInLength="0/1"  />
            <InterpolatingParam id="5671" interp="linr"  time="-9999999/1" value="0" leadInLength="0/1"  />
            <InterpolatingParam id="5672" interp="linr"  time="-9999999/1" value="0" leadInLength="0/1"  />
           </VectorParam>
           <VectorParam id="5673"  name="shear">
            <InterpolatingParam id="5674" interp="linr"  time="-9999999/1" value="0" leadInLength="0/1"  />
            <InterpolatingParam id="5675" interp="linr"  time="-9999999/1" value="0" leadInLength="0/1"  />
            <InterpolatingParam id="5676" interp="linr"  time="-9999999/1" value="0" leadInLength="0/1"  />
           </VectorParam>
           <VectorParam id="5677"  name="scale">
            <InterpolatingParam id="5678" interp="linr"  time="-9999999/1" value="0.80000000000000004" leadInLength="0/1"  />
            <InterpolatingParam id="5679" interp="linr"  time="-9999999/1" value="0.80000000000000004" leadInLength="0/1"  />
            <InterpolatingParam id="5680" interp="linr"  time="-9999999/1" value="1" leadInLength="0/1"  />
           </VectorParam>
           <VectorParam id="5681"  name="anchor">
            <InterpolatingParam id="5682" interp="linr"  time="0/1" value="0" leadInLength="0/1"  />
            <InterpolatingParam id="5683" interp="linr"  time="0/1" value="0" leadInLength="0/1"  />
            <InterpolatingParam id="5684" interp="linr"  time="0/1" value="0" leadInLength="0/1"  />
           </VectorParam>
          </Transformer>
          <Parameters>
           <VectorParam id="5685"  name="sourceCrop">
            <InterpolatingParam id="5686" interp="linr"  time="0/1" value="0" leadInLength="0/1"  />
            <InterpolatingParam id="5687" interp="linr"  time="0/1" value="0" leadInLength="0/1"  />
            <InterpolatingParam id="5688" interp="linr"  time="0/1" value="0" leadInLength="0/1"  />
            <InterpolatingParam id="5689" interp="linr"  time="0/1" value="0" leadInLength="0/1"  />
           </VectorParam>
           <VectorParam id="5690"  name="geometryCrop">
            <InterpolatingParam id="5691" interp="linr"  time="-9999999/1" value="0" leadInLength="0/1"  />
            <InterpolatingParam id="5692" interp="linr"  time="-9999999/1" value="0" leadInLength="0/1"  />
            <InterpolatingParam id="5693" interp="linr"  time="-9999999/1" value="0" leadInLength="0/1"  />
            <InterpolatingParam id="5694" interp="linr"  time="-9999999/1" value="0" leadInLength="0/1"  />
           </VectorParam>
           <InterpolatingParam id="5695" interp="linr"  time="-9999999/1" value="1" leadInLength="0/1"  name="opacity"/>
           <InterpolatingParam id="5696" interp="linr"  time="0/1" value="1" leadInLength="0/1"  name="cursorOpacity"/>
           <InterpolatingParam id="5697" interp="linr"  time="0/1" value="1" leadInLength="0/1"  name="cursorScale"/>
          </Parameters>
          <Effects>
           <GenericEffect id="5698" name = "CursorBaseEffectName" >
            <Parameters>
            <InterpolatingParam id="5699" interp="linr"  time="-9999999/1" value="1" leadInLength="0/1"   name="cursorSize"/>
            <InterpolatingParam id="5700" interp="linr"  time="-9999999/1" value="0" leadInLength="0/1"   name="highlightBlurRadius"/>
            <InterpolatingParam id="5701" interp="linr"  time="-9999999/1" value="0" leadInLength="0/1"   name="highlightColorBlue"/>
            <InterpolatingParam id="5702" interp="linr"  time="-9999999/1" value="255" leadInLength="0/1"   name="highlightColorGreen"/>
            <InterpolatingParam id="5703" interp="linr"  time="-9999999/1" value="255" leadInLength="0/1"   name="highlightColorRed"/>
            <InterpolatingParam id="5704" interp="linr"  time="-9999999/1" value="5" leadInLength="0/1"   name="highlightFeatherSize"/>
            <InterpolatingParam id="5705" interp="linr"  time="-9999999/1" value="2" leadInLength="0/1"   name="highlightMagnification"/>
            <InterpolatingParam id="5706" interp="linr"  time="-9999999/1" value="1" leadInLength="0/1"   name="highlightOpacity"/>
            <InterpolatingParam id="5707" interp="linr"  time="-9999999/1" value="45" leadInLength="0/1"   name="highlightSize"/>
            <Parameter id="5708"   name="highlightType">
             <Keyframes>
             <Keyframe id="5709"  time="-9999999/1" value="0" leadInLength="0/1"  />
             </Keyframes>
            </Parameter>
            <InterpolatingParam id="5710" interp="linr"  time="-9999999/1" value="0" leadInLength="0/1"   name="leftClickColorBlue"/>
            <InterpolatingParam id="5711" interp="linr"  time="-9999999/1" value="0" leadInLength="0/1"   name="leftClickColorGreen"/>
            <InterpolatingParam id="5712" interp="linr"  time="-9999999/1" value="255" leadInLength="0/1"   name="leftClickColorRed"/>
            <InterpolatingParam id="5713" interp="linr"  time="-9999999/1" value="0.80000000000000004" leadInLength="0/1"   name="leftClickDuration"/>
            <InterpolatingParam id="5714" interp="linr"  time="-9999999/1" value="20" leadInLength="0/1"   name="leftClickSize"/>
            <Parameter id="5715"   name="leftClickSoundFilename">
             <Keyframes>
             <Keyframe id="5716"  time="-9999999/1" value="" leadInLength="0/1"  />
             </Keyframes>
            </Parameter>
            <InterpolatingParam id="5717" interp="linr"  time="-9999999/1" value="1" leadInLength="0/1"   name="leftClickSoundVolume"/>
            <Parameter id="5718"   name="leftClickType">
             <Keyframes>
             <Keyframe id="5719"  time="-9999999/1" value="0" leadInLength="0/1"  />
             </Keyframes>
            </Parameter>
            <InterpolatingParam id="5720" interp="linr"  time="-9999999/1" value="1" leadInLength="0/1"   name="opacity"/>
            <InterpolatingParam id="5721" interp="linr"  time="-9999999/1" value="255" leadInLength="0/1"   name="rightClickColorBlue"/>
            <InterpolatingParam id="5722" interp="linr"  time="-9999999/1" value="0" leadInLength="0/1"   name="rightClickColorGreen"/>
            <InterpolatingParam id="5723" interp="linr"  time="-9999999/1" value="0" leadInLength="0/1"   name="rightClickColorRed"/>
            <InterpolatingParam id="5724" interp="linr"  time="-9999999/1" value="0.80000000000000004" leadInLength="0/1"   name="rightClickDuration"/>
            <InterpolatingParam id="5725" interp="linr"  time="-9999999/1" value="20" leadInLength="0/1"   name="rightClickSize"/>
            <Parameter id="5726"   name="rightClickSoundFilename">
             <Keyframes>
             <Keyframe id="5727"  time="-9999999/1" value="" leadInLength="0/1"  />
             </Keyframes>
            </Parameter>
            <InterpolatingParam id="5728" interp="linr"  time="-9999999/1" value="1" leadInLength="0/1"   name="rightClickSoundVolume"/>
            <Parameter id="5729"   name="rightClickType">
             <Keyframes>
             <Keyframe id="5730"  time="-9999999/1" value="0" leadInLength="0/1"  />
             </Keyframes>
            </Parameter>
            </Parameters>
            <MetaData>
             <entry key="effectIndex" val="0"/>
            </MetaData>
           </GenericEffect>
          </Effects>
          <Attributes>
           <Attribute id="5731" value="" name="ident"/>
          </Attributes>
          <ExtraData>
           <Entry key="ZoomPanBin">
            <ZoomPanBin id="5732"  >
             <ZoomPanKeyframes>
              <ZoomPanKeyframe id="5733" timeRangeEnd="-9999999/1" timeRangeDuration="0/1" interpolaterName="linr"  />
             </ZoomPanKeyframes>
            </ZoomPanBin>
           </Entry>
           <Entry key="CursorEffectBin">
            <CursorEffectBin id="5734"  >
             <CursorEffectKeyframes>
              <CursorEffectKeyframe id="5735" timeRangeEnd="-9999999/1" timeRangeDuration="0/1" interpolaterName=""  />
             </CursorEffectKeyframes>
            </CursorEffectBin>
           </Entry>
          </ExtraData>
         </ScreenVMFile>
         <MetaData>
          <entry key="AutoAppliedSmartFocus" val="False"/>
          <entry key="WinSubProjectDisplayName" val=""/>
         </MetaData>
        </UnifiedMedia>
        <StitchedMedia id="5736" start="85726" duration="2742" scalar="1/1" mediaStart="0/1" mediaDuration="2742/1" minMediaStart="0/1" >
         <Transformer>
          <VectorParam id="5737"  name="translation">
           <InterpolatingParam id="5738" interp="linr"  time="-9999999/1" value="0" leadInLength="0/1"  />
           <InterpolatingParam id="5739" interp="linr"  time="-9999999/1" value="0" leadInLength="0/1"  />
           <InterpolatingParam id="5740" interp="linr"  time="-9999999/1" value="0" leadInLength="0/1"  />
          </VectorParam>
          <VectorParam id="5741"  name="rotation">
           <InterpolatingParam id="5742" interp="linr"  time="-9999999/1" value="0" leadInLength="0/1"  />
           <InterpolatingParam id="5743" interp="linr"  time="-9999999/1" value="0" leadInLength="0/1"  />
           <InterpolatingParam id="5744" interp="linr"  time="-9999999/1" value="0" leadInLength="0/1"  />
          </VectorParam>
          <VectorParam id="5745"  name="shear">
           <InterpolatingParam id="5746" interp="linr"  time="-9999999/1" value="0" leadInLength="0/1"  />
           <InterpolatingParam id="5747" interp="linr"  time="-9999999/1" value="0" leadInLength="0/1"  />
           <InterpolatingParam id="5748" interp="linr"  time="-9999999/1" value="0" leadInLength="0/1"  />
          </VectorParam>
          <VectorParam id="5749"  name="scale">
           <InterpolatingParam id="5750" interp="linr"  time="-9999999/1" value="0.80000000000000004" leadInLength="0/1"  />
           <InterpolatingParam id="5751" interp="linr"  time="-9999999/1" value="0.80000000000000004" leadInLength="0/1"  />
           <InterpolatingParam id="5752" interp="linr"  time="-9999999/1" value="1" leadInLength="0/1"  />
          </VectorParam>
          <VectorParam id="5753"  name="anchor">
           <InterpolatingParam id="5754" interp="linr"  time="0/1" value="0" leadInLength="0/1"  />
           <InterpolatingParam id="5755" interp="linr"  time="0/1" value="0" leadInLength="0/1"  />
           <InterpolatingParam id="5756" interp="linr"  time="0/1" value="0" leadInLength="0/1"  />
          </VectorParam>
         </Transformer>
         <Parameters>
          <VectorParam id="5757"  name="sourceCrop">
           <InterpolatingParam id="5758" interp="linr"  time="0/1" value="0" leadInLength="0/1"  />
           <InterpolatingParam id="5759" interp="linr"  time="0/1" value="0" leadInLength="0/1"  />
           <InterpolatingParam id="5760" interp="linr"  time="0/1" value="0" leadInLength="0/1"  />
           <InterpolatingParam id="5761" interp="linr"  time="0/1" value="0" leadInLength="0/1"  />
          </VectorParam>
          <VectorParam id="5762"  name="geometryCrop">
           <InterpolatingParam id="5763" interp="linr"  time="-9999999/1" value="0" leadInLength="0/1"  />
           <InterpolatingParam id="5764" interp="linr"  time="-9999999/1" value="0" leadInLength="0/1"  />
           <InterpolatingParam id="5765" interp="linr"  time="-9999999/1" value="0" leadInLength="0/1"  />
           <InterpolatingParam id="5766" interp="linr"  time="-9999999/1" value="0" leadInLength="0/1"  />
          </VectorParam>
          <InterpolatingParam id="5767" interp="linr"  time="-9999999/1" value="1" leadInLength="0/1"  name="opacity"/>
          <InterpolatingParam id="5768" interp="linr"  time="0/1" value="1" leadInLength="0/1"  name="cursorOpacity"/>
          <InterpolatingParam id="5769" interp="linr"  time="0/1" value="1" leadInLength="0/1"  name="cursorScale"/>
          <InterpolatingParam id="5770" interp="linr"  time="0/1" value="1" leadInLength="0/1"  name="volume"/>
          <Parameter id="5771"  name="captions"/>
         </Parameters>
         <Effects>
          <GenericEffect id="5772" name = "CursorBaseEffectName" >
           <Parameters>
           <InterpolatingParam id="5773" interp="linr"  time="-9999999/1" value="1" leadInLength="0/1"   name="cursorSize"/>
           <InterpolatingParam id="5774" interp="linr"  time="-9999999/1" value="0" leadInLength="0/1"   name="highlightBlurRadius"/>
           <InterpolatingParam id="5775" interp="linr"  time="-9999999/1" value="0" leadInLength="0/1"   name="highlightColorBlue"/>
           <InterpolatingParam id="5776" interp="linr"  time="-9999999/1" value="255" leadInLength="0/1"   name="highlightColorGreen"/>
           <InterpolatingParam id="5777" interp="linr"  time="-9999999/1" value="255" leadInLength="0/1"   name="highlightColorRed"/>
           <InterpolatingParam id="5778" interp="linr"  time="-9999999/1" value="5" leadInLength="0/1"   name="highlightFeatherSize"/>
           <InterpolatingParam id="5779" interp="linr"  time="-9999999/1" value="2" leadInLength="0/1"   name="highlightMagnification"/>
           <InterpolatingParam id="5780" interp="linr"  time="-9999999/1" value="1" leadInLength="0/1"   name="highlightOpacity"/>
           <InterpolatingParam id="5781" interp="linr"  time="-9999999/1" value="45" leadInLength="0/1"   name="highlightSize"/>
           <Parameter id="5782"   name="highlightType">
            <Keyframes>
            <Keyframe id="5783"  time="-9999999/1" value="0" leadInLength="0/1"  />
            </Keyframes>
           </Parameter>
           <InterpolatingParam id="5784" interp="linr"  time="-9999999/1" value="0" leadInLength="0/1"   name="leftClickColorBlue"/>
           <InterpolatingParam id="5785" interp="linr"  time="-9999999/1" value="0" leadInLength="0/1"   name="leftClickColorGreen"/>
           <InterpolatingParam id="5786" interp="linr"  time="-9999999/1" value="255" leadInLength="0/1"   name="leftClickColorRed"/>
           <InterpolatingParam id="5787" interp="linr"  time="-9999999/1" value="0.80000000000000004" leadInLength="0/1"   name="leftClickDuration"/>
           <InterpolatingParam id="5788" interp="linr"  time="-9999999/1" value="20" leadInLength="0/1"   name="leftClickSize"/>
           <Parameter id="5789"   name="leftClickSoundFilename">
            <Keyframes>
            <Keyframe id="5790"  time="-9999999/1" value="" leadInLength="0/1"  />
            </Keyframes>
           </Parameter>
           <InterpolatingParam id="5791" interp="linr"  time="-9999999/1" value="1" leadInLength="0/1"   name="leftClickSoundVolume"/>
           <Parameter id="5792"   name="leftClickType">
            <Keyframes>
            <Keyframe id="5793"  time="-9999999/1" value="0" leadInLength="0/1"  />
            </Keyframes>
           </Parameter>
           <InterpolatingParam id="5794" interp="linr"  time="-9999999/1" value="1" leadInLength="0/1"   name="opacity"/>
           <InterpolatingParam id="5795" interp="linr"  time="-9999999/1" value="255" leadInLength="0/1"   name="rightClickColorBlue"/>
           <InterpolatingParam id="5796" interp="linr"  time="-9999999/1" value="0" leadInLength="0/1"   name="rightClickColorGreen"/>
           <InterpolatingParam id="5797" interp="linr"  time="-9999999/1" value="0" leadInLength="0/1"   name="rightClickColorRed"/>
           <InterpolatingParam id="5798" interp="linr"  time="-9999999/1" value="0.80000000000000004" leadInLength="0/1"   name="rightClickDuration"/>
           <InterpolatingParam id="5799" interp="linr"  time="-9999999/1" value="20" leadInLength="0/1"   name="rightClickSize"/>
           <Parameter id="5800"   name="rightClickSoundFilename">
            <Keyframes>
            <Keyframe id="5801"  time="-9999999/1" value="" leadInLength="0/1"  />
            </Keyframes>
           </Parameter>
           <InterpolatingParam id="5802" interp="linr"  time="-9999999/1" value="1" leadInLength="0/1"   name="rightClickSoundVolume"/>
           <Parameter id="5803"   name="rightClickType">
            <Keyframes>
            <Keyframe id="5804"  time="-9999999/1" value="0" leadInLength="0/1"  />
            </Keyframes>
           </Parameter>
           </Parameters>
           <MetaData>
            <entry key="effectIndex" val="0"/>
           </MetaData>
          </GenericEffect>
         </Effects>
         <Attributes>
          <Attribute id="5805" value="" name="ident"/>
          <Attribute id="5806" value="0" name="mixToMono"/>
         </Attributes>
         <MetaData>
          <entry key="AutoAppliedSmartFocus" val="False"/>
          <entry key="WinSubProjectDisplayName" val=""/>
         </MetaData>
         <ExtraData>
          <Entry key="ZoomPanBin">
           <ZoomPanBin id="5807"  >
            <ZoomPanKeyframes>
             <ZoomPanKeyframe id="5808" timeRangeEnd="-9999999/1" timeRangeDuration="0/1" interpolaterName=""  />
            </ZoomPanKeyframes>
           </ZoomPanBin>
          </Entry>
          <Entry key="CursorEffectBin">
           <CursorEffectBin id="5809"  >
            <CursorEffectKeyframes>
             <CursorEffectKeyframe id="5810" timeRangeEnd="-9999999/1" timeRangeDuration="0/1" interpolaterName=""  />
            </CursorEffectKeyframes>
           </CursorEffectBin>
          </Entry>
         </ExtraData>
         <GenericTrack id="5811"  >
          <Attributes>
           <Attribute id="5812" value="" name="ident"/>
           <Attribute id="5813" value="0" name="audioMuted"/>
           <Attribute id="5814" value="0" name="videoHidden"/>
          </Attributes>
          <MetaData>
           <entry key="IsLocked" val="False"/>
           <entry key="WinTrackHeight" val="0"/>
          </MetaData>
          <Medias>
           <UnifiedMedia id="5815"  >
            <AMFile id="5816" start="0" duration="309" scalar="1/1" mediaStart="0/1" mediaDuration="309/1" trackNumber="1" src="40" channelNumber="0,1" >
             <Parameters>
              <InterpolatingParam id="5817" interp="linr"  time="0/1" value="1" leadInLength="0/1"  name="volume"/>
              <Parameter id="5818"  name="captions"/>
             </Parameters>
             <Attributes>
              <Attribute id="5819" value="" name="ident"/>
              <Attribute id="5820" value="44100" name="sampleRate"/>
              <Attribute id="5821" value="16" name="bitDepth"/>
              <Attribute id="5822" value="1" name="gain"/>
              <Attribute id="5823" value="0" name="mixToMono"/>
             </Attributes>
            </AMFile>
            <ScreenVMFile id="5824" start="0" duration="309" scalar="1/1" mediaStart="0/1" mediaDuration="309/1" trackNumber="0" src="40" >
             <Transformer>
              <VectorParam id="5825"  name="translation">
               <InterpolatingParam id="5826" interp="linr"  time="-9999999/1" value="0" leadInLength="0/1"  />
               <InterpolatingParam id="5827" interp="linr"  time="-9999999/1" value="0" leadInLength="0/1"  />
               <InterpolatingParam id="5828" interp="linr"  time="-9999999/1" value="0" leadInLength="0/1"  />
              </VectorParam>
              <VectorParam id="5829"  name="rotation">
               <InterpolatingParam id="5830" interp="linr"  time="-9999999/1" value="0" leadInLength="0/1"  />
               <InterpolatingParam id="5831" interp="linr"  time="-9999999/1" value="0" leadInLength="0/1"  />
               <InterpolatingParam id="5832" interp="linr"  time="-9999999/1" value="0" leadInLength="0/1"  />
              </VectorParam>
              <VectorParam id="5833"  name="shear">
               <InterpolatingParam id="5834" interp="linr"  time="-9999999/1" value="0" leadInLength="0/1"  />
               <InterpolatingParam id="5835" interp="linr"  time="-9999999/1" value="0" leadInLength="0/1"  />
               <InterpolatingParam id="5836" interp="linr"  time="-9999999/1" value="0" leadInLength="0/1"  />
              </VectorParam>
              <VectorParam id="5837"  name="scale">
               <InterpolatingParam id="5838" interp="linr"  time="-9999999/1" value="1" leadInLength="0/1"  />
               <InterpolatingParam id="5839" interp="linr"  time="-9999999/1" value="1" leadInLength="0/1"  />
               <InterpolatingParam id="5840" interp="linr"  time="-9999999/1" value="1" leadInLength="0/1"  />
              </VectorParam>
              <VectorParam id="5841"  name="anchor">
               <InterpolatingParam id="5842" interp="linr"  time="0/1" value="0" leadInLength="0/1"  />
               <InterpolatingParam id="5843" interp="linr"  time="0/1" value="0" leadInLength="0/1"  />
               <InterpolatingParam id="5844" interp="linr"  time="0/1" value="0" leadInLength="0/1"  />
              </VectorParam>
             </Transformer>
             <Parameters>
              <VectorParam id="5845"  name="sourceCrop">
               <InterpolatingParam id="5846" interp="linr"  time="0/1" value="0" leadInLength="0/1"  />
               <InterpolatingParam id="5847" interp="linr"  time="0/1" value="0" leadInLength="0/1"  />
               <InterpolatingParam id="5848" interp="linr"  time="0/1" value="0" leadInLength="0/1"  />
               <InterpolatingParam id="5849" interp="linr"  time="0/1" value="0" leadInLength="0/1"  />
              </VectorParam>
              <VectorParam id="5850"  name="geometryCrop">
               <InterpolatingParam id="5851" interp="linr"  time="-9999999/1" value="0" leadInLength="0/1"  />
               <InterpolatingParam id="5852" interp="linr"  time="-9999999/1" value="0" leadInLength="0/1"  />
               <InterpolatingParam id="5853" interp="linr"  time="-9999999/1" value="0" leadInLength="0/1"  />
               <InterpolatingParam id="5854" interp="linr"  time="-9999999/1" value="0" leadInLength="0/1"  />
              </VectorParam>
              <InterpolatingParam id="5855" interp="linr"  time="-9999999/1" value="1" leadInLength="0/1"  name="opacity"/>
              <InterpolatingParam id="5856" interp="linr"  time="0/1" value="0" leadInLength="0/1"  name="cursorOpacity"/>
              <InterpolatingParam id="5857" interp="linr"  time="0/1" value="0" leadInLength="0/1"  name="cursorScale"/>
             </Parameters>
             <Attributes>
              <Attribute id="5858" value="" name="ident"/>
             </Attributes>
             <ExtraData>
              <Entry key="ZoomPanBin">
               <ZoomPanBin id="5859"  >
                <ZoomPanKeyframes>
                 <ZoomPanKeyframe id="5860" timeRangeEnd="-9999999/1" timeRangeDuration="0/1" interpolaterName=""  />
                </ZoomPanKeyframes>
               </ZoomPanBin>
              </Entry>
              <Entry key="CursorEffectBin">
               <CursorEffectBin id="5861"  >
                <CursorEffectKeyframes>
                </CursorEffectKeyframes>
               </CursorEffectBin>
              </Entry>
             </ExtraData>
            </ScreenVMFile>
            <MetaData>
             <entry key="AutoAppliedSmartFocus" val="False"/>
             <entry key="WinSubProjectDisplayName" val=""/>
            </MetaData>
           </UnifiedMedia>
           <UnifiedMedia id="5862"  >
            <AMFile id="5863" start="309" duration="2433" scalar="1/1" mediaStart="685/1" mediaDuration="2433/1" trackNumber="1" src="40" channelNumber="0,1" >
             <Parameters>
              <InterpolatingParam id="5864" interp="linr"  time="0/1" value="1" leadInLength="0/1"  name="volume"/>
              <Parameter id="5865"  name="captions"/>
             </Parameters>
             <Attributes>
              <Attribute id="5866" value="" name="ident"/>
              <Attribute id="5867" value="44100" name="sampleRate"/>
              <Attribute id="5868" value="16" name="bitDepth"/>
              <Attribute id="5869" value="1" name="gain"/>
              <Attribute id="5870" value="0" name="mixToMono"/>
             </Attributes>
            </AMFile>
            <ScreenVMFile id="5871" start="309" duration="2433" scalar="1/1" mediaStart="685/1" mediaDuration="2433/1" trackNumber="0" src="40" >
             <Transformer>
              <VectorParam id="5872"  name="translation">
               <InterpolatingParam id="5873" interp="linr"  time="-9999999/1" value="0" leadInLength="0/1"  />
               <InterpolatingParam id="5874" interp="linr"  time="-9999999/1" value="0" leadInLength="0/1"  />
               <InterpolatingParam id="5875" interp="linr"  time="-9999999/1" value="0" leadInLength="0/1"  />
              </VectorParam>
              <VectorParam id="5876"  name="rotation">
               <InterpolatingParam id="5877" interp="linr"  time="-9999999/1" value="0" leadInLength="0/1"  />
               <InterpolatingParam id="5878" interp="linr"  time="-9999999/1" value="0" leadInLength="0/1"  />
               <InterpolatingParam id="5879" interp="linr"  time="-9999999/1" value="0" leadInLength="0/1"  />
              </VectorParam>
              <VectorParam id="5880"  name="shear">
               <InterpolatingParam id="5881" interp="linr"  time="-9999999/1" value="0" leadInLength="0/1"  />
               <InterpolatingParam id="5882" interp="linr"  time="-9999999/1" value="0" leadInLength="0/1"  />
               <InterpolatingParam id="5883" interp="linr"  time="-9999999/1" value="0" leadInLength="0/1"  />
              </VectorParam>
              <VectorParam id="5884"  name="scale">
               <InterpolatingParam id="5885" interp="linr"  time="-9999999/1" value="1" leadInLength="0/1"  />
               <InterpolatingParam id="5886" interp="linr"  time="-9999999/1" value="1" leadInLength="0/1"  />
               <InterpolatingParam id="5887" interp="linr"  time="-9999999/1" value="1" leadInLength="0/1"  />
              </VectorParam>
              <VectorParam id="5888"  name="anchor">
               <InterpolatingParam id="5889" interp="linr"  time="0/1" value="0" leadInLength="0/1"  />
               <InterpolatingParam id="5890" interp="linr"  time="0/1" value="0" leadInLength="0/1"  />
               <InterpolatingParam id="5891" interp="linr"  time="0/1" value="0" leadInLength="0/1"  />
              </VectorParam>
             </Transformer>
             <Parameters>
              <VectorParam id="5892"  name="sourceCrop">
               <InterpolatingParam id="5893" interp="linr"  time="0/1" value="0" leadInLength="0/1"  />
               <InterpolatingParam id="5894" interp="linr"  time="0/1" value="0" leadInLength="0/1"  />
               <InterpolatingParam id="5895" interp="linr"  time="0/1" value="0" leadInLength="0/1"  />
               <InterpolatingParam id="5896" interp="linr"  time="0/1" value="0" leadInLength="0/1"  />
              </VectorParam>
              <VectorParam id="5897"  name="geometryCrop">
               <InterpolatingParam id="5898" interp="linr"  time="-9999999/1" value="0" leadInLength="0/1"  />
               <InterpolatingParam id="5899" interp="linr"  time="-9999999/1" value="0" leadInLength="0/1"  />
               <InterpolatingParam id="5900" interp="linr"  time="-9999999/1" value="0" leadInLength="0/1"  />
               <InterpolatingParam id="5901" interp="linr"  time="-9999999/1" value="0" leadInLength="0/1"  />
              </VectorParam>
              <InterpolatingParam id="5902" interp="linr"  time="-9999999/1" value="1" leadInLength="0/1"  name="opacity"/>
              <InterpolatingParam id="5903" interp="linr"  time="0/1" value="0" leadInLength="0/1"  name="cursorOpacity"/>
              <InterpolatingParam id="5904" interp="linr"  time="0/1" value="0" leadInLength="0/1"  name="cursorScale"/>
             </Parameters>
             <Attributes>
              <Attribute id="5905" value="" name="ident"/>
             </Attributes>
             <ExtraData>
              <Entry key="ZoomPanBin">
               <ZoomPanBin id="5906"  >
                <ZoomPanKeyframes>
                 <ZoomPanKeyframe id="5907" timeRangeEnd="-9999999/1" timeRangeDuration="0/1" interpolaterName=""  />
                </ZoomPanKeyframes>
               </ZoomPanBin>
              </Entry>
              <Entry key="CursorEffectBin">
               <CursorEffectBin id="5908"  >
                <CursorEffectKeyframes>
                </CursorEffectKeyframes>
               </CursorEffectBin>
              </Entry>
             </ExtraData>
            </ScreenVMFile>
            <MetaData>
             <entry key="AutoAppliedSmartFocus" val="False"/>
             <entry key="WinSubProjectDisplayName" val=""/>
            </MetaData>
           </UnifiedMedia>
          </Medias>
         </GenericTrack>
        </StitchedMedia>
       </Medias>
      </GenericTrack>
      <GenericTrack id="5909"  >
       <Attributes>
        <Attribute id="5910" value="" name="ident"/>
        <Attribute id="5911" value="0" name="audioMuted"/>
        <Attribute id="5912" value="0" name="videoHidden"/>
       </Attributes>
       <MetaData>
        <entry key="IsLocked" val="False"/>
        <entry key="WinTrackHeight" val="62"/>
       </MetaData>
       <Medias>
       </Medias>
      </GenericTrack>
      <GenericTrack id="5913"  >
       <Attributes>
        <Attribute id="5914" value="" name="ident"/>
        <Attribute id="5915" value="0" name="audioMuted"/>
        <Attribute id="5916" value="0" name="videoHidden"/>
       </Attributes>
       <MetaData>
        <entry key="IsLocked" val="False"/>
        <entry key="WinTrackHeight" val="62"/>
       </MetaData>
       <Medias>
       </Medias>
      </GenericTrack>
      <GenericTrack id="5917"  >
       <Attributes>
        <Attribute id="5918" value="" name="ident"/>
        <Attribute id="5919" value="0" name="audioMuted"/>
        <Attribute id="5920" value="0" name="videoHidden"/>
       </Attributes>
       <MetaData>
        <entry key="IsLocked" val="False"/>
        <entry key="WinTrackHeight" val="62"/>
       </MetaData>
       <Medias>
       </Medias>
      </GenericTrack>
     </Tracks>
    </GenericMixer>
   <CaptionAttributes id="5921"  >
    <Attribute id="5922" value="1" name="captionsEnabled"/>
    <Attribute id="5923" value="Arial" name="captionsFontName"/>
    <Attribute id="5924" value="28" name="captionsFontSize"/>
    <Attribute id="5925" value="(0,0,0,255)" name="captionsBackgroundColor"/>
    <Attribute id="5926" value="(255,255,255,255)" name="captionsForegroundColor"/>
    <Attribute id="5927" value="en" name="lang"/>
    <Attribute id="5928" value="0" name="captionsAlignment"/>
    <Attribute id="5929" value="1" name="captionsDefaultFontSize"/>
    <Attribute id="5930" value="0.5" name="captionsOpacity"/>
    <Attribute id="5931" value="1" name="captionsBackgroundEnabled"/>
    <Attribute id="5932" value="1" name="captionsBackgroundOnlyAroundText"/>
   </CaptionAttributes>
   <Parameters>
    <VectorParam id="5933"  name="eyePosition">
     <InterpolatingParam id="5934" interp="linr"  time="0/1" value="0" leadInLength="0/1"  />
     <InterpolatingParam id="5935" interp="linr"  time="0/1" value="0" leadInLength="0/1"  />
     <InterpolatingParam id="5936" interp="linr"  time="0/1" value="3000" leadInLength="0/1"  />
    </VectorParam>
    <VectorParam id="5937"  name="eyeLookAtPosition">
     <InterpolatingParam id="5938" interp="linr"  time="0/1" value="0" leadInLength="0/1"  />
     <InterpolatingParam id="5939" interp="linr"  time="0/1" value="0" leadInLength="0/1"  />
     <InterpolatingParam id="5940" interp="linr"  time="0/1" value="0" leadInLength="0/1"  />
    </VectorParam>
    <VectorParam id="5941"  name="eyeUpVector">
     <InterpolatingParam id="5942" interp="linr"  time="0/1" value="0" leadInLength="0/1"  />
     <InterpolatingParam id="5943" interp="linr"  time="0/1" value="1" leadInLength="0/1"  />
     <InterpolatingParam id="5944" interp="linr"  time="0/1" value="0" leadInLength="0/1"  />
    </VectorParam>
    <InterpolatingParam id="5945" interp="linr"  time="0/1" value="0.23885785" leadInLength="0/1"  name="fov"/>
    <InterpolatingParam id="5946" interp="linr"  time="0/1" value="1.5" leadInLength="0/1"  name="nearClipDistance"/>
    <InterpolatingParam id="5947" interp="linr"  time="0/1" value="6000" leadInLength="0/1"  name="farClipDistance"/>
   </Parameters>
  </Timeline>
 </Project>
</GoProject>
</CSMLData>

</Project_Data>
